<?xml version="1.0" encoding="UTF-8" standalone="no"?>
<!-- Created with Inkscape (http://www.inkscape.org/) -->
<svg
   xmlns:dc="http://purl.org/dc/elements/1.1/"
   xmlns:cc="http://creativecommons.org/ns#"
   xmlns:rdf="http://www.w3.org/1999/02/22-rdf-syntax-ns#"
   xmlns:svg="http://www.w3.org/2000/svg"
   xmlns="http://www.w3.org/2000/svg"
   xmlns:xlink="http://www.w3.org/1999/xlink"
   xmlns:sodipodi="http://sodipodi.sourceforge.net/DTD/sodipodi-0.dtd"
   xmlns:inkscape="http://www.inkscape.org/namespaces/inkscape"
   height="128.00000pt"
   id="svg1"
   inkscape:version="0.46"
   sodipodi:docbase="/home/andy/Desktop/etiquette-icons-0.3/scalable/mimetypes"
   sodipodi:docname="gnome-mime-text-html.svg"
   sodipodi:version="0.32"
   width="128.00000pt"
   inkscape:output_extension="org.inkscape.output.svg.inkscape"
   inkscape:export-filename="C:\Documents and Settings\All Users\Documents\Ubuntu Brig\Andy Fitzsimon\gnome-mime-text-html.png"
   inkscape:export-xdpi="90"
   inkscape:export-ydpi="90">
  <metadata
     id="metadata3">
    <rdf:RDF>
      <cc:Work
         rdf:about="">
        <dc:title>Etiquette Icons</dc:title>
        <dc:description />
        <dc:subject>
          <rdf:Bag>
            <rdf:li>hash</rdf:li>
            <rdf:li />
            <rdf:li>mime-types</rdf:li>
            <rdf:li>computer</rdf:li>
            <rdf:li>icons</rdf:li>
          </rdf:Bag>
        </dc:subject>
        <dc:publisher>
          <cc:Agent
             rdf:about="http://www.openclipart.org">
            <dc:title>Andy Fitzsimon</dc:title>
          </cc:Agent>
        </dc:publisher>
        <dc:creator>
          <cc:Agent>
            <dc:title>Andy Fitzsimon</dc:title>
          </cc:Agent>
        </dc:creator>
        <dc:rights>
          <cc:Agent>
            <dc:title>Andy Fitzsimon</dc:title>
          </cc:Agent>
        </dc:rights>
        <dc:date />
        <dc:format>image/svg+xml</dc:format>
        <dc:type
           rdf:resource="http://purl.org/dc/dcmitype/StillImage" />
        <cc:license
           rdf:resource="http://web.resource.org/cc/PublicDomain" />
        <dc:language>en</dc:language>
      </cc:Work>
      <cc:License
         rdf:about="http://web.resource.org/cc/PublicDomain">
        <cc:permits
           rdf:resource="http://web.resource.org/cc/Reproduction" />
        <cc:permits
           rdf:resource="http://web.resource.org/cc/Distribution" />
        <cc:permits
           rdf:resource="http://web.resource.org/cc/DerivativeWorks" />
      </cc:License>
    </rdf:RDF>
  </metadata>
  <defs
     id="defs3">
    <inkscape:perspective
       sodipodi:type="inkscape:persp3d"
       inkscape:vp_x="0 : 80 : 1"
       inkscape:vp_y="0 : 1000 : 0"
       inkscape:vp_z="160 : 80 : 1"
       inkscape:persp3d-origin="80 : 53.333333 : 1"
       id="perspective95" />
    <linearGradient
       id="linearGradient1501">
      <stop
         id="stop1502"
         offset="0.0000000"
         style="stop-color:#ffffff;stop-opacity:1.0000000;" />
      <stop
         id="stop1504"
         offset="1.0000000"
         style="stop-color:#ffffff;stop-opacity:0.0000000;" />
    </linearGradient>
    <linearGradient
       id="linearGradient1400">
      <stop
         id="stop1401"
         offset="0.0000000"
         style="stop-color:#000000;stop-opacity:0.67843139;" />
      <stop
         id="stop1403"
         offset="0.56999999"
         style="stop-color:#000000;stop-opacity:0.32941177;" />
      <stop
         id="stop1402"
         offset="1.0000000"
         style="stop-color:#000000;stop-opacity:0.00000000;" />
    </linearGradient>
    <linearGradient
       id="linearGradient865">
      <stop
         id="stop866"
         offset="0.00000000"
         style="stop-color:#ffffff;stop-opacity:1.0000000;" />
      <stop
         id="stop868"
         offset="1.0000000"
         style="stop-color:#ffffff;stop-opacity:0.00000000;" />
    </linearGradient>
    <linearGradient
       id="linearGradient1646">
      <stop
         id="stop1647"
         offset="0.0000000"
         style="stop-color:#ff0000;stop-opacity:1.0000000;" />
      <stop
         id="stop1649"
         offset="0.69372094"
         style="stop-color:#a00000;stop-opacity:0.71372551;" />
      <stop
         id="stop1648"
         offset="1.0000000"
         style="stop-color:#960000;stop-opacity:0.0000000;" />
    </linearGradient>
    <radialGradient
       cx="0.50000000"
       cy="0.50000000"
       fx="0.38759691"
       fy="0.67187500"
       id="radialGradient1645"
       r="0.50000000"
       xlink:href="#linearGradient1646" />
    <linearGradient
       id="linearGradient1527">
      <stop
         id="stop1528"
         offset="0"
         style="stop-color:#000;stop-opacity:1;" />
      <stop
         id="stop1529"
         offset="1"
         style="stop-color:#fff;stop-opacity:1;" />
    </linearGradient>
    <linearGradient
       id="linearGradient1530"
       x1="0.40784314"
       x2="0.52549022"
       xlink:href="#linearGradient1501"
       y1="-0.23214285"
       y2="0.89814812" />
    <linearGradient
       id="linearGradient899">
      <stop
         id="stop900"
         offset="0.0000000"
         style="stop-color:#ffffff;stop-opacity:0.0000000;" />
      <stop
         id="stop901"
         offset="1.0000000"
         style="stop-color:#ffffff;stop-opacity:1.0000000;" />
    </linearGradient>
    <linearGradient
       id="linearGradient848"
       x1="0.32825556"
       x2="0.33669540"
       xlink:href="#linearGradient899"
       y1="0.16153494"
       y2="1.3926498" />
    <linearGradient
       id="linearGradient883">
      <stop
         id="stop884"
         offset="0.0000000"
         style="stop-color:#1f1f1f;stop-opacity:0.55371898;" />
      <stop
         id="stop885"
         offset="1.0000000"
         style="stop-color:#000000;stop-opacity:0.0000000;" />
    </linearGradient>
    <linearGradient
       id="linearGradient850"
       x1="1.8869566"
       x2="0.70434785"
       xlink:href="#linearGradient883"
       y1="0.34090909"
       y2="0.41287878" />
    <linearGradient
       id="linearGradient839">
      <stop
         id="stop840"
         offset="0.0000000"
         style="stop-color:#4f4f4f;stop-opacity:1.0000000;" />
      <stop
         id="stop843"
         offset="0.27444443"
         style="stop-color:#bebebe;stop-opacity:1.0000000;" />
      <stop
         id="stop841"
         offset="1"
         style="stop-color:#fff;stop-opacity:1;" />
    </linearGradient>
    <linearGradient
       id="linearGradient849"
       x1="0.93772894"
       x2="0.35897437"
       xlink:href="#linearGradient839"
       y1="0.83121020"
       y2="0.092356689" />
    <linearGradient
       id="linearGradient842"
       x1="0.98876405"
       x2="0.52808988"
       xlink:href="#linearGradient1400"
       y1="4.0156250"
       y2="-0.070312500" />
    <linearGradient
       gradientTransform="scale(1.001713,0.998290)"
       id="linearGradient860"
       x1="0.99722022"
       x2="0.52828526"
       xlink:href="#linearGradient1400"
       y1="4.0796266"
       y2="-0.079579733" />
    <linearGradient
       gradientTransform="scale(1.003764,0.996250)"
       id="linearGradient882"
       x1="1.0056623"
       x2="0.52750582"
       xlink:href="#linearGradient1400"
       y1="4.1504908"
       y2="-0.090505704" />
    <linearGradient
       id="linearGradient1011"
       x1="0.76363635"
       x2="0.52121210"
       xlink:href="#linearGradient865"
       y1="2.0078125"
       y2="0.42968750" />
    <linearGradient
       id="linearGradient1010"
       x1="0.42241380"
       x2="0.37790698"
       xlink:href="#linearGradient865"
       y1="-0.35119733"
       y2="0.58955216" />
    <linearGradient
       id="linearGradient864"
       x1="0.72887325"
       x2="0.35915494"
       xlink:href="#linearGradient865"
       y1="-0.060344826"
       y2="0.27586207" />
    <linearGradient
       id="linearGradient870"
       x1="1.6462585"
       x2="0.48979592"
       xlink:href="#linearGradient865"
       y1="1.6640625"
       y2="0.54687500" />
    <linearGradient
       id="linearGradient853">
      <stop
         id="stop854"
         offset="0.0000000"
         style="stop-color:#e3f9ff;stop-opacity:1.0000000;" />
      <stop
         id="stop867"
         offset="0.36194703"
         style="stop-color:#73bee7;stop-opacity:1.0000000;" />
      <stop
         id="stop856"
         offset="0.62534887"
         style="stop-color:#438ec5;stop-opacity:1.0000000;" />
      <stop
         id="stop1185"
         offset="0.72607356"
         style="stop-color:#477daf;stop-opacity:1.0000000;" />
      <stop
         id="stop855"
         offset="1.0000000"
         style="stop-color:#2b5798;stop-opacity:1.0000000;" />
    </linearGradient>
    <radialGradient
       cx="0.50704223"
       cy="0.57042253"
       fx="0.54577458"
       fy="0.13028193"
       id="radialGradient852"
       r="0.58099657"
       xlink:href="#linearGradient853" />
    <radialGradient
       cx="0.50000000"
       cy="0.50000000"
       fx="0.50000000"
       fy="0.50000000"
       id="radialGradient858"
       r="0.50000000"
       xlink:href="#linearGradient1400" />
    <linearGradient
       id="linearGradient1507">
      <stop
         id="stop1508"
         offset="0.0000000"
         style="stop-color:#000000;stop-opacity:0.095505618;" />
      <stop
         id="stop1510"
         offset="1.0000000"
         style="stop-color:#000000;stop-opacity:0.0000000;" />
    </linearGradient>
    <linearGradient
       id="linearGradient1492">
      <stop
         id="stop1493"
         offset="0.0000000"
         style="stop-color:#c6c6c6;stop-opacity:1.0000000;" />
      <stop
         id="stop1496"
         offset="0.34923077"
         style="stop-color:#f1f1f1;stop-opacity:1.0000000;" />
      <stop
         id="stop1494"
         offset="1.0000000"
         style="stop-color:#f0f0f0;stop-opacity:1.0000000;" />
    </linearGradient>
    <linearGradient
       id="linearGradient1495"
       x1="0.88034189"
       x2="0.085470088"
       xlink:href="#linearGradient1492"
       y1="0.21093750"
       y2="1.1796875" />
    <linearGradient
       id="linearGradient1497"
       x1="0.63247865"
       x2="-0.37606838"
       xlink:href="#linearGradient1492"
       y1="0.32812500"
       y2="1.3281250" />
    <linearGradient
       id="linearGradient1499"
       x1="0.94656491"
       x2="0.062992126"
       xlink:href="#linearGradient1501"
       y1="-0.54545456"
       y2="0.54687500" />
    <linearGradient
       id="linearGradient1506"
       x1="0.052173913"
       x2="0.78260869"
       xlink:href="#linearGradient1507"
       y1="0.97656250"
       y2="0.0078125000" />
    <linearGradient
       id="linearGradient1556"
       xlink:href="#linearGradient1507" />
  </defs>
  <sodipodi:namedview
     bordercolor="#666666"
     borderopacity="1.0"
     id="base"
     inkscape:cx="77.936944"
     inkscape:cy="41.173161"
     inkscape:pageopacity="0.0"
     inkscape:pageshadow="2"
     inkscape:window-height="667"
     inkscape:window-width="573"
     inkscape:window-x="44"
     inkscape:window-y="58"
     inkscape:zoom="1.3375976"
     pagecolor="#ffffff"
     showgrid="false"
     inkscape:current-layer="svg1" />
  <path
     d="M 17.159384,6.3292894 L 17.159384,43.068526 L 17.159384,79.807768 L 17.159384,116.54700 L 17.159384,153.28624 L 50.687024,153.28624 L 84.214664,153.28624 L 117.74230,153.28624 L 151.26994,153.28624 L 151.26994,116.54700 L 151.26994,79.807768 L 151.26994,43.068526 L 117.74230,6.3292894 L 84.214664,6.3292894 L 50.687024,6.3292894 L 17.159384,6.3292894 z "
     id="path930"
     sodipodi:nodetypes="cccccccccccccccc"
     style="fill:#ffffff;fill-rule:evenodd;stroke-width:0.42649043;stroke-opacity:0.36477986;" />
  <g
     id="g1552"
     style="fill:url(#linearGradient1506);"
     transform="matrix(0.304171,0.000000,0.000000,0.297572,-36.70399,-112.4880)">
    <path
       d="M 173.35959,408.81260 L 173.35959,531.07360 L 173.35959,653.33460 L 173.35959,775.59560 L 173.35959,897.85660 L 282.12187,897.85660 L 390.88417,897.85660 L 499.64646,897.85660 L 608.40874,897.85660 L 608.40874,775.59560 L 608.40874,653.33460 L 608.40874,531.07360 L 499.64646,408.81260 L 390.88417,408.81260 L 282.12187,408.81260 L 173.35959,408.81260 z "
       id="path1505"
       sodipodi:nodetypes="cccccccccccccccc"
       style="fill-opacity:0.75000000;fill-rule:evenodd;stroke-width:0.95407495pt;" />
    <path
       d="M 170.12500,407.18750 C 170.12500,571.82292 170.12500,736.45833 170.12500,901.09375 C 317.30208,901.09375 464.47917,901.09375 611.65625,901.09375 C 611.65625,777.33333 611.65625,653.57292 611.65625,529.81250 C 574.80918,488.38978 537.97604,446.95335 501.09375,405.56250 C 390.77083,405.56250 280.44792,405.56250 170.12500,405.56250 C 170.12500,405.89583 170.12500,406.97917 170.12500,407.18750 z "
       id="path1538"
       style="fill-opacity:0.75000000;fill-rule:evenodd;stroke-width:0.95407495pt;" />
    <path
       d="M 166.87500,403.93750 C 166.87500,570.73958 166.87500,737.54167 166.87500,904.34375 C 316.21875,904.34375 465.56250,904.34375 614.90625,904.34375 C 614.90625,779.08333 614.90625,653.82292 614.90625,528.56250 C 577.45517,486.47298 540.01754,444.37017 502.53125,402.31250 C 390.64583,402.31250 278.76042,402.31250 166.87500,402.31250 C 166.87500,402.64583 166.87500,403.72917 166.87500,403.93750 z "
       id="path1543"
       style="fill-opacity:0.75000000;fill-rule:evenodd;stroke-width:0.95407495pt;" />
  </g>
  <path
     d="M 297.99034,136.74154 L 297.99034,260.57234 L 297.99034,384.40315 L 297.99034,508.23395 L 297.99034,632.06475 L 410.99634,632.06475 L 524.00235,632.06475 L 637.00835,632.06475 L 750.01435,632.06475 L 750.01435,508.23395 L 750.01435,384.40315 L 750.01435,260.57234 L 637.00835,136.74154 L 524.00235,136.74154 L 410.99634,136.74154 L 297.99034,136.74154 z "
     id="rect900"
     sodipodi:nodetypes="cccccccccccccccc"
     style="fill:url(#linearGradient1495);fill-opacity:1;fill-rule:evenodd;stroke:#000000;stroke-width:1.4375000;stroke-opacity:0.36477986;"
     transform="matrix(0.296689,0.000000,0.000000,0.296689,-71.19601,-34.05825)" />
  <path
     d="M 301.30655,174.90867 L 299.27069,628.90434 L 743.08709,628.90434 L 745.44815,558.80949 C 735.52335,562.62672 698.45498,420.62583 534.31348,422.52022 C 372.27856,424.41462 413.27857,193.23136 301.30655,174.90867 z "
     id="path1500"
     sodipodi:nodetypes="cccczc"
     style="fill:url(#linearGradient1499);fill-opacity:1;fill-rule:evenodd;stroke-width:1.0000000pt;"
     transform="matrix(0.296689,0.000000,0.000000,0.296689,-71.19601,-34.05825)" />
  <g
     id="g1251"
     transform="translate(-43.61742,149.8163)">
    <path
       d="M 148.27539 77.944687 A 68.379425 68.379425 0 1 0 11.516541,77.944687 A 68.379425 68.379425 0 1 0 148.27539 77.944687 z"
       id="path1399"
       sodipodi:cx="79.895966"
       sodipodi:cy="77.944687"
       sodipodi:rx="68.379425"
       sodipodi:ry="68.379425"
       sodipodi:type="arc"
       style="fill:url(#radialGradient858);fill-opacity:1;fill-rule:evenodd;stroke-width:1.0000000pt;"
       transform="matrix(0.839313,0.000000,0.000000,0.818566,61.80524,-129.9356)" />
    <path
       d="M 397.32047 453.50235 A 172.74803 172.74803 0 1 0 51.824402,453.50235 A 172.74803 172.74803 0 1 0 397.32047 453.50235 z"
       id="path825"
       sodipodi:cx="224.57243"
       sodipodi:cy="453.50235"
       sodipodi:rx="172.74803"
       sodipodi:ry="172.74803"
       sodipodi:type="arc"
       style="fill:url(#radialGradient852);fill-opacity:1;fill-rule:evenodd;stroke-width:1.0000000pt;"
       transform="matrix(0.282316,0.000000,0.000000,0.282316,67.47150,-204.3422)" />
    <path
       d="M 90.987660,117.03581 C 83.328656,116.14558 83.252483,103.18341 90.861865,102.13406 C 95.642797,104.82427 100.08379,93.472250 102.52304,98.001425 C 100.50818,106.58210 111.45498,104.63849 113.54567,98.047756 C 116.65429,92.729429 115.09675,102.64178 116.28883,104.75099 C 119.07104,111.58379 110.45885,121.13187 104.10927,115.35456 C 99.568518,111.32020 95.402177,115.60920 90.987660,117.03581 z M 107.00933,121.75473 C 107.77708,124.72183 109.33875,124.98857 110.35809,121.86045 C 111.37744,118.89716 107.54774,119.44698 107.00933,121.75473 L 107.00933,121.75473 z M 49.026526,49.898019 C 42.699431,56.167346 40.829081,65.217142 38.725206,73.532547 C 40.287912,79.400936 45.002744,85.379243 39.572354,90.739656 C 36.100596,98.284355 24.925929,93.537222 27.710467,85.864266 C 27.569406,76.774856 26.456535,67.147991 30.824503,58.780133 C 33.217139,53.459489 37.745631,47.054976 44.285090,47.663886 C 46.010877,48.047458 47.542344,48.977769 49.026526,49.898019 z M 63.013569,70.878579 C 62.564699,63.585781 70.529731,64.209955 68.733453,55.497672 C 68.427447,48.105074 53.001131,51.788244 57.519465,42.969966 C 61.725227,36.379187 61.223702,32.996192 71.752149,31.295418 C 82.280600,29.128411 93.544663,26.594290 111.25358,39.655553 C 128.49626,52.716820 96.912824,42.359213 93.125585,47.152489 C 87.044078,52.275154 89.785400,63.488265 82.691714,65.841017 C 76.560979,69.770768 77.048864,77.896163 76.025222,84.264163 C 77.245141,89.482670 93.393279,85.777467 85.842424,92.936879 C 78.164516,94.884994 73.017525,87.154879 67.679003,83.077400 C 64.974657,80.520251 63.462436,77.705144 63.013569,70.878579 z M 116.16433,60.155184 C 122.68484,59.737374 125.36036,67.218846 124.78618,72.648318 C 121.23345,78.571673 129.05310,84.088540 132.91799,78.002064 C 137.08453,70.641878 130.28791,61.431784 123.92435,57.533739 C 121.11026,55.040931 115.56670,55.381138 116.16433,60.155184 z M 51.823934,122.63065 C 60.014934,122.50696 68.282342,120.64731 76.423032,122.35821 C 79.598815,126.62592 88.553799,129.60995 88.673374,134.07166 C 82.351123,138.49216 74.140896,134.34045 67.538321,132.62732 C 62.296208,131.03800 54.846465,132.14073 52.137773,126.24725 C 51.756136,125.09269 51.557774,123.83695 51.823934,122.63065 z "
       id="path846"
       sodipodi:nodetypes="ccczcccczzzcccccccccczzccccczccccccccccc"
       style="fill:#0e7a0c;fill-opacity:0.59375000;fill-rule:evenodd;stroke-width:1.0000000pt;"
       transform="matrix(0.839313,0.000000,0.000000,0.839313,63.11393,-144.1874)" />
    <path
       d="M 108.72647,127.55721 C 86.037232,154.80402 10.566002,127.20663 28.054696,73.222512 C 42.852029,54.431607 73.969379,68.122850 108.72647,127.55721 z "
       id="path869"
       sodipodi:nodetypes="ccc"
       style="fill:url(#linearGradient870);fill-opacity:1;fill-rule:evenodd;stroke-width:1.0000000pt;"
       transform="matrix(0.839313,0.000000,0.000000,0.839313,63.11393,-144.1874)" />
    <path
       d="M 66.012956,31.409303 C 91.447606,15.908323 143.19392,38.838783 135.60664,82.029373 C 125.33475,95.725223 106.73377,25.695983 66.012956,31.409303 z "
       id="path863"
       sodipodi:nodetypes="ccc"
       style="fill:url(#linearGradient864);fill-opacity:1;fill-rule:evenodd;stroke-width:1.0000000pt;"
       transform="matrix(0.839313,0.000000,0.000000,0.839313,63.11393,-144.1874)" />
    <path
       d="M 100.76968 31.158760 A 49.665058 49.665058 0 1 0 1.4395676,31.158760 A 49.665058 49.665058 0 1 0 100.76968 31.158760 z"
       id="path868"
       sodipodi:cx="51.104626"
       sodipodi:cy="31.158760"
       sodipodi:rx="49.665058"
       sodipodi:ry="49.665058"
       sodipodi:type="arc"
       style="fill:url(#linearGradient1010);fill-opacity:1;fill-rule:evenodd;stroke-width:1.0000000pt;"
       transform="matrix(0.705510,0.000000,0.000000,0.474394,95.62715,-115.1508)" />
    <g
       id="g1705"
       transform="matrix(1.000000,0.000000,0.000000,0.889816,229.7498,-225.2046)">
      <path
         d="M -125.94565,117.93048 L -127.07065,117.99298 C -127.07065,117.99298 -126.68546,122.08776 -123.10190,127.49298 C -119.51833,132.89821 -115.75432,137.60978 -100.25815,142.61798 L -99.445648,141.68048 C -111.63381,137.84347 -119.01185,131.82749 -122.32065,126.83673 C -125.62945,121.84597 -125.94565,117.93048 -125.94565,117.93048 z M -80.351898,128.93048 C -84.203256,128.98851 -87.757024,130.37769 -90.945648,132.64923 C -95.197148,135.67795 -98.815378,140.25058 -101.88315,145.52423 C -104.67418,150.32214 -106.98431,155.74455 -108.91440,161.11798 C -114.26646,159.34121 -119.65087,158.45584 -123.03940,159.46173 C -130.42116,161.78720 -142.19615,199.32396 -145.35190,205.86798 C -146.44014,208.47497 -146.55636,212.13392 -145.82065,215.77423 C -144.87225,221.42112 -141.76415,227.16810 -136.53940,228.96173 C -127.58294,232.66783 -115.17787,228.16922 -111.22690,221.27423 C -107.32648,214.05829 -90.366758,179.77609 -92.008148,173.02423 C -92.041438,172.91053 -92.183048,172.79520 -92.226898,172.68048 C -92.242468,172.57801 -92.173208,172.36655 -92.195648,172.27423 C -93.255018,168.65652 -99.740198,164.54864 -106.78940,161.86798 C -105.10237,156.36907 -103.02320,150.87510 -100.38315,146.33673 C -97.420108,141.24312 -94.057038,136.30630 -90.195648,133.55548 C -83.807065,127.93285 -71.523783,130.18517 -74.195648,129.68048 C -75.540025,129.39022 -79.068122,128.91115 -80.351898,128.93048 z M -71.664398,132.99298 C -71.810178,132.99825 -71.798284,133.07925 -71.539398,133.24298 C -70.503868,133.89792 -70.186848,134.46411 -70.133148,134.99298 C -70.079457,135.52185 -70.322618,136.22336 -71.008148,137.05548 C -71.693677,137.88762 -72.801535,138.80597 -74.195648,139.64923 C -79.772109,143.02232 -90.497808,145.02030 -97.320648,142.46173 L -97.883148,143.36798 C -90.002298,146.32330 -79.674890,144.52325 -73.476898,140.77423 C -71.927397,139.83697 -69.006718,137.38194 -69.258148,135.11798 C -69.446728,133.67847 -71.227076,132.97717 -71.664398,132.99298 z "
         id="path1092"
         style="fill:url(#linearGradient882);fill-opacity:1;fill-rule:evenodd;stroke-width:7.1250000;" />
      <path
         d="M -127.21875,117.00000 C -129.15592,118.78508 -126.84980,121.88279 -126.11251,123.96902 C -122.26486,132.75628 -114.14186,138.96617 -105.11961,141.77057 C -100.16536,142.23771 -102.32048,145.24134 -104.21339,148.15143 C -106.51032,151.82554 -107.78797,155.98995 -109.53125,159.93750 C -114.68482,158.96465 -120.96969,156.23082 -125.59375,160.03125 C -133.47738,169.84302 -136.88494,182.19765 -141.74638,193.62655 C -144.10767,200.56599 -148.33755,207.57783 -146.83721,215.12837 C -145.93518,221.97498 -141.71465,229.25857 -134.40766,230.58344 C -123.92068,233.18813 -111.61179,227.64425 -108.04955,217.09323 C -101.55989,203.67644 -94.622240,190.24614 -91.031250,175.71875 C -90.261177,170.49492 -94.733719,167.06565 -98.728011,164.74796 C -100.45889,162.81975 -105.38224,162.81756 -105.16975,160.35194 C -103.13280,154.85620 -101.23684,149.22397 -97.750000,144.43750 C -89.277214,146.82903 -79.832160,145.68297 -72.302459,141.13616 C -69.488768,139.53294 -66.535521,134.96721 -70.000000,132.56250 C -73.751270,130.31946 -72.523561,133.29167 -71.593750,135.75000 C -76.820340,141.64082 -85.522665,142.80121 -92.978285,142.22130 C -97.980525,142.69969 -94.501029,139.20926 -92.656350,137.26802 C -88.429954,132.24658 -81.783724,130.51015 -75.437500,130.68750 C -71.134279,130.95021 -74.388581,127.40032 -77.110076,128.24865 C -85.937403,126.94432 -94.263195,132.44779 -98.931919,139.62072 C -100.87687,141.46478 -104.26248,137.94759 -106.78125,137.65625 C -114.95246,133.65320 -123.20482,127.35341 -124.87500,117.84375 C -125.41337,116.93342 -126.24299,116.71414 -127.21875,117.00000 z "
         id="path1697"
         style="fill:url(#linearGradient860);fill-opacity:1;fill-rule:evenodd;stroke-width:7.1250000;" />
      <path
         d="M -126.00000,115.96875 C -130.11835,116.00758 -128.98772,121.31818 -127.31315,123.56962 C -123.46561,132.49426 -115.55469,139.11349 -106.50307,142.35213 C -102.72268,142.76539 -103.37028,145.66975 -105.20748,147.98551 C -107.08571,151.15513 -108.47724,154.49195 -109.78125,157.90625 C -112.29834,159.33639 -115.43435,156.99742 -118.27483,157.24199 C -122.34037,156.71612 -126.82264,158.43463 -128.38763,162.51364 C -136.72665,174.90330 -140.72950,189.51667 -146.50000,203.15625 C -148.81425,210.46095 -148.44356,219.06102 -143.70381,225.30925 C -139.20782,232.04311 -129.93185,233.29854 -122.61680,231.28435 C -114.88091,229.32852 -108.76876,223.17310 -106.25382,215.66808 C -100.15545,202.31647 -92.946064,189.10972 -90.099062,174.64439 C -90.201238,168.52524 -96.214940,164.77569 -101.07580,162.29276 C -104.54289,161.85464 -103.89315,158.34677 -102.46007,156.20433 C -101.16418,152.43139 -99.323681,148.94174 -97.218750,145.56250 C -88.849119,147.39011 -79.786274,146.48629 -72.320990,142.14334 C -68.662850,140.70661 -65.666091,134.96162 -69.175339,132.02540 C -71.527113,131.20670 -72.694393,130.64504 -73.312500,128.18750 C -79.102766,125.69644 -85.914029,127.64394 -91.129650,130.68241 C -94.792643,132.62069 -96.941065,136.38422 -100.06250,138.81250 C -106.38850,137.72148 -111.95850,133.66410 -116.78064,129.61843 C -120.56368,126.24950 -122.63536,121.60121 -124.32461,116.98555 C -124.61962,116.47357 -125.45355,115.96356 -126.00000,115.96875 z M -72.812500,131.21875 C -73.594120,133.50736 -72.285488,136.57050 -75.541160,137.42327 C -80.826072,141.18822 -87.748408,141.54685 -94.031250,141.03125 C -90.605360,134.88839 -83.546275,131.81792 -76.713880,131.67229 C -75.413253,131.52442 -74.113857,131.35409 -72.812500,131.21875 z "
         id="path1702"
         style="fill:url(#linearGradient842);fill-opacity:1;fill-rule:evenodd;stroke-width:7.1250000;" />
    </g>
    <path
       d="M 105.62237,-83.342699 C 113.96699,-85.447278 134.51800,-78.147666 136.48035,-72.454158 C 138.12174,-66.717704 121.16642,-37.611639 117.26599,-31.480897 C 113.31502,-25.622851 100.92230,-21.785181 91.965846,-24.933931 C 83.606256,-27.372135 80.625376,-38.434080 83.327226,-43.933210 C 86.482966,-49.493079 98.240623,-81.366956 105.62237,-83.342699 z "
       id="path991"
       sodipodi:nodetypes="czzzzz"
       style="fill:#ffffff;fill-rule:evenodd;stroke-width:1.0000000pt;" />
    <path
       d="M 100.76968 31.158760 A 49.665058 49.665058 0 1 0 1.4395676,31.158760 A 49.665058 49.665058 0 1 0 100.76968 31.158760 z"
       id="path884"
       sodipodi:cx="51.104626"
       sodipodi:cy="31.158760"
       sodipodi:rx="49.665058"
       sodipodi:ry="49.665058"
       sodipodi:type="arc"
       style="fill:url(#linearGradient1011);fill-opacity:1;fill-rule:evenodd;stroke-width:1.0000000pt;"
       transform="matrix(0.735920,0.000000,0.000000,0.577788,94.37512,-75.47967)" />
    <path
       d="M 46.958067,123.13190 C 50.541638,128.53712 55.636151,134.66104 71.132325,139.66924 L 71.931727,138.74943 C 59.743573,134.91242 51.502584,127.63545 48.193786,122.64469 L 46.958067,123.13190 z M 91.046574,126.00119 C 87.195218,126.05921 83.632209,127.44020 80.443585,129.71174 C 76.192082,132.74046 72.569231,137.31528 69.501463,142.58893 C 63.365910,153.13623 59.166578,166.65245 57.536775,176.19847 L 60.135616,177.79762 C 61.722242,168.50450 65.061589,153.59407 70.987673,143.40685 C 73.950716,138.31324 77.330289,133.36027 81.191678,130.60945 C 87.580262,124.98682 100.89518,127.48455 98.223312,126.97986 C 96.878934,126.68960 95.136741,125.66113 91.046574,126.00119 z M 97.970421,127.09410 C 99.107566,127.50028 98.715852,127.69586 100.00452,128.94711 C 101.29319,130.19836 101.18690,131.53687 101.24060,132.06574 C 101.29429,132.59461 101.05834,133.28838 100.37281,134.12050 C 99.687279,134.95263 98.585028,135.86066 97.190915,136.70392 C 91.614455,140.07700 80.888369,142.07318 74.065530,139.51461 L 73.495542,140.44010 C 81.376397,143.39542 91.711095,141.59005 97.909087,137.84103 C 99.458587,136.90377 102.37977,134.44940 102.12834,132.18544 C 101.69921,128.98190 100.17176,127.23865 97.970421,127.09410 z "
       id="path852"
       sodipodi:nodetypes="ccccccccccccccczcccccccc"
       style="fill:#e7e7e7;fill-rule:evenodd;stroke-width:7.1250000;"
       transform="translate(57.27481,-240.7362)" />
    <path
       d="M 52.760510,62.761888 C 61.105128,60.610201 81.656136,68.073204 83.618483,73.894153 C 85.259880,79.759009 68.304553,109.51657 64.404131,115.78454 C 60.453161,121.77371 48.060437,125.69728 39.103978,122.47805 C 30.744383,119.98527 27.763505,108.67572 30.465353,103.05350 C 33.621097,97.369186 45.378753,64.781855 52.760510,62.761888 z "
       id="path829"
       sodipodi:nodetypes="czzzzz"
       style="fill:url(#linearGradient849);fill-opacity:1;fill-rule:evenodd;stroke-width:1.0000000pt;"
       transform="translate(53.01805,-146.3181)" />
    <path
       d="M 52.596076,62.038537 C 60.940693,59.991115 81.491701,67.092484 83.454049,72.631368 C 85.095446,78.212030 68.140118,106.52762 64.239696,112.49187 C 60.288726,118.19083 47.896003,121.92428 38.939543,118.86104 C 30.579945,116.48905 27.599068,105.72753 30.300916,100.37775 C 33.456663,94.968872 45.214319,63.960624 52.596076,62.038537 z "
       id="path886"
       sodipodi:nodetypes="czzzzz"
       style="fill:url(#linearGradient850);fill-opacity:1;fill-rule:evenodd;stroke-width:1.0000000pt;"
       transform="translate(53.01805,-146.3181)" />
    <path
       d="M 70.082983,65.602180 C 66.042592,70.834338 63.319999,78.906925 63.184890,79.263755 C 58.157153,77.309271 50.565976,75.166978 44.288321,74.130130 L 44.219199,74.498984 C 59.494356,77.021908 73.810026,83.626366 78.903822,89.135195 L 79.206241,88.892456 C 76.179996,85.619638 70.629835,82.207312 63.542631,79.409305 C 63.664197,79.088309 66.395643,71.007953 70.402321,65.819455 L 70.082983,65.602180 z "
       id="path897"
       sodipodi:nodetypes="ccccccccc"
       style="fill-opacity:0.58649790;fill-rule:evenodd;stroke-width:1.0000000pt;"
       transform="translate(53.01805,-146.3181)" />
    <path
       d="M 51.994798,86.065502 C 45.583708,83.978845 32.543337,99.857002 30.834847,106.64139 C 28.971157,113.44524 39.370254,128.01190 58.814233,117.51009 C 68.303422,112.28836 73.988153,98.466486 70.657513,92.178478 C 67.326873,85.890468 54.980861,87.136331 51.994798,86.065502 z "
       id="path898"
       sodipodi:nodetypes="czzsz"
       style="fill:url(#linearGradient848);fill-rule:evenodd;stroke-width:1.0000000pt;"
       transform="translate(53.01805,-146.3181)" />
  </g>
  <path
     d="M 750.01435,260.57234 C 715.94460,250.48602 671.79788,251.91624 638.44792,257.66516 C 644.20618,220.71628 644.92597,174.41021 637.00835,136.74154 L 750.01435,260.57234 z "
     id="path906"
     sodipodi:nodetypes="cccc"
     style="fill:url(#linearGradient1497);fill-opacity:1;fill-rule:evenodd;stroke-width:0.95407495pt;"
     transform="matrix(0.296689,0.000000,0.000000,0.296689,-71.19601,-34.05825)" />
  <path
     transform="scale(1.324476,1.324476)"
     style="font-size:12px;stroke-width:1pt;font-family:Bitstream Vera Sans"
     d="M 7.2041016,136.75288 L 4.9248047,128.16304 L 6.0908203,128.16304 L 7.3974609,133.7939 C 7.5380832,134.38375 7.6591768,134.96968 7.7607422,135.55171 C 7.979489,134.63375 8.1083951,134.10445 8.1474609,133.96382 L 9.7822266,128.16304 L 11.15332,128.16304 L 12.383789,132.5107 C 12.692375,133.58882 12.915031,134.6025 13.051758,135.55171 C 13.161124,135.00875 13.303702,134.3857 13.479492,133.68257 L 14.827148,128.16304 L 15.969727,128.16304 L 13.614258,136.75288 L 12.518555,136.75288 L 10.708008,130.20796 C 10.555658,129.66109 10.465815,129.32516 10.438477,129.20015 C 10.348627,129.59469 10.264643,129.93063 10.186523,130.20796 L 8.3642578,136.75288 L 7.2041016,136.75288 z M 21.149414,134.74898 L 22.239258,134.88374 C 22.067377,135.52046 21.749018,136.0146 21.28418,136.36617 C 20.819331,136.71773 20.225582,136.89351 19.50293,136.89351 C 18.592771,136.89351 17.871092,136.61324 17.337891,136.05269 C 16.804687,135.49214 16.538085,134.70601 16.538086,133.69429 C 16.538085,132.64742 16.807616,131.83492 17.34668,131.25679 C 17.88574,130.67867 18.584958,130.38961 19.444336,130.3896 C 20.276363,130.38961 20.95605,130.67281 21.483398,131.23921 C 22.010736,131.80562 22.274408,132.6025 22.274414,133.62984 C 22.274408,133.69234 22.272455,133.78609 22.268555,133.91109 L 17.62793,133.91109 C 17.666991,134.59468 17.86035,135.11812 18.208008,135.4814 C 18.555662,135.84468 18.989255,136.02632 19.508789,136.02632 C 19.895504,136.02632 20.225582,135.92476 20.499023,135.72163 C 20.772456,135.51851 20.989253,135.19429 21.149414,134.74898 L 21.149414,134.74898 z M 17.686523,133.0439 L 21.161133,133.0439 C 21.114253,132.52047 20.98144,132.12789 20.762695,131.86617 C 20.426753,131.45992 19.991207,131.2568 19.456055,131.25679 C 18.971677,131.2568 18.564451,131.4189 18.234375,131.74312 C 17.904295,132.06734 17.721678,132.50094 17.686523,133.0439 L 17.686523,133.0439 z M 24.541992,136.75288 L 23.563477,136.75288 L 23.563477,128.16304 L 24.618164,128.16304 L 24.618164,131.22749 C 25.063474,130.66891 25.631833,130.38961 26.323242,130.3896 C 26.706051,130.38961 27.068355,130.46676 27.410156,130.62105 C 27.751948,130.77535 28.033198,130.99215 28.253906,131.27144 C 28.474604,131.55074 28.647455,131.88765 28.772461,132.28218 C 28.897455,132.67672 28.959955,133.09859 28.959961,133.54781 C 28.959955,134.61421 28.696283,135.43843 28.168945,136.02046 C 27.641597,136.60249 27.008785,136.89351 26.270508,136.89351 C 25.53613,136.89351 24.959959,136.58687 24.541992,135.97359 L 24.541992,136.75288 z M 24.530273,133.59468 C 24.530272,134.34078 24.631834,134.87984 24.834961,135.21187 C 25.16699,135.75484 25.616208,136.02632 26.182617,136.02632 C 26.643551,136.02632 27.041988,135.82613 27.37793,135.42574 C 27.713862,135.02535 27.881831,134.42867 27.881836,133.6357 C 27.881831,132.8232 27.720698,132.22359 27.398438,131.83687 C 27.076168,131.45015 26.68652,131.2568 26.229492,131.25679 C 25.768552,131.2568 25.370115,131.45699 25.03418,131.85738 C 24.69824,132.25777 24.530272,132.83687 24.530273,133.59468 L 24.530273,133.59468 z M 33.711914,136.75288 L 33.711914,128.16304 L 36.670898,128.16304 C 37.338863,128.16305 37.848628,128.20406 38.200195,128.28609 C 38.692377,128.39938 39.112298,128.60445 39.459961,128.90132 C 39.913079,129.28414 40.251946,129.7734 40.476562,130.36909 C 40.701164,130.9648 40.813469,131.64547 40.813477,132.41109 C 40.813469,133.06343 40.737297,133.64156 40.584961,134.14546 C 40.43261,134.64937 40.237297,135.06636 39.999023,135.39644 C 39.760735,135.72652 39.499993,135.98628 39.216797,136.17574 C 38.933588,136.36519 38.591791,136.50874 38.191406,136.6064 C 37.791011,136.70406 37.33105,136.75288 36.811523,136.75288 L 33.711914,136.75288 z M 34.848633,135.73921 L 36.682617,135.73921 C 37.249019,135.73921 37.693354,135.68648 38.015625,135.58101 C 38.337885,135.47554 38.594721,135.3271 38.786133,135.1357 C 39.055658,134.86617 39.265619,134.50386 39.416016,134.04878 C 39.566399,133.59371 39.641595,133.04195 39.641602,132.39351 C 39.641595,131.49508 39.494134,130.80465 39.199219,130.32222 C 38.904291,129.8398 38.545893,129.51656 38.124023,129.35249 C 37.819331,129.23531 37.329097,129.17672 36.65332,129.17671 L 34.848633,129.17671 L 34.848633,135.73921 z M 41.856445,133.64156 C 41.856445,132.48922 42.176757,131.6357 42.817383,131.08101 C 43.352537,130.62008 44.00488,130.38961 44.774414,130.3896 C 45.629879,130.38961 46.329097,130.66988 46.87207,131.23042 C 47.415033,131.79097 47.686517,132.56539 47.686523,133.55367 C 47.686517,134.35445 47.5664,134.98433 47.326172,135.44331 C 47.085932,135.9023 46.736323,136.25874 46.277344,136.51265 C 45.818355,136.76656 45.317379,136.89351 44.774414,136.89351 C 43.903318,136.89351 43.199217,136.61421 42.662109,136.05562 C 42.124999,135.49703 41.856445,134.69234 41.856445,133.64156 L 41.856445,133.64156 z M 42.94043,133.64156 C 42.940428,134.43843 43.114256,135.03511 43.461914,135.43159 C 43.809568,135.82808 44.247068,136.02632 44.774414,136.02632 C 45.297848,136.02632 45.733394,135.8271 46.081055,135.42867 C 46.428706,135.03023 46.602534,134.42281 46.602539,133.6064 C 46.602534,132.83687 46.427729,132.25386 46.078125,131.85738 C 45.728511,131.4609 45.293941,131.26266 44.774414,131.26265 C 44.247068,131.26266 43.809568,131.45992 43.461914,131.85445 C 43.114256,132.24898 42.940428,132.84468 42.94043,133.64156 L 42.94043,133.64156 z M 52.989258,134.47359 L 54.026367,134.60835 C 53.91308,135.3232 53.623041,135.88277 53.15625,136.28706 C 52.689449,136.69136 52.116207,136.89351 51.436523,136.89351 C 50.584958,136.89351 49.900389,136.61519 49.382812,136.05855 C 48.865234,135.50191 48.606445,134.70406 48.606445,133.66499 C 48.606445,132.99312 48.717773,132.40523 48.94043,131.90132 C 49.163085,131.39742 49.501952,131.01949 49.957031,130.76753 C 50.412107,130.51559 50.907224,130.38961 51.442383,130.3896 C 52.11816,130.38961 52.670894,130.56051 53.100586,130.9023 C 53.530268,131.2441 53.805658,131.72945 53.926758,132.35835 L 52.901367,132.51656 C 52.803706,132.09859 52.630855,131.78414 52.382812,131.5732 C 52.134762,131.36226 51.834957,131.2568 51.483398,131.25679 C 50.952146,131.2568 50.520505,131.44723 50.188477,131.82808 C 49.856444,132.20894 49.690428,132.81148 49.69043,133.6357 C 49.690428,134.47164 49.850584,135.07906 50.170898,135.45796 C 50.491209,135.83687 50.909177,136.02632 51.424805,136.02632 C 51.838863,136.02632 52.184566,135.89937 52.461914,135.64546 C 52.739253,135.39156 52.915034,135.00093 52.989258,134.47359 L 52.989258,134.47359 z M 59.006836,136.75288 L 59.006836,135.83882 C 58.522457,136.54195 57.864254,136.89351 57.032227,136.89351 C 56.665037,136.89351 56.322263,136.8232 56.003906,136.68257 C 55.685545,136.54195 55.449217,136.36519 55.294922,136.1523 C 55.140624,135.93941 55.032226,135.67867 54.969727,135.37007 C 54.926757,135.16304 54.905273,134.83492 54.905273,134.3857 L 54.905273,130.53023 L 55.959961,130.53023 L 55.959961,133.9814 C 55.959959,134.53218 55.981443,134.90328 56.024414,135.09468 C 56.090818,135.37203 56.231443,135.5898 56.446289,135.748 C 56.66113,135.90621 56.926755,135.98531 57.243164,135.98531 C 57.559567,135.98531 57.856442,135.90425 58.133789,135.74214 C 58.411129,135.58003 58.607417,135.35933 58.722656,135.08003 C 58.837886,134.80074 58.895503,134.39546 58.895508,133.86421 L 58.895508,130.53023 L 59.950195,130.53023 L 59.950195,136.75288 L 59.006836,136.75288 z M 61.608398,136.75288 L 61.608398,130.53023 L 62.551758,130.53023 L 62.551758,131.40327 C 62.747068,131.09859 63.006834,130.85348 63.331055,130.66792 C 63.655271,130.48238 64.024411,130.38961 64.438477,130.3896 C 64.89941,130.38961 65.277339,130.48531 65.572266,130.67671 C 65.867182,130.86812 66.07519,131.1357 66.196289,131.47945 C 66.688471,130.75289 67.329095,130.38961 68.118164,130.3896 C 68.735344,130.38961 69.209953,130.56051 69.541992,130.9023 C 69.874014,131.2441 70.04003,131.77047 70.040039,132.4814 L 70.040039,136.75288 L 68.991211,136.75288 L 68.991211,132.83296 C 68.991203,132.41109 68.957023,132.10738 68.888672,131.92183 C 68.820304,131.73629 68.696281,131.58687 68.516602,131.47359 C 68.336907,131.36031 68.125969,131.30367 67.883789,131.30367 C 67.446282,131.30367 67.083002,131.44918 66.793945,131.74019 C 66.504877,132.03121 66.360346,132.49703 66.360352,133.13765 L 66.360352,136.75288 L 65.305664,136.75288 L 65.305664,132.70992 C 65.30566,132.24117 65.219722,131.88961 65.047852,131.65523 C 64.875973,131.42086 64.594723,131.30367 64.204102,131.30367 C 63.907223,131.30367 63.63281,131.3818 63.380859,131.53804 C 63.128904,131.6943 62.946287,131.92281 62.833008,132.22359 C 62.719725,132.52437 62.663084,132.95797 62.663086,133.52437 L 62.663086,136.75288 L 61.608398,136.75288 z M 75.875977,134.74898 L 76.96582,134.88374 C 76.793939,135.52046 76.47558,136.0146 76.010742,136.36617 C 75.545894,136.71773 74.952144,136.89351 74.229492,136.89351 C 73.319333,136.89351 72.597654,136.61324 72.064453,136.05269 C 71.531249,135.49214 71.264648,134.70601 71.264648,133.69429 C 71.264648,132.64742 71.534179,131.83492 72.073242,131.25679 C 72.612303,130.67867 73.311521,130.38961 74.170898,130.3896 C 75.002926,130.38961 75.682612,130.67281 76.209961,131.23921 C 76.737299,131.80562 77.00097,132.6025 77.000977,133.62984 C 77.00097,133.69234 76.999017,133.78609 76.995117,133.91109 L 72.354492,133.91109 C 72.393553,134.59468 72.586912,135.11812 72.93457,135.4814 C 73.282224,135.84468 73.715817,136.02632 74.235352,136.02632 C 74.622067,136.02632 74.952144,135.92476 75.225586,135.72163 C 75.499019,135.51851 75.715815,135.19429 75.875977,134.74898 L 75.875977,134.74898 z M 72.413086,133.0439 L 75.887695,133.0439 C 75.840815,132.52047 75.708003,132.12789 75.489258,131.86617 C 75.153316,131.45992 74.71777,131.2568 74.182617,131.25679 C 73.698239,131.2568 73.291013,131.4189 72.960938,131.74312 C 72.630858,132.06734 72.448241,132.50094 72.413086,133.0439 L 72.413086,133.0439 z M 78.295898,136.75288 L 78.295898,130.53023 L 79.245117,130.53023 L 79.245117,131.41499 C 79.702146,130.73141 80.362302,130.38961 81.225586,130.3896 C 81.600582,130.38961 81.945308,130.45699 82.259766,130.59175 C 82.574214,130.72652 82.809565,130.90328 82.96582,131.12202 C 83.122065,131.34078 83.23144,131.60055 83.293945,131.90132 C 83.333002,132.09664 83.352533,132.43844 83.352539,132.92671 L 83.352539,136.75288 L 82.297852,136.75288 L 82.297852,132.96773 C 82.297847,132.53804 82.256831,132.21676 82.174805,132.00386 C 82.092769,131.79097 81.947261,131.62105 81.738281,131.49409 C 81.529293,131.36715 81.284176,131.30367 81.00293,131.30367 C 80.553708,131.30367 80.166013,131.44625 79.839844,131.7314 C 79.51367,132.01656 79.350584,132.55758 79.350586,133.35445 L 79.350586,136.75288 L 78.295898,136.75288 z M 87.27832,135.80952 L 87.430664,136.74117 C 87.133786,136.80367 86.868161,136.83492 86.633789,136.83492 C 86.250974,136.83492 85.9541,136.77437 85.743164,136.65327 C 85.532225,136.53218 85.383788,136.373 85.297852,136.17574 C 85.211913,135.97847 85.168944,135.56343 85.168945,134.93062 L 85.168945,131.35054 L 84.395508,131.35054 L 84.395508,130.53023 L 85.168945,130.53023 L 85.168945,128.98921 L 86.217773,128.3564 L 86.217773,130.53023 L 87.27832,130.53023 L 87.27832,131.35054 L 86.217773,131.35054 L 86.217773,134.98921 C 86.217771,135.28999 86.236326,135.48335 86.273438,135.56929 C 86.310545,135.65523 86.371092,135.72359 86.455078,135.77437 C 86.53906,135.82515 86.659177,135.85054 86.81543,135.85054 C 86.932614,135.85054 87.086911,135.83687 87.27832,135.80952 L 87.27832,135.80952 z"
     id="text1306" />
  <path
     d="M 38.933387,108.97419 C 50.403741,121.24654 62.338859,116.66852 76.442280,110.10810 C 75.069640,116.78297 66.422860,125.36569 54.518238,125.17671 C 42.990493,124.98772 42.526193,113.38383 38.933387,108.97419 z "
     id="path3043"
     sodipodi:nodetypes="cczc"
     style="fill:url(#linearGradient1530);fill-opacity:1;fill-rule:evenodd;stroke-width:1.0000000pt;" />
</svg>
