<?xml version="1.0" encoding="UTF-8" standalone="no"?>
<!-- Created with Inkscape (http://www.inkscape.org/) -->
<svg
   xmlns:dc="http://purl.org/dc/elements/1.1/"
   xmlns:cc="http://creativecommons.org/ns#"
   xmlns:rdf="http://www.w3.org/1999/02/22-rdf-syntax-ns#"
   xmlns:svg="http://www.w3.org/2000/svg"
   xmlns="http://www.w3.org/2000/svg"
   xmlns:sodipodi="http://sodipodi.sourceforge.net/DTD/sodipodi-0.dtd"
   xmlns:inkscape="http://www.inkscape.org/namespaces/inkscape"
   height="337.22672"
   id="svg952"
   inkscape:version="0.46"
   sodipodi:docbase="C:\Documents and Settings\steven\Desktop\Clip Art Donation"
   sodipodi:docname="stop_sign_01.svg"
   sodipodi:version="0.32"
   width="337.22672"
   inkscape:output_extension="org.inkscape.output.svg.inkscape"
   version="1.0">
  <metadata
     id="metadata3">
    <rdf:RDF>
      <cc:Work
         rdf:about="">
        <dc:title>Stop Sign</dc:title>
        <dc:description />
        <dc:subject>
          <rdf:Bag>
            <rdf:li />
            <rdf:li>stop</rdf:li>
            <rdf:li>roadsign</rdf:li>
            <rdf:li>sign</rdf:li>
            <rdf:li>transportation</rdf:li>
          </rdf:Bag>
        </dc:subject>
        <dc:publisher>
          <cc:Agent
             rdf:about="http://www.openclipart.org">
            <dc:title>Steven Levis</dc:title>
          </cc:Agent>
        </dc:publisher>
        <dc:creator>
          <cc:Agent>
            <dc:title>Steven Levis</dc:title>
          </cc:Agent>
        </dc:creator>
        <dc:rights>
          <cc:Agent>
            <dc:title>Steven Levis</dc:title>
          </cc:Agent>
        </dc:rights>
        <dc:date />
        <dc:format>image/svg+xml</dc:format>
        <dc:type
           rdf:resource="http://purl.org/dc/dcmitype/StillImage" />
        <cc:license
           rdf:resource="http://web.resource.org/cc/PublicDomain" />
        <dc:language>en</dc:language>
      </cc:Work>
      <cc:License
         rdf:about="http://web.resource.org/cc/PublicDomain">
        <cc:permits
           rdf:resource="http://web.resource.org/cc/Reproduction" />
        <cc:permits
           rdf:resource="http://web.resource.org/cc/Distribution" />
        <cc:permits
           rdf:resource="http://web.resource.org/cc/DerivativeWorks" />
      </cc:License>
    </rdf:RDF>
  </metadata>
  <defs
     id="defs954">
    <inkscape:perspective
       sodipodi:type="inkscape:persp3d"
       inkscape:vp_x="0 : 526.18109 : 1"
       inkscape:vp_y="0 : 1000 : 0"
       inkscape:vp_z="744.09448 : 526.18109 : 1"
       inkscape:persp3d-origin="372.04724 : 350.78739 : 1"
       id="perspective11" />
  </defs>
  <sodipodi:namedview
     bordercolor="#666666"
     borderopacity="1.0"
     id="base"
     inkscape:cx="297.63777"
     inkscape:cy="420.94487"
     inkscape:pageopacity="0.0"
     inkscape:pageshadow="2"
     inkscape:window-height="721"
     inkscape:window-width="1024"
     inkscape:window-x="-4"
     inkscape:window-y="-4"
     inkscape:zoom="0.66398243"
     pagecolor="#ffffff"
     showgrid="false" />
  <path
     d="M 572.30431,446.17143 L 428.18759,590.78135 L 224.02702,591.13009 L 79.417105,447.01336 L 79.068367,242.8528 L 223.1851,98.24288 L 427.34566,97.894142 L 571.95558,242.01087 L 572.30431,446.17143 z"
     id="path964"
     inkscape:flatsided="false"
     inkscape:rounded="0"
     sodipodi:arg1="0.39099092"
     sodipodi:arg2="1.1763891"
     sodipodi:cx="325.68634"
     sodipodi:cy="344.51212"
     sodipodi:r1="266.74902"
     sodipodi:r2="266.74902"
     sodipodi:sides="4"
     sodipodi:type="star"
     style="fill:#ffffff;fill-opacity:1;fill-rule:evenodd;stroke:#000000;stroke-width:1.22687948;stroke-linecap:butt;stroke-linejoin:miter;stroke-miterlimit:4;stroke-opacity:1"
     transform="matrix(0.691415,0,0,0.691415,-55.932412,-68.948842)"
     inkscape:randomized="0" />
  <path
     d="M 572.30431,446.17143 L 428.18759,590.78135 L 224.02702,591.13009 L 79.417105,447.01336 L 79.068367,242.8528 L 223.1851,98.24288 L 427.34566,97.894142 L 571.95558,242.01087 L 572.30431,446.17143 z"
     id="path1586"
     inkscape:flatsided="false"
     inkscape:rounded="0"
     sodipodi:arg1="0.39099092"
     sodipodi:arg2="1.1763891"
     sodipodi:cx="325.68634"
     sodipodi:cy="344.51212"
     sodipodi:r1="266.74902"
     sodipodi:r2="266.74902"
     sodipodi:sides="4"
     sodipodi:type="star"
     style="fill:#c00000;fill-opacity:1;fill-rule:evenodd;stroke:#ffffff;stroke-width:18.75;stroke-linecap:butt;stroke-linejoin:miter;stroke-miterlimit:4;stroke-opacity:1"
     transform="matrix(0.658664,0,0,0.658664,-45.904512,-58.304372)"
     inkscape:randomized="0" />
  <path
     style="font-size:12px;font-style:normal;font-variant:normal;font-weight:normal;font-stretch:normal;writing-mode:lr-tb;text-anchor:start;fill:#ffffff;fill-opacity:1;stroke:none;stroke-width:1pt;stroke-linecap:butt;stroke-linejoin:miter;stroke-opacity:1;font-family:arial"
     d="M 48.203714,191.10082 L 56.649194,189.93267 C 57.049149,195.28674 57.972152,199.69165 59.418207,203.14741 C 60.894996,206.55455 63.171734,209.32893 66.248427,211.47052 C 69.325081,213.56348 72.786343,214.60995 76.632219,214.60993 C 80.047294,214.60995 83.062435,213.80684 85.677648,212.20062 C 88.292783,210.59442 90.231084,208.40413 91.492567,205.62974 C 92.784728,202.80673 93.430829,199.74032 93.430876,196.43053 C 93.430829,193.07211 92.815493,190.15173 91.584869,187.66936 C 90.354151,185.1384 88.323548,183.02112 85.493051,181.31752 C 83.67777,180.19808 79.662711,178.47018 73.447857,176.13384 C 67.23294,173.74891 62.879444,171.50994 60.387361,169.41694 C 57.156832,166.73998 54.741643,163.4302 53.141782,159.48762 C 51.572668,155.49649 50.788116,151.04291 50.788123,146.12686 C 50.788116,140.72422 51.757268,135.68655 53.695584,131.01385 C 55.633878,126.29266 58.46442,122.71519 62.187213,120.28142 C 65.909975,117.84787 70.048102,116.63105 74.601608,116.63094 C 79.616556,116.63105 84.031589,117.92088 87.846709,120.50045 C 91.692507,123.03155 94.646109,126.77938 96.707541,131.74395 C 98.768854,136.70869 99.876458,142.33043 100.03035,148.60918 L 91.44642,149.63132 C 90.984869,142.86583 89.415769,137.75517 86.739105,134.29928 C 84.093119,130.84359 80.170361,129.11569 74.97081,129.11559 C 69.555833,129.11569 65.602303,130.69757 63.11022,133.86123 C 60.648862,136.9764 59.418191,140.74856 59.418207,145.17773 C 59.418191,149.02298 60.295043,152.18673 62.048763,154.66898 C 63.771687,157.15139 68.263625,159.70672 75.524615,162.335 C 82.8163,164.91474 87.815897,167.17803 90.523413,169.12491 C 94.461513,171.99667 97.368968,175.64715 99.245795,180.07636 C 101.12251,184.45698 102.0609,189.51897 102.06096,195.26237 C 102.0609,200.95715 101.03022,206.33552 98.968896,211.39751 C 96.907473,216.41085 93.93848,220.32903 90.061917,223.15207 C 86.216024,225.92643 81.877911,227.31362 77.047568,227.31363 C 70.924954,227.31362 65.786908,225.9021 61.633415,223.07906 C 57.510651,220.25603 54.264759,216.02146 51.895727,210.37538 C 49.557446,204.68064 48.326776,198.2558 48.203714,191.10082 M 131.41247,225.48838 L 131.41247,131.08685 L 109.12194,131.08685 L 109.12194,118.45617 L 162.74842,118.45617 L 162.74842,131.08685 L 140.36559,131.08685 L 140.36559,225.48838 L 131.41247,225.48838 M 167.5942,173.35946 C 167.59419,155.59385 170.60933,141.69769 176.63962,131.67093 C 182.6699,121.5957 190.45388,116.55803 199.99161,116.55793 C 206.23722,116.55803 211.86754,118.91868 216.88257,123.63987 C 221.89749,128.36126 225.71257,134.95645 228.32781,143.4255 C 230.97369,151.84602 232.29666,161.41027 232.29672,172.1183 C 232.29666,182.97245 230.91216,192.68272 228.14321,201.24917 C 225.37414,209.81565 221.45138,216.31351 216.37492,220.74275 C 211.29835,225.12333 205.82187,227.31362 199.94546,227.31363 C 193.57671,227.31362 187.88485,224.87997 182.8699,220.01265 C 177.8549,215.14535 174.05521,208.50147 171.47081,200.08101 C 168.88639,191.66059 167.59419,182.75342 167.5942,173.35946 M 176.82423,173.5785 C 176.82421,186.47691 179.00865,196.64958 183.37755,204.09654 C 187.77718,211.49487 193.28443,215.19402 199.89931,215.19401 C 206.63719,215.19402 212.17521,211.4462 216.51337,203.95053 C 220.88219,196.45489 223.06663,185.81983 223.06669,172.04529 C 223.06663,163.33286 222.12824,155.73987 220.25154,149.26627 C 218.40547,142.74415 215.68262,137.70648 212.08295,134.15326 C 208.51396,130.55154 204.4989,128.75064 200.03776,128.75054 C 193.69977,128.75064 188.23867,132.20644 183.65445,139.11793 C 179.10095,145.98091 176.82421,157.46775 176.82423,173.5785 M 243.97272,225.48838 L 243.97272,118.45617 L 269.49376,118.45617 C 273.98567,118.45629 277.41617,118.797 279.78524,119.47832 C 283.10801,120.35454 285.89241,122.03376 288.13843,124.51599 C 290.38435,126.94974 292.1842,130.38119 293.538,134.81034 C 294.92244,139.23969 295.61469,144.107 295.61475,149.41228 C 295.61469,158.51423 293.78407,166.22892 290.12288,172.55635 C 286.46159,178.83523 279.84673,181.97465 270.27831,181.97461 L 252.92585,181.97461 L 252.92585,225.48838 L 243.97272,225.48838 M 252.92585,169.34393 L 270.41676,169.34393 C 276.20088,169.34398 280.30824,167.64043 282.73885,164.23326 C 285.16939,160.8262 286.38467,156.0319 286.38472,149.85035 C 286.38467,145.3725 285.66165,141.55166 284.21566,138.38783 C 282.80035,135.17549 280.92357,133.05821 278.58535,132.03598 C 277.07773,131.40333 274.29334,131.08695 270.23216,131.08685 L 252.92585,131.08685 L 252.92585,169.34393"
     id="text2835" />
</svg>
