<?xml version="1.0" encoding="UTF-8" standalone="no"?>
<!-- Created with Inkscape (http://www.inkscape.org/) -->

<svg
   xmlns:dc="http://purl.org/dc/elements/1.1/"
   xmlns:cc="http://creativecommons.org/ns#"
   xmlns:rdf="http://www.w3.org/1999/02/22-rdf-syntax-ns#"
   xmlns:svg="http://www.w3.org/2000/svg"
   xmlns="http://www.w3.org/2000/svg"
   xmlns:xlink="http://www.w3.org/1999/xlink"
   xmlns:sodipodi="http://sodipodi.sourceforge.net/DTD/sodipodi-0.dtd"
   xmlns:inkscape="http://www.inkscape.org/namespaces/inkscape"
   width="410.84589"
   height="342.45456"
   id="svg2"
   version="1.1"
   inkscape:version="0.48.1 r9760"
   sodipodi:docname="GS_Linux Terminal.svg">
  <defs
     id="defs4">
    <linearGradient
       inkscape:collect="always"
       id="linearGradient3862">
      <stop
         style="stop-color:#ffffff;stop-opacity:1;"
         offset="0"
         id="stop3864" />
      <stop
         style="stop-color:#ffffff;stop-opacity:0;"
         offset="1"
         id="stop3866" />
    </linearGradient>
    <linearGradient
       inkscape:collect="always"
       xlink:href="#linearGradient3862"
       id="linearGradient3868"
       x1="-302.18805"
       y1="54.438881"
       x2="-302.18805"
       y2="124.71517"
       gradientUnits="userSpaceOnUse" />
    <filter
       inkscape:collect="always"
       id="filter3908"
       color-interpolation-filters="sRGB">
      <feGaussianBlur
         inkscape:collect="always"
         stdDeviation="18.565716"
         id="feGaussianBlur3910" />
    </filter>
    <linearGradient
       inkscape:collect="always"
       xlink:href="#linearGradient3862"
       id="linearGradient3961"
       gradientUnits="userSpaceOnUse"
       x1="-302.18805"
       y1="54.438881"
       x2="-302.18805"
       y2="124.71517" />
    <linearGradient
       inkscape:collect="always"
       xlink:href="#linearGradient3862"
       id="linearGradient3219"
       gradientUnits="userSpaceOnUse"
       x1="-302.18805"
       y1="54.438881"
       x2="-302.18805"
       y2="124.71517"
       gradientTransform="matrix(0.34903298,0,0,0.34903298,295.89487,-10.355019)" />
  </defs>
  <sodipodi:namedview
     id="base"
     pagecolor="#ffffff"
     bordercolor="#666666"
     borderopacity="1.0"
     inkscape:pageopacity="0.0"
     inkscape:pageshadow="2"
     inkscape:zoom="1.8483577"
     inkscape:cx="244.56952"
     inkscape:cy="270.89712"
     inkscape:document-units="px"
     inkscape:current-layer="layer1"
     showgrid="false"
     fit-margin-top="0"
     fit-margin-left="0"
     fit-margin-right="0"
     fit-margin-bottom="0"
     inkscape:window-width="1230"
     inkscape:window-height="776"
     inkscape:window-x="50"
     inkscape:window-y="24"
     inkscape:window-maximized="1" />
  <metadata
     id="metadata7">
    <rdf:RDF>
      <cc:Work
         rdf:about="">
        <dc:format>image/svg+xml</dc:format>
        <dc:type
           rdf:resource="http://purl.org/dc/dcmitype/StillImage" />
        <dc:title />
      </cc:Work>
    </rdf:RDF>
  </metadata>
  <g
     inkscape:label="Layer 1"
     inkscape:groupmode="layer"
     id="layer1"
     transform="translate(-9.0084283,-9.528903)">
    <g
       id="g3280">
      <path
         transform="matrix(0.34089176,0,0,0.34109345,298.7861,-2.112542)"
         style="fill:#000000;fill-opacity:1;stroke:#1a1a1a;stroke-width:4.70027494;stroke-miterlimit:4;stroke-opacity:1;stroke-dasharray:none;filter:url(#filter3908)"
         d="m -803.14955,81.024807 0,861.269783 c 0,27.09817 19.97438,48.92416 44.8125,48.92416 l 1021.78124,0 c 24.83811,0 44.8125,-21.82599 44.8125,-48.92416 l 0,-861.269783 -1111.40624,0 z"
         id="path3902"
         inkscape:connector-curvature="0" />
      <path
         inkscape:connector-curvature="0"
         id="rect2985"
         d="m 15.569189,44.421344 0,275.539726 c 0,8.66932 6.971718,15.65195 15.641041,15.65195 l 356.63535,0 c 8.66932,0 15.64104,-6.98263 15.64104,-15.65195 l 0,-275.539726 -387.917431,0 z"
         style="fill:#999999;fill-opacity:1;stroke:#1a1a1a;stroke-width:1.57064843;stroke-miterlimit:4;stroke-opacity:1;stroke-dasharray:none" />
      <path
         inkscape:connector-curvature="0"
         id="rect2989"
         d="m 31.210219,19.889312 c -8.669319,0 -15.64104,6.98263 -15.64104,15.651949 l 0,9.282096 387.917451,0 0,-9.282096 c 0,-8.669319 -6.97172,-15.651949 -15.64107,-15.651949 l -356.635341,0 z"
         style="fill:#000000;fill-opacity:1;stroke:#000000;stroke-width:1.46593845;stroke-miterlimit:4;stroke-dasharray:none" />
      <g
         transform="matrix(0.32905399,0,0,0.32905399,672.54596,107.72764)"
         id="g3780">
        <path
           transform="matrix(0.52195997,0,0,0.52195997,-484.50723,-120.7505)"
           style="fill:#4d4d4d;fill-opacity:1;stroke:#000000;stroke-width:4.19999981;stroke-linecap:round;stroke-miterlimit:4;stroke-opacity:1"
           d="m -920.00001,-204.78067 c 0,25.2473 -20.46698,45.71429 -45.71428,45.71429 -25.24731,0 -45.71431,-20.46699 -45.71431,-45.71429 0,-25.2473 20.467,-45.71429 45.71431,-45.71429 25.2473,0 45.71428,20.46699 45.71428,45.71429 z"
           id="path3774"
           inkscape:connector-curvature="0" />
        <g
           style="font-size:44.91469955px;font-style:normal;font-weight:normal;line-height:125%;letter-spacing:0px;word-spacing:0px;fill:#ffffff;fill-opacity:1;stroke:#ffffff;stroke-width:0.3424845;font-family:Sans"
           id="text3776">
          <path
             d="m -986.18583,-242.30864 0,11.49184 11.44798,0 0,5.17572 -11.44798,0 0,11.49185 -5.21958,0 0,-11.49185 -11.44799,0 0,-5.17572 11.44799,0 0,-11.49184 5.21958,0"
             style="font-weight:bold;fill:#ffffff;stroke:#ffffff;-inkscape-font-specification:Sans Bold"
             id="path3039"
             inkscape:connector-curvature="0" />
        </g>
      </g>
      <g
         id="g3785"
         transform="matrix(0.23851994,-0.22668208,0.22668208,0.23851994,672.54299,-136.97276)">
        <path
           transform="matrix(0.52195997,0,0,0.52195997,-484.50723,-120.7505)"
           style="fill:#4d4d4d;fill-opacity:1;stroke:#000000;stroke-width:4.19999981;stroke-linecap:round;stroke-miterlimit:4;stroke-opacity:1"
           d="m -920.00001,-204.78067 c 0,25.2473 -20.46698,45.71429 -45.71428,45.71429 -25.24731,0 -45.71431,-20.46699 -45.71431,-45.71429 0,-25.2473 20.467,-45.71429 45.71431,-45.71429 25.2473,0 45.71428,20.46699 45.71428,45.71429 z"
           id="path3787"
           inkscape:connector-curvature="0" />
        <g
           style="font-size:44.91469955px;font-style:normal;font-weight:normal;line-height:125%;letter-spacing:0px;word-spacing:0px;fill:#ffffff;fill-opacity:1;stroke:#ffffff;stroke-width:0.3424845;font-family:Sans"
           id="text3789">
          <path
             d="m -986.18583,-242.30864 0,11.49184 11.44798,0 0,5.17572 -11.44798,0 0,11.49185 -5.21958,0 0,-11.49185 -11.44799,0 0,-5.17572 11.44799,0 0,-11.49184 5.21958,0"
             style="font-weight:bold;fill:#ffffff;stroke:#ffffff;-inkscape-font-specification:Sans Bold"
             id="path3043"
             inkscape:connector-curvature="0" />
        </g>
      </g>
      <g
         transform="matrix(0.34903298,0,0,0.34903298,308.85893,77.870934)"
         id="g3808">
        <path
           transform="matrix(0.49208247,0,0,0.49208247,639.49684,-28.297407)"
           style="fill:#4d4d4d;fill-opacity:1;stroke:#000000;stroke-width:4.19999981;stroke-linecap:round;stroke-miterlimit:4;stroke-opacity:1"
           d="m -920.00001,-204.78067 c 0,25.2473 -20.46698,45.71429 -45.71428,45.71429 -25.24731,0 -45.71431,-20.46699 -45.71431,-45.71429 0,-25.2473 20.467,-45.71429 45.71431,-45.71429 25.2473,0 45.71428,20.46699 45.71428,45.71429 z"
           id="path3795"
           inkscape:connector-curvature="0" />
        <g
           transform="scale(1.3065908,0.76535055)"
           style="font-size:52.26363373px;font-style:normal;font-weight:normal;line-height:125%;letter-spacing:0px;word-spacing:0px;fill:#ffffff;fill-opacity:1;stroke:none;font-family:Sans"
           id="text3804">
          <path
             d="m 118.6563,-169.78935 13.75493,0 0,4.18518 -13.75493,0 0,-4.18518"
             id="path3047"
             inkscape:connector-curvature="0" />
        </g>
      </g>
      <g
         transform="matrix(0.34903298,0,0,0.34903298,298.34774,5.5886637)"
         id="g3843">
        <path
           style="fill:#666666;fill-opacity:1;stroke:none"
           d="m 276.92274,178.30069 c 8.70441,0 15.71193,7.00752 15.71193,15.71193 l 0,699.40231 c 0,8.70441 -7.00752,15.71193 -15.71193,15.71193 -8.7044,0 -15.71192,-7.00752 -15.71192,-15.71193 l 0,-699.40231 c 0,-8.70441 7.00752,-15.71193 15.71192,-15.71193 z"
           id="rect3813"
           inkscape:connector-curvature="0" />
        <path
           style="fill:#333333;fill-opacity:1;stroke:none"
           d="m 276.92274,286.32022 c 6.52831,0 11.78395,5.23734 11.78395,11.74291 l 0,522.72518 c 0,6.50557 -5.25564,11.74291 -11.78395,11.74291 -6.52831,0 -11.78395,-5.23734 -11.78395,-11.74291 l 0,-522.72518 c 0,-6.50557 5.25564,-11.74291 11.78395,-11.74291 z"
           id="rect3815"
           inkscape:connector-curvature="0" />
        <g
           id="g3827"
           transform="matrix(0.80413416,0,0,1.5915205,-172.25105,-218.50399)"
           style="fill:#666666">
          <g
             style="font-size:40px;font-style:normal;font-weight:normal;line-height:125%;letter-spacing:0px;word-spacing:0px;fill:#666666;fill-opacity:1;stroke:none;font-family:Sans"
             id="text3817">
            <path
               d="m 546.2998,474.46066 25.03907,0 0,3.28125 -25.03907,0 0,-3.28125 m 0,7.96875 25.03907,0 0,3.32032 -25.03907,0 0,-3.32032"
               id="path3052"
               inkscape:connector-curvature="0" />
          </g>
          <g
             style="font-size:40px;font-style:normal;font-weight:normal;line-height:125%;letter-spacing:0px;word-spacing:0px;fill:#666666;fill-opacity:1;stroke:none;font-family:Sans"
             id="text3823">
            <path
               d="m 546.2998,488.86667 25.03907,0 0,3.28125 -25.03907,0 0,-3.28125 m 0,7.96875 25.03907,0 0,3.32031 -25.03907,0 0,-3.32031"
               id="path3055"
               inkscape:connector-curvature="0" />
          </g>
        </g>
        <g
           transform="scale(-1,-1)"
           style="font-size:40px;font-style:normal;font-weight:normal;line-height:125%;letter-spacing:0px;word-spacing:0px;fill:#333333;fill-opacity:1;stroke:none;font-family:Sans"
           id="text3833">
          <path
             d="m -279.43454,-188.6711 -11.13281,-29.16015 4.12109,0 9.23828,24.55078 9.25782,-24.55078 4.10156,0 -11.11328,29.16015 -4.47266,0"
             id="path3058"
             inkscape:connector-curvature="0" />
        </g>
        <g
           transform="scale(-1,1)"
           style="font-size:40px;font-style:normal;font-weight:normal;line-height:125%;letter-spacing:0px;word-spacing:0px;fill:#333333;fill-opacity:1;stroke:none;font-family:Sans"
           id="text3837">
          <path
             d="m -277.67764,899.51123 -11.13282,-29.16016 4.1211,0 9.23828,24.55079 9.25781,-24.55079 4.10156,0 -11.11328,29.16016 -4.47265,0"
             id="path3061"
             inkscape:connector-curvature="0" />
        </g>
      </g>
      <path
         style="fill:#333333;fill-opacity:1;stroke:none"
         d="m 16.267175,44.825842 386.327655,0 0,20.23621 -386.327655,0 z"
         id="rect3841"
         inkscape:connector-curvature="0" />
      <g
         transform="matrix(0.34903298,0,0,0.34903298,295.89487,-10.355019)"
         style="font-size:40px;font-style:normal;font-weight:normal;line-height:125%;letter-spacing:0px;word-spacing:0px;fill:#ffffff;fill-opacity:1;stroke:none;font-family:Sans"
         id="text3856">
        <path
           d="m -773.80098,196.74835 0,-22.176 13.376,0 0,2.656 -10.272,0 0,6.688 9.12,0 0,2.624 -9.12,0 0,10.208 -3.104,0"
           style="font-size:32px;font-variant:normal;font-stretch:normal;text-align:start;line-height:125%;writing-mode:lr-tb;text-anchor:start;font-family:Ubuntu;-inkscape-font-specification:Ubuntu;fill:#ffffff"
           id="path3065"
           inkscape:connector-curvature="0" />
        <path
           d="m -753.82948,196.74835 -2.976,0 0,-16.64 2.976,0 0,16.64 m -1.504,-19.648 c -0.53334,2e-5 -0.992,-0.17064 -1.376,-0.512 -0.36267,-0.36264 -0.544,-0.84264 -0.544,-1.44 0,-0.59731 0.18133,-1.06664 0.544,-1.408 0.384,-0.36264 0.84266,-0.54397 1.376,-0.544 0.53333,3e-5 0.98133,0.18136 1.344,0.544 0.384,0.34136 0.576,0.81069 0.576,1.408 0,0.59736 -0.192,1.07736 -0.576,1.44 -0.36267,0.34136 -0.81067,0.51202 -1.344,0.512"
           style="font-size:32px;font-variant:normal;font-stretch:normal;text-align:start;line-height:125%;writing-mode:lr-tb;text-anchor:start;font-family:Ubuntu;-inkscape-font-specification:Ubuntu;fill:#ffffff"
           id="path3067"
           inkscape:connector-curvature="0" />
        <path
           d="m -743.68848,197.06835 c -1.83467,-0.0427 -3.136,-0.43733 -3.904,-1.184 -0.768,-0.74666 -1.152,-1.90933 -1.152,-3.488 l 0,-19.968 2.976,-0.512 0,20 c 0,0.49067 0.0427,0.89601 0.128,1.216 0.0853,0.32001 0.224,0.57601 0.416,0.768 0.192,0.192 0.448,0.34134 0.768,0.448 0.31999,0.0853 0.71466,0.16 1.184,0.224 l -0.416,2.496"
           style="font-size:32px;font-variant:normal;font-stretch:normal;text-align:start;line-height:125%;writing-mode:lr-tb;text-anchor:start;font-family:Ubuntu;-inkscape-font-specification:Ubuntu;fill:#ffffff"
           id="path3069"
           inkscape:connector-curvature="0" />
        <path
           d="m -740.85848,188.46035 c 0,-1.47199 0.21333,-2.75199 0.64,-3.84 0.42667,-1.10932 0.992,-2.02665 1.696,-2.752 0.704,-0.72532 1.51466,-1.26932 2.432,-1.632 0.91733,-0.36265 1.85599,-0.54398 2.816,-0.544 2.23999,2e-5 3.95732,0.70402 5.152,2.112 1.19465,1.38668 1.79199,3.50935 1.792,6.368 -1e-5,0.12801 -1e-5,0.29868 0,0.512 -1e-5,0.19201 -0.0107,0.37334 -0.032,0.544 l -11.392,0 c 0.128,1.72801 0.62933,3.04001 1.504,3.936 0.87466,0.896 2.23999,1.344 4.096,1.344 1.04532,0 1.91999,-0.0853 2.624,-0.256 0.72532,-0.192 1.26932,-0.37333 1.632,-0.544 l 0.416,2.496 c -0.36268,0.192 -1.00268,0.39467 -1.92,0.608 -0.89601,0.21334 -1.92001,0.32 -3.072,0.32 -1.45067,0 -2.70934,-0.21333 -3.776,-0.64 -1.04534,-0.448 -1.90934,-1.056 -2.592,-1.824 -0.68267,-0.768 -1.19467,-1.67466 -1.536,-2.72 -0.32,-1.06666 -0.48,-2.22932 -0.48,-3.488 m 11.424,-1.632 c 0.0213,-1.34399 -0.32001,-2.44265 -1.024,-3.296 -0.68268,-0.87465 -1.63201,-1.31198 -2.848,-1.312 -0.68267,2e-5 -1.29067,0.13868 -1.824,0.416 -0.51201,0.25602 -0.94934,0.59735 -1.312,1.024 -0.36267,0.42668 -0.65067,0.91735 -0.864,1.472 -0.192,0.55468 -0.32,1.12001 -0.384,1.696 l 8.256,0"
           style="font-size:32px;font-variant:normal;font-stretch:normal;text-align:start;line-height:125%;writing-mode:lr-tb;text-anchor:start;font-family:Ubuntu;-inkscape-font-specification:Ubuntu;fill:#ffffff"
           id="path3071"
           inkscape:connector-curvature="0" />
        <path
           d="m -684.98848,196.74835 0,-22.176 13.536,0 0,2.656 -10.432,0 0,6.592 9.28,0 0,2.592 -9.28,0 0,7.68 11.232,0 0,2.656 -14.336,0"
           style="font-size:32px;font-variant:normal;font-stretch:normal;text-align:start;line-height:125%;writing-mode:lr-tb;text-anchor:start;font-family:Ubuntu;-inkscape-font-specification:Ubuntu;fill:#ffffff"
           id="path3073"
           inkscape:connector-curvature="0" />
        <path
           d="m -656.74098,183.62835 c -0.36268,-0.29865 -0.88534,-0.58665 -1.568,-0.864 -0.68268,-0.27732 -1.42934,-0.41598 -2.24,-0.416 -0.85334,2e-5 -1.58934,0.16002 -2.208,0.48 -0.59734,0.29868 -1.088,0.72535 -1.472,1.28 -0.384,0.53335 -0.66134,1.17335 -0.832,1.92 -0.17067,0.74668 -0.256,1.54668 -0.256,2.4 0,1.94134 0.48,3.44534 1.44,4.512 0.95999,1.04534 2.23999,1.568 3.84,1.568 0.81066,0 1.48266,-0.032 2.016,-0.096 0.55466,-0.0853 0.98132,-0.17066 1.28,-0.256 l 0,-10.528 m 0,-11.2 2.976,-0.512 0,24.352 c -0.68268,0.192 -1.55735,0.384 -2.624,0.576 -1.06668,0.192 -2.29334,0.288 -3.68,0.288 -1.28001,0 -2.43201,-0.20266 -3.456,-0.608 -1.024,-0.40533 -1.89867,-0.98133 -2.624,-1.728 -0.72534,-0.74666 -1.29067,-1.65333 -1.696,-2.72 -0.384,-1.08799 -0.576,-2.30399 -0.576,-3.648 0,-1.27999 0.16,-2.45332 0.48,-3.52 0.34133,-1.06665 0.832,-1.98398 1.472,-2.752 0.64,-0.76798 1.41866,-1.36532 2.336,-1.792 0.93866,-0.42665 2.00533,-0.63998 3.2,-0.64 0.95999,2e-5 1.80266,0.12802 2.528,0.384 0.74666,0.25602 1.30132,0.50135 1.664,0.736 l 0,-8.416"
           style="font-size:32px;font-variant:normal;font-stretch:normal;text-align:start;line-height:125%;writing-mode:lr-tb;text-anchor:start;font-family:Ubuntu;-inkscape-font-specification:Ubuntu;fill:#ffffff"
           id="path3075"
           inkscape:connector-curvature="0" />
        <path
           d="m -645.64198,196.74835 -2.976,0 0,-16.64 2.976,0 0,16.64 m -1.504,-19.648 c -0.53334,2e-5 -0.992,-0.17064 -1.376,-0.512 -0.36267,-0.36264 -0.544,-0.84264 -0.544,-1.44 0,-0.59731 0.18133,-1.06664 0.544,-1.408 0.384,-0.36264 0.84266,-0.54397 1.376,-0.544 0.53333,3e-5 0.98133,0.18136 1.344,0.544 0.384,0.34136 0.576,0.81069 0.576,1.408 0,0.59736 -0.192,1.07736 -0.576,1.44 -0.36267,0.34136 -0.81067,0.51202 -1.344,0.512"
           style="font-size:32px;font-variant:normal;font-stretch:normal;text-align:start;line-height:125%;writing-mode:lr-tb;text-anchor:start;font-family:Ubuntu;-inkscape-font-specification:Ubuntu;fill:#ffffff"
           id="path3077"
           inkscape:connector-curvature="0" />
        <path
           d="m -637.70898,180.10835 6.304,0 0,2.496 -6.304,0 0,7.68 c 0,0.83201 0.064,1.52534 0.192,2.08 0.128,0.53334 0.32,0.96001 0.576,1.28 0.256,0.29867 0.57599,0.512 0.96,0.64 0.38399,0.128 0.83199,0.192 1.344,0.192 0.89599,0 1.61066,-0.096 2.144,-0.288 0.55466,-0.21333 0.93866,-0.36266 1.152,-0.448 l 0.576,2.464 c -0.29868,0.14934 -0.82134,0.33067 -1.568,0.544 -0.74668,0.23467 -1.60001,0.352 -2.56,0.352 -1.13067,0 -2.06934,-0.13866 -2.816,-0.416 -0.72534,-0.29866 -1.312,-0.736 -1.76,-1.312 -0.448,-0.576 -0.768,-1.28 -0.96,-2.112 -0.17067,-0.85333 -0.256,-1.83466 -0.256,-2.944 l 0,-14.848 2.976,-0.512 0,5.152"
           style="font-size:32px;font-variant:normal;font-stretch:normal;text-align:start;line-height:125%;writing-mode:lr-tb;text-anchor:start;font-family:Ubuntu;-inkscape-font-specification:Ubuntu;fill:#ffffff"
           id="path3079"
           inkscape:connector-curvature="0" />
        <path
           d="m -565.25598,174.57235 c -0.81069,2.34669 -1.58935,4.52269 -2.336,6.528 -0.72535,1.98402 -1.44002,3.87201 -2.144,5.664 -0.70401,1.79201 -1.40801,3.50934 -2.112,5.152 -0.68268,1.62134 -1.38668,3.232 -2.112,4.832 l -2.912,0 c -0.72534,-1.6 -1.44001,-3.21066 -2.144,-4.832 -0.68267,-1.64266 -1.38667,-3.35999 -2.112,-5.152 -0.704,-1.79199 -1.42934,-3.67998 -2.176,-5.664 -0.74667,-2.00531 -1.51467,-4.18131 -2.304,-6.528 l 3.424,0 c 1.152,3.37069 2.28266,6.61335 3.392,9.728 1.10933,3.11468 2.25066,6.03734 3.424,8.768 1.17332,-2.70932 2.31466,-5.62132 3.424,-8.736 1.10932,-3.13598 2.22932,-6.38931 3.36,-9.76 l 3.328,0"
           style="font-size:32px;font-variant:normal;font-stretch:normal;text-align:start;line-height:125%;writing-mode:lr-tb;text-anchor:start;font-family:Ubuntu;-inkscape-font-specification:Ubuntu;fill:#ffffff"
           id="path3081"
           inkscape:connector-curvature="0" />
        <path
           d="m -559.39198,196.74835 -2.976,0 0,-16.64 2.976,0 0,16.64 m -1.504,-19.648 c -0.53334,2e-5 -0.992,-0.17064 -1.376,-0.512 -0.36267,-0.36264 -0.544,-0.84264 -0.544,-1.44 0,-0.59731 0.18133,-1.06664 0.544,-1.408 0.384,-0.36264 0.84266,-0.54397 1.376,-0.544 0.53333,3e-5 0.98133,0.18136 1.344,0.544 0.384,0.34136 0.576,0.81069 0.576,1.408 0,0.59736 -0.192,1.07736 -0.576,1.44 -0.36267,0.34136 -0.81067,0.51202 -1.344,0.512"
           style="font-size:32px;font-variant:normal;font-stretch:normal;text-align:start;line-height:125%;writing-mode:lr-tb;text-anchor:start;font-family:Ubuntu;-inkscape-font-specification:Ubuntu;fill:#ffffff"
           id="path3083"
           inkscape:connector-curvature="0" />
        <path
           d="m -555.17098,188.46035 c 0,-1.47199 0.21333,-2.75199 0.64,-3.84 0.42667,-1.10932 0.992,-2.02665 1.696,-2.752 0.704,-0.72532 1.51466,-1.26932 2.432,-1.632 0.91733,-0.36265 1.85599,-0.54398 2.816,-0.544 2.23999,2e-5 3.95732,0.70402 5.152,2.112 1.19465,1.38668 1.79199,3.50935 1.792,6.368 -1e-5,0.12801 -1e-5,0.29868 0,0.512 -1e-5,0.19201 -0.0107,0.37334 -0.032,0.544 l -11.392,0 c 0.128,1.72801 0.62933,3.04001 1.504,3.936 0.87466,0.896 2.23999,1.344 4.096,1.344 1.04532,0 1.91999,-0.0853 2.624,-0.256 0.72532,-0.192 1.26932,-0.37333 1.632,-0.544 l 0.416,2.496 c -0.36268,0.192 -1.00268,0.39467 -1.92,0.608 -0.89601,0.21334 -1.92001,0.32 -3.072,0.32 -1.45067,0 -2.70934,-0.21333 -3.776,-0.64 -1.04534,-0.448 -1.90934,-1.056 -2.592,-1.824 -0.68267,-0.768 -1.19467,-1.67466 -1.536,-2.72 -0.32,-1.06666 -0.48,-2.22932 -0.48,-3.488 m 11.424,-1.632 c 0.0213,-1.34399 -0.32001,-2.44265 -1.024,-3.296 -0.68268,-0.87465 -1.63201,-1.31198 -2.848,-1.312 -0.68267,2e-5 -1.29067,0.13868 -1.824,0.416 -0.51201,0.25602 -0.94934,0.59735 -1.312,1.024 -0.36267,0.42668 -0.65067,0.91735 -0.864,1.472 -0.192,0.55468 -0.32,1.12001 -0.384,1.696 l 8.256,0"
           style="font-size:32px;font-variant:normal;font-stretch:normal;text-align:start;line-height:125%;writing-mode:lr-tb;text-anchor:start;font-family:Ubuntu;-inkscape-font-specification:Ubuntu;fill:#ffffff"
           id="path3085"
           inkscape:connector-curvature="0" />
        <path
           d="m -522.76798,196.74835 c -0.59735,-1.536 -1.23735,-3.28533 -1.92,-5.248 -0.66135,-1.98399 -1.26934,-4.04266 -1.824,-6.176 -0.55468,2.13334 -1.16268,4.19201 -1.824,6.176 -0.66134,1.96267 -1.29067,3.712 -1.888,5.248 l -2.592,0 c -0.98134,-2.19733 -1.94134,-4.70399 -2.88,-7.52 -0.93867,-2.81599 -1.824,-5.85598 -2.656,-9.12 l 3.2,0 c 0.21333,1.00268 0.46933,2.09068 0.768,3.264 0.29866,1.17335 0.608,2.34668 0.928,3.52 0.34133,1.17334 0.69333,2.30401 1.056,3.392 0.36266,1.08801 0.70399,2.03734 1.024,2.848 0.36266,-1.00266 0.71466,-2.05866 1.056,-3.168 0.36266,-1.13066 0.70399,-2.26132 1.024,-3.392 0.31999,-1.15199 0.61866,-2.27199 0.896,-3.36 0.29866,-1.10932 0.55466,-2.14398 0.768,-3.104 l 2.464,0 c 0.19199,0.96002 0.42665,1.99468 0.704,3.104 0.27732,1.08801 0.57599,2.20801 0.896,3.36 0.31999,1.13068 0.65065,2.26134 0.992,3.392 0.36265,1.10934 0.72532,2.16534 1.088,3.168 0.31998,-0.81066 0.65065,-1.75999 0.992,-2.848 0.36265,-1.08799 0.71465,-2.21866 1.056,-3.392 0.34131,-1.17332 0.66131,-2.34665 0.96,-3.52 0.29865,-1.17332 0.55465,-2.26132 0.768,-3.264 l 3.072,0 c -0.83202,3.26402 -1.71735,6.30401 -2.656,9.12 -0.93869,2.81601 -1.89868,5.32267 -2.88,7.52 l -2.592,0"
           style="font-size:32px;font-variant:normal;font-stretch:normal;text-align:start;line-height:125%;writing-mode:lr-tb;text-anchor:start;font-family:Ubuntu;-inkscape-font-specification:Ubuntu;fill:#ffffff"
           id="path3087"
           inkscape:connector-curvature="0" />
        <path
           d="m -461.89898,194.54035 c 3.24266,0 4.86399,-1.10933 4.864,-3.328 -10e-6,-0.68266 -0.14934,-1.25866 -0.448,-1.728 -0.27734,-0.49066 -0.66134,-0.90666 -1.152,-1.248 -0.49068,-0.36266 -1.05601,-0.67199 -1.696,-0.928 -0.61867,-0.25599 -1.28001,-0.51199 -1.984,-0.768 -0.81067,-0.27732 -1.57867,-0.58665 -2.304,-0.928 -0.72534,-0.36265 -1.35467,-0.77865 -1.888,-1.248 -0.53333,-0.49065 -0.96,-1.06665 -1.28,-1.728 -0.29867,-0.66132 -0.448,-1.46132 -0.448,-2.4 0,-1.94131 0.66133,-3.45598 1.984,-4.544 1.32266,-1.08798 3.14666,-1.63198 5.472,-1.632 1.34399,2e-5 2.55999,0.14936 3.648,0.448 1.10932,0.27736 1.91999,0.58669 2.432,0.928 l -0.992,2.528 c -0.44801,-0.27731 -1.12001,-0.54398 -2.016,-0.8 -0.87468,-0.27731 -1.89868,-0.41598 -3.072,-0.416 -0.59734,2e-5 -1.15201,0.064 -1.664,0.192 -0.51201,0.12802 -0.96,0.32002 -1.344,0.576 -0.384,0.25602 -0.69334,0.58669 -0.928,0.992 -0.21334,0.38402 -0.32,0.84269 -0.32,1.376 0,0.59735 0.11733,1.09868 0.352,1.504 0.23466,0.40535 0.56533,0.76802 0.992,1.088 0.42666,0.29868 0.91733,0.57602 1.472,0.832 0.57599,0.25602 1.20533,0.51201 1.888,0.768 0.95999,0.38401 1.83466,0.76801 2.624,1.152 0.81066,0.38401 1.50399,0.84268 2.08,1.376 0.59732,0.53334 1.05599,1.17334 1.376,1.92 0.31999,0.72534 0.47999,1.61068 0.48,2.656 -10e-6,1.94134 -0.71468,3.43467 -2.144,4.48 -1.40801,1.04534 -3.40268,1.568 -5.984,1.568 -0.87467,0 -1.68534,-0.064 -2.432,-0.192 -0.72534,-0.10666 -1.376,-0.23466 -1.952,-0.384 -0.576,-0.17066 -1.07733,-0.34133 -1.504,-0.512 -0.40533,-0.192 -0.72533,-0.352 -0.96,-0.48 l 0.928,-2.56 c 0.49067,0.27734 1.23733,0.58667 2.24,0.928 1.00266,0.34134 2.22933,0.512 3.68,0.512"
           style="font-size:32px;font-variant:normal;font-stretch:normal;text-align:start;line-height:125%;writing-mode:lr-tb;text-anchor:start;font-family:Ubuntu;-inkscape-font-specification:Ubuntu;fill:#ffffff"
           id="path3089"
           inkscape:connector-curvature="0" />
        <path
           d="m -451.17098,188.46035 c 0,-1.47199 0.21333,-2.75199 0.64,-3.84 0.42667,-1.10932 0.992,-2.02665 1.696,-2.752 0.704,-0.72532 1.51466,-1.26932 2.432,-1.632 0.91733,-0.36265 1.85599,-0.54398 2.816,-0.544 2.23999,2e-5 3.95732,0.70402 5.152,2.112 1.19465,1.38668 1.79199,3.50935 1.792,6.368 -10e-6,0.12801 -10e-6,0.29868 0,0.512 -10e-6,0.19201 -0.0107,0.37334 -0.032,0.544 l -11.392,0 c 0.128,1.72801 0.62933,3.04001 1.504,3.936 0.87466,0.896 2.23999,1.344 4.096,1.344 1.04532,0 1.91999,-0.0853 2.624,-0.256 0.72532,-0.192 1.26932,-0.37333 1.632,-0.544 l 0.416,2.496 c -0.36268,0.192 -1.00268,0.39467 -1.92,0.608 -0.89601,0.21334 -1.92001,0.32 -3.072,0.32 -1.45067,0 -2.70934,-0.21333 -3.776,-0.64 -1.04534,-0.448 -1.90934,-1.056 -2.592,-1.824 -0.68267,-0.768 -1.19467,-1.67466 -1.536,-2.72 -0.32,-1.06666 -0.48,-2.22932 -0.48,-3.488 m 11.424,-1.632 c 0.0213,-1.34399 -0.32001,-2.44265 -1.024,-3.296 -0.68268,-0.87465 -1.63201,-1.31198 -2.848,-1.312 -0.68267,2e-5 -1.29067,0.13868 -1.824,0.416 -0.51201,0.25602 -0.94934,0.59735 -1.312,1.024 -0.36267,0.42668 -0.65067,0.91735 -0.864,1.472 -0.192,0.55468 -0.32,1.12001 -0.384,1.696 l 8.256,0"
           style="font-size:32px;font-variant:normal;font-stretch:normal;text-align:start;line-height:125%;writing-mode:lr-tb;text-anchor:start;font-family:Ubuntu;-inkscape-font-specification:Ubuntu;fill:#ffffff"
           id="path3091"
           inkscape:connector-curvature="0" />
        <path
           d="m -426.73598,194.60435 c 0.70399,0 1.32266,-0.0107 1.856,-0.032 0.55466,-0.0427 1.01332,-0.10666 1.376,-0.192 l 0,-4.96 c -0.21334,-0.10666 -0.56534,-0.19199 -1.056,-0.256 -0.46934,-0.0853 -1.04534,-0.12799 -1.728,-0.128 -0.44801,1e-5 -0.92801,0.032 -1.44,0.096 -0.49067,0.064 -0.94934,0.20268 -1.376,0.416 -0.40534,0.19201 -0.74667,0.46934 -1.024,0.832 -0.27734,0.34134 -0.416,0.80001 -0.416,1.376 0,1.06667 0.34133,1.81334 1.024,2.24 0.68266,0.40534 1.61066,0.608 2.784,0.608 m -0.256,-14.912 c 1.19466,2e-5 2.19732,0.16002 3.008,0.48 0.83199,0.29868 1.49332,0.73602 1.984,1.312 0.51199,0.55468 0.87465,1.22668 1.088,2.016 0.21332,0.76801 0.31999,1.62135 0.32,2.56 l 0,10.4 c -0.25601,0.0427 -0.61868,0.10667 -1.088,0.192 -0.44801,0.064 -0.96001,0.128 -1.536,0.192 -0.57601,0.064 -1.20534,0.11734 -1.888,0.16 -0.66134,0.064 -1.32267,0.096 -1.984,0.096 -0.93867,0 -1.80267,-0.096 -2.592,-0.288 -0.78934,-0.192 -1.472,-0.49066 -2.048,-0.896 -0.576,-0.42666 -1.024,-0.98133 -1.344,-1.664 -0.32,-0.68266 -0.48,-1.50399 -0.48,-2.464 0,-0.91733 0.18133,-1.70666 0.544,-2.368 0.384,-0.66132 0.896,-1.19466 1.536,-1.6 0.64,-0.40532 1.38666,-0.70399 2.24,-0.896 0.85333,-0.19199 1.74933,-0.28799 2.688,-0.288 0.29866,1e-5 0.60799,0.0214 0.928,0.064 0.31999,0.0214 0.61866,0.064 0.896,0.128 0.29866,0.0427 0.55466,0.0854 0.768,0.128 0.21332,0.0427 0.36266,0.0747 0.448,0.096 l 0,-0.832 c -10e-6,-0.49065 -0.0533,-0.97065 -0.16,-1.44 -0.10668,-0.49065 -0.29868,-0.91732 -0.576,-1.28 -0.27734,-0.38398 -0.66134,-0.68265 -1.152,-0.896 -0.46934,-0.23465 -1.08801,-0.35198 -1.856,-0.352 -0.98134,2e-5 -1.84534,0.0747 -2.592,0.224 -0.72534,0.12802 -1.26934,0.26668 -1.632,0.416 l -0.352,-2.464 c 0.384,-0.17065 1.024,-0.33065 1.92,-0.48 0.896,-0.17065 1.86666,-0.25598 2.912,-0.256"
           style="font-size:32px;font-variant:normal;font-stretch:normal;text-align:start;line-height:125%;writing-mode:lr-tb;text-anchor:start;font-family:Ubuntu;-inkscape-font-specification:Ubuntu;fill:#ffffff"
           id="path3093"
           inkscape:connector-curvature="0" />
        <path
           d="m -409.53648,179.75635 c 0.25599,2e-5 0.54399,0.0214 0.864,0.064 0.34132,0.0214 0.67199,0.064 0.992,0.128 0.31999,0.0427 0.60799,0.096 0.864,0.16 0.27732,0.0427 0.47999,0.0854 0.608,0.128 l -0.512,2.592 c -0.23468,-0.0853 -0.62934,-0.18132 -1.184,-0.288 -0.53334,-0.12798 -1.22667,-0.19198 -2.08,-0.192 -0.55467,2e-5 -1.10934,0.064 -1.664,0.192 -0.53334,0.10668 -0.88534,0.18135 -1.056,0.224 l 0,13.984 -2.976,0 0,-15.936 c 0.704,-0.25598 1.57866,-0.49065 2.624,-0.704 1.04533,-0.23465 2.21866,-0.35198 3.52,-0.352"
           style="font-size:32px;font-variant:normal;font-stretch:normal;text-align:start;line-height:125%;writing-mode:lr-tb;text-anchor:start;font-family:Ubuntu;-inkscape-font-specification:Ubuntu;fill:#ffffff"
           id="path3095"
           inkscape:connector-curvature="0" />
        <path
           d="m -396.07348,197.13235 c -1.34401,0 -2.52801,-0.21333 -3.552,-0.64 -1.00267,-0.42666 -1.856,-1.024 -2.56,-1.792 -0.68267,-0.768 -1.19467,-1.67466 -1.536,-2.72 -0.34133,-1.06666 -0.512,-2.23999 -0.512,-3.52 0,-1.27999 0.18133,-2.45332 0.544,-3.52 0.384,-1.06665 0.91733,-1.98398 1.6,-2.752 0.68266,-0.78932 1.51466,-1.39732 2.496,-1.824 1.00266,-0.44798 2.11199,-0.67198 3.328,-0.672 0.74666,2e-5 1.49332,0.064 2.24,0.192 0.74666,0.12802 1.46132,0.33069 2.144,0.608 l -0.672,2.528 c -0.44801,-0.21332 -0.97068,-0.38398 -1.568,-0.512 -0.57601,-0.12798 -1.19468,-0.19198 -1.856,-0.192 -1.66401,2e-5 -2.94401,0.52268 -3.84,1.568 -0.87467,1.04535 -1.312,2.57068 -1.312,4.576 0,0.89601 0.096,1.71734 0.288,2.464 0.21333,0.74667 0.53333,1.38667 0.96,1.92 0.448,0.53334 1.01333,0.94934 1.696,1.248 0.68266,0.27734 1.51466,0.416 2.496,0.416 0.78932,0 1.50399,-0.0747 2.144,-0.224 0.63999,-0.14933 1.14132,-0.30933 1.504,-0.48 l 0.416,2.496 c -0.17068,0.10667 -0.41601,0.21334 -0.736,0.32 -0.32001,0.0853 -0.68268,0.16 -1.088,0.224 -0.40534,0.0853 -0.84268,0.14934 -1.312,0.192 -0.44801,0.064 -0.88534,0.096 -1.312,0.096"
           style="font-size:32px;font-variant:normal;font-stretch:normal;text-align:start;line-height:125%;writing-mode:lr-tb;text-anchor:start;font-family:Ubuntu;-inkscape-font-specification:Ubuntu;fill:#ffffff"
           id="path3097"
           inkscape:connector-curvature="0" />
        <path
           d="m -388.43048,196.74835 0,-24.32 2.976,-0.512 0,8.512 c 0.55466,-0.21331 1.14133,-0.37331 1.76,-0.48 0.63999,-0.12798 1.26933,-0.19198 1.888,-0.192 1.32266,2e-5 2.42132,0.19202 3.296,0.576 0.87465,0.36268 1.56799,0.88535 2.08,1.568 0.53332,0.66135 0.90665,1.46135 1.12,2.4 0.21332,0.93868 0.31999,1.97335 0.32,3.104 l 0,9.344 -2.976,0 0,-8.704 c -1e-5,-1.02399 -0.0747,-1.89865 -0.224,-2.624 -0.12801,-0.72532 -0.35201,-1.31199 -0.672,-1.76 -0.32001,-0.44798 -0.74668,-0.76798 -1.28,-0.96 -0.53334,-0.21332 -1.19467,-0.31998 -1.984,-0.32 -0.32001,2e-5 -0.65067,0.0214 -0.992,0.064 -0.34134,0.0427 -0.67201,0.096 -0.992,0.16 -0.29867,0.0427 -0.576,0.096 -0.832,0.16 -0.23467,0.064 -0.40534,0.11735 -0.512,0.16 l 0,13.824 -2.976,0"
           style="font-size:32px;font-variant:normal;font-stretch:normal;text-align:start;line-height:125%;writing-mode:lr-tb;text-anchor:start;font-family:Ubuntu;-inkscape-font-specification:Ubuntu;fill:#ffffff"
           id="path3099"
           inkscape:connector-curvature="0" />
        <path
           d="m -310.92248,174.57235 0,2.688 -6.976,0 0,19.488 -3.104,0 0,-19.488 -6.976,0 0,-2.688 17.056,0"
           style="font-size:32px;font-variant:normal;font-stretch:normal;text-align:start;line-height:125%;writing-mode:lr-tb;text-anchor:start;font-family:Ubuntu;-inkscape-font-specification:Ubuntu;fill:#ffffff"
           id="path3101"
           inkscape:connector-curvature="0" />
        <path
           d="m -310.54598,188.46035 c 0,-1.47199 0.21333,-2.75199 0.64,-3.84 0.42667,-1.10932 0.992,-2.02665 1.696,-2.752 0.704,-0.72532 1.51466,-1.26932 2.432,-1.632 0.91733,-0.36265 1.85599,-0.54398 2.816,-0.544 2.23999,2e-5 3.95732,0.70402 5.152,2.112 1.19465,1.38668 1.79199,3.50935 1.792,6.368 -10e-6,0.12801 -10e-6,0.29868 0,0.512 -10e-6,0.19201 -0.0107,0.37334 -0.032,0.544 l -11.392,0 c 0.128,1.72801 0.62933,3.04001 1.504,3.936 0.87466,0.896 2.23999,1.344 4.096,1.344 1.04532,0 1.91999,-0.0853 2.624,-0.256 0.72532,-0.192 1.26932,-0.37333 1.632,-0.544 l 0.416,2.496 c -0.36268,0.192 -1.00268,0.39467 -1.92,0.608 -0.89601,0.21334 -1.92001,0.32 -3.072,0.32 -1.45067,0 -2.70934,-0.21333 -3.776,-0.64 -1.04534,-0.448 -1.90934,-1.056 -2.592,-1.824 -0.68267,-0.768 -1.19467,-1.67466 -1.536,-2.72 -0.32,-1.06666 -0.48,-2.22932 -0.48,-3.488 m 11.424,-1.632 c 0.0213,-1.34399 -0.32001,-2.44265 -1.024,-3.296 -0.68268,-0.87465 -1.63201,-1.31198 -2.848,-1.312 -0.68267,2e-5 -1.29067,0.13868 -1.824,0.416 -0.51201,0.25602 -0.94934,0.59735 -1.312,1.024 -0.36267,0.42668 -0.65067,0.91735 -0.864,1.472 -0.192,0.55468 -0.32,1.12001 -0.384,1.696 l 8.256,0"
           style="font-size:32px;font-variant:normal;font-stretch:normal;text-align:start;line-height:125%;writing-mode:lr-tb;text-anchor:start;font-family:Ubuntu;-inkscape-font-specification:Ubuntu;fill:#ffffff"
           id="path3103"
           inkscape:connector-curvature="0" />
        <path
           d="m -285.59898,179.75635 c 0.25599,2e-5 0.54399,0.0214 0.864,0.064 0.34132,0.0214 0.67199,0.064 0.992,0.128 0.31999,0.0427 0.60799,0.096 0.864,0.16 0.27732,0.0427 0.47999,0.0854 0.608,0.128 l -0.512,2.592 c -0.23468,-0.0853 -0.62934,-0.18132 -1.184,-0.288 -0.53334,-0.12798 -1.22667,-0.19198 -2.08,-0.192 -0.55467,2e-5 -1.10934,0.064 -1.664,0.192 -0.53334,0.10668 -0.88534,0.18135 -1.056,0.224 l 0,13.984 -2.976,0 0,-15.936 c 0.704,-0.25598 1.57866,-0.49065 2.624,-0.704 1.04533,-0.23465 2.21866,-0.35198 3.52,-0.352"
           style="font-size:32px;font-variant:normal;font-stretch:normal;text-align:start;line-height:125%;writing-mode:lr-tb;text-anchor:start;font-family:Ubuntu;-inkscape-font-specification:Ubuntu;fill:#ffffff"
           id="path3105"
           inkscape:connector-curvature="0" />
        <path
           d="m -279.36798,180.58835 c 0.68266,-0.17065 1.57866,-0.35198 2.688,-0.544 1.13066,-0.19198 2.43199,-0.28798 3.904,-0.288 1.06666,2e-5 1.96266,0.14935 2.688,0.448 0.72532,0.27735 1.33332,0.69335 1.824,1.248 0.14932,-0.10665 0.38399,-0.25598 0.704,-0.448 0.31999,-0.19198 0.71465,-0.37332 1.184,-0.544 0.46932,-0.19198 0.99198,-0.35198 1.568,-0.48 0.57598,-0.14931 1.19465,-0.22398 1.856,-0.224 1.27998,2e-5 2.32531,0.19202 3.136,0.576 0.81065,0.36268 1.43998,0.88535 1.888,1.568 0.46931,0.68268 0.77864,1.49335 0.928,2.432 0.17064,0.93868 0.25598,1.96268 0.256,3.072 l 0,9.344 -2.976,0 0,-8.704 c -2e-5,-0.98132 -0.0533,-1.82399 -0.16,-2.528 -0.0854,-0.70399 -0.26669,-1.29065 -0.544,-1.76 -0.25602,-0.46932 -0.61869,-0.81065 -1.088,-1.024 -0.44802,-0.23465 -1.03468,-0.35198 -1.76,-0.352 -1.00268,2e-5 -1.83468,0.13868 -2.496,0.416 -0.64001,0.25602 -1.07735,0.49068 -1.312,0.704 0.17065,0.55468 0.29865,1.16268 0.384,1.824 0.0853,0.66135 0.12799,1.35468 0.128,2.08 l 0,9.344 -2.976,0 0,-8.704 c -1e-5,-0.98132 -0.0533,-1.82399 -0.16,-2.528 -0.10668,-0.70399 -0.29868,-1.29065 -0.576,-1.76 -0.25601,-0.46932 -0.61868,-0.81065 -1.088,-1.024 -0.44801,-0.23465 -1.02401,-0.35198 -1.728,-0.352 -0.29867,2e-5 -0.61867,0.0107 -0.96,0.032 -0.34134,0.0213 -0.67201,0.0533 -0.992,0.096 -0.29867,0.0213 -0.576,0.0533 -0.832,0.096 -0.256,0.0427 -0.42667,0.0747 -0.512,0.096 l 0,14.048 -2.976,0 0,-16.16"
           style="font-size:32px;font-variant:normal;font-stretch:normal;text-align:start;line-height:125%;writing-mode:lr-tb;text-anchor:start;font-family:Ubuntu;-inkscape-font-specification:Ubuntu;fill:#ffffff"
           id="path3107"
           inkscape:connector-curvature="0" />
        <path
           d="m -248.82948,196.74835 -2.976,0 0,-16.64 2.976,0 0,16.64 m -1.504,-19.648 c -0.53334,2e-5 -0.992,-0.17064 -1.376,-0.512 -0.36267,-0.36264 -0.544,-0.84264 -0.544,-1.44 0,-0.59731 0.18133,-1.06664 0.544,-1.408 0.384,-0.36264 0.84266,-0.54397 1.376,-0.544 0.53333,3e-5 0.98133,0.18136 1.344,0.544 0.384,0.34136 0.576,0.81069 0.576,1.408 0,0.59736 -0.192,1.07736 -0.576,1.44 -0.36267,0.34136 -0.81067,0.51202 -1.344,0.512"
           style="font-size:32px;font-variant:normal;font-stretch:normal;text-align:start;line-height:125%;writing-mode:lr-tb;text-anchor:start;font-family:Ubuntu;-inkscape-font-specification:Ubuntu;fill:#ffffff"
           id="path3109"
           inkscape:connector-curvature="0" />
        <path
           d="m -243.68048,180.58835 c 0.68266,-0.17065 1.58933,-0.35198 2.72,-0.544 1.13066,-0.19198 2.43199,-0.28798 3.904,-0.288 1.32266,2e-5 2.42132,0.19202 3.296,0.576 0.87465,0.36268 1.56799,0.88535 2.08,1.568 0.53332,0.66135 0.90665,1.46135 1.12,2.4 0.21332,0.93868 0.31999,1.97335 0.32,3.104 l 0,9.344 -2.976,0 0,-8.704 c -1e-5,-1.02399 -0.0747,-1.89865 -0.224,-2.624 -0.12801,-0.72532 -0.35201,-1.31199 -0.672,-1.76 -0.32001,-0.44798 -0.74668,-0.76798 -1.28,-0.96 -0.53334,-0.21332 -1.19467,-0.31998 -1.984,-0.32 -0.32001,2e-5 -0.65067,0.0107 -0.992,0.032 -0.34134,0.0213 -0.67201,0.0533 -0.992,0.096 -0.29867,0.0213 -0.576,0.0533 -0.832,0.096 -0.23467,0.0427 -0.40534,0.0747 -0.512,0.096 l 0,14.048 -2.976,0 0,-16.16"
           style="font-size:32px;font-variant:normal;font-stretch:normal;text-align:start;line-height:125%;writing-mode:lr-tb;text-anchor:start;font-family:Ubuntu;-inkscape-font-specification:Ubuntu;fill:#ffffff"
           id="path3111"
           inkscape:connector-curvature="0" />
        <path
           d="m -219.67348,194.60435 c 0.70399,0 1.32266,-0.0107 1.856,-0.032 0.55466,-0.0427 1.01332,-0.10666 1.376,-0.192 l 0,-4.96 c -0.21334,-0.10666 -0.56534,-0.19199 -1.056,-0.256 -0.46934,-0.0853 -1.04534,-0.12799 -1.728,-0.128 -0.44801,1e-5 -0.92801,0.032 -1.44,0.096 -0.49067,0.064 -0.94934,0.20268 -1.376,0.416 -0.40534,0.19201 -0.74667,0.46934 -1.024,0.832 -0.27734,0.34134 -0.416,0.80001 -0.416,1.376 0,1.06667 0.34133,1.81334 1.024,2.24 0.68266,0.40534 1.61066,0.608 2.784,0.608 m -0.256,-14.912 c 1.19466,2e-5 2.19732,0.16002 3.008,0.48 0.83199,0.29868 1.49332,0.73602 1.984,1.312 0.51199,0.55468 0.87465,1.22668 1.088,2.016 0.21332,0.76801 0.31999,1.62135 0.32,2.56 l 0,10.4 c -0.25601,0.0427 -0.61868,0.10667 -1.088,0.192 -0.44801,0.064 -0.96001,0.128 -1.536,0.192 -0.57601,0.064 -1.20534,0.11734 -1.888,0.16 -0.66134,0.064 -1.32267,0.096 -1.984,0.096 -0.93867,0 -1.80267,-0.096 -2.592,-0.288 -0.78934,-0.192 -1.472,-0.49066 -2.048,-0.896 -0.576,-0.42666 -1.024,-0.98133 -1.344,-1.664 -0.32,-0.68266 -0.48,-1.50399 -0.48,-2.464 0,-0.91733 0.18133,-1.70666 0.544,-2.368 0.384,-0.66132 0.896,-1.19466 1.536,-1.6 0.64,-0.40532 1.38666,-0.70399 2.24,-0.896 0.85333,-0.19199 1.74933,-0.28799 2.688,-0.288 0.29866,1e-5 0.60799,0.0214 0.928,0.064 0.31999,0.0214 0.61866,0.064 0.896,0.128 0.29866,0.0427 0.55466,0.0854 0.768,0.128 0.21332,0.0427 0.36266,0.0747 0.448,0.096 l 0,-0.832 c -10e-6,-0.49065 -0.0533,-0.97065 -0.16,-1.44 -0.10668,-0.49065 -0.29868,-0.91732 -0.576,-1.28 -0.27734,-0.38398 -0.66134,-0.68265 -1.152,-0.896 -0.46934,-0.23465 -1.08801,-0.35198 -1.856,-0.352 -0.98134,2e-5 -1.84534,0.0747 -2.592,0.224 -0.72534,0.12802 -1.26934,0.26668 -1.632,0.416 l -0.352,-2.464 c 0.384,-0.17065 1.024,-0.33065 1.92,-0.48 0.896,-0.17065 1.86666,-0.25598 2.912,-0.256"
           style="font-size:32px;font-variant:normal;font-stretch:normal;text-align:start;line-height:125%;writing-mode:lr-tb;text-anchor:start;font-family:Ubuntu;-inkscape-font-specification:Ubuntu;fill:#ffffff"
           id="path3113"
           inkscape:connector-curvature="0" />
        <path
           d="m -203.62598,197.06835 c -1.83467,-0.0427 -3.136,-0.43733 -3.904,-1.184 -0.768,-0.74666 -1.152,-1.90933 -1.152,-3.488 l 0,-19.968 2.976,-0.512 0,20 c 0,0.49067 0.0427,0.89601 0.128,1.216 0.0853,0.32001 0.224,0.57601 0.416,0.768 0.192,0.192 0.448,0.34134 0.768,0.448 0.31999,0.0853 0.71466,0.16 1.184,0.224 l -0.416,2.496"
           style="font-size:32px;font-variant:normal;font-stretch:normal;text-align:start;line-height:125%;writing-mode:lr-tb;text-anchor:start;font-family:Ubuntu;-inkscape-font-specification:Ubuntu;fill:#ffffff"
           id="path3115"
           inkscape:connector-curvature="0" />
        <path
           d="m -126.72398,174.57235 3.104,0 0,22.176 -3.104,0 0,-10.24 -10.848,0 0,10.24 -3.104,0 0,-22.176 3.104,0 0,9.248 10.848,0 0,-9.248"
           style="font-size:32px;font-variant:normal;font-stretch:normal;text-align:start;line-height:125%;writing-mode:lr-tb;text-anchor:start;font-family:Ubuntu;-inkscape-font-specification:Ubuntu;fill:#ffffff"
           id="path3117"
           inkscape:connector-curvature="0" />
        <path
           d="m -119.23348,188.46035 c 0,-1.47199 0.21333,-2.75199 0.64,-3.84 0.42667,-1.10932 0.992,-2.02665 1.696,-2.752 0.704,-0.72532 1.51466,-1.26932 2.432,-1.632 0.91733,-0.36265 1.85599,-0.54398 2.816,-0.544 2.23999,2e-5 3.95732,0.70402 5.152,2.112 1.19465,1.38668 1.79199,3.50935 1.792,6.368 -1e-5,0.12801 -1e-5,0.29868 0,0.512 -1e-5,0.19201 -0.0107,0.37334 -0.032,0.544 l -11.392,0 c 0.128,1.72801 0.62933,3.04001 1.504,3.936 0.87466,0.896 2.23999,1.344 4.096,1.344 1.04532,0 1.91999,-0.0853 2.624,-0.256 0.72532,-0.192 1.26932,-0.37333 1.632,-0.544 l 0.416,2.496 c -0.36268,0.192 -1.00268,0.39467 -1.92,0.608 -0.89601,0.21334 -1.92001,0.32 -3.072,0.32 -1.45067,0 -2.70934,-0.21333 -3.776,-0.64 -1.04534,-0.448 -1.90934,-1.056 -2.592,-1.824 -0.68267,-0.768 -1.19467,-1.67466 -1.536,-2.72 -0.32,-1.06666 -0.48,-2.22932 -0.48,-3.488 m 11.424,-1.632 c 0.0213,-1.34399 -0.32001,-2.44265 -1.024,-3.296 -0.68268,-0.87465 -1.63201,-1.31198 -2.848,-1.312 -0.68267,2e-5 -1.29067,0.13868 -1.824,0.416 -0.51201,0.25602 -0.94934,0.59735 -1.312,1.024 -0.36267,0.42668 -0.65067,0.91735 -0.864,1.472 -0.192,0.55468 -0.32,1.12001 -0.384,1.696 l 8.256,0"
           style="font-size:32px;font-variant:normal;font-stretch:normal;text-align:start;line-height:125%;writing-mode:lr-tb;text-anchor:start;font-family:Ubuntu;-inkscape-font-specification:Ubuntu;fill:#ffffff"
           id="path3119"
           inkscape:connector-curvature="0" />
        <path
           d="m -95.438479,197.06835 c -1.834672,-0.0427 -3.136004,-0.43733 -3.904,-1.184 -0.768001,-0.74666 -1.152001,-1.90933 -1.152001,-3.488 l 0,-19.968 2.976001,-0.512 0,20 c -5e-6,0.49067 0.04266,0.89601 0.128,1.216 0.08533,0.32001 0.223995,0.57601 0.416,0.768 0.191994,0.192 0.447994,0.34134 0.768,0.448 0.319993,0.0853 0.71466,0.16 1.184,0.224 l -0.416,2.496"
           style="font-size:32px;font-variant:normal;font-stretch:normal;text-align:start;line-height:125%;writing-mode:lr-tb;text-anchor:start;font-family:Ubuntu;-inkscape-font-specification:Ubuntu;fill:#ffffff"
           id="path3121"
           inkscape:connector-curvature="0" />
        <path
           d="m -80.128479,188.46035 c -1.4e-5,-1.94132 -0.480013,-3.43465 -1.44,-4.48 -0.960011,-1.04532 -2.24001,-1.56798 -3.84,-1.568 -0.896007,2e-5 -1.600007,0.032 -2.112,0.096 -0.490672,0.064 -0.885339,0.13868 -1.184,0.224 l 0,10.496 c 0.362661,0.29867 0.885327,0.58667 1.568,0.864 0.682659,0.27734 1.429325,0.416 2.24,0.416 0.853324,0 1.578656,-0.14933 2.176,-0.448 0.618655,-0.31999 1.119988,-0.74666 1.504,-1.28 0.383987,-0.55466 0.66132,-1.19466 0.832,-1.92 0.170653,-0.74666 0.255986,-1.54666 0.256,-2.4 m 3.104,0 c -1.7e-5,1.25868 -0.170683,2.42134 -0.512,3.488 -0.320016,1.06667 -0.800015,1.984 -1.44,2.752 -0.640014,0.768 -1.429347,1.36534 -2.368,1.792 -0.917345,0.42667 -1.973344,0.64 -3.168,0.64 -0.960008,0 -1.813341,-0.128 -2.56,-0.384 -0.725339,-0.256 -1.269339,-0.50133 -1.632,-0.736 l 0,6.656 -2.976,0 0,-22.048 c 0.703997,-0.17065 1.578663,-0.35198 2.624,-0.544 1.066661,-0.21331 2.293326,-0.31998 3.68,-0.32 1.27999,2e-5 2.431989,0.20269 3.456,0.608 1.023987,0.40535 1.898653,0.98135 2.624,1.728 0.725318,0.74668 1.279984,1.66402 1.664,2.752 0.405317,1.06668 0.607983,2.27201 0.608,3.616"
           style="font-size:32px;font-variant:normal;font-stretch:normal;text-align:start;line-height:125%;writing-mode:lr-tb;text-anchor:start;font-family:Ubuntu;-inkscape-font-specification:Ubuntu;fill:#ffffff"
           id="path3123"
           inkscape:connector-curvature="0" />
      </g>
      <path
         style="fill:url(#linearGradient3219);fill-opacity:1;stroke:#000000;stroke-width:1.46593845;stroke-miterlimit:4;stroke-dasharray:none"
         d="m 31.210219,19.889312 c -8.669319,0 -15.64104,6.98263 -15.64104,15.651949 l 0,9.282096 387.917451,0 0,-9.282096 c 0,-8.669319 -6.97172,-15.651949 -15.64107,-15.651949 l -356.635341,0 z"
         id="path3860"
         inkscape:connector-curvature="0" />
      <g
         transform="matrix(0.38237593,0,0,0.31859753,295.89487,-10.355019)"
         style="font-size:36.51202393px;font-style:normal;font-weight:normal;line-height:125%;letter-spacing:0px;word-spacing:0px;fill:#ffffff;fill-opacity:1;stroke:none;font-family:Sans"
         id="text3870">
        <path
           d="m -307.07156,117.20287 0,4.8561 -7.63102,0 0,20.44674 -5.69587,0 0,-20.44674 -7.63101,0 0,-4.8561 20.9579,0"
           style="font-variant:normal;font-weight:bold;font-stretch:normal;fill:#ffffff;font-family:Ubuntu;-inkscape-font-specification:Ubuntu Bold"
           id="path3126"
           inkscape:connector-curvature="0" />
        <path
           d="m -307.4344,133.04909 c 0,-1.70388 0.25558,-3.1887 0.76675,-4.45446 0.53551,-1.29008 1.22924,-2.3611 2.08119,-3.21306 0.85194,-0.85193 1.82559,-1.49698 2.92096,-1.93514 1.11969,-0.43812 2.26373,-0.6572 3.43213,-0.65722 2.72622,2e-5 4.88042,0.8398 6.46263,2.51933 1.58217,1.65523 2.37326,4.10153 2.37328,7.33892 -2e-5,0.31645 -0.0122,0.6694 -0.0365,1.05885 -0.0244,0.36513 -0.0487,0.69374 -0.073,0.98582 l -12.34106,0 c 0.1217,1.11971 0.64504,2.00817 1.57002,2.66538 0.92496,0.65722 2.16636,0.98583 3.72422,0.98583 0.99798,0 1.97164,-0.0852 2.92096,-0.25559 0.97364,-0.19472 1.76473,-0.42597 2.37329,-0.69373 l 0.73024,4.41796 c -0.29212,0.14605 -0.68158,0.29209 -1.16839,0.43814 -0.48684,0.14605 -1.03452,0.26776 -1.64304,0.36512 -0.58421,0.12171 -1.21708,0.21907 -1.89863,0.2921 -0.68157,0.073 -1.36312,0.10953 -2.04467,0.10954 -1.72824,-10e-6 -3.23741,-0.25559 -4.52749,-0.76676 -1.26576,-0.51116 -2.3246,-1.20489 -3.17655,-2.08118 -0.8276,-0.90063 -1.44831,-1.95948 -1.86211,-3.17655 -0.38946,-1.21706 -0.58419,-2.53149 -0.58419,-3.9433 m 12.77921,-2.08118 c -0.0244,-0.46248 -0.10955,-0.91279 -0.25559,-1.35095 -0.12172,-0.43813 -0.32862,-0.82759 -0.6207,-1.16838 -0.26777,-0.34077 -0.62072,-0.62069 -1.05885,-0.83978 -0.41381,-0.21906 -0.93715,-0.32859 -1.57002,-0.32861 -0.60854,2e-5 -1.13188,0.10955 -1.57001,0.32861 -0.43816,0.19475 -0.80328,0.4625 -1.09536,0.80327 -0.29211,0.34079 -0.52335,0.74242 -0.69373,1.20489 -0.14606,0.43816 -0.25559,0.88847 -0.32861,1.35095 l 7.19287,0"
           style="font-variant:normal;font-weight:bold;font-stretch:normal;fill:#ffffff;font-family:Ubuntu;-inkscape-font-specification:Ubuntu Bold"
           id="path3128"
           inkscape:connector-curvature="0" />
        <path
           d="m -273.62484,128.11997 c -0.48684,-0.12169 -1.05886,-0.2434 -1.71606,-0.36512 -0.65723,-0.14603 -1.36313,-0.21906 -2.1177,-0.21907 -0.34079,1e-5 -0.75459,0.0365 -1.24141,0.10953 -0.46249,0.0487 -0.81544,0.10955 -1.05885,0.18256 l 0,14.67784 -5.44029,0 0,-18.18299 c 0.97365,-0.34076 2.11769,-0.6572 3.43213,-0.94931 1.33877,-0.31642 2.82359,-0.47464 4.45447,-0.47466 0.29208,2e-5 0.64503,0.0244 1.05885,0.073 0.41379,0.0244 0.82759,0.073 1.24141,0.14605 0.41379,0.0487 0.82759,0.12173 1.24141,0.21907 0.41378,0.0731 0.76673,0.17041 1.05884,0.2921 l -0.9128,4.49098"
           style="font-variant:normal;font-weight:bold;font-stretch:normal;fill:#ffffff;font-family:Ubuntu;-inkscape-font-specification:Ubuntu Bold"
           id="path3130"
           inkscape:connector-curvature="0" />
        <path
           d="m -259.24367,132.31885 c -10e-6,-1.75256 -0.23125,-2.99397 -0.69372,-3.72422 -0.43816,-0.73023 -1.20491,-1.09535 -2.30026,-1.09537 -0.34079,2e-5 -0.69374,0.0244 -1.05885,0.073 -0.36513,0.0244 -0.71808,0.0609 -1.05885,0.10954 l 0,14.82388 -5.44029,0 0,-18.54811 c 0.46248,-0.12169 0.99799,-0.2434 1.60653,-0.36512 0.63287,-0.14603 1.29008,-0.26774 1.97165,-0.36512 0.70589,-0.12169 1.42396,-0.20688 2.15421,-0.25559 0.73023,-0.073 1.4483,-0.10951 2.15421,-0.10953 1.38744,2e-5 2.50714,0.18258 3.3591,0.54768 0.87628,0.3408 1.59435,0.7546 2.15421,1.24141 0.77891,-0.55984 1.66737,-0.99798 2.66538,-1.31444 1.02232,-0.31641 1.95946,-0.47463 2.81143,-0.47465 1.53348,2e-5 2.78706,0.21909 3.76073,0.65721 0.99797,0.41383 1.78907,1.01019 2.37329,1.78909 0.58416,0.77894 0.98579,1.70391 1.20489,2.77492 0.21905,1.07103 0.32858,2.26375 0.32861,3.57818 l 0,10.84407 -5.44029,0 0,-10.18686 c -2e-5,-1.75256 -0.23127,-2.99397 -0.69373,-3.72422 -0.43817,-0.73023 -1.20492,-1.09535 -2.30026,-1.09537 -0.29211,2e-5 -0.70592,0.073 -1.24141,0.21908 -0.51118,0.14606 -0.93716,0.32862 -1.27792,0.54768 0.17037,0.55986 0.27991,1.15622 0.32861,1.78909 0.0487,0.60854 0.073,1.26576 0.073,1.97165 l 0,10.47895 -5.4403,0 0,-10.18686"
           style="font-variant:normal;font-weight:bold;font-stretch:normal;fill:#ffffff;font-family:Ubuntu;-inkscape-font-specification:Ubuntu Bold"
           id="path3132"
           inkscape:connector-curvature="0" />
        <path
           d="m -232.90652,142.50571 -5.44029,0 0,-19.20533 5.44029,0 0,19.20533 m 0.51117,-24.75516 c -1e-5,0.99802 -0.32861,1.78912 -0.98582,2.37329 -0.63288,0.55987 -1.38747,0.83979 -2.26375,0.83977 -0.87629,2e-5 -1.64304,-0.2799 -2.30025,-0.83977 -0.63288,-0.58417 -0.94932,-1.37527 -0.94932,-2.37329 0,-0.99797 0.31644,-1.77689 0.94932,-2.33676 0.65721,-0.58417 1.42396,-0.87627 2.30025,-0.87629 0.87628,2e-5 1.63087,0.29212 2.26375,0.87629 0.65721,0.55987 0.98581,1.33879 0.98582,2.33676"
           style="font-variant:normal;font-weight:bold;font-stretch:normal;fill:#ffffff;font-family:Ubuntu;-inkscape-font-specification:Ubuntu Bold"
           id="path3134"
           inkscape:connector-curvature="0" />
        <path
           d="m -227.79255,123.9576 c 0.92497,-0.26774 2.1177,-0.51115 3.57818,-0.73024 1.46047,-0.2434 2.99398,-0.3651 4.60052,-0.36512 1.63085,2e-5 2.9818,0.21909 4.05283,0.65721 1.09535,0.41383 1.95946,1.01019 2.59235,1.78909 0.63286,0.77894 1.08318,1.70391 1.35095,2.77492 0.26774,1.07103 0.40161,2.26375 0.40163,3.57818 l 0,10.84407 -5.44029,0 0,-10.18686 c -10e-6,-1.75256 -0.23126,-2.99397 -0.69373,-3.72422 -0.4625,-0.73023 -1.32661,-1.09535 -2.59235,-1.09537 -0.38947,2e-5 -0.80328,0.0244 -1.24141,0.073 -0.43815,0.0244 -0.82761,0.0609 -1.16839,0.10954 l 0,14.82388 -5.44029,0 0,-18.54811"
           style="font-variant:normal;font-weight:bold;font-stretch:normal;fill:#ffffff;font-family:Ubuntu;-inkscape-font-specification:Ubuntu Bold"
           id="path3136"
           inkscape:connector-curvature="0" />
        <path
           d="m -198.91725,138.70846 c 0.5355,0 1.04667,-0.0122 1.53351,-0.0365 0.48681,-0.0243 0.87628,-0.0609 1.16838,-0.10953 l 0,-4.12586 c -0.21908,-0.0487 -0.54769,-0.0974 -0.98582,-0.14605 -0.43816,-0.0487 -0.83979,-0.073 -1.2049,-0.073 -0.51118,1e-5 -0.998,0.0365 -1.46048,0.10953 -0.43815,0.0487 -0.82761,0.15823 -1.16838,0.32861 -0.34079,0.1704 -0.60854,0.40164 -0.80327,0.69373 -0.19474,0.2921 -0.2921,0.65722 -0.29209,1.09536 -1e-5,0.85195 0.27991,1.44832 0.83977,1.78909 0.58419,0.31644 1.37528,0.47466 2.37328,0.47466 m -0.43814,-15.91925 c 1.60652,2e-5 2.94529,0.18258 4.01632,0.54768 1.07101,0.36514 1.92295,0.88848 2.55584,1.57002 0.6572,0.68158 1.11969,1.50918 1.38746,2.48282 0.26774,0.97367 0.40162,2.05686 0.40163,3.24957 l 0,11.31873 c -0.77894,0.17039 -1.86213,0.36512 -3.24957,0.58419 -1.38747,0.24341 -3.06702,0.36512 -5.03866,0.36512 -1.24141,0 -2.37328,-0.10954 -3.39561,-0.32861 -0.998,-0.21907 -1.86212,-0.57202 -2.59236,-1.05885 -0.73024,-0.51116 -1.29009,-1.16838 -1.67955,-1.97165 -0.38946,-0.80326 -0.58419,-1.78908 -0.58419,-2.95747 0,-1.1197 0.21907,-2.06901 0.65721,-2.84794 0.46249,-0.77891 1.07102,-1.39962 1.8256,-1.86211 0.75458,-0.46248 1.6187,-0.79108 2.59236,-0.98583 0.97364,-0.21906 1.98381,-0.32859 3.0305,-0.32861 0.70589,2e-5 1.32659,0.0365 1.86211,0.10954 0.55984,0.0487 1.01015,0.12172 1.35094,0.21907 l 0,-0.51117 c -1e-5,-0.92495 -0.27993,-1.66736 -0.83977,-2.22723 -0.55986,-0.55983 -1.53352,-0.83976 -2.92096,-0.83978 -0.92498,2e-5 -1.83778,0.073 -2.73841,0.21908 -0.90063,0.12172 -1.67955,0.30428 -2.33677,0.54768 l -0.69372,-4.38145 c 0.31643,-0.0973 0.70589,-0.19471 1.16838,-0.29209 0.48682,-0.12169 1.01016,-0.21905 1.57002,-0.2921 0.55984,-0.0973 1.14403,-0.17037 1.75257,-0.21907 0.63287,-0.073 1.26575,-0.10952 1.89863,-0.10954"
           style="font-variant:normal;font-weight:bold;font-stretch:normal;fill:#ffffff;font-family:Ubuntu;-inkscape-font-specification:Ubuntu Bold"
           id="path3138"
           inkscape:connector-curvature="0" />
        <path
           d="m -178.40719,142.87083 c -1.58219,-0.0243 -2.87228,-0.19473 -3.87027,-0.51117 -0.97366,-0.31644 -1.75258,-0.75458 -2.33677,-1.31443 -0.55986,-0.58419 -0.94932,-1.27792 -1.16839,-2.08119 -0.19473,-0.8276 -0.2921,-1.75257 -0.29209,-2.77491 l 0,-21.14047 5.44029,-0.87628 0,20.92139 c -1e-5,0.48683 0.0365,0.92497 0.10954,1.31443 0.073,0.38947 0.20689,0.71807 0.40163,0.98582 0.21906,0.26776 0.52333,0.48684 0.9128,0.65722 0.38945,0.17039 0.91279,0.27993 1.57002,0.32861 l -0.76676,4.49098"
           style="font-variant:normal;font-weight:bold;font-stretch:normal;fill:#ffffff;font-family:Ubuntu;-inkscape-font-specification:Ubuntu Bold"
           id="path3140"
           inkscape:connector-curvature="0" />
      </g>
      <g
         transform="matrix(0.30747291,0,0,0.39621058,295.89487,-10.355019)"
         style="font-size:20.73382378px;font-style:normal;font-weight:normal;line-height:125%;letter-spacing:0px;word-spacing:0px;fill:#ffffff;fill-opacity:1;stroke:none;font-family:Sans"
         id="text3874">
        <path
           d="m -888.16743,214.87263 c 0.58054,1e-5 1.16108,0.1797 1.74164,0.53908 0.58054,0.35939 0.87081,0.76716 0.87082,1.22329 -10e-6,0.29028 -0.10368,0.53909 -0.31101,0.74642 -0.20735,0.20734 -0.44924,0.31101 -0.72568,0.31101 -0.23499,0 -0.50453,-0.1244 -0.80862,-0.37321 -0.3041,-0.2488 -0.57364,-0.3732 -0.80862,-0.37321 -0.33175,1e-5 -0.73951,0.15205 -1.22329,0.45614 -0.46998,0.29028 -1.20257,0.84318 -2.19779,1.65871 l 0,3.04787 2.882,0 c 0.9261,0 1.38916,0.34557 1.38917,1.03669 -1e-5,0.69113 -0.46307,1.03669 -1.38917,1.03669 l -6.15794,0 c -0.91229,0 -1.36844,-0.34556 -1.36844,-1.03669 0,-0.40085 0.11749,-0.67039 0.35248,-0.80862 0.23498,-0.15204 0.57363,-0.22807 1.01596,-0.22807 l 1.20256,0 0,-4.91391 -0.72569,0 c -0.91229,0 -1.36843,-0.34556 -1.36843,-1.0367 0,-0.69111 0.45614,-1.03668 1.36843,-1.03669 l 2.79907,0 0,1.3477 c 0.82935,-0.62201 1.48592,-1.04359 1.96971,-1.26476 0.48379,-0.22115 0.9814,-0.33173 1.49284,-0.33174"
           style="font-variant:normal;font-weight:bold;font-stretch:normal;text-align:start;line-height:125%;writing-mode:lr-tb;text-anchor:start;fill:#ffffff;font-family:FreeMono;-inkscape-font-specification:FreeMono Bold"
           id="path3143"
           inkscape:connector-curvature="0" />
        <path
           d="m -878.67944,214.85189 c 1.46518,1e-5 2.70921,0.46998 3.73209,1.4099 1.03668,0.93994 1.55502,2.0803 1.55504,3.42108 -2e-5,1.35462 -0.51836,2.50189 -1.55504,3.44182 -1.0367,0.92611 -2.30146,1.38916 -3.79429,1.38916 -1.49284,0 -2.7576,-0.46305 -3.79429,-1.38916 -1.03669,-0.93993 -1.55504,-2.0872 -1.55504,-3.44182 0,-1.36842 0.51835,-2.51569 1.55504,-3.44181 1.03669,-0.9261 2.32218,-1.38916 3.85649,-1.38917 m -0.0207,2.07339 c -0.93994,0 -1.72783,0.26263 -2.36366,0.78788 -0.63584,0.52526 -0.95376,1.18183 -0.95375,1.96971 -10e-6,0.77407 0.311,1.43064 0.93302,1.96972 0.63583,0.52526 1.4168,0.78788 2.34292,0.78788 0.9261,0 1.70017,-0.26262 2.32219,-0.78788 0.63583,-0.53908 0.95374,-1.19565 0.95375,-1.96972 -10e-6,-0.77405 -0.31792,-1.42371 -0.95375,-1.94898 -0.62202,-0.53907 -1.38226,-0.80861 -2.28072,-0.80861"
           style="font-variant:normal;font-weight:bold;font-stretch:normal;text-align:start;line-height:125%;writing-mode:lr-tb;text-anchor:start;fill:#ffffff;font-family:FreeMono;-inkscape-font-specification:FreeMono Bold"
           id="path3145"
           inkscape:connector-curvature="0" />
        <path
           d="m -866.24724,214.85189 c 1.46518,1e-5 2.70921,0.46998 3.73208,1.4099 1.03668,0.93994 1.55503,2.0803 1.55504,3.42108 -1e-5,1.35462 -0.51836,2.50189 -1.55504,3.44182 -1.0367,0.92611 -2.30146,1.38916 -3.79429,1.38916 -1.49284,0 -2.7576,-0.46305 -3.79429,-1.38916 -1.03669,-0.93993 -1.55503,-2.0872 -1.55503,-3.44182 0,-1.36842 0.51834,-2.51569 1.55503,-3.44181 1.03669,-0.9261 2.32219,-1.38916 3.8565,-1.38917 m -0.0207,2.07339 c -0.93994,0 -1.72782,0.26263 -2.36365,0.78788 -0.63584,0.52526 -0.95376,1.18183 -0.95376,1.96971 0,0.77407 0.311,1.43064 0.93302,1.96972 0.63584,0.52526 1.41681,0.78788 2.34292,0.78788 0.92611,0 1.70017,-0.26262 2.32219,-0.78788 0.63583,-0.53908 0.95375,-1.19565 0.95376,-1.96972 -10e-6,-0.77405 -0.31793,-1.42371 -0.95376,-1.94898 -0.62202,-0.53907 -1.38226,-0.80861 -2.28072,-0.80861"
           style="font-variant:normal;font-weight:bold;font-stretch:normal;text-align:start;line-height:125%;writing-mode:lr-tb;text-anchor:start;fill:#ffffff;font-family:FreeMono;-inkscape-font-specification:FreeMono Bold"
           id="path3147"
           inkscape:connector-curvature="0" />
        <path
           d="m -855.66036,221.25864 c 0,0.42851 0.11749,0.7326 0.35248,0.91229 0.23497,0.1797 0.71185,0.26954 1.43063,0.26954 0.53907,0 1.02977,-0.0484 1.4721,-0.14513 0.45614,-0.0968 0.79479,-0.20043 1.01596,-0.31101 0.23497,-0.1244 0.46305,-0.23498 0.68422,-0.33174 0.23497,-0.0968 0.42848,-0.14514 0.58054,-0.14514 0.27644,0 0.51143,0.10367 0.70495,0.31101 0.19351,0.20734 0.29026,0.45614 0.29028,0.74642 -2e-5,0.38703 -0.2972,0.7395 -0.89156,1.05742 -0.58056,0.3041 -1.23021,0.52526 -1.94898,0.66348 -0.70496,0.15205 -1.3477,0.22807 -1.92824,0.22807 -1.17493,0 -2.10795,-0.25571 -2.79907,-0.76715 -0.69113,-0.51143 -1.03669,-1.20947 -1.03669,-2.09411 l 0,-4.45777 -0.72568,0 c -0.91229,0 -1.36844,-0.34556 -1.36844,-1.0367 0,-0.40084 0.11749,-0.67038 0.35248,-0.80862 0.23498,-0.15203 0.57363,-0.22806 1.01596,-0.22807 l 0.72568,0 0,-1.82457 c 0,-0.91228 0.34556,-1.36842 1.03669,-1.36844 0.40085,2e-5 0.67039,0.11751 0.80862,0.35248 0.15204,0.23499 0.22807,0.57365 0.22807,1.01596 l 0,1.82457 3.75282,0 c 0.44232,1e-5 0.78097,0.076 1.01596,0.22807 0.23497,0.13824 0.35247,0.40778 0.35248,0.80862 -1e-5,0.69114 -0.45616,1.0367 -1.36844,1.0367 l -3.75282,0 0,4.06382"
           style="font-variant:normal;font-weight:bold;font-stretch:normal;text-align:start;line-height:125%;writing-mode:lr-tb;text-anchor:start;fill:#ffffff;font-family:FreeMono;-inkscape-font-specification:FreeMono Bold"
           id="path3149"
           inkscape:connector-curvature="0" />
        <path
           d="m -841.40359,227.33365 c -0.71878,0 -1.36152,-0.14513 -1.92824,-0.43541 -0.56673,-0.29027 -1.01596,-0.65657 -1.3477,-1.09889 -0.33175,-0.44232 -0.6082,-0.96067 -0.82936,-1.55503 -0.22116,-0.58055 -0.37321,-1.13345 -0.45614,-1.65871 -0.0829,-0.53908 -0.1244,-1.07125 -0.1244,-1.59651 l 0,-3.50401 c 0,-1.7831 0.43541,-3.2552 1.30623,-4.41631 0.88464,-1.16108 2.00426,-1.74162 3.35888,-1.74164 1.11962,2e-5 2.03882,0.37322 2.7576,1.11963 0.71876,0.74643 1.07815,1.69327 1.07816,2.84053 l 0,5.82621 c 0.3179,0.13823 0.47686,0.38012 0.47687,0.72568 -1e-5,0.56673 -0.38013,0.85009 -1.14036,0.85009 l -0.97449,0 0,-0.0622 c -0.31792,0.0415 -0.546,0.0622 -0.68421,0.0622 -0.88465,0 -1.64489,-0.31792 -2.28072,-0.95376 -0.63585,-0.63583 -0.95376,-1.38225 -0.95376,-2.23925 0,-0.96757 0.35938,-1.77619 1.07816,-2.42586 0.73259,-0.66347 1.67943,-1.03668 2.84053,-1.11962 l 0,-0.66349 c -10e-6,-0.69111 -0.20734,-1.25093 -0.62201,-1.67944 -0.40086,-0.42848 -0.91921,-0.64273 -1.55504,-0.64275 -0.87082,2e-5 -1.59651,0.44234 -2.17705,1.32697 -0.58055,0.88465 -0.87082,1.99045 -0.87082,3.31741 l 0,3.23448 c 0,0.52526 0.0484,1.05051 0.14514,1.57577 0.0968,0.51143 0.2488,1.02978 0.45614,1.55504 0.22116,0.52525 0.54599,0.94684 0.97449,1.26476 0.42849,0.31792 0.93993,0.47688 1.5343,0.47688 0.46996,0 0.87082,-0.0553 1.20256,-0.16587 0.34556,-0.0968 0.58746,-0.21425 0.72569,-0.35248 0.13822,-0.1244 0.27644,-0.24189 0.41468,-0.35247 0.15203,-0.0968 0.29717,-0.14514 0.43541,-0.14514 0.23497,0 0.42849,0.0829 0.58054,0.24881 0.16586,0.16586 0.2488,0.36629 0.24881,0.60128 -10e-6,0.48378 -0.36631,0.89846 -1.09889,1.24403 -0.71878,0.35938 -1.57578,0.53907 -2.571,0.53907 m 2.17705,-6.36528 0,-3.33814 c -0.69113,0.0691 -1.24403,0.27645 -1.6587,0.62201 -0.41469,0.33175 -0.62202,0.75333 -0.62202,1.26476 0,0.42851 0.16587,0.78789 0.49761,1.07816 0.33174,0.27646 0.74641,0.41468 1.24403,0.41468 0.16587,0 0.34556,-0.0138 0.53908,-0.0415"
           style="font-variant:normal;font-weight:bold;font-stretch:normal;text-align:start;line-height:125%;writing-mode:lr-tb;text-anchor:start;fill:#ffffff;font-family:FreeMono;-inkscape-font-specification:FreeMono Bold"
           id="path3151"
           inkscape:connector-curvature="0" />
        <path
           d="m -833.05596,212.2809 c 0,-0.40084 0.11749,-0.67038 0.35248,-0.80862 0.23498,-0.15204 0.58054,-0.22806 1.03669,-0.22807 l 3.69062,0 0,10.86452 2.52953,0 c 0.91227,0 1.36842,0.34557 1.36843,1.03669 -10e-6,0.69113 -0.45616,1.03669 -1.36843,1.03669 l -7.13244,0 c -0.91229,0 -1.36843,-0.34556 -1.36843,-1.03669 0,-0.40085 0.11749,-0.67039 0.35247,-0.80862 0.23498,-0.15204 0.57364,-0.22807 1.01596,-0.22807 l 2.52953,0 0,-8.79114 -1.61724,0 c -0.92612,1e-5 -1.38917,-0.34555 -1.38917,-1.03669"
           style="font-variant:normal;font-weight:bold;font-stretch:normal;text-align:start;line-height:125%;writing-mode:lr-tb;text-anchor:start;fill:#ffffff;font-family:FreeMono;-inkscape-font-specification:FreeMono Bold"
           id="path3153"
           inkscape:connector-curvature="0" />
        <path
           d="m -813.01445,222.10873 c 0.91228,0 1.36842,0.34557 1.36844,1.03669 -2e-5,0.69113 -0.45616,1.03669 -1.36844,1.03669 l -7.13243,0 c -0.91229,0 -1.36844,-0.34556 -1.36843,-1.03669 -10e-6,-0.40085 0.11749,-0.67039 0.35247,-0.80862 0.23498,-0.15204 0.57363,-0.22807 1.01596,-0.22807 l 2.52952,0 0,-4.91391 -1.61723,0 c -0.92612,0 -1.38917,-0.34556 -1.38917,-1.0367 0,-0.41466 0.11749,-0.69111 0.35247,-0.82935 0.24881,-0.13822 0.59437,-0.20733 1.0367,-0.20734 l 3.69062,0 0,6.9873 2.52952,0 m -2.8198,-10.84379 0,2.17705 -2.44659,0 0,-2.17705 2.44659,0"
           style="font-variant:normal;font-weight:bold;font-stretch:normal;text-align:start;line-height:125%;writing-mode:lr-tb;text-anchor:start;fill:#ffffff;font-family:FreeMono;-inkscape-font-specification:FreeMono Bold"
           id="path3155"
           inkscape:connector-curvature="0" />
        <path
           d="m -808.52331,224.18211 c -0.91229,0 -1.36843,-0.34556 -1.36843,-1.03669 0,-0.69112 0.45614,-1.03669 1.36843,-1.03669 l 0.1244,0 0,-4.91391 c -0.84318,-0.0276 -1.26476,-0.37321 -1.26476,-1.0367 0,-0.69111 0.46305,-1.03668 1.38916,-1.03669 l 1.94898,0 0,0.99523 c 0.49761,-0.46996 0.95375,-0.79479 1.36844,-0.97449 0.41467,-0.19351 0.90537,-0.29027 1.4721,-0.29028 1.07815,1e-5 1.96279,0.30411 2.65393,0.91229 0.69111,0.6082 1.03668,1.4652 1.03669,2.571 l 0,3.77355 c 0.84316,0 1.26475,0.34557 1.26476,1.03669 -10e-6,0.69113 -0.45615,1.03669 -1.36843,1.03669 l -1.84531,0 c -0.92612,0 -1.38917,-0.34556 -1.38917,-1.03669 0,-0.69112 0.42158,-1.03669 1.26477,-1.03669 l 0,-3.69062 c -10e-6,-0.99522 -0.62203,-1.49283 -1.86605,-1.49283 -0.48379,0 -0.9192,0.10367 -1.30623,0.311 -0.37321,0.20735 -0.80171,0.57364 -1.2855,1.0989 l 0,3.77355 0.12441,0 c 0.91228,0 1.36842,0.34557 1.36843,1.03669 -1e-5,0.69113 -0.45615,1.03669 -1.36843,1.03669 l -2.32219,0"
           style="font-variant:normal;font-weight:bold;font-stretch:normal;text-align:start;line-height:125%;writing-mode:lr-tb;text-anchor:start;fill:#ffffff;font-family:FreeMono;-inkscape-font-specification:FreeMono Bold"
           id="path3157"
           inkscape:connector-curvature="0" />
        <path
           d="m -790.36858,217.19482 c -0.41468,0 -0.71187,-0.10367 -0.89155,-0.31101 -0.1797,-0.22116 -0.26955,-0.46305 -0.26954,-0.72569 -10e-6,-0.69111 0.45613,-1.03668 1.36843,-1.03669 l 2.79907,0 0,6.9873 c 0.84316,0 1.26475,0.34557 1.26476,1.03669 -1e-5,0.69113 -0.45616,1.03669 -1.36843,1.03669 l -1.96972,0 0,-0.99522 c -0.51144,0.48379 -0.97449,0.81553 -1.38916,0.99522 -0.40086,0.1797 -0.88465,0.26954 -1.45137,0.26954 -1.09199,0 -1.98354,-0.30409 -2.67466,-0.91228 -0.67731,-0.62202 -1.01596,-1.48593 -1.01596,-2.59173 l 0,-3.75282 -0.55981,0 c -0.34557,0 -0.62202,-0.0968 -0.82936,-0.29028 -0.20734,-0.19351 -0.311,-0.44231 -0.311,-0.74642 0,-0.40084 0.11749,-0.67038 0.35247,-0.80862 0.23498,-0.15203 0.57364,-0.22806 1.01596,-0.22807 l 2.40512,0 0,5.76401 c 0,0.99522 0.60819,1.49283 1.82458,1.49283 0.52525,0 0.96066,-0.0898 1.30623,-0.26954 0.34555,-0.19351 0.78788,-0.57363 1.32696,-1.14036 l 0,-3.77355 -0.72568,0 -0.20734,0"
           style="font-variant:normal;font-weight:bold;font-stretch:normal;text-align:start;line-height:125%;writing-mode:lr-tb;text-anchor:start;fill:#ffffff;font-family:FreeMono;-inkscape-font-specification:FreeMono Bold"
           id="path3159"
           inkscape:connector-curvature="0" />
        <path
           d="m -781.39893,215.12143 c 0.91228,1e-5 1.36843,0.33866 1.36843,1.01596 0,0.40086 -0.1797,0.71878 -0.53908,0.95376 l 1.26477,1.01595 1.26476,-1.03669 c -0.35939,-0.2488 -0.53909,-0.54598 -0.53908,-0.89155 -1e-5,-0.70494 0.45614,-1.05742 1.36843,-1.05743 l 1.88678,0 c 0.9261,1e-5 1.38916,0.34558 1.38917,1.03669 -10e-6,0.62203 -0.36631,0.96759 -1.0989,1.0367 l -2.73686,2.28072 3.15154,2.63319 c 0.74641,0.0415 1.11962,0.38703 1.11963,1.03669 -1e-5,0.69113 -0.45616,1.03669 -1.36844,1.03669 l -2.32218,0 c -0.92612,0 -1.38918,-0.35247 -1.38917,-1.05742 -1e-5,-0.52526 0.27644,-0.86391 0.82935,-1.01596 l -1.55503,-1.26476 -1.51357,1.26476 c 0.52525,0.22116 0.78788,0.55982 0.78788,1.01596 0,0.70495 -0.45615,1.05742 -1.36843,1.05742 l -2.30145,0 c -0.91229,0 -1.36844,-0.34556 -1.36844,-1.03669 0,-0.64966 0.37321,-0.99522 1.11963,-1.03669 l 3.0064,-2.65393 -2.65392,-2.25998 c -0.71878,-0.0691 -1.07816,-0.41467 -1.07816,-1.0367 0,-0.69111 0.45614,-1.03668 1.36843,-1.03669 l 1.90751,0"
           style="font-variant:normal;font-weight:bold;font-stretch:normal;text-align:start;line-height:125%;writing-mode:lr-tb;text-anchor:start;fill:#ffffff;font-family:FreeMono;-inkscape-font-specification:FreeMono Bold"
           id="path3161"
           inkscape:connector-curvature="0" />
        <path
           d="m -766.66529,224.49312 -0.3732,0 c -0.37322,0 -0.69805,-0.13131 -0.97449,-0.39394 -0.26264,-0.27645 -0.39395,-0.60128 -0.39395,-0.97449 0,-0.37321 0.13131,-0.69113 0.39395,-0.95376 0.27644,-0.27645 0.60127,-0.41467 0.97449,-0.41467 l 0.3732,0 c 0.38703,0 0.71186,0.13131 0.97449,0.39394 0.26263,0.26263 0.39394,0.58746 0.39395,0.97449 -1e-5,0.38703 -0.13132,0.71186 -0.39395,0.97449 -0.26263,0.26263 -0.58746,0.39394 -0.97449,0.39394 m 0,-6.61409 -0.3732,0 c -0.37322,1e-5 -0.69805,-0.13131 -0.97449,-0.39394 -0.26264,-0.27645 -0.39395,-0.60128 -0.39395,-0.97449 0,-0.38702 0.13131,-0.71185 0.39395,-0.97449 0.27644,-0.27644 0.60127,-0.41467 0.97449,-0.41468 l 0.3732,0 c 0.38703,1e-5 0.71186,0.13824 0.97449,0.41468 0.26263,0.26264 0.39394,0.58747 0.39395,0.97449 -1e-5,0.38704 -0.13132,0.71187 -0.39395,0.97449 -0.26263,0.26263 -0.58746,0.39395 -0.97449,0.39394"
           style="font-variant:normal;font-weight:bold;font-stretch:normal;text-align:start;line-height:125%;writing-mode:lr-tb;text-anchor:start;fill:#ffffff;font-family:FreeMono;-inkscape-font-specification:FreeMono Bold"
           id="path3163"
           inkscape:connector-curvature="0" />
        <path
           d="m -759.35435,218.95719 c 0,-0.41467 0.32483,-0.97448 0.97449,-1.67944 0.66348,-0.71876 1.38225,-1.07815 2.15632,-1.07816 0.52525,1e-5 1.03668,0.1797 1.5343,0.53908 0.49761,0.34557 0.9261,0.69114 1.2855,1.03669 0.35938,0.34557 0.63583,0.51835 0.82935,0.51835 0.15204,0 0.30409,-0.0829 0.45614,-0.24881 0.16587,-0.17969 0.311,-0.3732 0.43542,-0.58055 0.12439,-0.20733 0.28335,-0.39393 0.47687,-0.55981 0.20733,-0.17968 0.4354,-0.26953 0.68422,-0.26954 0.27644,1e-5 0.51833,0.10368 0.72568,0.31101 0.20733,0.20734 0.311,0.44924 0.31101,0.72568 -10e-6,0.38704 -0.33175,0.95376 -0.99522,1.70018 -0.6635,0.7326 -1.34771,1.09889 -2.05265,1.09889 -0.4838,0 -0.98832,-0.17278 -1.51357,-0.51835 -0.52526,-0.35938 -0.98141,-0.71185 -1.36843,-1.05742 -0.38704,-0.35938 -0.66349,-0.53908 -0.82936,-0.53908 -0.15205,0 -0.34556,0.13823 -0.58054,0.41468 -0.22117,0.27645 -0.46306,0.5529 -0.72569,0.82935 -0.26263,0.27645 -0.51143,0.41468 -0.74641,0.41468 -0.27646,0 -0.52526,-0.10367 -0.74642,-0.31101 -0.20734,-0.22116 -0.31101,-0.46996 -0.31101,-0.74642"
           style="font-variant:normal;font-weight:bold;font-stretch:normal;text-align:start;line-height:125%;writing-mode:lr-tb;text-anchor:start;fill:#ffffff;font-family:FreeMono;-inkscape-font-specification:FreeMono Bold"
           id="path3165"
           inkscape:connector-curvature="0" />
        <path
           d="m -741.94603,210.00018 c 0.6773,1e-5 1.01595,0.45616 1.01596,1.36843 l 0,0.53908 c 0.46996,0.0968 0.77406,0.16588 0.91229,0.20734 l 0.29027,0.10367 c 0.0138,0.0138 0.076,0.0346 0.18661,0.0622 0.20733,-0.0968 0.40084,-0.14513 0.58054,-0.14514 0.69112,1e-5 1.03668,0.45616 1.03669,1.36843 l 0,0.66349 c -10e-6,0.44233 -0.076,0.78098 -0.22807,1.01595 -0.13823,0.235 -0.40777,0.35249 -0.80862,0.35248 -0.59437,1e-5 -0.95376,-0.29027 -1.07816,-0.87082 -0.0277,-0.19351 -0.22116,-0.36629 -0.58054,-0.51835 -0.34557,-0.15203 -0.7326,-0.22806 -1.1611,-0.22807 -0.62202,1e-5 -1.11963,0.1175 -1.49283,0.35248 -0.37321,0.23499 -0.55982,0.546 -0.55981,0.93302 -10e-6,0.56673 0.51834,0.95376 1.55503,1.16109 l 1.3477,0.29028 c 0.31791,0.0691 0.56672,0.13132 0.74642,0.1866 0.17968,0.0415 0.46305,0.15206 0.85008,0.33174 0.40085,0.16588 0.71186,0.35939 0.93303,0.58055 0.22115,0.20734 0.42849,0.51835 0.62201,0.93302 0.19351,0.40086 0.29026,0.857 0.29028,1.36843 -2e-5,0.89847 -0.30411,1.66562 -0.91229,2.30146 -0.6082,0.63584 -1.45138,1.05742 -2.52953,1.26476 l 0,1.72091 c -10e-6,0.44232 -0.076,0.78097 -0.22807,1.01596 -0.13823,0.2488 -0.40086,0.3732 -0.78789,0.3732 -0.41468,0 -0.69113,-0.1244 -0.82935,-0.3732 -0.13823,-0.23499 -0.20734,-0.57364 -0.20734,-1.01596 l 0,-1.72091 c -0.59437,-0.1244 -1.14036,-0.29718 -1.63797,-0.51835 -0.29028,0.24881 -0.55982,0.37321 -0.80862,0.37321 -0.70495,0 -1.05743,-0.46305 -1.05742,-1.38916 l 0,-1.26477 c -1e-5,-0.9261 0.34556,-1.38916 1.03669,-1.38916 0.11057,0 0.20733,0.0138 0.29027,0.0415 0.0968,0.0276 0.17278,0.0553 0.22807,0.0829 0.0691,0.0276 0.13131,0.076 0.18661,0.14514 0.0553,0.0553 0.0968,0.10367 0.1244,0.14513 0.0415,0.0415 0.076,0.10368 0.10367,0.18661 0.0276,0.0691 0.0484,0.12441 0.0622,0.16587 0.0138,0.0276 0.0276,0.076 0.0415,0.14514 l 0.0207,0.10367 c 0.0829,0.31792 0.35938,0.59437 0.82935,0.82935 0.48379,0.22116 1.00905,0.33174 1.57578,0.33174 0.67729,0 1.23711,-0.15205 1.67944,-0.45614 0.44231,-0.3041 0.66347,-0.67731 0.66348,-1.11963 -10e-6,-0.35938 -0.13133,-0.64274 -0.39395,-0.85009 -0.26263,-0.22115 -0.68422,-0.38702 -1.26476,-0.49761 l -1.5343,-0.31101 c -2.10103,-0.42849 -3.15154,-1.49974 -3.15154,-3.21374 0,-0.81552 0.27645,-1.52047 0.82935,-2.11485 0.56672,-0.60818 1.2924,-0.9883 2.17705,-1.14036 l 0,-0.53908 c 0,-0.44231 0.0691,-0.78096 0.20734,-1.01596 0.15204,-0.23497 0.42849,-0.35246 0.82935,-0.35247"
           style="font-variant:normal;font-weight:bold;font-stretch:normal;text-align:start;line-height:125%;writing-mode:lr-tb;text-anchor:start;fill:#ffffff;font-family:FreeMono;-inkscape-font-specification:FreeMono Bold"
           id="path3167"
           inkscape:connector-curvature="0" />
      </g>
      <g
         id="g3878"
         transform="matrix(0,0.40757625,-0.45056116,0,455.09383,210.96486)">
        <path
           style="fill:#666666;fill-opacity:1;stroke:none"
           d="m 276.92274,178.30069 c 8.70441,0 15.71193,7.00752 15.71193,15.71193 l 0,699.40231 c 0,8.70441 -7.00752,15.71193 -15.71193,15.71193 -8.7044,0 -15.71192,-7.00752 -15.71192,-15.71193 l 0,-699.40231 c 0,-8.70441 7.00752,-15.71193 15.71192,-15.71193 z"
           id="rect3880"
           inkscape:connector-curvature="0" />
        <path
           style="fill:#333333;fill-opacity:1;stroke:none"
           d="m 276.92274,286.32022 c 6.52831,0 11.78395,5.23734 11.78395,11.74291 l 0,522.72518 c 0,6.50557 -5.25564,11.74291 -11.78395,11.74291 -6.52831,0 -11.78395,-5.23734 -11.78395,-11.74291 l 0,-522.72518 c 0,-6.50557 5.25564,-11.74291 11.78395,-11.74291 z"
           id="rect3882"
           inkscape:connector-curvature="0" />
        <g
           style="fill:#666666"
           transform="matrix(0.80413416,0,0,1.5915205,-172.25105,-218.50399)"
           id="g3884">
          <g
             style="font-size:40px;font-style:normal;font-weight:normal;line-height:125%;letter-spacing:0px;word-spacing:0px;fill:#666666;fill-opacity:1;stroke:none;font-family:Sans"
             id="text3886">
            <path
               d="m 546.2998,474.46066 25.03907,0 0,3.28125 -25.03907,0 0,-3.28125 m 0,7.96875 25.03907,0 0,3.32032 -25.03907,0 0,-3.32032"
               id="path3172"
               inkscape:connector-curvature="0" />
          </g>
          <g
             style="font-size:40px;font-style:normal;font-weight:normal;line-height:125%;letter-spacing:0px;word-spacing:0px;fill:#666666;fill-opacity:1;stroke:none;font-family:Sans"
             id="text3890">
            <path
               d="m 546.2998,488.86667 25.03907,0 0,3.28125 -25.03907,0 0,-3.28125 m 0,7.96875 25.03907,0 0,3.32031 -25.03907,0 0,-3.32031"
               id="path3175"
               inkscape:connector-curvature="0" />
          </g>
        </g>
        <g
           transform="scale(-1,-1)"
           style="font-size:40px;font-style:normal;font-weight:normal;line-height:125%;letter-spacing:0px;word-spacing:0px;fill:#333333;fill-opacity:1;stroke:none;font-family:Sans"
           id="text3894">
          <path
             d="m -279.43454,-188.6711 -11.13281,-29.16015 4.12109,0 9.23828,24.55078 9.25782,-24.55078 4.10156,0 -11.11328,29.16015 -4.47266,0"
             id="path3178"
             inkscape:connector-curvature="0" />
        </g>
        <g
           transform="scale(-1,1)"
           style="font-size:40px;font-style:normal;font-weight:normal;line-height:125%;letter-spacing:0px;word-spacing:0px;fill:#333333;fill-opacity:1;stroke:none;font-family:Sans"
           id="text3898">
          <path
             d="m -277.67764,899.51123 -11.13282,-29.16016 4.1211,0 9.23828,24.55079 9.25781,-24.55079 4.10156,0 -11.11328,29.16016 -4.47265,0"
             id="path3181"
             inkscape:connector-curvature="0" />
        </g>
      </g>
    </g>
  </g>
</svg>
