<?xml version="1.0" encoding="utf-8"?>
<!-- Generator: Adobe Illustrator 12.0.1, SVG Export Plug-In . SVG Version: 6.00 Build 51448)  -->
<!DOCTYPE svg PUBLIC "-//W3C//DTD SVG 1.1//EN" "http://www.w3.org/Graphics/SVG/1.1/DTD/svg11.dtd" [
	<!ENTITY ns_svg "http://www.w3.org/2000/svg">
	<!ENTITY ns_xlink "http://www.w3.org/1999/xlink">
]>
<svg  version="1.1" id="Layer_1" xmlns="&ns_svg;" xmlns:xlink="&ns_xlink;" width="289.07" height="164.759"
	 viewBox="0 0 289.07 164.759" overflow="visible" enable-background="new 0 0 289.07 164.759" xml:space="preserve">
<linearGradient id="XMLID_6_" gradientUnits="userSpaceOnUse" x1="144.5352" y1="140.5952" x2="144.5352" y2="12.7582">
	<stop  offset="0" style="stop-color:#FFFFFF"/>
	<stop  offset="1" style="stop-color:#A0DDF9"/>
</linearGradient>
<path fill="url(#XMLID_6_)" d="M288.57,153.729c0,5.803-4.704,10.507-10.507,10.507H11.007c-5.803,0-10.507-4.705-10.507-10.507
	V11.007C0.5,5.205,5.204,0.5,11.007,0.5h267.056c5.803,0,10.507,4.705,10.507,10.507V153.729z"/>
<g>
	<circle fill="#723C1A" stroke="#72584B" cx="50.425" cy="44.688" r="13.321"/>
	<rect x="44.566" y="69.497" fill="#EBC19C" stroke="#808284" width="11.718" height="4.607"/>
	<path fill="#E0F3FD" stroke="#808284" d="M25.136,79.913c-4.223,5.609,0,27.442,0,27.442h25.456V74.104
		C50.592,74.104,29.359,74.305,25.136,79.913z M76.048,79.913c-4.224-5.608-25.456-5.809-25.456-5.809v33.251h25.456
		C76.048,107.355,80.271,85.522,76.048,79.913z"/>
	<path fill="#FFFFFF" d="M26.963,81.884c-3.92,5.205,0,25.471,0,25.471h23.628V76.492C50.592,76.492,30.884,76.678,26.963,81.884z
		 M74.221,81.884c-3.92-5.206-23.628-5.393-23.628-5.393v30.864h23.628C74.221,107.355,78.141,87.089,74.221,81.884z"/>
	<path fill="#EBC19C" stroke="#72584B" d="M56.434,69.497c0,0-1.369,2.304-6.009,2.304c-4.64,0-6.009-2.304-6.009-2.304
		s-6.009-1.152-6.009-7.036c0-5.884,0-3.702,0-3.702v-7.036c0,0-0.182-6.854,1.335-8.371c0,1.907,3.105,2.904,3.105,2.904
		s1.636-5.275,6.543-5.275c-1.102,3.075,6.51,4.808,6.51,4.808s2.604-4.938,4.607-4.437c2.003,0.501,1.937,10.371,1.937,10.371
		v7.036c0,0,0-2.433,0,3.702C62.443,68.596,56.434,69.497,56.434,69.497z"/>
	<path fill="#F0D0B4" d="M55.532,67.532c0,0-1.163,1.958-5.108,1.958c-3.944,0-5.108-1.958-5.108-1.958s-5.108-0.979-5.108-5.981
		c0-5.001,0-3.146,0-3.146v-5.98c0,0-0.518-5.827,0.772-7.116c0,1.62,3.001,2.468,3.001,2.468s1.391-4.483,5.563-4.483
		c-0.937,2.614,5.534,4.086,5.534,4.086s2.213-4.197,3.916-3.771c1.703,0.426,1.646,8.816,1.646,8.816v5.98c0,0,0-2.068,0,3.146
		C60.641,66.766,55.532,67.532,55.532,67.532z"/>
	<rect x="47.994" y="75.047" transform="matrix(0.7072 -0.7071 0.7071 0.7072 -40.0689 58.4738)" width="5.124" height="5.124"/>
	<polygon points="54.18,103.148 50.556,106.771 46.933,103.148 50.556,80.596 	"/>
	<path fill="#E0F3FD" stroke="#808284" d="M50.491,74.554c0,0-4.657-4.988-6.694-3.218c-2.036,1.771,0.785,8.175,0.785,8.175
		L50.491,74.554z"/>
	<path fill="#E0F3FD" stroke="#808284" d="M50.811,74.554c0,0,4.657-4.988,6.694-3.218c2.036,1.771-0.785,8.175-0.785,8.175
		L50.811,74.554z"/>
	<path fill="#FFFFFF" d="M50.512,74.642c0,0-4.055-4.344-5.829-2.802c-1.773,1.542,0.015,7.384,0.015,7.384L50.512,74.642z"/>
	<path fill="#FFFFFF" d="M50.79,74.642c0,0,4.056-4.344,5.829-2.802c1.773,1.542,0.026,7.431,0.026,7.431L50.79,74.642z"/>
	<path fill="#EBC19C" d="M48.087,58.28c0,0,3.906,1.502,3.906-0.4c0-1.903-0.601-8.814-0.601-8.814s3.806,9.415,2.504,10.717
		C52.594,61.084,49.189,62.587,48.087,58.28z"/>
</g>
<g>
	<circle fill="#723C1A" stroke="#72584B" cx="140.308" cy="44.688" r="13.321"/>
	<rect x="134.449" y="69.497" fill="#EBC19C" stroke="#808284" width="11.717" height="4.607"/>
	<path fill="#E0F3FD" stroke="#808284" d="M115.019,79.913c-4.223,5.609,0,27.442,0,27.442h25.456V74.104
		C140.475,74.104,119.242,74.305,115.019,79.913z M165.932,79.913c-4.225-5.608-25.457-5.809-25.457-5.809v33.251h25.457
		C165.932,107.355,170.154,85.522,165.932,79.913z"/>
	<path fill="#FFFFFF" d="M116.846,81.884c-3.92,5.205,0,25.471,0,25.471h23.628V76.492
		C140.475,76.492,120.767,76.678,116.846,81.884z M164.104,81.884c-3.92-5.206-23.629-5.393-23.629-5.393v30.864h23.629
		C164.104,107.355,168.023,87.089,164.104,81.884z"/>
	<path fill="#EBC19C" stroke="#72584B" d="M146.316,69.497c0,0-1.368,2.304-6.009,2.304c-4.64,0-6.009-2.304-6.009-2.304
		s-6.01-1.152-6.01-7.036c0-5.884,0-3.702,0-3.702v-7.036c0,0-0.182-6.854,1.336-8.371c0,1.907,3.104,2.904,3.104,2.904
		s1.636-5.275,6.544-5.275c-1.103,3.075,6.51,4.808,6.51,4.808s2.604-4.938,4.606-4.437s1.937,10.371,1.937,10.371v7.036
		c0,0,0-2.433,0,3.702C152.326,68.596,146.316,69.497,146.316,69.497z"/>
	<path fill="#F0D0B4" d="M145.415,67.532c0,0-1.163,1.958-5.108,1.958c-3.943,0-5.107-1.958-5.107-1.958s-5.107-0.979-5.107-5.981
		c0-5.001,0-3.146,0-3.146v-5.98c0,0-0.518-5.827,0.771-7.116c0,1.62,3.002,2.468,3.002,2.468s1.391-4.483,5.563-4.483
		c-0.938,2.614,5.533,4.086,5.533,4.086s2.213-4.197,3.916-3.771c1.703,0.426,1.646,8.816,1.646,8.816v5.98c0,0,0-2.068,0,3.146
		C150.523,66.766,145.415,67.532,145.415,67.532z"/>
	<rect x="137.878" y="75.047" transform="matrix(0.7071 -0.7071 0.7071 0.7071 -13.744 122.0368)" width="5.124" height="5.124"/>
	<polygon points="144.063,103.148 140.439,106.771 136.816,103.148 140.439,80.596 	"/>
	<path fill="#E0F3FD" stroke="#808284" d="M140.374,74.554c0,0-4.657-4.988-6.694-3.218c-2.035,1.771,0.785,8.175,0.785,8.175
		L140.374,74.554z"/>
	<path fill="#E0F3FD" stroke="#808284" d="M140.693,74.554c0,0,4.657-4.988,6.693-3.218c2.037,1.771-0.784,8.175-0.784,8.175
		L140.693,74.554z"/>
	<path fill="#FFFFFF" d="M140.395,74.642c0,0-4.055-4.344-5.828-2.802c-1.773,1.542,0.015,7.384,0.015,7.384L140.395,74.642z"/>
	<path fill="#FFFFFF" d="M140.673,74.642c0,0,4.056-4.344,5.829-2.802c1.773,1.542,0.025,7.431,0.025,7.431L140.673,74.642z"/>
	<path fill="#EBC19C" d="M137.971,58.28c0,0,3.905,1.502,3.905-0.4c0-1.903-0.601-8.814-0.601-8.814s3.806,9.415,2.504,10.717
		C142.477,61.084,139.072,62.587,137.971,58.28z"/>
</g>
<g>
	<circle fill="#723C1A" stroke="#72584B" cx="230.134" cy="44.688" r="13.321"/>
	<rect x="224.275" y="69.497" fill="#EBC19C" stroke="#808284" width="11.717" height="4.607"/>
	<path fill="#E0F3FD" stroke="#808284" d="M204.845,79.913c-4.224,5.609,0,27.442,0,27.442h25.456V74.104
		C230.301,74.104,209.068,74.305,204.845,79.913z M255.758,79.913c-4.225-5.608-25.457-5.809-25.457-5.809v33.251h25.457
		C255.758,107.355,259.98,85.522,255.758,79.913z"/>
	<path fill="#FFFFFF" d="M206.672,81.884c-3.92,5.205,0,25.471,0,25.471h23.629V76.492
		C230.301,76.492,210.593,76.678,206.672,81.884z M253.93,81.884c-3.92-5.206-23.629-5.393-23.629-5.393v30.864h23.629
		C253.93,107.355,257.85,87.089,253.93,81.884z"/>
	<path fill="#EBC19C" stroke="#72584B" d="M236.143,69.497c0,0-1.368,2.304-6.009,2.304c-4.64,0-6.009-2.304-6.009-2.304
		s-6.01-1.152-6.01-7.036c0-5.884,0-3.702,0-3.702v-7.036c0,0-0.182-6.854,1.336-8.371c0,1.907,3.104,2.904,3.104,2.904
		s1.636-5.275,6.544-5.275c-1.103,3.075,6.51,4.808,6.51,4.808s2.604-4.938,4.606-4.437s1.937,10.371,1.937,10.371v7.036
		c0,0,0-2.433,0,3.702C242.152,68.596,236.143,69.497,236.143,69.497z"/>
	<path fill="#F0D0B4" d="M235.241,67.532c0,0-1.163,1.958-5.108,1.958c-3.943,0-5.107-1.958-5.107-1.958s-5.107-0.979-5.107-5.981
		c0-5.001,0-3.146,0-3.146v-5.98c0,0-0.518-5.827,0.771-7.116c0,1.62,3.002,2.468,3.002,2.468s1.391-4.483,5.563-4.483
		c-0.938,2.614,5.533,4.086,5.533,4.086s2.213-4.197,3.916-3.771c1.703,0.426,1.646,8.816,1.646,8.816v5.98c0,0,0-2.068,0,3.146
		C240.35,66.766,235.241,67.532,235.241,67.532z"/>
	<rect x="227.704" y="75.047" transform="matrix(0.7071 -0.7071 0.7071 0.7071 12.5655 185.5535)" width="5.124" height="5.124"/>
	<polygon points="233.889,103.148 230.266,106.771 226.643,103.148 230.266,80.596 	"/>
	<path fill="#E0F3FD" stroke="#808284" d="M230.2,74.554c0,0-4.657-4.988-6.694-3.218c-2.035,1.771,0.785,8.175,0.785,8.175
		L230.2,74.554z"/>
	<path fill="#E0F3FD" stroke="#808284" d="M230.52,74.554c0,0,4.657-4.988,6.693-3.218c2.037,1.771-0.784,8.175-0.784,8.175
		L230.52,74.554z"/>
	<path fill="#FFFFFF" d="M230.221,74.642c0,0-4.055-4.344-5.828-2.802c-1.773,1.542,0.015,7.384,0.015,7.384L230.221,74.642z"/>
	<path fill="#FFFFFF" d="M230.499,74.642c0,0,4.056-4.344,5.829-2.802c1.773,1.542,0.025,7.431,0.025,7.431L230.499,74.642z"/>
	<path fill="#EBC19C" d="M227.797,58.28c0,0,3.905,1.502,3.905-0.4c0-1.903-0.601-8.814-0.601-8.814s3.806,9.415,2.504,10.717
		C232.303,61.084,228.898,62.587,227.797,58.28z"/>
</g>
<ellipse fill="#490E00" stroke="#937952" cx="143.297" cy="123.083" rx="138.112" ry="28.492"/>
<ellipse fill="#77562F" stroke="#937952" cx="143.297" cy="118.083" rx="138.112" ry="28.492"/>
<path fill="#A8916D" d="M125.254,96.49c0,0-158.551,12.746-70.254,30.246s115,6.123,115,6.123S23.518,123.483,125.254,96.49z"/>
<g>
	<rect x="88.526" y="117.589" fill="#EBC19C" stroke="#808284" width="14.445" height="5.679"/>
	<path fill="#E0F3FD" stroke="#808284" d="M64.573,130.429c-5.206,6.915,0,33.83,0,33.83h31.381v-40.99
		C95.954,123.269,69.78,123.516,64.573,130.429z M127.336,130.429c-5.207-6.914-31.381-7.161-31.381-7.161v40.99h31.381
		C127.336,164.259,132.541,137.344,127.336,130.429z"/>
	<path fill="#FFFFFF" d="M66.826,132.859c-4.832,6.417,0,31.399,0,31.399h29.128v-38.047
		C95.954,126.212,71.659,126.442,66.826,132.859z M125.083,132.859c-4.833-6.417-29.128-6.647-29.128-6.647v38.047h29.128
		C125.083,164.259,129.914,139.276,125.083,132.859z"/>
	<path fill="#EBC19C" stroke="#72584B" d="M103.156,117.589c0,0-1.688,2.84-7.408,2.84c-5.72,0-7.408-2.84-7.408-2.84
		s-7.408-1.42-7.408-8.673c0-7.254,0-4.563,0-4.563V95.68c0,0-0.224-8.449,1.646-10.319c0,2.351,3.828,3.58,3.828,3.58
		s2.017-6.502,8.066-6.502c-1.358,3.791,8.025,5.927,8.025,5.927s3.209-6.087,5.679-5.469c2.469,0.618,2.387,12.784,2.387,12.784
		v8.673c0,0,0-3,0,4.563C110.564,116.478,103.156,117.589,103.156,117.589z"/>
	<path fill="#F0D0B4" d="M102.044,115.167c0,0-1.434,2.414-6.297,2.414c-4.862,0-6.297-2.414-6.297-2.414s-6.296-1.207-6.296-7.373
		c0-6.166,0-3.878,0-3.878v-7.372c0,0-0.638-7.183,0.952-8.772c0,1.997,3.7,3.043,3.7,3.043s1.715-5.527,6.857-5.527
		c-1.155,3.222,6.822,5.038,6.822,5.038s2.728-5.174,4.827-4.649c2.099,0.525,2.029,10.868,2.029,10.868v7.372c0,0,0-2.549,0,3.878
		C108.342,114.222,102.044,115.167,102.044,115.167z"/>
	<path fill="#EBC19C" d="M92.867,103.762c0,0,4.815,1.852,4.815-0.494c0-2.346-0.741-10.865-0.741-10.865s4.692,11.605,3.087,13.211
		C98.422,107.219,94.225,109.071,92.867,103.762z"/>
	<path fill="#723C1A" stroke="#FFFFFF" d="M112.169,87.006c0,9.069-7.353,30.574-16.422,30.574c-9.068,0-16.42-21.505-16.42-30.574
		s7.352-16.421,16.42-16.421C104.817,70.585,112.169,77.938,112.169,87.006z"/>
	<path fill="#E0F3FD" stroke="#808284" d="M105.091,123.371c0,1.855-1.504,3.358-3.359,3.358H89.786
		c-1.855,0-3.359-1.503-3.359-3.358l0,0c0-1.855,1.504-3.359,3.359-3.359h11.947C103.587,120.012,105.091,121.516,105.091,123.371
		L105.091,123.371z"/>
	<path fill="#FFFFFF" d="M104.83,124.263c0,1.076-1.462,1.949-3.265,1.949H89.953c-1.803,0-3.265-0.873-3.265-1.949l0,0
		c0-1.077,1.462-1.949,3.265-1.949h11.612C103.368,122.314,104.83,123.187,104.83,124.263L104.83,124.263z"/>
</g>
<g>
	<rect x="178.193" y="117.589" fill="#EBC19C" stroke="#808284" width="14.444" height="5.679"/>
	<path fill="#E0F3FD" stroke="#808284" d="M154.24,130.429c-5.206,6.915,0,33.83,0,33.83h31.381v-40.99
		C185.621,123.269,159.447,123.516,154.24,130.429z M217.003,130.429c-5.207-6.914-31.382-7.161-31.382-7.161v40.99h31.382
		C217.003,164.259,222.208,137.344,217.003,130.429z"/>
	<path fill="#FFFFFF" d="M156.493,132.859c-4.832,6.417,0,31.399,0,31.399h29.128v-38.047
		C185.621,126.212,161.326,126.442,156.493,132.859z M214.75,132.859c-4.834-6.417-29.129-6.647-29.129-6.647v38.047h29.129
		C214.75,164.259,219.581,139.276,214.75,132.859z"/>
	<path fill="#EBC19C" stroke="#72584B" d="M192.823,117.589c0,0-1.688,2.84-7.408,2.84c-5.72,0-7.407-2.84-7.407-2.84
		s-7.408-1.42-7.408-8.673c0-7.254,0-4.563,0-4.563V95.68c0,0-0.225-8.449,1.646-10.319c0,2.351,3.827,3.58,3.827,3.58
		s2.017-6.502,8.066-6.502c-1.358,3.791,8.024,5.927,8.024,5.927s3.21-6.087,5.68-5.469c2.469,0.618,2.387,12.784,2.387,12.784
		v8.673c0,0,0-3,0,4.563C200.23,116.478,192.823,117.589,192.823,117.589z"/>
	<path fill="#F0D0B4" d="M191.711,115.167c0,0-1.434,2.414-6.297,2.414c-4.861,0-6.297-2.414-6.297-2.414s-6.296-1.207-6.296-7.373
		c0-6.166,0-3.878,0-3.878v-7.372c0,0-0.638-7.183,0.952-8.772c0,1.997,3.7,3.043,3.7,3.043s1.715-5.527,6.856-5.527
		c-1.154,3.222,6.822,5.038,6.822,5.038s2.728-5.174,4.827-4.649c2.099,0.525,2.029,10.868,2.029,10.868v7.372c0,0,0-2.549,0,3.878
		C198.009,114.222,191.711,115.167,191.711,115.167z"/>
	<path fill="#EBC19C" d="M182.533,103.762c0,0,4.815,1.852,4.815-0.494c0-2.346-0.741-10.865-0.741-10.865
		s4.692,11.605,3.087,13.211C188.09,107.219,183.892,109.071,182.533,103.762z"/>
	<path fill="#723C1A" stroke="#FFFFFF" d="M201.836,87.006c0,9.069-7.352,30.574-16.422,30.574c-9.068,0-16.42-21.505-16.42-30.574
		s7.353-16.421,16.421-16.421C194.484,70.585,201.836,77.938,201.836,87.006z"/>
	<path fill="#E0F3FD" stroke="#808284" d="M194.758,123.371c0,1.855-1.504,3.358-3.358,3.358h-11.946
		c-1.855,0-3.359-1.503-3.359-3.358l0,0c0-1.855,1.504-3.359,3.359-3.359h11.946C193.254,120.012,194.758,121.516,194.758,123.371
		L194.758,123.371z"/>
	<path fill="#FFFFFF" d="M194.496,124.263c0,1.076-1.461,1.949-3.264,1.949H179.62c-1.803,0-3.265-0.873-3.265-1.949l0,0
		c0-1.077,1.462-1.949,3.265-1.949h11.612C193.035,122.314,194.496,123.187,194.496,124.263L194.496,124.263z"/>
</g>
<path fill="none" stroke="#00ADEF" d="M288.57,153.729c0,5.803-4.704,10.507-10.507,10.507H11.007
	c-5.803,0-10.507-4.705-10.507-10.507V11.007C0.5,5.205,5.204,0.5,11.007,0.5h267.056c5.803,0,10.507,4.705,10.507,10.507V153.729z"
	/>
</svg>
