<?xml version="1.0" encoding="UTF-8" standalone="no"?>
<!-- Created with Inkscape (http://www.inkscape.org/) -->
<svg
   xmlns:dc="http://purl.org/dc/elements/1.1/"
   xmlns:cc="http://web.resource.org/cc/"
   xmlns:rdf="http://www.w3.org/1999/02/22-rdf-syntax-ns#"
   xmlns:svg="http://www.w3.org/2000/svg"
   xmlns="http://www.w3.org/2000/svg"
   xmlns:xlink="http://www.w3.org/1999/xlink"
   xmlns:sodipodi="http://sodipodi.sourceforge.net/DTD/sodipodi-0.dtd"
   xmlns:inkscape="http://www.inkscape.org/namespaces/inkscape"
   width="558.57153"
   height="399.99997"
   id="svg3623"
   sodipodi:version="0.32"
   inkscape:version="0.45pre1"
   sodipodi:docbase="C:\temp\clipart"
   sodipodi:docname="db.text.lock.svg"
   inkscape:output_extension="org.inkscape.output.svg.inkscape"
   version="1.0"
   sodipodi:modified="TRUE"
   inkscape:export-filename="C:\temp\clipart\db.text.lock.png"
   inkscape:export-xdpi="90"
   inkscape:export-ydpi="90">
  <defs
     id="defs3625">
    <filter
       inkscape:collect="always"
       id="filter4031"
       x="-0.14653437"
       width="1.2930686"
       y="-0.20868881"
       height="1.4173776">
      <feGaussianBlur
         inkscape:collect="always"
         stdDeviation="14.744081"
         id="feGaussianBlur4033" />
    </filter>
    <filter
       inkscape:collect="always"
       id="filter3886"
       x="-0.07830108"
       width="1.1566021"
       y="-0.13505806"
       height="1.2701161">
      <feGaussianBlur
         inkscape:collect="always"
         stdDeviation="21.009773"
         id="feGaussianBlur3888" />
    </filter>
    <linearGradient
       id="linearGradient3549">
      <stop
         id="stop3551"
         offset="0"
         style="stop-color:#000000;stop-opacity:1" />
      <stop
         style="stop-color:#b4b4b4;stop-opacity:0.49803922;"
         offset="1"
         id="stop3553" />
    </linearGradient>
    <linearGradient
       inkscape:collect="always"
       xlink:href="#linearGradient3549"
       id="linearGradient4165"
       gradientUnits="userSpaceOnUse"
       gradientTransform="translate(-688.35192,-238.84701)"
       x1="889.9375"
       y1="765.71875"
       x2="337.1875"
       y2="-332.09375" />
    <filter
       inkscape:collect="always"
       id="filter3510"
       x="-0.33405945"
       width="1.668119"
       y="-0.15102059"
       height="1.3020412">
      <feGaussianBlur
         inkscape:collect="always"
         stdDeviation="78.36631"
         id="feGaussianBlur3512" />
    </filter>
    <filter
       inkscape:collect="always"
       id="filter3539"
       x="-0.077247761"
       width="1.1544955"
       y="-0.40710804"
       height="1.8142161">
      <feGaussianBlur
         inkscape:collect="always"
         stdDeviation="16.960952"
         id="feGaussianBlur3541" />
    </filter>
    <filter
       inkscape:collect="always"
       id="filter3522"
       x="-0.16717336"
       width="1.3343467"
       y="-0.075844616"
       height="1.1516892">
      <feGaussianBlur
         inkscape:collect="always"
         stdDeviation="39.301936"
         id="feGaussianBlur3524" />
    </filter>
    <linearGradient
       inkscape:collect="always"
       xlink:href="#linearGradient3526"
       id="linearGradient4163"
       gradientUnits="userSpaceOnUse"
       gradientTransform="translate(-688.35192,-278.8342)"
       x1="80"
       y1="92.375"
       x2="560"
       y2="1132.375" />
    <linearGradient
       inkscape:collect="always"
       xlink:href="#linearGradient3526"
       id="linearGradient4161"
       gradientUnits="userSpaceOnUse"
       gradientTransform="translate(-688.35192,-285.95919)"
       x1="-20.936207"
       y1="508.62869"
       x2="733.01044"
       y2="508.62869" />
    <filter
       inkscape:collect="always"
       id="filter4115"
       x="-0.11185166"
       width="1.2237033"
       y="-0.089007363"
       height="1.1780148">
      <feGaussianBlur
         inkscape:collect="always"
         stdDeviation="35.137149"
         id="feGaussianBlur4117" />
    </filter>
    <linearGradient
       id="linearGradient3526">
      <stop
         style="stop-color:#000000;stop-opacity:1;"
         offset="0"
         id="stop3528" />
      <stop
         id="stop3534"
         offset="1"
         style="stop-color:#b4b4b4;stop-opacity:0.49803922;" />
    </linearGradient>
    <linearGradient
       inkscape:collect="always"
       xlink:href="#linearGradient3526"
       id="linearGradient4159"
       gradientUnits="userSpaceOnUse"
       gradientTransform="translate(-678.28942,-301.45919)"
       x1="80"
       y1="92.375"
       x2="560"
       y2="1132.375" />
    <filter
       inkscape:collect="always"
       id="filter3990"
       x="-0.2726827"
       width="1.5453655"
       y="-0.65148789"
       height="2.3029757">
      <feGaussianBlur
         inkscape:collect="always"
         stdDeviation="48.080847"
         id="feGaussianBlur3992" />
    </filter>
    <filter
       inkscape:collect="always"
       id="filter3764"
       x="-0.12369785"
       width="1.2473958"
       y="-0.37624764"
       height="1.7524953">
      <feGaussianBlur
         inkscape:collect="always"
         stdDeviation="10.749932"
         id="feGaussianBlur3766" />
    </filter>
    <linearGradient
       inkscape:collect="always"
       xlink:href="#linearGradient3486"
       id="linearGradient2453"
       gradientUnits="userSpaceOnUse"
       x1="120.11102"
       y1="499.64444"
       x2="491.49893"
       y2="632.24921" />
    <linearGradient
       inkscape:collect="always"
       xlink:href="#linearGradient3486"
       id="linearGradient2451"
       gradientUnits="userSpaceOnUse"
       x1="255.8253"
       y1="438.21588"
       x2="344.35608"
       y2="707.9635" />
    <linearGradient
       inkscape:collect="always"
       xlink:href="#linearGradient3486"
       id="linearGradient2449"
       gradientUnits="userSpaceOnUse"
       x1="120.11102"
       y1="499.64444"
       x2="491.49893"
       y2="632.24921" />
    <linearGradient
       inkscape:collect="always"
       xlink:href="#linearGradient3486"
       id="linearGradient2447"
       gradientUnits="userSpaceOnUse"
       x1="120.11102"
       y1="499.64444"
       x2="491.49893"
       y2="632.24921" />
    <linearGradient
       inkscape:collect="always"
       xlink:href="#linearGradient3486"
       id="linearGradient2445"
       gradientUnits="userSpaceOnUse"
       x1="255.8253"
       y1="438.21588"
       x2="344.35608"
       y2="707.9635" />
    <linearGradient
       id="linearGradient3486">
      <stop
         style="stop-color:#eed80c;stop-opacity:1;"
         offset="0"
         id="stop3488" />
      <stop
         id="stop3494"
         offset="0.5"
         style="stop-color:#f26c10;stop-opacity:0.49803922;" />
      <stop
         style="stop-color:#d7922c;stop-opacity:0.24705882;"
         offset="1"
         id="stop3496" />
      <stop
         style="stop-color:#bcb949;stop-opacity:0;"
         offset="1"
         id="stop3490" />
    </linearGradient>
    <linearGradient
       inkscape:collect="always"
       xlink:href="#linearGradient3486"
       id="linearGradient2443"
       gradientUnits="userSpaceOnUse"
       x1="120.11102"
       y1="499.64444"
       x2="491.49893"
       y2="632.24921" />
    <filter
       inkscape:collect="always"
       id="filter3554">
      <feGaussianBlur
         inkscape:collect="always"
         stdDeviation="6.6455534"
         id="feGaussianBlur3556" />
    </filter>
    <filter
       inkscape:collect="always"
       id="filter3812"
       x="-0.2438404"
       width="1.4876808"
       y="-0.47922739"
       height="1.9584548">
      <feGaussianBlur
         inkscape:collect="always"
         stdDeviation="52.831889"
         id="feGaussianBlur3814" />
    </filter>
    <linearGradient
       inkscape:collect="always"
       xlink:href="#linearGradient3526"
       id="linearGradient3743"
       gradientUnits="userSpaceOnUse"
       gradientTransform="translate(-678.28942,-301.45919)"
       x1="80"
       y1="92.375"
       x2="560"
       y2="1132.375" />
  </defs>
  <sodipodi:namedview
     id="base"
     pagecolor="#ffffff"
     bordercolor="#666666"
     borderopacity="1.0"
     gridtolerance="10000"
     guidetolerance="10"
     objecttolerance="10"
     inkscape:pageopacity="0.0"
     inkscape:pageshadow="2"
     inkscape:zoom="0.175"
     inkscape:cx="568.17686"
     inkscape:cy="76.796959"
     inkscape:document-units="px"
     inkscape:current-layer="layer1"
     inkscape:window-width="1280"
     inkscape:window-height="750"
     inkscape:window-x="-8"
     inkscape:window-y="-8" />
  <metadata
     id="metadata3628">
    <rdf:RDF>
      <cc:Work
         rdf:about="">
        <dc:format>image/svg+xml</dc:format>
        <dc:type
           rdf:resource="http://purl.org/dc/dcmitype/StillImage" />
      </cc:Work>
    </rdf:RDF>
  </metadata>
  <g
     inkscape:label="Layer 1"
     inkscape:groupmode="layer"
     id="layer1"
     transform="translate(-110.79776,-466.91461)">
    <rect
       style="opacity:0.81325301;fill:none;fill-opacity:1;stroke:none"
       id="rect2426"
       width="558.57153"
       height="399.99997"
       x="110.79776"
       y="466.91461" />
    <g
       transform="matrix(0.9292949,0,0.7526292,0.7516329,-215.91634,297.94995)"
       style="opacity:0.40865383;fill:#060606;fill-opacity:1;stroke:none;stroke-opacity:0.918129;display:inline;filter:url(#filter3812)"
       id="g3786">
      <path
         style="opacity:1;fill:#060606;fill-opacity:1;stroke:none;stroke-width:0.62340528;stroke-linejoin:round;stroke-miterlimit:10.30000019;stroke-dasharray:none;stroke-opacity:0.918129"
         d="M 243.5,368.53125 C 180.77646,368.53125 128.9937,383.84186 121.65625,403.59375 L 120.96875,403.59375 L 120.96875,406.21875 C 120.8455,406.951 120.75,407.6953 120.75,408.4375 C 120.75,409.17811 120.84602,409.89429 120.96875,410.625 L 120.96875,594.59375 L 121.53125,594.59375 C 125.61555,615.42048 178.85459,631.9375 243.875,631.9375 C 308.8954,631.9375 362.13444,615.42048 366.21875,594.59375 L 366.25,594.59375 L 366.25,594.40625 C 366.39398,593.61492 366.46875,592.83427 366.46875,592.03125 C 366.46875,591.22476 366.39521,590.41969 366.25,589.625 L 366.25,403.59375 L 365.34375,403.59375 C 358.0063,383.84186 306.22354,368.53125 243.5,368.53125 z "
         id="path3788" />
      <path
         sodipodi:type="arc"
         style="opacity:1;fill:#060606;fill-opacity:1;stroke:none;stroke-width:0.625;stroke-linejoin:round;stroke-miterlimit:10.30000019;stroke-dasharray:none;stroke-opacity:0.918129;display:inline"
         id="path3790"
         sodipodi:cx="223.24371"
         sodipodi:cy="372.02444"
         sodipodi:rx="123.23861"
         sodipodi:ry="39.901024"
         d="M 346.48232 372.02444 A 123.23861 39.901024 0 1 1  100.0051,372.02444 A 123.23861 39.901024 0 1 1  346.48232 372.02444 z"
         transform="translate(20.41842,35.228749)" />
    </g>
    <g
       id="g3770"
       style="opacity:0.8113462;fill:#060606;fill-opacity:1;stroke:none;stroke-opacity:0.918129;display:inline;filter:url(#filter3554)"
       transform="translate(231.48917,155.2832)">
      <path
         id="path3772"
         d="M 243.5,368.53125 C 180.77646,368.53125 128.9937,383.84186 121.65625,403.59375 L 120.96875,403.59375 L 120.96875,406.21875 C 120.8455,406.951 120.75,407.6953 120.75,408.4375 C 120.75,409.17811 120.84602,409.89429 120.96875,410.625 L 120.96875,594.59375 L 121.53125,594.59375 C 125.61555,615.42048 178.85459,631.9375 243.875,631.9375 C 308.8954,631.9375 362.13444,615.42048 366.21875,594.59375 L 366.25,594.59375 L 366.25,594.40625 C 366.39398,593.61492 366.46875,592.83427 366.46875,592.03125 C 366.46875,591.22476 366.39521,590.41969 366.25,589.625 L 366.25,403.59375 L 365.34375,403.59375 C 358.0063,383.84186 306.22354,368.53125 243.5,368.53125 z "
         style="opacity:1;fill:#060606;fill-opacity:1;stroke:none;stroke-width:0.62340528;stroke-linejoin:round;stroke-miterlimit:10.30000019;stroke-dasharray:none;stroke-opacity:0.918129" />
      <path
         transform="translate(20.41842,35.228749)"
         d="M 346.48232 372.02444 A 123.23861 39.901024 0 1 1  100.0051,372.02444 A 123.23861 39.901024 0 1 1  346.48232 372.02444 z"
         sodipodi:ry="39.901024"
         sodipodi:rx="123.23861"
         sodipodi:cy="372.02444"
         sodipodi:cx="223.24371"
         id="path3774"
         style="opacity:1;fill:#060606;fill-opacity:1;stroke:none;stroke-width:0.625;stroke-linejoin:round;stroke-miterlimit:10.30000019;stroke-dasharray:none;stroke-opacity:0.918129;display:inline"
         sodipodi:type="arc" />
    </g>
    <g
       id="g3482"
       style="fill:url(#linearGradient2443);fill-opacity:1;stroke:#000000;display:inline"
       transform="translate(239.43702,151.13688)">
      <path
         id="path3289"
         d="M 243.5,368.53125 C 180.77646,368.53125 128.9937,383.84186 121.65625,403.59375 L 120.96875,403.59375 L 120.96875,406.21875 C 120.8455,406.951 120.75,407.6953 120.75,408.4375 C 120.75,409.17811 120.84602,409.89429 120.96875,410.625 L 120.96875,594.59375 L 121.53125,594.59375 C 125.61555,615.42048 178.85459,631.9375 243.875,631.9375 C 308.8954,631.9375 362.13444,615.42048 366.21875,594.59375 L 366.25,594.59375 L 366.25,594.40625 C 366.39398,593.61492 366.46875,592.83427 366.46875,592.03125 C 366.46875,591.22476 366.39521,590.41969 366.25,589.625 L 366.25,403.59375 L 365.34375,403.59375 C 358.0063,383.84186 306.22354,368.53125 243.5,368.53125 z "
         style="opacity:1;fill:url(#linearGradient2445);fill-opacity:1;stroke:#000000;stroke-width:0.62340528;stroke-linejoin:round;stroke-miterlimit:10.30000019;stroke-dasharray:none;stroke-opacity:1" />
      <path
         transform="translate(20.41842,35.228749)"
         d="M 346.48232 372.02444 A 123.23861 39.901024 0 1 1  100.0051,372.02444 A 123.23861 39.901024 0 1 1  346.48232 372.02444 z"
         sodipodi:ry="39.901024"
         sodipodi:rx="123.23861"
         sodipodi:cy="372.02444"
         sodipodi:cx="223.24371"
         id="path3297"
         style="opacity:1;fill:url(#linearGradient2447);fill-opacity:1;stroke:#000000;stroke-width:0.625;stroke-linejoin:round;stroke-miterlimit:10.30000019;stroke-dasharray:none;stroke-opacity:1;display:inline"
         sodipodi:type="arc" />
    </g>
    <g
       id="g3502"
       style="opacity:0.84134617;fill:url(#linearGradient2449);fill-opacity:1;stroke:#000000;display:inline;filter:url(#filter3554)"
       transform="translate(241.48917,150.99749)">
      <path
         id="path3504"
         d="M 243.5,368.53125 C 180.77646,368.53125 128.9937,383.84186 121.65625,403.59375 L 120.96875,403.59375 L 120.96875,406.21875 C 120.8455,406.951 120.75,407.6953 120.75,408.4375 C 120.75,409.17811 120.84602,409.89429 120.96875,410.625 L 120.96875,594.59375 L 121.53125,594.59375 C 125.61555,615.42048 178.85459,631.9375 243.875,631.9375 C 308.8954,631.9375 362.13444,615.42048 366.21875,594.59375 L 366.25,594.59375 L 366.25,594.40625 C 366.39398,593.61492 366.46875,592.83427 366.46875,592.03125 C 366.46875,591.22476 366.39521,590.41969 366.25,589.625 L 366.25,403.59375 L 365.34375,403.59375 C 358.0063,383.84186 306.22354,368.53125 243.5,368.53125 z "
         style="opacity:1;fill:url(#linearGradient2451);fill-opacity:1;stroke:#000000;stroke-width:0.62340528;stroke-linejoin:round;stroke-miterlimit:10.30000019;stroke-dasharray:none;stroke-opacity:1" />
      <path
         transform="translate(20.41842,35.228749)"
         d="M 346.48232 372.02444 A 123.23861 39.901024 0 1 1  100.0051,372.02444 A 123.23861 39.901024 0 1 1  346.48232 372.02444 z"
         sodipodi:ry="39.901024"
         sodipodi:rx="123.23861"
         sodipodi:cy="372.02444"
         sodipodi:cx="223.24371"
         id="path3506"
         style="opacity:1;fill:url(#linearGradient2453);fill-opacity:1;stroke:#000000;stroke-width:0.625;stroke-linejoin:round;stroke-miterlimit:10.30000019;stroke-dasharray:none;stroke-opacity:1;display:inline"
         sodipodi:type="arc" />
    </g>
    <path
       sodipodi:type="arc"
       style="opacity:0.36057691;fill:#ffffff;fill-opacity:1;stroke:none;stroke-width:0.625;stroke-linejoin:round;stroke-miterlimit:10.30000019;stroke-dasharray:none;stroke-opacity:1;display:inline;filter:url(#filter3764)"
       id="path3558"
       sodipodi:cx="110"
       sodipodi:cy="256.64789"
       sodipodi:rx="104.28571"
       sodipodi:ry="34.285713"
       d="M 214.28571 256.64789 A 104.28571 34.285713 0 1 1  5.7142868,256.64789 A 104.28571 34.285713 0 1 1  214.28571 256.64789 z"
       transform="matrix(1.1502124,0,0,1.1652293,348.62792,261.58826)" />
    <path
       sodipodi:type="arc"
       style="opacity:0.28365383;fill:#ffffff;fill-opacity:1;stroke:none;stroke-width:0.625;stroke-linejoin:round;stroke-miterlimit:10.30000019;stroke-dasharray:none;stroke-opacity:0.918129;display:inline;filter:url(#filter3990)"
       id="path3816"
       sodipodi:cx="-195.96959"
       sodipodi:cy="608.90521"
       sodipodi:rx="103.03556"
       sodipodi:ry="93.944183"
       d="M -92.934029 608.90521 A 103.03556 93.944183 0 1 1  -299.00515,608.90521 A 103.03556 93.944183 0 1 1  -92.934029 608.90521 z"
       transform="matrix(0.4944982,-0.2377377,0.5496997,6.2564548e-2,264.07027,655.78761)" />
    <path
       style="font-size:22px;font-style:normal;font-variant:normal;font-weight:normal;font-stretch:normal;text-align:start;line-height:125%;writing-mode:lr-tb;text-anchor:start;fill:#000000;fill-opacity:1;stroke:none;stroke-width:1px;stroke-linecap:butt;stroke-linejoin:miter;stroke-opacity:1;font-family:Gill Sans MT"
       d="M 381.69807,660.48038 L 380.06526,659.4921 C 379.04117,658.86906 378.31249,658.25497 377.87922,657.64982 C 377.44595,657.04468 377.22932,656.34823 377.22932,655.56046 C 377.22932,654.37883 377.63931,653.4192 378.4593,652.68156 C 379.27928,651.94394 380.34455,651.57513 381.6551,651.57511 C 382.90835,651.57513 384.05776,651.92604 385.10334,652.62785 L 385.10334,655.06632 C 384.02195,654.02792 382.85822,653.50872 381.61213,653.50871 C 380.9103,653.50872 380.33381,653.67164 379.88264,653.99747 C 379.43146,654.32333 379.20588,654.74049 379.20588,655.24894 C 379.20588,655.70012 379.37059,656.12265 379.70002,656.51652 C 380.02945,656.91041 380.56297,657.32219 381.30061,657.75187 L 382.94416,658.71867 C 384.77749,659.80721 385.69415,661.19654 385.69416,662.88663 C 385.69415,664.08976 385.29132,665.0673 384.48567,665.81925 C 383.68,666.57121 382.63263,666.94718 381.34358,666.94718 C 379.86115,666.94718 378.51122,666.49243 377.29377,665.58292 L 377.29377,662.85441 C 378.45393,664.32251 379.7967,665.05656 381.32209,665.05656 C 381.99526,665.05656 382.55565,664.86857 383.00324,664.49259 C 383.45083,664.11662 383.67462,663.64575 383.67463,663.07999 C 383.67462,662.16333 383.01577,661.2968 381.69807,660.48038 L 381.69807,660.48038 z M 388.07893,651.76847 L 396.58674,651.76847 L 396.58674,653.68058 L 390.22737,653.68058 L 390.22737,658.25675 L 396.3719,658.25675 L 396.3719,660.1796 L 390.22737,660.1796 L 390.22737,664.84171 L 396.79084,664.84171 L 396.79084,666.75382 L 388.07893,666.75382 L 388.07893,651.76847 z M 399.07893,651.76847 L 401.22737,651.76847 L 401.22737,664.82023 L 407.9842,664.82023 L 407.9842,666.77531 L 399.07893,666.77531 L 399.07893,651.76847 z M 409.86408,651.76847 L 418.3719,651.76847 L 418.3719,653.68058 L 412.01252,653.68058 L 412.01252,658.25675 L 418.15705,658.25675 L 418.15705,660.1796 L 412.01252,660.1796 L 412.01252,664.84171 L 418.576,664.84171 L 418.576,666.75382 L 409.86408,666.75382 L 409.86408,651.76847 z M 433.79768,663.29484 L 433.79768,665.65812 C 432.22214,666.51749 430.40314,666.94718 428.34065,666.94718 C 426.66486,666.94718 425.24331,666.61059 424.076,665.93742 C 422.90868,665.26424 421.98485,664.33683 421.30451,663.15519 C 420.62417,661.97355 420.28401,660.69523 420.28401,659.32023 C 420.28401,657.13599 421.06281,655.29908 422.62043,653.80949 C 424.17804,652.31992 426.0991,651.57513 428.38362,651.57511 C 429.95913,651.57513 431.7101,651.98691 433.63655,652.81046 L 433.63655,655.12003 C 431.88198,654.11744 430.16681,653.61614 428.49104,653.61613 C 426.77228,653.61614 425.34536,654.15862 424.21028,655.24357 C 423.07518,656.32854 422.50764,657.68743 422.50764,659.32023 C 422.50764,660.96737 423.06623,662.32088 424.18342,663.38078 C 425.3006,664.44067 426.72931,664.97062 428.46955,664.97062 C 430.28855,664.97062 432.06459,664.41203 433.79768,663.29484 L 433.79768,663.29484 z M 435.18342,651.74699 L 447.71955,651.74699 L 447.71955,653.6591 L 442.48811,653.6591 L 442.48811,666.77531 L 440.32893,666.77531 L 440.32893,653.6591 L 435.18342,653.6591 L 435.18342,651.74699 z M 458.95588,654.93742 L 459.00959,654.93742 C 459.15998,654.93743 459.28888,655.01262 459.39631,655.163 L 461.24397,653.40128 C 461.63068,653.03606 461.97085,652.85345 462.26448,652.85343 C 462.45783,652.85345 462.62254,652.92685 462.75862,653.07365 C 462.89467,653.22047 462.96271,653.4013 462.96272,653.61613 C 462.96271,654.10312 462.68341,654.41822 462.12483,654.56144 L 461.8885,654.63663 L 459.53596,655.48527 C 459.5646,655.57838 459.57892,655.6679 459.57893,655.75382 C 459.57892,655.83977 459.5646,655.91855 459.53596,655.99015 L 462.01741,656.92472 L 462.5008,657.16105 C 462.62254,657.23267 462.72996,657.34189 462.82307,657.48869 C 462.91616,657.6355 462.96271,657.76978 462.96272,657.89152 C 462.96271,658.05624 462.89288,658.22095 462.75324,658.38566 C 462.61359,658.55038 462.45066,658.63274 462.26448,658.63273 C 461.90639,658.63274 461.48745,658.39283 461.00764,657.913 L 459.39631,656.30167 C 459.24592,656.45207 459.09911,656.52727 458.95588,656.52726 L 459.39631,658.79386 C 459.46076,659.07317 459.49299,659.40259 459.49299,659.78214 C 459.49299,660.41236 459.2495,660.72746 458.76252,660.72746 C 458.26122,660.72746 458.01057,660.38371 458.01057,659.69621 C 458.01057,659.50285 458.03205,659.31666 458.07502,659.13761 L 458.63362,656.52726 C 458.49754,656.51295 458.3579,656.43775 458.21467,656.30167 L 456.49592,657.89152 C 455.95881,658.37134 455.55419,658.61125 455.28205,658.61124 C 455.08869,658.61125 454.9204,658.53964 454.77717,658.3964 C 454.63394,658.25318 454.56233,658.08489 454.56233,657.89152 C 454.56233,657.41887 455.00276,657.03573 455.88362,656.7421 L 458.05354,655.99015 C 458.02489,655.87558 458.01057,655.78964 458.01057,655.73234 L 458.05354,655.48527 L 455.57209,654.56144 C 454.92756,654.33229 454.6053,654.02434 454.6053,653.63761 C 454.6053,653.42994 454.68049,653.24374 454.83088,653.07902 C 454.98127,652.91432 455.15673,652.83196 455.35725,652.83195 C 455.52196,652.83196 455.75471,652.94654 456.05549,653.1757 L 456.34553,653.40128 L 458.21467,655.163 C 458.33641,655.02695 458.47606,654.95175 458.63362,654.93742 L 458.21467,652.73527 L 458.10725,652.27335 C 458.07144,652.10865 458.05353,651.94752 458.05354,651.78996 C 458.05353,651.13112 458.30418,650.80169 458.80549,650.80167 C 459.29247,650.80169 459.53595,651.09531 459.53596,651.68253 C 459.53595,651.89023 459.4894,652.22682 459.39631,652.6923 L 458.95588,654.93742 z M 471.15901,651.76847 L 479.16194,651.76847 L 479.16194,653.68058 L 473.30744,653.68058 L 473.30744,657.87003 L 479.16194,657.87003 L 479.16194,659.78214 L 473.30744,659.78214 L 473.30744,666.77531 L 471.15901,666.77531 L 471.15901,651.76847 z M 481.51448,666.77531 L 481.51448,651.76847 L 485.27424,651.76847 C 486.79246,651.76849 487.99738,652.14446 488.88899,652.8964 C 489.78058,653.64837 490.22638,654.66529 490.22639,655.94718 C 490.22638,656.82089 490.00795,657.57642 489.57112,658.21378 C 489.13426,658.85116 488.50763,659.3274 487.69123,659.64249 C 488.17104,659.95761 488.64012,660.38729 489.09846,660.93156 C 489.55678,661.47583 490.20131,662.42472 491.03205,663.77824 C 491.55483,664.63045 491.97377,665.2714 492.28889,665.70109 L 493.08381,666.77531 L 490.52717,666.77531 L 489.8719,665.78703 C 489.8504,665.75122 489.80743,665.69035 489.74299,665.60441 L 489.32405,665.01359 L 488.65803,663.91788 L 487.9383,662.74699 C 487.49429,662.13111 487.08787,661.64055 486.71907,661.27531 C 486.35024,660.91008 486.01724,660.64689 485.72004,660.48576 C 485.42284,660.32463 484.92332,660.24406 484.22151,660.24406 L 483.66291,660.24406 L 483.66291,666.77531 L 481.51448,666.77531 z M 484.30744,653.59464 L 483.66291,653.59464 L 483.66291,658.33195 L 484.47932,658.33195 C 485.56785,658.33196 486.31444,658.23886 486.71907,658.05265 C 487.12368,657.86646 487.43878,657.58537 487.66438,657.20939 C 487.88996,656.83342 488.00275,656.40553 488.00276,655.9257 C 488.00275,655.45305 487.87742,655.02516 487.62678,654.64201 C 487.37612,654.25888 487.02342,653.98854 486.56867,653.83097 C 486.11392,653.67343 485.36017,653.59466 484.30744,653.59464 L 484.30744,653.59464 z M 502.09651,651.55363 C 504.41681,651.55364 506.34861,652.28769 507.89192,653.75578 C 509.43519,655.22389 510.20684,657.06438 510.20686,659.27726 C 510.20684,661.49016 509.42803,663.3217 507.87043,664.77189 C 506.3128,666.22208 504.34877,666.94718 501.97834,666.94718 C 499.71532,666.94718 497.83006,666.22208 496.32258,664.77189 C 494.81509,663.3217 494.06135,661.50448 494.06135,659.32023 C 494.06135,657.0787 494.82046,655.22389 496.33869,653.75578 C 497.85692,652.28769 499.77619,651.55364 502.09651,651.55363 L 502.09651,651.55363 z M 502.18244,653.59464 C 500.46369,653.59466 499.05109,654.13176 497.94465,655.20597 C 496.8382,656.2802 496.28498,657.65162 496.28498,659.32023 C 496.28498,660.93872 496.83999,662.28508 497.95002,663.35929 C 499.06004,664.43351 500.44936,664.97062 502.11799,664.97062 C 503.79376,664.97062 505.19203,664.42277 506.31282,663.32706 C 507.43357,662.23137 507.99395,660.86711 507.99397,659.23429 C 507.99395,657.64446 507.43357,656.30706 506.31282,655.22208 C 505.19203,654.13714 503.81525,653.59466 502.18244,653.59464 L 502.18244,653.59464 z M 524.80549,651.76847 L 526.80354,651.76847 L 526.80354,666.77531 L 524.64436,666.77531 L 524.64436,655.09855 L 520.02522,660.89933 L 519.62776,660.89933 L 514.96565,655.09855 L 514.96565,666.77531 L 512.81721,666.77531 L 512.81721,651.76847 L 514.83674,651.76847 L 519.83186,657.93449 L 524.80549,651.76847 z M 376.32698,685.96085 L 380.0008,682.35148 L 380.0008,684.39249 L 383.12678,684.39249 L 383.12678,686.15421 L 380.0008,686.15421 L 380.0008,690.99894 C 380.0008,692.13045 380.46987,692.69621 381.40803,692.69621 C 382.10985,692.69621 382.85106,692.45988 383.63166,691.98722 L 383.63166,693.81339 C 382.8797,694.23592 382.05972,694.44718 381.1717,694.44718 C 380.27652,694.44718 379.53172,694.18579 378.93733,693.663 C 378.75113,693.50545 378.59716,693.3282 378.47541,693.13126 C 378.35367,692.93432 378.25162,692.67651 378.16926,692.35783 C 378.0869,692.03914 378.04572,691.43221 378.04573,690.53703 L 378.04573,686.15421 L 376.32698,686.15421 L 376.32698,685.96085 z M 391.26936,688.33488 L 391.26936,692.53507 C 391.26935,692.87166 391.38393,693.03996 391.61311,693.03996 C 391.84943,693.03996 392.21824,692.8645 392.71955,692.51359 L 392.71955,693.70597 C 392.27553,693.99243 391.91925,694.18758 391.65071,694.29142 C 391.38214,694.39526 391.10106,694.44718 390.80744,694.44718 C 389.96955,694.44718 389.47541,694.11775 389.32502,693.4589 C 388.49429,694.10343 387.60985,694.4257 386.6717,694.4257 C 385.9842,694.4257 385.41128,694.19832 384.95295,693.74357 C 384.49462,693.28882 384.26545,692.71769 384.26545,692.03019 C 384.26545,691.40715 384.48925,690.85034 384.93684,690.35978 C 385.38443,689.86922 386.02001,689.48072 386.84358,689.19425 L 389.34651,688.33488 L 389.34651,687.80851 C 389.3465,686.61972 388.7521,686.02531 387.5633,686.02531 C 386.49624,686.02531 385.45783,686.57675 384.44807,687.6796 L 384.44807,685.54191 C 385.20718,684.64674 386.2993,684.19914 387.72444,684.19913 C 388.79149,684.19914 389.64728,684.47844 390.29182,685.03703 C 390.50666,685.21607 390.70002,685.45419 390.8719,685.75138 C 391.04376,686.04859 391.15298,686.34579 391.19953,686.64298 C 391.24608,686.94019 391.26935,687.50415 391.26936,688.33488 L 391.26936,688.33488 z M 389.34651,692.32023 L 389.34651,689.38761 L 388.03596,689.89249 C 387.36994,690.15747 386.89907,690.42424 386.62336,690.69279 C 386.34764,690.96135 386.20979,691.29614 386.20979,691.69718 C 386.20979,692.10539 386.34048,692.43839 386.60188,692.69621 C 386.86327,692.95402 387.20165,693.08292 387.61701,693.08292 C 388.24006,693.08292 388.81655,692.82869 389.34651,692.32023 L 389.34651,692.32023 z M 394.38459,679.26847 L 396.33967,679.26847 L 396.33967,685.10148 C 397.18472,684.4856 398.08706,684.17766 399.0467,684.17765 C 400.29995,684.17766 401.32404,684.65032 402.11897,685.59562 C 402.91388,686.54094 403.31134,687.75481 403.31135,689.23722 C 403.31134,690.82707 402.83689,692.09285 401.88801,693.03458 C 400.93911,693.97632 399.66974,694.44718 398.07991,694.44718 C 397.44253,694.44718 396.77114,694.37915 396.06574,694.24308 C 395.36034,694.10701 394.79996,693.93514 394.38459,693.72746 L 394.38459,679.26847 z M 396.33967,686.97062 L 396.33967,692.32023 C 397.00568,692.52075 397.6896,692.62101 398.39143,692.62101 C 399.25796,692.62101 399.96515,692.31307 400.51301,691.69718 C 401.06085,691.0813 401.33478,690.28996 401.33479,689.32316 C 401.33478,688.34204 401.07876,687.54354 400.56672,686.92765 C 400.05467,686.31177 399.38686,686.00383 398.5633,686.00382 C 397.83283,686.00383 397.09162,686.3261 396.33967,686.97062 L 396.33967,686.97062 z M 405.5135,679.26847 L 407.46858,679.26847 L 407.46858,694.27531 L 405.5135,694.27531 L 405.5135,679.26847 z M 418.70491,689.50578 L 411.75471,689.50578 C 411.80484,690.45109 412.12173,691.20304 412.70539,691.76163 C 413.28905,692.32023 414.04279,692.59953 414.96662,692.59953 C 416.25568,692.59953 417.44448,692.19849 418.53303,691.3964 L 418.53303,693.30851 C 417.93146,693.70955 417.33527,693.99601 416.74446,694.16788 C 416.15363,694.33976 415.46076,694.4257 414.66584,694.4257 C 413.5773,694.4257 412.69644,694.20011 412.02326,693.74894 C 411.35008,693.29777 410.81119,692.69084 410.40657,691.92814 C 410.00194,691.16545 409.79963,690.2828 409.79963,689.28019 C 409.79963,687.77629 410.22574,686.55347 411.07795,685.61173 C 411.93016,684.67001 413.03661,684.19914 414.39729,684.19913 C 415.70783,684.19914 416.7534,684.65748 417.53401,685.57413 C 418.3146,686.49081 418.7049,687.719 418.70491,689.25871 L 418.70491,689.50578 z M 411.79768,688.33488 L 416.77131,688.33488 C 416.72117,687.55428 416.48843,686.95272 416.07307,686.53019 C 415.6577,686.10767 415.0991,685.89641 414.39729,685.8964 C 413.69546,685.89641 413.12075,686.10767 412.67317,686.53019 C 412.22557,686.95272 411.93374,687.55428 411.79768,688.33488 L 411.79768,688.33488 z M 421.10041,679.26847 L 423.24885,679.26847 L 423.24885,694.27531 L 421.10041,694.27531 L 421.10041,679.26847 z M 426.60041,694.25382 L 426.60041,679.26847 L 431.65998,679.26847 C 433.70099,679.26849 435.3159,679.57464 436.50471,680.18693 C 437.6935,680.79925 438.63881,681.6998 439.34065,682.88859 C 440.04245,684.0774 440.39337,685.37362 440.39338,686.77726 C 440.39337,687.77987 440.20001,688.7395 439.8133,689.65617 C 439.42657,690.57284 438.87514,691.3785 438.15901,692.07316 C 437.42853,692.78931 436.57989,693.33 435.61311,693.69523 C 435.04734,693.91723 434.52814,694.06583 434.05549,694.14103 C 433.58283,694.21622 432.68048,694.25382 431.34846,694.25382 L 426.60041,694.25382 z M 431.4344,681.18058 L 428.74885,681.18058 L 428.74885,692.34171 L 431.49885,692.34171 C 432.57306,692.34171 433.40737,692.26831 434.00178,692.1215 C 434.59617,691.97469 435.0921,691.78849 435.48957,691.5629 C 435.88702,691.33732 436.25047,691.05981 436.57991,690.73038 C 437.63979,689.65617 438.16974,688.29908 438.16975,686.6591 C 438.16974,685.04778 437.62547,683.73365 436.53694,682.71671 C 436.13588,682.33717 435.67576,682.02564 435.15657,681.78214 C 434.63735,681.53867 434.145,681.37753 433.67951,681.29874 C 433.21401,681.21998 432.46564,681.18059 431.4344,681.18058 L 431.4344,681.18058 z M 468.29084,679.26847 L 470.42854,679.26847 L 464.3592,694.33976 L 463.89729,694.33976 L 458.98811,682.13663 L 454.03596,694.33976 L 453.57405,694.33976 L 447.52619,679.26847 L 449.68537,679.26847 L 453.82112,689.6132 L 457.97834,679.26847 L 460.01936,679.26847 L 464.19807,689.6132 L 468.29084,679.26847 z M 482.70686,679.26847 L 484.8553,679.26847 L 484.8553,694.27531 L 482.70686,694.27531 L 482.70686,687.74406 L 474.27424,687.74406 L 474.27424,694.27531 L 472.1258,694.27531 L 472.1258,679.26847 L 474.27424,679.26847 L 474.27424,685.75675 L 482.70686,685.75675 L 482.70686,679.26847 z M 488.15315,679.26847 L 496.66096,679.26847 L 496.66096,681.18058 L 490.30158,681.18058 L 490.30158,685.75675 L 496.44612,685.75675 L 496.44612,687.6796 L 490.30158,687.6796 L 490.30158,692.34171 L 496.86506,692.34171 L 496.86506,694.25382 L 488.15315,694.25382 L 488.15315,679.26847 z M 499.2176,694.27531 L 499.2176,679.26847 L 502.97737,679.26847 C 504.49559,679.26849 505.7005,679.64446 506.59211,680.3964 C 507.4837,681.14837 507.9295,682.16529 507.92951,683.44718 C 507.9295,684.32089 507.71108,685.07642 507.27424,685.71378 C 506.83738,686.35116 506.21076,686.8274 505.39436,687.14249 C 505.87417,687.45761 506.34324,687.88729 506.80158,688.43156 C 507.25991,688.97583 507.90444,689.92472 508.73518,691.27824 C 509.25795,692.13045 509.6769,692.7714 509.99201,693.20109 L 510.78694,694.27531 L 508.2303,694.27531 L 507.57502,693.28703 C 507.55353,693.25122 507.51056,693.19035 507.44612,693.10441 L 507.02717,692.51359 L 506.36116,691.41788 L 505.64143,690.24699 C 505.19741,689.63111 504.791,689.14055 504.42219,688.77531 C 504.05337,688.41008 503.72036,688.14689 503.42317,687.98576 C 503.12596,687.82463 502.62645,687.74406 501.92463,687.74406 L 501.36604,687.74406 L 501.36604,694.27531 L 499.2176,694.27531 z M 502.01057,681.09464 L 501.36604,681.09464 L 501.36604,685.83195 L 502.18244,685.83195 C 503.27098,685.83196 504.01756,685.73886 504.42219,685.55265 C 504.82681,685.36646 505.14191,685.08537 505.3675,684.70939 C 505.59308,684.33342 505.70587,683.90553 505.70588,683.4257 C 505.70587,682.95305 505.58055,682.52516 505.32991,682.14201 C 505.07925,681.75888 504.72654,681.48854 504.2718,681.33097 C 503.81704,681.17343 503.0633,681.09466 502.01057,681.09464 L 502.01057,681.09464 z M 512.43049,679.26847 L 520.9383,679.26847 L 520.9383,681.18058 L 514.57893,681.18058 L 514.57893,685.75675 L 520.72346,685.75675 L 520.72346,687.6796 L 514.57893,687.6796 L 514.57893,692.34171 L 521.14241,692.34171 L 521.14241,694.25382 L 512.43049,694.25382 L 512.43049,679.26847 z M 379.80744,711.89249 L 379.80744,714.1591 L 379.91487,713.98722 C 380.86017,712.46184 381.80549,711.69914 382.7508,711.69913 C 383.48843,711.69914 384.25828,712.07154 385.06037,712.81632 L 384.02912,714.53507 C 383.34878,713.89055 382.71857,713.56828 382.1385,713.56828 C 381.50829,713.56828 380.96222,713.86906 380.50032,714.47062 C 380.0384,715.07219 379.80744,715.78475 379.80744,716.60831 L 379.80744,721.77531 L 377.84162,721.77531 L 377.84162,711.89249 L 379.80744,711.89249 z M 391.16194,711.87101 C 392.66583,711.87102 393.91551,712.35621 394.91096,713.32658 C 395.90639,714.29696 396.40411,715.5162 396.40412,716.98429 C 396.40411,718.40942 395.89923,719.59285 394.88948,720.53458 C 393.8797,721.47632 392.60854,721.94718 391.076,721.94718 C 389.59357,721.94718 388.35464,721.46915 387.3592,720.5131 C 386.36376,719.55705 385.86604,718.36288 385.86604,716.93058 C 385.86604,715.48397 386.36913,714.27906 387.37532,713.31583 C 388.3815,712.35263 389.6437,711.87102 391.16194,711.87101 L 391.16194,711.87101 z M 391.05451,713.63273 C 390.11636,713.63274 389.3465,713.94068 388.74494,714.55656 C 388.14338,715.17245 387.8426,715.95663 387.8426,716.9091 C 387.8426,717.85441 388.15054,718.62606 388.76643,719.22404 C 389.38231,719.82202 390.17365,720.12101 391.14045,720.12101 C 392.10008,720.12101 392.88605,719.81844 393.49836,719.21329 C 394.11066,718.60815 394.41681,717.83293 394.41682,716.88761 C 394.41681,715.94947 394.09813,715.17245 393.46076,714.55656 C 392.82339,713.94068 392.0213,713.63274 391.05451,713.63273 L 391.05451,713.63273 z M 410.9383,711.89249 L 413.03303,711.89249 L 408.6717,721.94718 L 408.0594,721.94718 L 405.12678,715.06144 L 402.24787,721.94718 L 401.61408,721.94718 L 397.20979,711.89249 L 399.30451,711.89249 L 401.89338,717.88663 L 404.40705,711.89249 L 405.85725,711.89249 L 408.36018,717.88663 L 410.9383,711.89249 z M 414.69807,706.76847 L 416.84651,706.76847 L 416.84651,721.77531 L 414.69807,721.77531 L 414.69807,706.76847 z M 420.19807,721.75382 L 420.19807,706.76847 L 425.25764,706.76847 C 427.29865,706.76849 428.91355,707.07464 430.10237,707.68693 C 431.29116,708.29925 432.23647,709.1998 432.9383,710.38859 C 433.64011,711.5774 433.99102,712.87362 433.99104,714.27726 C 433.99102,715.27987 433.79766,716.2395 433.41096,717.15617 C 433.02423,718.07284 432.47279,718.8785 431.75666,719.57316 C 431.02618,720.28931 430.17755,720.83 429.21076,721.19523 C 428.645,721.41723 428.12579,721.56583 427.65315,721.64103 C 427.18048,721.71622 426.27814,721.75382 424.94612,721.75382 L 420.19807,721.75382 z M 425.03205,708.68058 L 422.34651,708.68058 L 422.34651,719.84171 L 425.09651,719.84171 C 426.17072,719.84171 427.00503,719.76831 427.59944,719.6215 C 428.19383,719.47469 428.68976,719.28849 429.08723,719.0629 C 429.48468,718.83732 429.84812,718.55981 430.17756,718.23038 C 431.23744,717.15617 431.76739,715.79908 431.76741,714.1591 C 431.76739,712.54778 431.22312,711.23365 430.13459,710.21671 C 429.73354,709.83717 429.27342,709.52564 428.75422,709.28214 C 428.23501,709.03867 427.74266,708.87753 427.27717,708.79874 C 426.81167,708.71998 426.0633,708.68059 425.03205,708.68058 L 425.03205,708.68058 z M 442.32698,714.88956 L 442.32698,713.08488 L 452.75764,708.68058 L 452.75764,710.60343 L 444.48616,713.99796 L 452.75764,717.42472 L 452.75764,719.34757 L 442.32698,714.88956 z M 467.88264,706.57511 L 468.7635,706.57511 L 468.7635,714.99699 L 470.43928,714.99699 L 470.43928,716.82316 L 468.7635,716.82316 L 468.7635,721.77531 L 466.66877,721.77531 L 466.66877,716.82316 L 460.32014,716.82316 L 460.32014,715.89933 L 467.88264,706.57511 z M 466.66877,714.99699 L 466.66877,710.6464 L 463.19905,714.99699 L 466.66877,714.99699 z M 476.65901,706.57511 C 478.034,706.57513 479.17088,707.29664 480.06965,708.73966 C 480.9684,710.18271 481.41779,712.01425 481.4178,714.23429 C 481.41779,716.51164 480.9684,718.36288 480.06965,719.788 C 479.17088,721.21313 478.00535,721.9257 476.57307,721.9257 C 475.11929,721.9257 473.95197,721.22746 473.07112,719.83097 C 472.19026,718.43449 471.74983,716.58325 471.74983,714.27726 C 471.74983,711.99993 472.20458,710.1469 473.11408,708.71818 C 474.02359,707.28948 475.20523,706.57513 476.65901,706.57511 L 476.65901,706.57511 z M 476.68049,708.61613 L 476.57307,708.61613 C 475.7495,708.61614 475.09601,709.12281 474.61262,710.13615 C 474.12922,711.1495 473.88752,712.52271 473.88752,714.25578 C 473.88752,716.03182 474.12385,717.42472 474.59651,718.43449 C 475.06916,719.44425 475.72085,719.94914 476.55158,719.94913 C 477.38231,719.94914 478.03758,719.44425 478.51741,718.43449 C 478.99721,717.42472 479.23712,716.05331 479.23713,714.32023 C 479.23712,712.58 479.00617,711.19426 478.54426,710.163 C 478.08234,709.13176 477.46108,708.61614 476.68049,708.61613 L 476.68049,708.61613 z M 487.65901,706.57511 C 489.034,706.57513 490.17088,707.29664 491.06965,708.73966 C 491.9684,710.18271 492.41779,712.01425 492.4178,714.23429 C 492.41779,716.51164 491.9684,718.36288 491.06965,719.788 C 490.17088,721.21313 489.00535,721.9257 487.57307,721.9257 C 486.11929,721.9257 484.95197,721.22746 484.07112,719.83097 C 483.19026,718.43449 482.74983,716.58325 482.74983,714.27726 C 482.74983,711.99993 483.20458,710.1469 484.11408,708.71818 C 485.02359,707.28948 486.20523,706.57513 487.65901,706.57511 L 487.65901,706.57511 z M 487.68049,708.61613 L 487.57307,708.61613 C 486.7495,708.61614 486.09601,709.12281 485.61262,710.13615 C 485.12922,711.1495 484.88752,712.52271 484.88752,714.25578 C 484.88752,716.03182 485.12385,717.42472 485.59651,718.43449 C 486.06916,719.44425 486.72085,719.94914 487.55158,719.94913 C 488.38231,719.94914 489.03758,719.44425 489.51741,718.43449 C 489.99721,717.42472 490.23712,716.05331 490.23713,714.32023 C 490.23712,712.58 490.00617,711.19426 489.54426,710.163 C 489.08234,709.13176 488.46108,708.61614 487.68049,708.61613 L 487.68049,708.61613 z M 495.2967,721.88273 L 495.31819,721.77531 C 494.55191,721.5533 494.16877,721.08423 494.16877,720.36808 C 494.16877,719.98136 494.29947,719.64657 494.56086,719.36369 C 494.82225,719.08081 495.13199,718.93937 495.49006,718.93937 C 495.91975,718.93937 496.27782,719.13631 496.56428,719.53019 C 496.85073,719.92407 496.99396,720.41463 496.99397,721.00187 C 496.99396,721.79679 496.7648,722.49503 496.30647,723.0966 C 495.84813,723.69816 495.21792,724.12426 494.41584,724.37492 L 494.41584,723.97746 C 494.72378,723.68383 494.94221,723.38305 495.07112,723.07511 C 495.20002,722.76717 495.27522,722.36971 495.2967,721.88273 L 495.2967,721.88273 z M 495.69416,711.69913 C 496.05939,711.69914 496.37092,711.82805 496.62873,712.08585 C 496.88654,712.34368 497.01545,712.6552 497.01545,713.02042 C 497.01545,713.37851 496.88654,713.68466 496.62873,713.93888 C 496.37092,714.19312 496.06656,714.32024 495.71565,714.32023 C 495.35041,714.32024 495.03889,714.19312 494.78108,713.93888 C 494.52326,713.68466 494.39436,713.37851 494.39436,713.02042 C 494.39436,712.6552 494.52147,712.34368 494.77571,712.08585 C 495.02994,711.82805 495.33609,711.69914 495.69416,711.69913 L 495.69416,711.69913 z "
       id="text4115" />
    <g
       id="g4147"
       transform="matrix(0.1856948,0,0,0.1614431,632.87055,762.23374)">
      <path
         style="opacity:0.86725619;fill:url(#linearGradient4159);fill-opacity:1;stroke:none;stroke-width:0.625;stroke-linejoin:round;stroke-miterlimit:10.30000019;stroke-dasharray:none;stroke-opacity:0.918129;filter:url(#filter4115)"
         d="M -338.28942,-469.0842 C -515.13022,-468.34098 -658.02402,-317.69774 -657.22692,-132.80295 L -656.78942,-132.80295 L -661.32067,-77.459198 L -661.32067,-30.834198 C -661.84296,-30.659808 -662.40362,-30.478278 -662.91442,-30.302948 L -662.91442,-31.584198 C -663.79552,-31.634028 -664.70316,-31.709198 -665.60192,-31.709198 C -684.16405,-31.709188 -699.22692,-20.880028 -699.22692,-7.5529483 C -699.22692,-5.6220483 -698.88677,-3.7594283 -698.28942,-1.9591983 L -698.28942,450.9158 C -698.49913,452.00502 -698.63317,453.12912 -698.63317,454.25955 C -698.63317,461.14651 -694.58529,467.30376 -688.13317,471.69705 L -688.13317,473.5408 L -685.19567,473.5408 C -679.57127,476.57115 -672.54799,478.35329 -664.97692,478.3533 C -664.28284,478.35328 -663.59801,478.32055 -662.91442,478.2908 L -662.91442,473.5408 L 51.648075,473.5408 L 51.648075,-0.49044828 C 53.674425,-2.8619483 54.710575,-5.2239383 54.710575,-7.6779483 C 54.710595,-10.131968 53.674405,-12.587678 51.648075,-14.959198 L 51.648075,-15.740448 L 50.898075,-15.740448 C 42.158405,-24.923858 18.641815,-33.388818 -15.851925,-40.584198 L -15.851925,-137.92795 L -16.508175,-137.92795 C -18.556885,-321.69526 -162.22752,-469.82415 -338.28942,-469.0842 z M -341.10192,-393.55294 C -204.13692,-394.12857 -92.469025,-278.38078 -91.851925,-135.17795 L -91.133175,-135.17795 L -88.914425,-80.771698 L -88.914425,-52.052948 C -152.54018,-59.558308 -232.67082,-64.021698 -319.75817,-64.021698 C -425.03546,-64.021698 -520.2053,-57.482728 -588.25817,-46.959198 L -588.25817,-133.0842 L -588.13317,-133.0842 C -588.75057,-276.287 -478.06672,-392.97731 -341.10192,-393.55294 z "
         id="path4119" />
      <path
         id="path4121"
         d="M -348.35192,-453.5842 C -525.19272,-452.84098 -668.08652,-302.19774 -667.28942,-117.30295 L -666.85192,-117.30295 L -671.38317,-61.959198 L -671.38317,-15.334198 C -671.90545,-15.159808 -672.46612,-14.978278 -672.97692,-14.802948 L -672.97692,-16.084198 C -673.85802,-16.134028 -674.76566,-16.209198 -675.66442,-16.209198 C -694.22654,-16.209188 -709.28942,-5.3800283 -709.28942,7.9470517 C -709.28941,9.8779517 -708.94927,11.740572 -708.35192,13.540802 L -708.35192,466.41584 C -708.56163,467.50504 -708.69567,468.62914 -708.69567,469.75954 C -708.69567,476.64654 -704.64778,482.80374 -698.19567,487.19704 L -698.19567,489.04084 L -695.25817,489.04084 C -689.63376,492.07114 -682.61049,493.85324 -675.03942,493.85334 C -674.34534,493.85324 -673.66051,493.82054 -672.97692,493.79084 L -672.97692,489.04084 L 41.585555,489.04084 L 41.585555,15.009552 C 43.611955,12.638052 44.648055,10.276062 44.648055,7.8220517 C 44.648055,5.3680317 43.611955,2.9123217 41.585555,0.54080172 L 41.585555,-0.24044828 L 40.835555,-0.24044828 C 32.095955,-9.4238583 8.5793555,-17.888818 -25.914445,-25.084198 L -25.914445,-122.42795 L -26.570645,-122.42795 C -28.619345,-306.19525 -172.29002,-454.32415 -348.35192,-453.5842 z M -351.16442,-378.05294 C -214.19942,-378.62856 -102.53154,-262.88078 -101.91444,-119.67795 L -101.19564,-119.67795 L -98.976945,-65.271698 L -98.976945,-36.552948 C -162.60268,-44.058308 -242.73332,-48.521698 -329.82067,-48.521698 C -435.09796,-48.521698 -530.2678,-41.982728 -598.32067,-31.459198 L -598.32067,-117.5842 L -598.19567,-117.5842 C -598.81307,-260.78699 -488.12922,-377.47731 -351.16442,-378.05294 z "
         style="opacity:1;fill:url(#linearGradient4161);fill-opacity:1;stroke:none;stroke-width:0.625;stroke-linejoin:round;stroke-miterlimit:10.30000019;stroke-dasharray:none;stroke-opacity:0.918129" />
      <path
         id="path4123"
         d="M -348.35192,-446.4592 C -525.19272,-445.71598 -668.08652,-295.07275 -667.28942,-110.17795 L -666.85192,-110.17795 L -671.38317,-54.834198 L -671.38317,-8.2091983 C -671.90546,-8.0348083 -672.46613,-7.8532783 -672.97692,-7.6779483 L -672.97692,-8.9591983 C -673.85803,-9.0090283 -674.76567,-9.0841983 -675.66442,-9.0841983 C -694.22655,-9.0841883 -709.28942,1.7449717 -709.28942,15.072052 C -709.28942,17.002952 -708.94928,18.865572 -708.35192,20.665802 L -708.35192,473.5408 C -708.56163,474.63002 -708.69567,475.75412 -708.69567,476.88455 C -708.69568,483.77151 -704.64779,489.92876 -698.19567,494.32205 L -698.19567,496.1658 L -695.25817,496.1658 C -689.63377,499.19615 -682.61049,500.97829 -675.03942,500.9783 C -674.34535,500.97828 -673.66052,500.94555 -672.97692,500.9158 L -672.97692,496.1658 L 41.585575,496.1658 L 41.585575,22.134552 C 43.611925,19.763052 44.648075,17.401062 44.648075,14.947052 C 44.648095,12.493032 43.611905,10.037322 41.585575,7.6658017 L 41.585575,6.8845517 L 40.835575,6.8845517 C 32.095905,-2.2988583 8.5793155,-10.763818 -25.914425,-17.959198 L -25.914425,-115.30295 L -26.570675,-115.30295 C -28.619385,-299.07026 -172.29002,-447.19915 -348.35192,-446.4592 z M -351.16442,-370.92795 C -214.19942,-371.50357 -102.53152,-255.75579 -101.91442,-112.55295 L -101.19567,-112.55295 L -98.976925,-58.146698 L -98.976925,-29.427948 C -162.60268,-36.933308 -242.73332,-41.396698 -329.82067,-41.396698 C -435.09796,-41.396698 -530.2678,-34.857728 -598.32067,-24.334198 L -598.32067,-110.4592 L -598.19567,-110.4592 C -598.81308,-253.662 -488.12922,-370.35232 -351.16442,-370.92795 z "
         style="opacity:1;fill:url(#linearGradient4163);fill-opacity:1;stroke:none;stroke-width:0.625;stroke-linejoin:round;stroke-miterlimit:10.30000019;stroke-dasharray:none;stroke-opacity:0.918129" />
      <path
         id="path4125"
         d="M -333.76251,125.9048 C -380.08764,125.9048 -417.69024,147.2341 -417.69024,173.5117 C -417.69024,190.9655 -401.09574,206.2275 -376.38164,214.5143 C -417.25164,247.3909 -442.78994,317.3821 -441.60784,334.0495 C -440.05574,355.9334 -386.19964,372.8566 -321.39091,371.8275 C -256.58227,370.7983 -205.24417,352.2003 -206.7963,330.3163 C -207.97322,313.7227 -243.15444,245.2353 -288.35192,213.5408 C -265.1854,205.0647 -249.83482,190.3012 -249.83482,173.5117 C -249.83482,147.2341 -287.43739,125.9048 -333.76251,125.9048 z "
         style="opacity:0.67699118;fill:#2e2900;fill-opacity:1;stroke:#000000;stroke-width:1.19740462;stroke-linejoin:round;stroke-miterlimit:10.30000019;stroke-dasharray:none;stroke-opacity:1" />
      <path
         transform="matrix(0.3628037,0,0,0.1806789,78.703395,88.151962)"
         id="path4127"
         d="M -1120,252.36218 C -1230.4619,252.36218 -1320.1251,359.84729 -1320.125,492.26843 C -1320.125,580.22348 -1280.5555,657.13356 -1221.625,698.89343 C -1319.0793,864.56891 -1379.9751,1217.2763 -1377.1563,1301.2684 C -1373.4554,1411.5483 -1245.0358,1496.8296 -1090.5,1491.6434 C -935.96432,1486.4571 -813.54902,1392.7359 -817.25006,1282.4559 C -820.0564,1198.8352 -903.94575,853.7058 -1011.7188,693.98718 C -956.4784,651.27378 -919.87508,576.87587 -919.87506,492.26843 C -919.87506,359.84729 -1009.5381,252.36218 -1120,252.36218 z "
         style="opacity:0.2035398;fill:#ffffff;fill-opacity:1;stroke:#000000;stroke-width:4.15073061;stroke-linejoin:round;stroke-miterlimit:10.30000019;stroke-dasharray:none;stroke-opacity:1;filter:url(#filter3522)" />
      <path
         sodipodi:nodetypes="ccscc"
         id="path4129"
         d="M -11.996942,222.36218 C -11.996942,249.96218 -145.54716,272.35108 -300.10716,272.35108 C -384.76238,241.51593 -438.87408,212.86841 -499.94102,232.95847 C -586.47215,261.42586 -532.99045,191.27118 -300,172.36218 C -145.44,172.36218 -11.996942,194.76218 -11.996942,222.36218 z "
         style="opacity:0.51769912;fill:#ffffff;fill-opacity:1;stroke:none;stroke-width:2.625;stroke-linejoin:round;stroke-miterlimit:10.30000019;stroke-opacity:1;filter:url(#filter3539)"
         transform="matrix(1.2495218,0,0,1.0002222,16.504615,-208.85967)" />
      <path
         id="path4131"
         d="M -334.47769,125.69712 C -380.80282,125.69712 -418.40542,147.02642 -418.40542,173.30402 C -418.40542,190.75782 -401.81092,206.01982 -377.09682,214.30662 C -417.96682,247.18322 -443.50512,317.17444 -442.32302,333.84184 C -440.77092,355.72574 -386.91482,372.64894 -322.10609,371.61984 C -257.29745,370.59064 -205.95935,351.99264 -207.51148,330.10864 C -208.6884,313.51504 -243.86962,245.02762 -289.0671,213.33312 C -265.90058,204.85702 -250.55,190.09352 -250.55,173.30402 C -250.55,147.02642 -288.15257,125.69712 -334.47769,125.69712 z "
         style="opacity:0.67699118;fill:#2e2900;fill-opacity:1;stroke:#000000;stroke-width:1.19740462;stroke-linejoin:round;stroke-miterlimit:10.30000019;stroke-dasharray:none;stroke-opacity:1" />
      <path
         transform="matrix(0.3628037,0,0,0.1806789,77.988215,87.944282)"
         id="path4133"
         d="M -1120,252.36218 C -1230.4619,252.36218 -1320.1251,359.84729 -1320.125,492.26843 C -1320.125,580.22348 -1280.5555,657.13356 -1221.625,698.89343 C -1319.0793,864.56891 -1379.9751,1217.2763 -1377.1563,1301.2684 C -1373.4554,1411.5483 -1245.0358,1496.8296 -1090.5,1491.6434 C -935.96432,1486.4571 -813.54902,1392.7359 -817.25006,1282.4559 C -820.0564,1198.8352 -903.94575,853.7058 -1011.7188,693.98718 C -956.4784,651.27378 -919.87508,576.87587 -919.87506,492.26843 C -919.87506,359.84729 -1009.5381,252.36218 -1120,252.36218 z "
         style="opacity:0.24336285;fill:#ffffff;fill-opacity:1;stroke:#000000;stroke-width:4.15073061;stroke-linejoin:round;stroke-miterlimit:10.30000019;stroke-dasharray:none;stroke-opacity:1;filter:url(#filter3510)" />
      <path
         id="path4135"
         d="M -348.35192,-406.4592 C -525.19272,-405.71598 -668.08652,-255.07274 -667.28942,-70.177948 L -666.85192,-70.177948 L -669.88322,-33.115448 L -598.32062,-33.115448 L -598.32062,-70.459198 L -598.19562,-70.459198 C -598.81312,-213.66199 -488.12922,-330.35231 -351.16442,-330.92794 C -214.19942,-331.50357 -102.53152,-215.75578 -101.91442,-72.552948 L -101.19562,-72.552948 L -99.601925,-33.115448 L -25.914425,-33.115448 L -25.914425,-75.302948 L -26.570625,-75.302948 C -28.619425,-259.07025 -172.29002,-407.19915 -348.35192,-406.4592 z "
         style="opacity:0.72123892;fill:url(#linearGradient4165);fill-opacity:1;stroke:none;stroke-width:0.625;stroke-linejoin:round;stroke-miterlimit:10.30000019;stroke-dasharray:none;stroke-opacity:0.918129;filter:url(#filter3886)" />
      <path
         transform="matrix(0.7746405,0.4982578,-1.0640995,0.3627205,79.732025,-90.101558)"
         sodipodi:nodetypes="cccccc"
         id="path4137"
         d="M 629.52089,566.63038 L 626.54683,638.68005 L 575.06487,675.41706 C 536.14243,706.36352 527.72085,716.36602 480,752.36218 C 558.51073,771.6945 789.39952,590.71366 700,592.36218 L 629.52089,566.63038 z "
         style="opacity:0.73893804;fill:#f2f2f2;fill-opacity:1;stroke:none;stroke-width:2.625;stroke-linejoin:round;stroke-miterlimit:10.30000019;stroke-opacity:1;filter:url(#filter4031)" />
    </g>
    <path
       id="path3701"
       d="M -338.28942,-469.0842 C -515.13022,-468.34098 -658.02402,-317.69774 -657.22692,-132.80295 L -656.78942,-132.80295 L -661.32067,-77.459198 L -661.32067,-30.834198 C -661.84296,-30.659808 -662.40362,-30.478278 -662.91442,-30.302948 L -662.91442,-31.584198 C -663.79552,-31.634028 -664.70316,-31.709198 -665.60192,-31.709198 C -684.16405,-31.709188 -699.22692,-20.880028 -699.22692,-7.5529483 C -699.22692,-5.6220483 -698.88677,-3.7594283 -698.28942,-1.9591983 L -698.28942,450.9158 C -698.49913,452.00502 -698.63317,453.12912 -698.63317,454.25955 C -698.63317,461.14651 -694.58529,467.30376 -688.13317,471.69705 L -688.13317,473.5408 L -685.19567,473.5408 C -679.57127,476.57115 -672.54799,478.35329 -664.97692,478.3533 C -664.28284,478.35328 -663.59801,478.32055 -662.91442,478.2908 L -662.91442,473.5408 L 51.648075,473.5408 L 51.648075,-0.49044828 C 53.674425,-2.8619483 54.710575,-5.2239383 54.710575,-7.6779483 C 54.710595,-10.131968 53.674405,-12.587678 51.648075,-14.959198 L 51.648075,-15.740448 L 50.898075,-15.740448 C 42.158405,-24.923858 18.641815,-33.388818 -15.851925,-40.584198 L -15.851925,-137.92795 L -16.508175,-137.92795 C -18.556885,-321.69526 -162.22752,-469.82415 -338.28942,-469.0842 z M -341.10192,-393.55294 C -204.13692,-394.12857 -92.469025,-278.38078 -91.851925,-135.17795 L -91.133175,-135.17795 L -88.914425,-80.771698 L -88.914425,-52.052948 C -152.54018,-59.558308 -232.67082,-64.021698 -319.75817,-64.021698 C -425.03546,-64.021698 -520.2053,-57.482728 -588.25817,-46.959198 L -588.25817,-133.0842 L -588.13317,-133.0842 C -588.75057,-276.287 -478.06672,-392.97731 -341.10192,-393.55294 z "
       style="opacity:0.75903614;fill:url(#linearGradient3743);fill-opacity:1;stroke:none;stroke-width:0.625;stroke-linejoin:round;stroke-miterlimit:10.30000019;stroke-dasharray:none;stroke-opacity:0.918129;filter:url(#filter4115)"
       transform="matrix(0.1744084,0,0.1098241,0.1247423,592.28899,791.95979)" />
  </g>
</svg>
