<?xml version="1.0" encoding="UTF-8" standalone="no"?>
<!-- Created with Inkscape (http://www.inkscape.org/) -->
<svg
   xmlns:ns="http://creativecommons.org/ns#"
   xmlns:dc="http://purl.org/dc/elements/1.1/"
   xmlns:cc="http://web.resource.org/cc/"
   xmlns:rdf="http://www.w3.org/1999/02/22-rdf-syntax-ns#"
   xmlns:svg="http://www.w3.org/2000/svg"
   xmlns="http://www.w3.org/2000/svg"
   xmlns:xlink="http://www.w3.org/1999/xlink"
   xmlns:sodipodi="http://sodipodi.sourceforge.net/DTD/sodipodi-0.dtd"
   xmlns:inkscape="http://www.inkscape.org/namespaces/inkscape"
   width="522.85718"
   height="368.57141"
   id="svg4072"
   sodipodi:version="0.32"
   inkscape:version="0.45pre1"
   sodipodi:docname="db.text.svg"
   inkscape:output_extension="org.inkscape.output.svg.inkscape"
   sodipodi:docbase="C:\temp\clipart"
   version="1.0"
   inkscape:export-filename="C:\temp\clipart\db.text.png"
   inkscape:export-xdpi="90"
   inkscape:export-ydpi="90"
   sodipodi:modified="TRUE">
  <defs
     id="defs4074">
    <filter
       inkscape:collect="always"
       id="filter3990"
       x="-0.2726827"
       width="1.5453655"
       y="-0.65148789"
       height="2.3029757">
      <feGaussianBlur
         inkscape:collect="always"
         stdDeviation="48.080847"
         id="feGaussianBlur3992" />
    </filter>
    <filter
       inkscape:collect="always"
       id="filter3764"
       x="-0.12369785"
       width="1.2473958"
       y="-0.37624764"
       height="1.7524953">
      <feGaussianBlur
         inkscape:collect="always"
         stdDeviation="10.749932"
         id="feGaussianBlur3766" />
    </filter>
    <linearGradient
       inkscape:collect="always"
       xlink:href="#linearGradient3486"
       id="linearGradient3512"
       gradientUnits="userSpaceOnUse"
       x1="120.11102"
       y1="499.64444"
       x2="491.49893"
       y2="632.24921" />
    <linearGradient
       id="linearGradient3486">
      <stop
         style="stop-color:#eed80c;stop-opacity:1;"
         offset="0"
         id="stop3488" />
      <stop
         id="stop3494"
         offset="0.5"
         style="stop-color:#f26c10;stop-opacity:0.49803922;" />
      <stop
         style="stop-color:#d7922c;stop-opacity:0.24705882;"
         offset="1"
         id="stop3496" />
      <stop
         style="stop-color:#bcb949;stop-opacity:0;"
         offset="1"
         id="stop3490" />
    </linearGradient>
    <linearGradient
       inkscape:collect="always"
       xlink:href="#linearGradient3486"
       id="linearGradient3492"
       x1="120.11102"
       y1="499.64444"
       x2="491.49893"
       y2="632.24921"
       gradientUnits="userSpaceOnUse" />
    <filter
       inkscape:collect="always"
       id="filter3554">
      <feGaussianBlur
         inkscape:collect="always"
         stdDeviation="6.6455534"
         id="feGaussianBlur3556" />
    </filter>
    <filter
       inkscape:collect="always"
       id="filter3812"
       x="-0.2438404"
       width="1.4876808"
       y="-0.47922739"
       height="1.9584548">
      <feGaussianBlur
         inkscape:collect="always"
         stdDeviation="52.831889"
         id="feGaussianBlur3814" />
    </filter>
    <inkscape:perspective
       sodipodi:type="inkscape:persp3d"
       inkscape:vp_x="0 : 526.18109 : 1"
       inkscape:vp_y="0 : 1000 : 0"
       inkscape:vp_z="744.09448 : 526.18109 : 1"
       inkscape:persp3d-origin="372.04724 : 350.78739 : 1"
       id="perspective4080" />
    <linearGradient
       inkscape:collect="always"
       xlink:href="#linearGradient3486"
       id="linearGradient2443"
       gradientUnits="userSpaceOnUse"
       x1="120.11102"
       y1="499.64444"
       x2="491.49893"
       y2="632.24921" />
    <linearGradient
       inkscape:collect="always"
       xlink:href="#linearGradient3486"
       id="linearGradient2445"
       gradientUnits="userSpaceOnUse"
       x1="255.8253"
       y1="438.21588"
       x2="344.35608"
       y2="707.9635" />
    <linearGradient
       inkscape:collect="always"
       xlink:href="#linearGradient3486"
       id="linearGradient2447"
       gradientUnits="userSpaceOnUse"
       x1="120.11102"
       y1="499.64444"
       x2="491.49893"
       y2="632.24921" />
    <linearGradient
       inkscape:collect="always"
       xlink:href="#linearGradient3486"
       id="linearGradient2449"
       gradientUnits="userSpaceOnUse"
       x1="120.11102"
       y1="499.64444"
       x2="491.49893"
       y2="632.24921" />
    <linearGradient
       inkscape:collect="always"
       xlink:href="#linearGradient3486"
       id="linearGradient2451"
       gradientUnits="userSpaceOnUse"
       x1="255.8253"
       y1="438.21588"
       x2="344.35608"
       y2="707.9635" />
    <linearGradient
       inkscape:collect="always"
       xlink:href="#linearGradient3486"
       id="linearGradient2453"
       gradientUnits="userSpaceOnUse"
       x1="120.11102"
       y1="499.64444"
       x2="491.49893"
       y2="632.24921" />
  </defs>
  <sodipodi:namedview
     id="base"
     pagecolor="#ffffff"
     bordercolor="#666666"
     borderopacity="1.0"
     gridtolerance="10000"
     guidetolerance="10"
     objecttolerance="10"
     inkscape:pageopacity="0.0"
     inkscape:pageshadow="2"
     inkscape:zoom="0.7"
     inkscape:cx="585.98508"
     inkscape:cy="326.43867"
     inkscape:document-units="px"
     inkscape:current-layer="layer1"
     showgrid="false"
     inkscape:window-width="1276"
     inkscape:window-height="750"
     inkscape:window-x="0"
     inkscape:window-y="14" />
  <metadata
     id="metadata4077">
    <rdf:RDF>
      <ns:Work
         rdf:about="">
        <dc:format>image/svg+xml</dc:format>
        <dc:type
           rdf:resource="http://purl.org/dc/dcmitype/StillImage" />
      </ns:Work>
      <cc:Work
         rdf:about="">
        <dc:format>image/svg+xml</dc:format>
        <dc:type
           rdf:resource="http://purl.org/dc/dcmitype/StillImage" />
      </cc:Work>
    </rdf:RDF>
  </metadata>
  <g
     inkscape:label="Layer 1"
     inkscape:groupmode="layer"
     id="layer1"
     transform="translate(-12.857143,-493.79077)">
    <rect
       style="opacity:0.81325301;fill:none;fill-opacity:1;stroke:none"
       id="rect2426"
       width="522.85718"
       height="368.57141"
       x="12.857143"
       y="493.79077" />
    <g
       transform="matrix(0.9292949,0,0.7526292,0.7516329,-305.28553,351.96892)"
       style="opacity:0.40865383;fill:#060606;fill-opacity:1;stroke:none;stroke-opacity:0.918129;display:inline;filter:url(#filter3812)"
       id="g3786">
      <path
         style="opacity:1;fill:#060606;fill-opacity:1;stroke:none;stroke-width:0.62340528;stroke-linejoin:round;stroke-miterlimit:10.30000019;stroke-dasharray:none;stroke-opacity:0.918129"
         d="M 243.5,368.53125 C 180.77646,368.53125 128.9937,383.84186 121.65625,403.59375 L 120.96875,403.59375 L 120.96875,406.21875 C 120.8455,406.951 120.75,407.6953 120.75,408.4375 C 120.75,409.17811 120.84602,409.89429 120.96875,410.625 L 120.96875,594.59375 L 121.53125,594.59375 C 125.61555,615.42048 178.85459,631.9375 243.875,631.9375 C 308.8954,631.9375 362.13444,615.42048 366.21875,594.59375 L 366.25,594.59375 L 366.25,594.40625 C 366.39398,593.61492 366.46875,592.83427 366.46875,592.03125 C 366.46875,591.22476 366.39521,590.41969 366.25,589.625 L 366.25,403.59375 L 365.34375,403.59375 C 358.0063,383.84186 306.22354,368.53125 243.5,368.53125 z "
         id="path3788" />
      <path
         sodipodi:type="arc"
         style="opacity:1;fill:#060606;fill-opacity:1;stroke:none;stroke-width:0.625;stroke-linejoin:round;stroke-miterlimit:10.30000019;stroke-dasharray:none;stroke-opacity:0.918129;display:inline"
         id="path3790"
         sodipodi:cx="223.24371"
         sodipodi:cy="372.02444"
         sodipodi:rx="123.23861"
         sodipodi:ry="39.901024"
         d="M 346.48232 372.02444 A 123.23861 39.901024 0 1 1  100.0051,372.02444 A 123.23861 39.901024 0 1 1  346.48232 372.02444 z"
         transform="translate(20.41842,35.228749)" />
    </g>
    <g
       id="g3770"
       style="opacity:0.8113462;fill:#060606;fill-opacity:1;stroke:none;stroke-opacity:0.918129;display:inline;filter:url(#filter3554)"
       transform="translate(142.11998,209.30217)">
      <path
         id="path3772"
         d="M 243.5,368.53125 C 180.77646,368.53125 128.9937,383.84186 121.65625,403.59375 L 120.96875,403.59375 L 120.96875,406.21875 C 120.8455,406.951 120.75,407.6953 120.75,408.4375 C 120.75,409.17811 120.84602,409.89429 120.96875,410.625 L 120.96875,594.59375 L 121.53125,594.59375 C 125.61555,615.42048 178.85459,631.9375 243.875,631.9375 C 308.8954,631.9375 362.13444,615.42048 366.21875,594.59375 L 366.25,594.59375 L 366.25,594.40625 C 366.39398,593.61492 366.46875,592.83427 366.46875,592.03125 C 366.46875,591.22476 366.39521,590.41969 366.25,589.625 L 366.25,403.59375 L 365.34375,403.59375 C 358.0063,383.84186 306.22354,368.53125 243.5,368.53125 z "
         style="opacity:1;fill:#060606;fill-opacity:1;stroke:none;stroke-width:0.62340528;stroke-linejoin:round;stroke-miterlimit:10.30000019;stroke-dasharray:none;stroke-opacity:0.918129" />
      <path
         transform="translate(20.41842,35.228749)"
         d="M 346.48232 372.02444 A 123.23861 39.901024 0 1 1  100.0051,372.02444 A 123.23861 39.901024 0 1 1  346.48232 372.02444 z"
         sodipodi:ry="39.901024"
         sodipodi:rx="123.23861"
         sodipodi:cy="372.02444"
         sodipodi:cx="223.24371"
         id="path3774"
         style="opacity:1;fill:#060606;fill-opacity:1;stroke:none;stroke-width:0.625;stroke-linejoin:round;stroke-miterlimit:10.30000019;stroke-dasharray:none;stroke-opacity:0.918129;display:inline"
         sodipodi:type="arc" />
    </g>
    <g
       id="g3482"
       style="fill:url(#linearGradient2443);fill-opacity:1;stroke:#000000;display:inline"
       transform="translate(150.06783,205.15585)">
      <path
         id="path3289"
         d="M 243.5,368.53125 C 180.77646,368.53125 128.9937,383.84186 121.65625,403.59375 L 120.96875,403.59375 L 120.96875,406.21875 C 120.8455,406.951 120.75,407.6953 120.75,408.4375 C 120.75,409.17811 120.84602,409.89429 120.96875,410.625 L 120.96875,594.59375 L 121.53125,594.59375 C 125.61555,615.42048 178.85459,631.9375 243.875,631.9375 C 308.8954,631.9375 362.13444,615.42048 366.21875,594.59375 L 366.25,594.59375 L 366.25,594.40625 C 366.39398,593.61492 366.46875,592.83427 366.46875,592.03125 C 366.46875,591.22476 366.39521,590.41969 366.25,589.625 L 366.25,403.59375 L 365.34375,403.59375 C 358.0063,383.84186 306.22354,368.53125 243.5,368.53125 z "
         style="opacity:1;fill:url(#linearGradient2445);fill-opacity:1;stroke:#000000;stroke-width:0.62340528;stroke-linejoin:round;stroke-miterlimit:10.30000019;stroke-dasharray:none;stroke-opacity:1" />
      <path
         transform="translate(20.41842,35.228749)"
         d="M 346.48232 372.02444 A 123.23861 39.901024 0 1 1  100.0051,372.02444 A 123.23861 39.901024 0 1 1  346.48232 372.02444 z"
         sodipodi:ry="39.901024"
         sodipodi:rx="123.23861"
         sodipodi:cy="372.02444"
         sodipodi:cx="223.24371"
         id="path3297"
         style="opacity:1;fill:url(#linearGradient2447);fill-opacity:1;stroke:#000000;stroke-width:0.625;stroke-linejoin:round;stroke-miterlimit:10.30000019;stroke-dasharray:none;stroke-opacity:1;display:inline"
         sodipodi:type="arc" />
    </g>
    <g
       id="g3502"
       style="opacity:0.84134617;fill:url(#linearGradient2449);fill-opacity:1;stroke:#000000;display:inline;filter:url(#filter3554)"
       transform="translate(152.11998,205.01646)">
      <path
         id="path3504"
         d="M 243.5,368.53125 C 180.77646,368.53125 128.9937,383.84186 121.65625,403.59375 L 120.96875,403.59375 L 120.96875,406.21875 C 120.8455,406.951 120.75,407.6953 120.75,408.4375 C 120.75,409.17811 120.84602,409.89429 120.96875,410.625 L 120.96875,594.59375 L 121.53125,594.59375 C 125.61555,615.42048 178.85459,631.9375 243.875,631.9375 C 308.8954,631.9375 362.13444,615.42048 366.21875,594.59375 L 366.25,594.59375 L 366.25,594.40625 C 366.39398,593.61492 366.46875,592.83427 366.46875,592.03125 C 366.46875,591.22476 366.39521,590.41969 366.25,589.625 L 366.25,403.59375 L 365.34375,403.59375 C 358.0063,383.84186 306.22354,368.53125 243.5,368.53125 z "
         style="opacity:1;fill:url(#linearGradient2451);fill-opacity:1;stroke:#000000;stroke-width:0.62340528;stroke-linejoin:round;stroke-miterlimit:10.30000019;stroke-dasharray:none;stroke-opacity:1" />
      <path
         transform="translate(20.41842,35.228749)"
         d="M 346.48232 372.02444 A 123.23861 39.901024 0 1 1  100.0051,372.02444 A 123.23861 39.901024 0 1 1  346.48232 372.02444 z"
         sodipodi:ry="39.901024"
         sodipodi:rx="123.23861"
         sodipodi:cy="372.02444"
         sodipodi:cx="223.24371"
         id="path3506"
         style="opacity:1;fill:url(#linearGradient2453);fill-opacity:1;stroke:#000000;stroke-width:0.625;stroke-linejoin:round;stroke-miterlimit:10.30000019;stroke-dasharray:none;stroke-opacity:1;display:inline"
         sodipodi:type="arc" />
    </g>
    <path
       sodipodi:type="arc"
       style="opacity:0.36057691;fill:#ffffff;fill-opacity:1;stroke:none;stroke-width:0.625;stroke-linejoin:round;stroke-miterlimit:10.30000019;stroke-dasharray:none;stroke-opacity:1;display:inline;filter:url(#filter3764)"
       id="path3558"
       sodipodi:cx="110"
       sodipodi:cy="256.64789"
       sodipodi:rx="104.28571"
       sodipodi:ry="34.285713"
       d="M 214.28571 256.64789 A 104.28571 34.285713 0 1 1  5.7142868,256.64789 A 104.28571 34.285713 0 1 1  214.28571 256.64789 z"
       transform="matrix(1.1502124,0,0,1.1652293,259.25873,315.60723)" />
    <path
       sodipodi:type="arc"
       style="opacity:0.28365383;fill:#ffffff;fill-opacity:1;stroke:none;stroke-width:0.625;stroke-linejoin:round;stroke-miterlimit:10.30000019;stroke-dasharray:none;stroke-opacity:0.918129;display:inline;filter:url(#filter3990)"
       id="path3816"
       sodipodi:cx="-195.96959"
       sodipodi:cy="608.90521"
       sodipodi:rx="103.03556"
       sodipodi:ry="93.944183"
       d="M -92.934029 608.90521 A 103.03556 93.944183 0 1 1  -299.00515,608.90521 A 103.03556 93.944183 0 1 1  -92.934029 608.90521 z"
       transform="matrix(0.4944982,-0.2377377,0.5496997,6.2564548e-2,174.70108,709.80658)" />
    <path
       style="font-size:22px;font-style:normal;font-variant:normal;font-weight:normal;font-stretch:normal;text-align:start;line-height:125%;writing-mode:lr-tb;text-anchor:start;fill:#000000;fill-opacity:1;stroke:none;stroke-width:1px;stroke-linecap:butt;stroke-linejoin:miter;stroke-opacity:1;font-family:Gill Sans MT"
       d="M 292.32888,714.49935 L 290.69607,713.51107 C 289.67198,712.88803 288.9433,712.27394 288.51003,711.66879 C 288.07676,711.06365 287.86013,710.3672 287.86013,709.57943 C 287.86013,708.3978 288.27012,707.43817 289.09011,706.70053 C 289.91009,705.96291 290.97536,705.5941 292.28591,705.59408 C 293.53916,705.5941 294.68857,705.94501 295.73415,706.64682 L 295.73415,709.08529 C 294.65276,708.04689 293.48903,707.52769 292.24294,707.52768 C 291.54111,707.52769 290.96462,707.69061 290.51345,708.01644 C 290.06227,708.3423 289.83669,708.75946 289.83669,709.26791 C 289.83669,709.71909 290.0014,710.14162 290.33083,710.53549 C 290.66026,710.92938 291.19378,711.34116 291.93142,711.77084 L 293.57497,712.73764 C 295.4083,713.82618 296.32496,715.21551 296.32497,716.9056 C 296.32496,718.10873 295.92213,719.08627 295.11648,719.83822 C 294.31081,720.59018 293.26344,720.96615 291.97439,720.96615 C 290.49196,720.96615 289.14203,720.5114 287.92458,719.60189 L 287.92458,716.87338 C 289.08474,718.34148 290.42751,719.07553 291.9529,719.07553 C 292.62607,719.07553 293.18646,718.88754 293.63405,718.51156 C 294.08164,718.13559 294.30543,717.66472 294.30544,717.09896 C 294.30543,716.1823 293.64658,715.31577 292.32888,714.49935 L 292.32888,714.49935 z M 298.70974,705.78744 L 307.21755,705.78744 L 307.21755,707.69955 L 300.85818,707.69955 L 300.85818,712.27572 L 307.00271,712.27572 L 307.00271,714.19857 L 300.85818,714.19857 L 300.85818,718.86068 L 307.42165,718.86068 L 307.42165,720.77279 L 298.70974,720.77279 L 298.70974,705.78744 z M 309.70974,705.78744 L 311.85818,705.78744 L 311.85818,718.8392 L 318.61501,718.8392 L 318.61501,720.79428 L 309.70974,720.79428 L 309.70974,705.78744 z M 320.49489,705.78744 L 329.00271,705.78744 L 329.00271,707.69955 L 322.64333,707.69955 L 322.64333,712.27572 L 328.78786,712.27572 L 328.78786,714.19857 L 322.64333,714.19857 L 322.64333,718.86068 L 329.20681,718.86068 L 329.20681,720.77279 L 320.49489,720.77279 L 320.49489,705.78744 z M 344.42849,717.31381 L 344.42849,719.67709 C 342.85295,720.53646 341.03395,720.96615 338.97146,720.96615 C 337.29567,720.96615 335.87412,720.62956 334.70681,719.95639 C 333.53949,719.28321 332.61566,718.3558 331.93532,717.17416 C 331.25498,715.99252 330.91482,714.7142 330.91482,713.3392 C 330.91482,711.15496 331.69362,709.31805 333.25124,707.82846 C 334.80885,706.33889 336.72991,705.5941 339.01443,705.59408 C 340.58994,705.5941 342.34091,706.00588 344.26736,706.82943 L 344.26736,709.139 C 342.51279,708.13641 340.79762,707.63511 339.12185,707.6351 C 337.40309,707.63511 335.97617,708.17759 334.84109,709.26254 C 333.70599,710.34751 333.13845,711.7064 333.13845,713.3392 C 333.13845,714.98634 333.69704,716.33985 334.81423,717.39975 C 335.93141,718.45964 337.36012,718.98959 339.10036,718.98959 C 340.91936,718.98959 342.6954,718.431 344.42849,717.31381 L 344.42849,717.31381 z M 345.81423,705.76596 L 358.35036,705.76596 L 358.35036,707.67807 L 353.11892,707.67807 L 353.11892,720.79428 L 350.95974,720.79428 L 350.95974,707.67807 L 345.81423,707.67807 L 345.81423,705.76596 z M 369.58669,708.95639 L 369.6404,708.95639 C 369.79079,708.9564 369.91969,709.03159 370.02712,709.18197 L 371.87478,707.42025 C 372.26149,707.05503 372.60166,706.87242 372.89529,706.8724 C 373.08864,706.87242 373.25335,706.94582 373.38943,707.09262 C 373.52548,707.23944 373.59352,707.42027 373.59353,707.6351 C 373.59352,708.12209 373.31422,708.43719 372.75564,708.58041 L 372.51931,708.6556 L 370.16677,709.50424 C 370.19541,709.59735 370.20973,709.68687 370.20974,709.77279 C 370.20973,709.85874 370.19541,709.93752 370.16677,710.00912 L 372.64822,710.94369 L 373.13161,711.18002 C 373.25335,711.25164 373.36077,711.36086 373.45388,711.50766 C 373.54697,711.65447 373.59352,711.78875 373.59353,711.91049 C 373.59352,712.07521 373.52369,712.23992 373.38405,712.40463 C 373.2444,712.56935 373.08147,712.65171 372.89529,712.6517 C 372.5372,712.65171 372.11826,712.4118 371.63845,711.93197 L 370.02712,710.32064 C 369.87673,710.47104 369.72992,710.54624 369.58669,710.54623 L 370.02712,712.81283 C 370.09157,713.09214 370.1238,713.42156 370.1238,713.80111 C 370.1238,714.43133 369.88031,714.74643 369.39333,714.74643 C 368.89203,714.74643 368.64138,714.40268 368.64138,713.71518 C 368.64138,713.52182 368.66286,713.33563 368.70583,713.15658 L 369.26443,710.54623 C 369.12835,710.53192 368.98871,710.45672 368.84548,710.32064 L 367.12673,711.91049 C 366.58962,712.39031 366.185,712.63022 365.91286,712.63021 C 365.7195,712.63022 365.55121,712.55861 365.40798,712.41537 C 365.26475,712.27215 365.19314,712.10386 365.19314,711.91049 C 365.19314,711.43784 365.63357,711.0547 366.51443,710.76107 L 368.68435,710.00912 C 368.6557,709.89455 368.64138,709.80861 368.64138,709.75131 L 368.68435,709.50424 L 366.2029,708.58041 C 365.55837,708.35126 365.23611,708.04331 365.23611,707.65658 C 365.23611,707.44891 365.3113,707.26271 365.46169,707.09799 C 365.61208,706.93329 365.78754,706.85093 365.98806,706.85092 C 366.15277,706.85093 366.38552,706.96551 366.6863,707.19467 L 366.97634,707.42025 L 368.84548,709.18197 C 368.96722,709.04592 369.10687,708.97072 369.26443,708.95639 L 368.84548,706.75424 L 368.73806,706.29232 C 368.70225,706.12762 368.68434,705.96649 368.68435,705.80893 C 368.68434,705.15009 368.93499,704.82066 369.4363,704.82064 C 369.92328,704.82066 370.16676,705.11428 370.16677,705.7015 C 370.16676,705.9092 370.12021,706.24579 370.02712,706.71127 L 369.58669,708.95639 z M 381.78982,705.78744 L 389.79275,705.78744 L 389.79275,707.69955 L 383.93825,707.69955 L 383.93825,711.889 L 389.79275,711.889 L 389.79275,713.80111 L 383.93825,713.80111 L 383.93825,720.79428 L 381.78982,720.79428 L 381.78982,705.78744 z M 392.14529,720.79428 L 392.14529,705.78744 L 395.90505,705.78744 C 397.42327,705.78746 398.62819,706.16343 399.5198,706.91537 C 400.41139,707.66734 400.85719,708.68426 400.8572,709.96615 C 400.85719,710.83986 400.63876,711.59539 400.20193,712.23275 C 399.76507,712.87013 399.13844,713.34637 398.32204,713.66146 C 398.80185,713.97658 399.27093,714.40626 399.72927,714.95053 C 400.18759,715.4948 400.83212,716.44369 401.66286,717.79721 C 402.18564,718.64942 402.60458,719.29037 402.9197,719.72006 L 403.71462,720.79428 L 401.15798,720.79428 L 400.50271,719.806 C 400.48121,719.77019 400.43824,719.70932 400.3738,719.62338 L 399.95486,719.03256 L 399.28884,717.93685 L 398.56911,716.76596 C 398.1251,716.15008 397.71868,715.65952 397.34988,715.29428 C 396.98105,714.92905 396.64805,714.66586 396.35085,714.50473 C 396.05365,714.3436 395.55413,714.26303 394.85232,714.26303 L 394.29372,714.26303 L 394.29372,720.79428 L 392.14529,720.79428 z M 394.93825,707.61361 L 394.29372,707.61361 L 394.29372,712.35092 L 395.11013,712.35092 C 396.19866,712.35093 396.94525,712.25783 397.34988,712.07162 C 397.75449,711.88543 398.06959,711.60434 398.29519,711.22836 C 398.52077,710.85239 398.63356,710.4245 398.63357,709.94467 C 398.63356,709.47202 398.50823,709.04413 398.25759,708.66098 C 398.00693,708.27785 397.65423,708.00751 397.19948,707.84994 C 396.74473,707.6924 395.99098,707.61363 394.93825,707.61361 L 394.93825,707.61361 z M 412.72732,705.5726 C 415.04762,705.57261 416.97942,706.30666 418.52273,707.77475 C 420.066,709.24286 420.83765,711.08335 420.83767,713.29623 C 420.83765,715.50913 420.05884,717.34067 418.50124,718.79086 C 416.94361,720.24105 414.97958,720.96615 412.60915,720.96615 C 410.34613,720.96615 408.46087,720.24105 406.95339,718.79086 C 405.4459,717.34067 404.69216,715.52345 404.69216,713.3392 C 404.69216,711.09767 405.45127,709.24286 406.9695,707.77475 C 408.48773,706.30666 410.407,705.57261 412.72732,705.5726 L 412.72732,705.5726 z M 412.81325,707.61361 C 411.0945,707.61363 409.6819,708.15073 408.57546,709.22494 C 407.46901,710.29917 406.91579,711.67059 406.91579,713.3392 C 406.91579,714.95769 407.4708,716.30405 408.58083,717.37826 C 409.69085,718.45248 411.08017,718.98959 412.7488,718.98959 C 414.42457,718.98959 415.82284,718.44174 416.94363,717.34603 C 418.06438,716.25034 418.62476,714.88608 418.62478,713.25326 C 418.62476,711.66343 418.06438,710.32603 416.94363,709.24105 C 415.82284,708.15611 414.44606,707.61363 412.81325,707.61361 L 412.81325,707.61361 z M 435.4363,705.78744 L 437.43435,705.78744 L 437.43435,720.79428 L 435.27517,720.79428 L 435.27517,709.11752 L 430.65603,714.9183 L 430.25857,714.9183 L 425.59646,709.11752 L 425.59646,720.79428 L 423.44802,720.79428 L 423.44802,705.78744 L 425.46755,705.78744 L 430.46267,711.95346 L 435.4363,705.78744 z M 286.95779,739.97982 L 290.63161,736.37045 L 290.63161,738.41146 L 293.75759,738.41146 L 293.75759,740.17318 L 290.63161,740.17318 L 290.63161,745.01791 C 290.63161,746.14942 291.10068,746.71518 292.03884,746.71518 C 292.74066,746.71518 293.48187,746.47885 294.26247,746.00619 L 294.26247,747.83236 C 293.51051,748.25489 292.69053,748.46615 291.80251,748.46615 C 290.90733,748.46615 290.16253,748.20476 289.56814,747.68197 C 289.38194,747.52442 289.22797,747.34717 289.10622,747.15023 C 288.98448,746.95329 288.88243,746.69548 288.80007,746.3768 C 288.71771,746.05811 288.67653,745.45118 288.67654,744.556 L 288.67654,740.17318 L 286.95779,740.17318 L 286.95779,739.97982 z M 301.90017,742.35385 L 301.90017,746.55404 C 301.90016,746.89063 302.01474,747.05893 302.24392,747.05893 C 302.48024,747.05893 302.84905,746.88347 303.35036,746.53256 L 303.35036,747.72494 C 302.90634,748.0114 302.55006,748.20655 302.28152,748.31039 C 302.01295,748.41423 301.73187,748.46615 301.43825,748.46615 C 300.60036,748.46615 300.10622,748.13672 299.95583,747.47787 C 299.1251,748.1224 298.24066,748.44467 297.30251,748.44467 C 296.61501,748.44467 296.04209,748.21729 295.58376,747.76254 C 295.12543,747.30779 294.89626,746.73666 294.89626,746.04916 C 294.89626,745.42612 295.12006,744.86931 295.56765,744.37875 C 296.01524,743.88819 296.65082,743.49969 297.47439,743.21322 L 299.97732,742.35385 L 299.97732,741.82748 C 299.97731,740.63869 299.38291,740.04428 298.19411,740.04428 C 297.12705,740.04428 296.08864,740.59572 295.07888,741.69857 L 295.07888,739.56088 C 295.83799,738.66571 296.93011,738.21811 298.35525,738.2181 C 299.4223,738.21811 300.27809,738.49741 300.92263,739.056 C 301.13747,739.23504 301.33083,739.47316 301.50271,739.77035 C 301.67457,740.06756 301.78379,740.36476 301.83034,740.66195 C 301.87689,740.95916 301.90016,741.52312 301.90017,742.35385 L 301.90017,742.35385 z M 299.97732,746.3392 L 299.97732,743.40658 L 298.66677,743.91146 C 298.00075,744.17644 297.52988,744.44321 297.25417,744.71176 C 296.97845,744.98032 296.8406,745.31511 296.8406,745.71615 C 296.8406,746.12436 296.97129,746.45736 297.23269,746.71518 C 297.49408,746.97299 297.83246,747.10189 298.24782,747.10189 C 298.87087,747.10189 299.44736,746.84766 299.97732,746.3392 L 299.97732,746.3392 z M 305.0154,733.28744 L 306.97048,733.28744 L 306.97048,739.12045 C 307.81553,738.50457 308.71787,738.19663 309.67751,738.19662 C 310.93076,738.19663 311.95485,738.66929 312.74978,739.61459 C 313.54469,740.55991 313.94215,741.77378 313.94216,743.25619 C 313.94215,744.84604 313.4677,746.11182 312.51882,747.05355 C 311.56992,747.99529 310.30055,748.46615 308.71072,748.46615 C 308.07334,748.46615 307.40195,748.39812 306.69655,748.26205 C 305.99115,748.12598 305.43077,747.95411 305.0154,747.74643 L 305.0154,733.28744 z M 306.97048,740.98959 L 306.97048,746.3392 C 307.63649,746.53972 308.32041,746.63998 309.02224,746.63998 C 309.88877,746.63998 310.59596,746.33204 311.14382,745.71615 C 311.69166,745.10027 311.96559,744.30893 311.9656,743.34213 C 311.96559,742.36101 311.70957,741.56251 311.19753,740.94662 C 310.68548,740.33074 310.01767,740.0228 309.19411,740.02279 C 308.46364,740.0228 307.72243,740.34507 306.97048,740.98959 L 306.97048,740.98959 z M 316.14431,733.28744 L 318.09939,733.28744 L 318.09939,748.29428 L 316.14431,748.29428 L 316.14431,733.28744 z M 329.33572,743.52475 L 322.38552,743.52475 C 322.43565,744.47006 322.75254,745.22201 323.3362,745.7806 C 323.91986,746.3392 324.6736,746.6185 325.59743,746.6185 C 326.88649,746.6185 328.07529,746.21746 329.16384,745.41537 L 329.16384,747.32748 C 328.56227,747.72852 327.96608,748.01498 327.37527,748.18685 C 326.78444,748.35873 326.09157,748.44467 325.29665,748.44467 C 324.20811,748.44467 323.32725,748.21908 322.65407,747.76791 C 321.98089,747.31674 321.442,746.70981 321.03738,745.94711 C 320.63275,745.18442 320.43044,744.30177 320.43044,743.29916 C 320.43044,741.79526 320.85655,740.57244 321.70876,739.6307 C 322.56097,738.68898 323.66742,738.21811 325.0281,738.2181 C 326.33864,738.21811 327.38421,738.67645 328.16482,739.5931 C 328.94541,740.50978 329.33571,741.73797 329.33572,743.27768 L 329.33572,743.52475 z M 322.42849,742.35385 L 327.40212,742.35385 C 327.35198,741.57325 327.11924,740.97169 326.70388,740.54916 C 326.28851,740.12664 325.72991,739.91538 325.0281,739.91537 C 324.32627,739.91538 323.75156,740.12664 323.30398,740.54916 C 322.85638,740.97169 322.56455,741.57325 322.42849,742.35385 L 322.42849,742.35385 z M 331.73122,733.28744 L 333.87966,733.28744 L 333.87966,748.29428 L 331.73122,748.29428 L 331.73122,733.28744 z M 337.23122,748.27279 L 337.23122,733.28744 L 342.29079,733.28744 C 344.3318,733.28746 345.94671,733.59361 347.13552,734.2059 C 348.32431,734.81822 349.26962,735.71877 349.97146,736.90756 C 350.67326,738.09637 351.02418,739.39259 351.02419,740.79623 C 351.02418,741.79884 350.83082,742.75847 350.44411,743.67514 C 350.05738,744.59181 349.50595,745.39747 348.78982,746.09213 C 348.05934,746.80828 347.2107,747.34897 346.24392,747.7142 C 345.67815,747.9362 345.15895,748.0848 344.6863,748.16 C 344.21364,748.23519 343.31129,748.27279 341.97927,748.27279 L 337.23122,748.27279 z M 342.06521,735.19955 L 339.37966,735.19955 L 339.37966,746.36068 L 342.12966,746.36068 C 343.20387,746.36068 344.03818,746.28728 344.63259,746.14047 C 345.22698,745.99366 345.72291,745.80746 346.12038,745.58187 C 346.51783,745.35629 346.88128,745.07878 347.21072,744.74935 C 348.2706,743.67514 348.80055,742.31805 348.80056,740.67807 C 348.80055,739.06675 348.25628,737.75262 347.16775,736.73568 C 346.76669,736.35614 346.30657,736.04461 345.78738,735.80111 C 345.26816,735.55764 344.77581,735.3965 344.31032,735.31771 C 343.84482,735.23895 343.09645,735.19956 342.06521,735.19955 L 342.06521,735.19955 z M 378.92165,733.28744 L 381.05935,733.28744 L 374.99001,748.35873 L 374.5281,748.35873 L 369.61892,736.1556 L 364.66677,748.35873 L 364.20486,748.35873 L 358.157,733.28744 L 360.31618,733.28744 L 364.45193,743.63217 L 368.60915,733.28744 L 370.65017,733.28744 L 374.82888,743.63217 L 378.92165,733.28744 z M 393.33767,733.28744 L 395.48611,733.28744 L 395.48611,748.29428 L 393.33767,748.29428 L 393.33767,741.76303 L 384.90505,741.76303 L 384.90505,748.29428 L 382.75661,748.29428 L 382.75661,733.28744 L 384.90505,733.28744 L 384.90505,739.77572 L 393.33767,739.77572 L 393.33767,733.28744 z M 398.78396,733.28744 L 407.29177,733.28744 L 407.29177,735.19955 L 400.93239,735.19955 L 400.93239,739.77572 L 407.07693,739.77572 L 407.07693,741.69857 L 400.93239,741.69857 L 400.93239,746.36068 L 407.49587,746.36068 L 407.49587,748.27279 L 398.78396,748.27279 L 398.78396,733.28744 z M 409.84841,748.29428 L 409.84841,733.28744 L 413.60818,733.28744 C 415.1264,733.28746 416.33131,733.66343 417.22292,734.41537 C 418.11451,735.16734 418.56031,736.18426 418.56032,737.46615 C 418.56031,738.33986 418.34189,739.09539 417.90505,739.73275 C 417.46819,740.37013 416.84157,740.84637 416.02517,741.16146 C 416.50498,741.47658 416.97405,741.90626 417.43239,742.45053 C 417.89072,742.9948 418.53525,743.94369 419.36599,745.29721 C 419.88876,746.14942 420.30771,746.79037 420.62282,747.22006 L 421.41775,748.29428 L 418.86111,748.29428 L 418.20583,747.306 C 418.18434,747.27019 418.14137,747.20932 418.07693,747.12338 L 417.65798,746.53256 L 416.99197,745.43685 L 416.27224,744.26596 C 415.82822,743.65008 415.42181,743.15952 415.053,742.79428 C 414.68418,742.42905 414.35117,742.16586 414.05398,742.00473 C 413.75677,741.8436 413.25726,741.76303 412.55544,741.76303 L 411.99685,741.76303 L 411.99685,748.29428 L 409.84841,748.29428 z M 412.64138,735.11361 L 411.99685,735.11361 L 411.99685,739.85092 L 412.81325,739.85092 C 413.90179,739.85093 414.64837,739.75783 415.053,739.57162 C 415.45762,739.38543 415.77272,739.10434 415.99831,738.72836 C 416.22389,738.35239 416.33668,737.9245 416.33669,737.44467 C 416.33668,736.97202 416.21136,736.54413 415.96072,736.16098 C 415.71006,735.77785 415.35735,735.50751 414.90261,735.34994 C 414.44785,735.1924 413.69411,735.11363 412.64138,735.11361 L 412.64138,735.11361 z M 423.0613,733.28744 L 431.56911,733.28744 L 431.56911,735.19955 L 425.20974,735.19955 L 425.20974,739.77572 L 431.35427,739.77572 L 431.35427,741.69857 L 425.20974,741.69857 L 425.20974,746.36068 L 431.77322,746.36068 L 431.77322,748.27279 L 423.0613,748.27279 L 423.0613,733.28744 z M 290.43825,765.91146 L 290.43825,768.17807 L 290.54568,768.00619 C 291.49098,766.48081 292.4363,765.71811 293.38161,765.7181 C 294.11924,765.71811 294.88909,766.09051 295.69118,766.83529 L 294.65993,768.55404 C 293.97959,767.90952 293.34938,767.58725 292.76931,767.58725 C 292.1391,767.58725 291.59303,767.88803 291.13113,768.48959 C 290.66921,769.09116 290.43825,769.80372 290.43825,770.62728 L 290.43825,775.79428 L 288.47243,775.79428 L 288.47243,765.91146 L 290.43825,765.91146 z M 301.79275,765.88998 C 303.29664,765.88999 304.54632,766.37518 305.54177,767.34555 C 306.5372,768.31593 307.03492,769.53517 307.03493,771.00326 C 307.03492,772.42839 306.53004,773.61182 305.52029,774.55355 C 304.51051,775.49529 303.23935,775.96615 301.70681,775.96615 C 300.22438,775.96615 298.98545,775.48812 297.99001,774.53207 C 296.99457,773.57602 296.49685,772.38185 296.49685,770.94955 C 296.49685,769.50294 296.99994,768.29803 298.00613,767.3348 C 299.01231,766.3716 300.27451,765.88999 301.79275,765.88998 L 301.79275,765.88998 z M 301.68532,767.6517 C 300.74717,767.65171 299.97731,767.95965 299.37575,768.57553 C 298.77419,769.19142 298.47341,769.9756 298.47341,770.92807 C 298.47341,771.87338 298.78135,772.64503 299.39724,773.24301 C 300.01312,773.84099 300.80446,774.13998 301.77126,774.13998 C 302.73089,774.13998 303.51686,773.83741 304.12917,773.23226 C 304.74147,772.62712 305.04762,771.8519 305.04763,770.90658 C 305.04762,769.96844 304.72894,769.19142 304.09157,768.57553 C 303.4542,767.95965 302.65211,767.65171 301.68532,767.6517 L 301.68532,767.6517 z M 321.56911,765.91146 L 323.66384,765.91146 L 319.30251,775.96615 L 318.69021,775.96615 L 315.75759,769.08041 L 312.87868,775.96615 L 312.24489,775.96615 L 307.8406,765.91146 L 309.93532,765.91146 L 312.52419,771.9056 L 315.03786,765.91146 L 316.48806,765.91146 L 318.99099,771.9056 L 321.56911,765.91146 z M 325.32888,760.78744 L 327.47732,760.78744 L 327.47732,775.79428 L 325.32888,775.79428 L 325.32888,760.78744 z M 330.82888,775.77279 L 330.82888,760.78744 L 335.88845,760.78744 C 337.92946,760.78746 339.54436,761.09361 340.73318,761.7059 C 341.92197,762.31822 342.86728,763.21877 343.56911,764.40756 C 344.27092,765.59637 344.62183,766.89259 344.62185,768.29623 C 344.62183,769.29884 344.42847,770.25847 344.04177,771.17514 C 343.65504,772.09181 343.1036,772.89747 342.38747,773.59213 C 341.65699,774.30828 340.80836,774.84897 339.84157,775.2142 C 339.27581,775.4362 338.7566,775.5848 338.28396,775.66 C 337.81129,775.73519 336.90895,775.77279 335.57693,775.77279 L 330.82888,775.77279 z M 335.66286,762.69955 L 332.97732,762.69955 L 332.97732,773.86068 L 335.72732,773.86068 C 336.80153,773.86068 337.63584,773.78728 338.23025,773.64047 C 338.82464,773.49366 339.32057,773.30746 339.71804,773.08187 C 340.11549,772.85629 340.47893,772.57878 340.80837,772.24935 C 341.86825,771.17514 342.3982,769.81805 342.39822,768.17807 C 342.3982,766.56675 341.85393,765.25262 340.7654,764.23568 C 340.36435,763.85614 339.90423,763.54461 339.38503,763.30111 C 338.86582,763.05764 338.37347,762.8965 337.90798,762.81771 C 337.44248,762.73895 336.69411,762.69956 335.66286,762.69955 L 335.66286,762.69955 z M 352.95779,768.90853 L 352.95779,767.10385 L 363.38845,762.69955 L 363.38845,764.6224 L 355.11697,768.01693 L 363.38845,771.44369 L 363.38845,773.36654 L 352.95779,768.90853 z M 378.51345,760.59408 L 379.39431,760.59408 L 379.39431,769.01596 L 381.07009,769.01596 L 381.07009,770.84213 L 379.39431,770.84213 L 379.39431,775.79428 L 377.29958,775.79428 L 377.29958,770.84213 L 370.95095,770.84213 L 370.95095,769.9183 L 378.51345,760.59408 z M 377.29958,769.01596 L 377.29958,764.66537 L 373.82986,769.01596 L 377.29958,769.01596 z M 387.28982,760.59408 C 388.66481,760.5941 389.80169,761.31561 390.70046,762.75863 C 391.59921,764.20168 392.0486,766.03322 392.04861,768.25326 C 392.0486,770.53061 391.59921,772.38185 390.70046,773.80697 C 389.80169,775.2321 388.63616,775.94467 387.20388,775.94467 C 385.7501,775.94467 384.58278,775.24643 383.70193,773.84994 C 382.82107,772.45346 382.38064,770.60222 382.38064,768.29623 C 382.38064,766.0189 382.83539,764.16587 383.74489,762.73715 C 384.6544,761.30845 385.83604,760.5941 387.28982,760.59408 L 387.28982,760.59408 z M 387.3113,762.6351 L 387.20388,762.6351 C 386.38031,762.63511 385.72682,763.14178 385.24343,764.15512 C 384.76003,765.16847 384.51833,766.54168 384.51833,768.27475 C 384.51833,770.05079 384.75466,771.44369 385.22732,772.45346 C 385.69997,773.46322 386.35166,773.96811 387.18239,773.9681 C 388.01312,773.96811 388.66839,773.46322 389.14822,772.45346 C 389.62802,771.44369 389.86793,770.07228 389.86794,768.3392 C 389.86793,766.59897 389.63698,765.21323 389.17507,764.18197 C 388.71315,763.15073 388.09189,762.63511 387.3113,762.6351 L 387.3113,762.6351 z M 398.28982,760.59408 C 399.66481,760.5941 400.80169,761.31561 401.70046,762.75863 C 402.59921,764.20168 403.0486,766.03322 403.04861,768.25326 C 403.0486,770.53061 402.59921,772.38185 401.70046,773.80697 C 400.80169,775.2321 399.63616,775.94467 398.20388,775.94467 C 396.7501,775.94467 395.58278,775.24643 394.70193,773.84994 C 393.82107,772.45346 393.38064,770.60222 393.38064,768.29623 C 393.38064,766.0189 393.83539,764.16587 394.74489,762.73715 C 395.6544,761.30845 396.83604,760.5941 398.28982,760.59408 L 398.28982,760.59408 z M 398.3113,762.6351 L 398.20388,762.6351 C 397.38031,762.63511 396.72682,763.14178 396.24343,764.15512 C 395.76003,765.16847 395.51833,766.54168 395.51833,768.27475 C 395.51833,770.05079 395.75466,771.44369 396.22732,772.45346 C 396.69997,773.46322 397.35166,773.96811 398.18239,773.9681 C 399.01312,773.96811 399.66839,773.46322 400.14822,772.45346 C 400.62802,771.44369 400.86793,770.07228 400.86794,768.3392 C 400.86793,766.59897 400.63698,765.21323 400.17507,764.18197 C 399.71315,763.15073 399.09189,762.63511 398.3113,762.6351 L 398.3113,762.6351 z M 405.92751,775.9017 L 405.949,775.79428 C 405.18272,775.57227 404.79958,775.1032 404.79958,774.38705 C 404.79958,774.00033 404.93028,773.66554 405.19167,773.38266 C 405.45306,773.09978 405.7628,772.95834 406.12087,772.95834 C 406.55056,772.95834 406.90863,773.15528 407.19509,773.54916 C 407.48154,773.94304 407.62477,774.4336 407.62478,775.02084 C 407.62477,775.81576 407.39561,776.514 406.93728,777.11557 C 406.47894,777.71713 405.84873,778.14323 405.04665,778.39389 L 405.04665,777.99643 C 405.35459,777.7028 405.57302,777.40202 405.70193,777.09408 C 405.83083,776.78614 405.90603,776.38868 405.92751,775.9017 L 405.92751,775.9017 z M 406.32497,765.7181 C 406.6902,765.71811 407.00173,765.84702 407.25954,766.10482 C 407.51735,766.36265 407.64626,766.67417 407.64626,767.03939 C 407.64626,767.39748 407.51735,767.70363 407.25954,767.95785 C 407.00173,768.21209 406.69737,768.33921 406.34646,768.3392 C 405.98122,768.33921 405.6697,768.21209 405.41189,767.95785 C 405.15407,767.70363 405.02517,767.39748 405.02517,767.03939 C 405.02517,766.67417 405.15228,766.36265 405.40652,766.10482 C 405.66075,765.84702 405.9669,765.71811 406.32497,765.7181 L 406.32497,765.7181 z "
       id="text4115" />
  </g>
</svg>
