<?xml version="1.0" encoding="UTF-8" standalone="no"?>
<!-- Generator: Adobe Illustrator 12.0.0, SVG Export Plug-In . SVG Version: 6.00 Build 51448)  -->
<svg
   xmlns:dc="http://purl.org/dc/elements/1.1/"
   xmlns:cc="http://creativecommons.org/ns#"
   xmlns:rdf="http://www.w3.org/1999/02/22-rdf-syntax-ns#"
   xmlns:svg="http://www.w3.org/2000/svg"
   xmlns="http://www.w3.org/2000/svg"
   xmlns:xlink="http://www.w3.org/1999/xlink"
   xmlns:sodipodi="http://sodipodi.sourceforge.net/DTD/sodipodi-0.dtd"
   xmlns:inkscape="http://www.inkscape.org/namespaces/inkscape"
   version="1.0"
   width="60"
   height="60"
   viewBox="0 0 18121.891 17875.275"
   overflow="visible"
   enable-background="new 0 0 18121.891 17875.275"
   xml:space="preserve"
   id="svg2"
   sodipodi:version="0.32"
   inkscape:version="0.46dev+devel"
   sodipodi:docname="sampler_User8_webmaster_ok.svg"
   inkscape:output_extension="org.inkscape.output.svg.inkscape"
   style="overflow:visible"><metadata
   id="metadata1436"><rdf:RDF><cc:Work
       rdf:about=""><dc:format>image/svg+xml</dc:format><dc:type
         rdf:resource="http://purl.org/dc/dcmitype/StillImage" /></cc:Work></rdf:RDF></metadata><defs
   id="defs1434">
	
	
	
	
	
	
	
	
	

	
	
	
	
	
	
<linearGradient
   inkscape:collect="always"
   xlink:href="#XMLID_102_"
   id="linearGradient4891"
   gradientUnits="userSpaceOnUse"
   gradientTransform="matrix(1,8e-4,-8e-4,1,7.1357,-7.2051)"
   x1="9339.1689"
   y1="8760.5312"
   x2="9268.5195"
   y2="8705.7422" /><radialGradient
   inkscape:collect="always"
   xlink:href="#XMLID_105_"
   id="radialGradient4893"
   gradientUnits="userSpaceOnUse"
   cx="9301.207"
   cy="8724.8711"
   r="23.112" /><radialGradient
   inkscape:collect="always"
   xlink:href="#XMLID_106_"
   id="radialGradient4895"
   gradientUnits="userSpaceOnUse"
   cx="9320.2285"
   cy="8721.0361"
   r="0.91219997" /><radialGradient
   inkscape:collect="always"
   xlink:href="#XMLID_107_"
   id="radialGradient4897"
   gradientUnits="userSpaceOnUse"
   gradientTransform="matrix(1,8e-4,-8e-4,1,7.1357,-7.2051)"
   cx="9309.9775"
   cy="8684.7832"
   r="35.905602" /></defs><sodipodi:namedview
   inkscape:window-height="744"
   inkscape:window-width="1280"
   inkscape:pageshadow="2"
   inkscape:pageopacity="0.0"
   guidetolerance="10.0"
   gridtolerance="10.0"
   objecttolerance="10.0"
   borderopacity="1.0"
   bordercolor="#666666"
   pagecolor="#ffffff"
   id="base"
   showgrid="true"
   borderlayer="true"
   inkscape:zoom="8.8833333"
   inkscape:cx="30"
   inkscape:cy="28.28512"
   inkscape:window-x="0"
   inkscape:window-y="22"
   inkscape:current-layer="svg2"
   width="60px"><inkscape:grid
     type="xygrid"
     id="grid2383"
     originx="0px"
     originy="0px"
     spacingx="0px"
     spacingy="0px" /></sodipodi:namedview>





<g
   id="g4819"
   transform="matrix(5.2420927,0,0,5.3872712,-76303.465,-19856.123)"><g
     transform="matrix(28.593843,0,0,28.593843,-249752.53,-243437.89)"
     id="g392">
		
			<linearGradient
   id="XMLID_102_"
   gradientUnits="userSpaceOnUse"
   x1="9339.1689"
   y1="8760.5312"
   x2="9268.5195"
   y2="8705.7422"
   gradientTransform="matrix(1,8e-4,-8e-4,1,7.1357,-7.2051)">
			<stop
   offset="0"
   style="stop-color:#FFFFFF"
   id="stop395" />
			<stop
   offset="1"
   style="stop-color:#000000"
   id="stop397" />
		</linearGradient>
		<path
   d="M 9303.648,8697.137 C 9288.156,8697.126 9275.303,8719.963 9273.016,8749.78 L 9334.197,8749.829 C 9331.958,8720.008 9319.144,8697.15 9303.648,8697.137 z"
   id="path399"
   style="fill:url(#linearGradient4891)" />
		<g
   id="g401">
			<g
   id="g403">
				<g
   enable-background="new    "
   id="g405">
					<defs
   id="defs407">
						<polygon
   id="XMLID_25_"
   enable-background="new    "
   points="9255.96,8733.103 9255.307,8675.399 9356.058,8709.45 9356.711,8767.153 9255.96,8733.103 " />
					</defs>
					<clipPath
   id="XMLID_103_">
						<use
   xlink:href="#XMLID_25_"
   id="use411"
   x="0"
   y="0"
   width="18121.891"
   height="17875.275" />
					</clipPath>
					<g
   clip-path="url(#XMLID_103_)"
   id="g413">
						<g
   id="g415">
							<g
   id="g417">
								<g
   id="g419">
									<path
   d="M 9306.289,8746.059 C 9282.391,8737.982 9262.889,8720.339 9262.733,8706.651 C 9262.578,8692.963 9281.829,8688.417 9305.728,8696.495 C 9329.627,8704.572 9349.128,8722.215 9349.284,8735.903 C 9349.439,8749.59 9330.188,8754.137 9306.289,8746.059 M 9305.682,8692.425 C 9277.863,8683.023 9255.453,8688.317 9255.634,8704.251 C 9255.815,8720.185 9278.516,8740.726 9306.336,8750.128 C 9334.156,8759.53 9356.565,8754.236 9356.384,8738.302 C 9356.203,8722.368 9333.502,8701.827 9305.682,8692.425"
   id="path421"
   style="fill:#c6c7c8" />
								</g>
							</g>
						</g>
					</g>
				</g>
			</g>
		</g>
		<g
   id="g423">
			<ellipse
   cx="9303.8301"
   cy="8728.9219"
   rx="18.225"
   ry="17.334"
   id="ellipse425"
   sodipodi:cx="9303.8301"
   sodipodi:cy="8728.9219"
   sodipodi:rx="18.225"
   sodipodi:ry="17.334"
   style="fill:#707173" />
			<g
   id="g427">
				<defs
   id="defs429">
					<ellipse
   id="XMLID_27_"
   cx="9303.8223"
   cy="8728.9951"
   rx="17.962"
   ry="17.142"
   sodipodi:cx="9303.8223"
   sodipodi:cy="8728.9951"
   sodipodi:rx="17.962"
   sodipodi:ry="17.142" />
				</defs>
				<clipPath
   id="XMLID_104_">
					<use
   xlink:href="#XMLID_27_"
   id="use433"
   x="0"
   y="0"
   width="18121.891"
   height="17875.275" />
				</clipPath>
				<radialGradient
   id="XMLID_105_"
   cx="9301.207"
   cy="8724.8711"
   r="23.112"
   gradientUnits="userSpaceOnUse">
					<stop
   offset="0"
   style="stop-color:#C6C7C8"
   id="stop436" />
					<stop
   offset="0.7581"
   style="stop-color:#FFFFFF"
   id="stop438" />
					<stop
   offset="1"
   style="stop-color:#9C9D9F"
   id="stop440" />
				</radialGradient>
				<ellipse
   clip-path="url(#XMLID_104_)"
   cx="9301.207"
   cy="8724.8721"
   rx="23.645"
   ry="22.565001"
   id="ellipse442"
   sodipodi:cx="9301.207"
   sodipodi:cy="8724.8721"
   sodipodi:rx="23.645"
   sodipodi:ry="22.565001"
   style="fill:url(#radialGradient4893)" />
				<g
   clip-path="url(#XMLID_104_)"
   id="g444">
					<g
   id="g446">
						<g
   id="g448">
							<path
   d="M 9308.487,8709.701 C 9308.42,8709.724 9308.378,8709.791 9308.378,8709.87 C 9308.378,8709.873 9308.378,8709.873 9308.378,8709.876 C 9308.38,8709.932 9308.4,8709.984 9308.434,8710.027 C 9308.373,8710.052 9308.303,8710.076 9308.239,8710.09 C 9308.238,8710.09 9308.224,8710.091 9308.214,8710.093 C 9308.212,8710.087 9308.209,8710.077 9308.209,8710.077 C 9308.171,8710.003 9308.112,8710.007 9307.899,8710.099 C 9307.808,8710.141 9307.561,8710.406 9307.539,8710.522 C 9307.56,8710.487 9307.448,8710.475 9307.448,8710.475 C 9307.38,8710.454 9307.312,8710.434 9307.244,8710.413 C 9307.225,8710.407 9307.208,8710.401 9307.189,8710.395 C 9307.184,8710.414 9307.179,8710.432 9307.174,8710.451 C 9307.159,8710.471 9307.12,8710.522 9307.182,8710.922 C 9307.184,8710.938 9307.187,8710.954 9307.189,8710.971 C 9307.21,8710.987 9307.23,8711.004 9307.251,8711.022 C 9307.384,8711.094 9307.711,8710.967 9307.829,8710.912 C 9307.852,8710.964 9307.874,8711.112 9307.873,8711.355 C 9307.872,8711.466 9307.867,8711.592 9307.856,8711.733 C 9307.843,8711.879 9307.839,8712.046 9307.838,8712.202 C 9307.836,8712.468 9307.847,8712.705 9307.863,8712.761 C 9307.902,8712.888 9307.99,8712.861 9308.656,8712.639 C 9308.656,8712.639 9308.758,8712.609 9308.858,8712.576 C 9308.864,8712.588 9308.871,8712.599 9308.871,8712.599 C 9308.89,8712.599 9308.907,8712.599 9308.925,8712.599 C 9308.972,8712.599 9309.011,8712.561 9309.04,8712.51 C 9309.087,8712.498 9309.131,8712.477 9309.153,8712.427 C 9309.169,8712.393 9309.174,8712.352 9309.174,8712.312 C 9309.173,8712.274 9309.159,8712.245 9309.149,8712.211 C 9309.224,8712.045 9309.296,8711.877 9309.296,8711.877 C 9309.386,8711.693 9309.468,8711.401 9309.467,8711.328 C 9309.466,8711.304 9309.466,8711.279 9309.466,8711.254 C 9309.44,8711.242 9309.414,8711.231 9309.389,8711.219 C 9309.34,8711.203 9309.228,8711.217 9309.148,8711.254 C 9309.043,8711.191 9308.709,8710.937 9308.708,8710.729 C 9308.708,8710.709 9308.709,8710.688 9308.718,8710.668 C 9308.804,8710.432 9308.911,8710.336 9308.957,8710.313 C 9308.96,8710.319 9308.965,8710.328 9308.965,8710.328 C 9308.99,8710.323 9309.015,8710.317 9309.04,8710.313 C 9309.13,8710.283 9309.14,8710.12 9309.138,8710.05 C 9309.138,8709.887 9309.079,8709.775 9308.979,8709.738 C 9308.83,8709.688 9308.608,8709.658 9308.487,8709.701 z M 9308.556,8709.869 L 9308.556,8709.869 L 9308.556,8709.869 L 9308.556,8709.869 z M 9308.928,8709.932 C 9308.95,8709.977 9308.958,8710.028 9308.958,8710.071 C 9308.958,8710.086 9308.955,8710.091 9308.954,8710.102 C 9308.838,8710.118 9308.665,8710.288 9308.552,8710.594 C 9308.535,8710.641 9308.528,8710.687 9308.528,8710.733 C 9308.529,8711.041 9308.889,8711.315 9309.016,8711.402 C 9309.097,8711.458 9309.162,8711.503 9309.215,8711.434 C 9309.207,8711.436 9309.235,8711.432 9309.262,8711.427 C 9309.237,8711.524 9309.196,8711.662 9309.137,8711.783 C 9309.061,8711.937 9309.009,8712.051 9308.965,8712.146 C 9308.933,8712.193 9308.912,8712.23 9308.907,8712.281 C 9308.89,8712.316 9308.881,8712.344 9308.871,8712.369 C 9308.757,8712.402 9308.601,8712.449 9308.601,8712.449 C 9308.423,8712.508 9308.156,8712.597 9308.034,8712.625 C 9308.027,8712.539 9308.019,8712.393 9308.019,8712.194 C 9308.02,8712.051 9308.024,8711.894 9308.036,8711.748 C 9308.045,8711.632 9308.053,8711.486 9308.053,8711.344 C 9308.054,8711.071 9308.029,8710.801 9307.93,8710.728 C 9307.889,8710.696 9307.838,8710.694 9307.79,8710.72 C 9307.67,8710.785 9307.439,8710.85 9307.355,8710.845 C 9307.351,8710.799 9307.343,8710.721 9307.336,8710.647 C 9307.344,8710.65 9307.362,8710.656 9307.362,8710.656 C 9307.424,8710.69 9307.555,8710.712 9307.634,8710.667 C 9307.674,8710.644 9307.702,8710.606 9307.71,8710.561 C 9307.731,8710.512 9307.909,8710.312 9307.96,8710.288 C 9307.959,8710.288 9308.01,8710.269 9308.057,8710.253 C 9308.091,8710.289 9308.149,8710.316 9308.269,8710.289 C 9308.395,8710.26 9308.687,8710.182 9308.69,8710.041 C 9308.69,8710.015 9308.69,8709.988 9308.691,8709.961 C 9308.661,8709.948 9308.629,8709.936 9308.598,8709.923 C 9308.579,8709.918 9308.576,8709.902 9308.57,8709.889 C 9308.647,8709.873 9308.798,8709.886 9308.928,8709.932 z M 9308.485,8709.701 C 9308.486,8709.701 9308.487,8709.701 9308.487,8709.701 C 9308.487,8709.701 9308.486,8709.701 9308.485,8709.701 z"
   id="path450"
   style="fill:#c6c7c8" />
						</g>
						<g
   id="g452">
							<path
   d="M 9313.491,8710.166 C 9313.183,8710.146 9312.875,8710.128 9312.567,8710.112 C 9312.562,8710.111 9312.191,8710.057 9312.123,8710.131 C 9312.113,8710.141 9312.103,8710.15 9312.095,8710.159 C 9312.096,8710.174 9312.096,8710.189 9312.097,8710.205 C 9312.099,8710.243 9312.11,8710.28 9312.208,8710.326 C 9312.139,8710.357 9312.067,8710.389 9312.066,8710.389 C 9312.045,8710.381 9311.487,8710.673 9311.195,8710.928 C 9310.847,8711.232 9310.64,8712.063 9310.667,8712.305 C 9310.701,8712.594 9311.164,8712.796 9311.343,8712.802 C 9311.412,8712.807 9311.629,8713.123 9311.675,8713.293 C 9311.703,8713.395 9311.766,8713.461 9311.845,8713.479 C 9311.868,8713.485 9311.884,8713.471 9311.906,8713.469 C 9311.912,8713.534 9311.917,8713.622 9311.923,8713.751 C 9311.931,8713.979 9311.938,8714.303 9311.936,8714.716 C 9311.932,8715.383 9311.926,8716.05 9311.918,8716.717 C 9311.918,8716.758 9311.918,8716.801 9311.92,8716.846 C 9311.931,8717.194 9312.003,8717.668 9312.268,8718.145 C 9312.289,8718.19 9312.48,8718.489 9312.566,8718.52 C 9312.58,8718.524 9312.593,8718.53 9312.607,8718.534 C 9312.62,8718.528 9312.632,8718.52 9312.645,8718.514 C 9312.682,8718.494 9312.716,8718.444 9312.712,8717.957 C 9312.905,8717.933 9313.269,8717.187 9313.321,8716.997 C 9313.411,8716.68 9313.534,8716.492 9313.584,8716.475 C 9313.65,8716.48 9313.71,8716.444 9313.743,8716.377 C 9313.757,8716.344 9313.765,8716.311 9313.764,8716.277 C 9313.763,8716.26 9313.753,8716.246 9313.749,8716.232 C 9314.474,8716.064 9314.744,8715.97 9314.787,8715.85 C 9314.794,8715.829 9314.801,8715.787 9314.808,8715.747 C 9314.911,8715.72 9315.065,8715.662 9315.326,8715.549 C 9315.54,8715.458 9315.779,8715.063 9315.811,8714.923 C 9315.815,8714.906 9315.816,8714.888 9315.814,8714.87 C 9315.803,8714.726 9315.63,8714.525 9315.396,8714.266 C 9315.376,8714.244 9315.357,8714.222 9315.337,8714.201 C 9315.337,8714.201 9315.319,8714.178 9315.306,8714.156 C 9315.347,8714.114 9315.354,8714.023 9315.347,8713.934 C 9315.339,8713.837 9315.32,8713.749 9315.32,8713.747 C 9315.329,8713.731 9315.399,8713.651 9315.663,8713.469 C 9315.664,8713.469 9315.665,8713.47 9315.666,8713.47 C 9315.687,8713.459 9315.708,8713.449 9315.729,8713.439 C 9315.739,8713.431 9315.739,8713.419 9315.75,8713.411 C 9315.756,8713.406 9315.767,8713.4 9315.767,8713.4 C 9315.765,8713.398 9315.763,8713.396 9315.762,8713.394 C 9315.785,8713.369 9315.819,8713.349 9315.816,8713.315 C 9315.814,8713.296 9315.807,8713.278 9315.791,8713.255 C 9315.75,8713.198 9315.702,8713.214 9315.656,8713.237 C 9315.625,8713.186 9315.58,8713.096 9315.563,8713.029 C 9315.533,8712.909 9315.349,8712.739 9315.236,8712.677 C 9315.228,8712.631 9315.217,8712.56 9315.217,8712.56 C 9315.152,8712.084 9315.067,8711.559 9314.913,8711.345 C 9314.695,8711.049 9314.262,8710.832 9314.12,8710.869 C 9314.097,8710.84 9313.988,8710.625 9313.982,8710.552 C 9313.983,8710.548 9313.982,8710.545 9313.982,8710.541 C 9313.989,8710.543 9314.132,8710.396 9314.125,8710.307 C 9314.124,8710.293 9314.123,8710.28 9314.122,8710.266 C 9314.112,8710.255 9314.102,8710.245 9314.093,8710.235 C 9314.055,8710.198 9314.055,8710.197 9313.491,8710.166 z M 9312.564,8710.31 C 9312.878,8710.327 9313.194,8710.344 9313.509,8710.366 C 9313.509,8710.366 9313.7,8710.377 9313.854,8710.387 C 9313.851,8710.391 9313.841,8710.406 9313.841,8710.406 C 9313.807,8710.437 9313.796,8710.485 9313.8,8710.538 C 9313.809,8710.643 9313.871,8710.769 9313.908,8710.835 C 9313.975,8710.957 9314.079,8711.095 9314.184,8711.066 C 9314.24,8711.06 9314.587,8711.197 9314.774,8711.455 C 9314.908,8711.636 9314.996,8712.283 9315.032,8712.56 C 9315.061,8712.782 9315.066,8712.816 9315.142,8712.838 C 9315.21,8712.853 9315.364,8713.001 9315.381,8713.053 C 9315.382,8713.056 9315.429,8713.211 9315.502,8713.329 C 9315.229,8713.525 9315.123,8713.639 9315.131,8713.743 C 9315.131,8713.752 9315.135,8713.762 9315.136,8713.772 C 9315.147,8713.814 9315.155,8713.87 9315.158,8713.918 C 9315.161,8713.951 9315.157,8713.968 9315.156,8713.988 C 9315.131,8713.994 9315.103,8713.999 9315.091,8714.018 C 9315.075,8714.04 9315.07,8714.065 9315.072,8714.091 C 9315.079,8714.179 9315.166,8714.279 9315.205,8714.322 C 9315.226,8714.344 9315.247,8714.368 9315.268,8714.39 C 9315.363,8714.494 9315.617,8714.776 9315.623,8714.856 C 9315.601,8714.956 9315.385,8715.299 9315.231,8715.366 C 9315.077,8715.433 9314.837,8715.522 9314.722,8715.558 C 9314.698,8715.55 9314.667,8715.561 9314.638,8715.579 C 9314.621,8715.581 9314.605,8715.582 9314.605,8715.582 C 9314.605,8715.582 9314.607,8715.592 9314.607,8715.594 C 9314.605,8715.6 9314.601,8715.596 9314.595,8715.6 C 9314.579,8715.62 9314.565,8715.638 9314.549,8715.657 C 9314.566,8715.68 9314.582,8715.705 9314.599,8715.728 C 9314.6,8715.733 9314.609,8715.732 9314.611,8715.737 C 9314.609,8715.748 9314.605,8715.763 9314.605,8715.762 C 9314.556,8715.821 9314.201,8715.923 9313.546,8716.071 C 9313.303,8716.126 9313.288,8716.129 9313.292,8716.209 C 9313.293,8716.226 9313.294,8716.242 9313.294,8716.259 C 9313.309,8716.271 9313.323,8716.282 9313.337,8716.294 C 9313.366,8716.318 9313.411,8716.327 9313.458,8716.33 C 9313.278,8716.458 9313.149,8716.869 9313.134,8716.927 C 9313.07,8717.157 9312.854,8717.525 9312.732,8717.687 C 9312.7,8717.605 9312.663,8717.556 9312.609,8717.56 C 9312.507,8717.565 9312.51,8717.681 9312.512,8717.736 C 9312.512,8717.736 9312.508,8717.972 9312.505,8718.166 C 9312.481,8718.132 9312.448,8718.087 9312.448,8718.087 C 9312.186,8717.617 9312.116,8717.173 9312.106,8716.848 C 9312.105,8716.807 9312.105,8716.769 9312.106,8716.732 C 9312.113,8716.065 9312.117,8715.398 9312.119,8714.731 C 9312.121,8714.293 9312.116,8713.987 9312.107,8713.771 C 9312.086,8713.27 9312.044,8713.254 9311.995,8713.237 C 9311.975,8713.23 9311.955,8713.223 9311.935,8713.216 C 9311.919,8713.237 9311.903,8713.257 9311.887,8713.277 C 9311.883,8713.282 9311.87,8713.287 9311.865,8713.285 C 9311.804,8713.093 9311.551,8712.61 9311.333,8712.603 C 9311.205,8712.599 9310.861,8712.427 9310.846,8712.29 C 9310.845,8712.286 9310.844,8712.278 9310.844,8712.272 C 9310.838,8712.063 9311.022,8711.338 9311.31,8711.088 C 9311.619,8710.818 9312.136,8710.578 9312.141,8710.577 C 9312.516,8710.435 9312.549,8710.39 9312.546,8710.331 C 9312.545,8710.324 9312.543,8710.309 9312.543,8710.309 C 9312.548,8710.309 9312.564,8710.309 9312.564,8710.31 z"
   id="path454"
   style="fill:#c6c7c8" />
						</g>
						<g
   id="g456">
							<path
   d="M 9295.25,8711.972 C 9295.217,8712.009 9295.178,8712.068 9295.175,8712.149 C 9295.145,8712.202 9294.896,8712.279 9294.754,8712.259 C 9294.528,8712.227 9294.137,8712.729 9294.049,8712.9 C 9293.964,8713.003 9293.262,8713.276 9292.932,8713.35 C 9292.831,8713.372 9292.719,8713.444 9292.611,8713.558 C 9292.416,8713.763 9292.245,8714.092 9292.206,8714.279 C 9292.204,8714.292 9292.197,8714.331 9292.195,8714.341 C 9292.137,8714.362 9292.057,8714.404 9291.91,8714.486 C 9291.71,8714.597 9291.435,8714.75 9291.293,8714.779 C 9291.286,8714.78 9290.769,8714.894 9290.678,8714.98 C 9290.667,8714.99 9290.656,8715.001 9290.645,8715.011 C 9290.642,8715.025 9290.639,8715.036 9290.636,8715.049 C 9290.619,8715.122 9290.618,8715.12 9291.068,8715.142 C 9291.068,8715.142 9291.244,8715.154 9291.318,8715.16 C 9291.313,8715.162 9291.218,8715.205 9291.218,8715.205 C 9291.208,8715.23 9291.199,8715.256 9291.19,8715.281 C 9291.177,8715.354 9291.169,8715.388 9292.035,8715.353 C 9292.056,8715.351 9292.489,8715.334 9292.583,8715.253 C 9292.596,8715.241 9292.608,8715.23 9292.621,8715.219 C 9292.621,8715.219 9292.622,8715.214 9292.623,8715.21 C 9292.747,8715.178 9292.881,8715.142 9292.88,8715.142 C 9292.98,8715.133 9293.243,8715.483 9293.424,8715.721 C 9293.541,8715.866 9293.659,8716.011 9293.778,8716.159 C 9293.984,8716.385 9294.023,8716.969 9293.971,8717.376 C 9293.962,8717.447 9293.951,8717.514 9293.936,8717.57 C 9293.895,8717.729 9293.852,8717.763 9293.852,8717.763 C 9293.583,8717.882 9293.438,8718.51 9293.391,8718.932 C 9293.373,8719.083 9293.368,8719.209 9293.371,8719.273 C 9293.372,8719.279 9293.373,8719.287 9293.372,8719.294 C 9293.35,8719.497 9292.885,8720.205 9292.575,8720.673 C 9292.324,8721.056 9292.107,8721.383 9292.033,8721.555 C 9291.905,8721.856 9291.766,8722.215 9291.716,8722.369 C 9291.662,8722.371 9291.528,8722.375 9291.528,8722.375 C 9291.301,8722.358 9290.996,8723.19 9290.993,8723.198 C 9290.985,8723.222 9290.979,8723.251 9290.977,8723.281 C 9290.962,8723.482 9291.086,8723.776 9291.191,8723.916 C 9291.167,8723.932 9291.07,8723.987 9291.07,8723.987 C 9291.071,8724.013 9291.071,8724.039 9291.071,8724.066 C 9291.091,8724.157 9291.317,8724.226 9291.448,8724.254 C 9291.434,8724.366 9291.344,8725.25 9291.345,8725.249 C 9291.342,8725.272 9291.341,8725.293 9291.34,8725.312 C 9291.331,8725.541 9291.417,8725.684 9291.511,8725.727 C 9291.532,8725.736 9291.553,8725.739 9291.574,8725.739 C 9291.637,8725.833 9291.768,8726.217 9291.82,8726.432 C 9291.831,8726.479 9291.865,8726.622 9291.995,8726.614 C 9292.151,8726.602 9292.194,8726.364 9292.198,8726.338 C 9292.216,8726.237 9292.301,8726.128 9292.33,8726.104 C 9292.332,8726.121 9292.444,8726.165 9292.444,8726.165 C 9292.518,8726.22 9293.287,8726.937 9293.448,8727.492 C 9293.624,8728.102 9294.318,8729.117 9294.788,8729.156 C 9294.981,8729.172 9295.071,8729.2 9295.118,8729.219 C 9295.118,8729.224 9295.118,8729.235 9295.118,8729.235 C 9295.139,8729.416 9296.569,8729.702 9296.582,8729.706 C 9297.016,8729.779 9297.244,8730.055 9297.249,8730.113 C 9297.252,8730.101 9297.263,8730.201 9297.263,8730.201 C 9297.376,8730.39 9298.451,8730.674 9298.571,8730.699 C 9298.881,8730.766 9299.383,8731.424 9299.462,8731.646 C 9299.527,8731.832 9299.608,8731.881 9299.668,8731.902 C 9299.659,8731.981 9299.65,8732.063 9299.65,8732.063 C 9299.649,8732.071 9299.648,8732.079 9299.648,8732.085 C 9299.652,8732.204 9299.821,8732.282 9300.09,8732.406 C 9300.229,8732.469 9300.46,8732.578 9300.493,8732.63 C 9300.602,8732.89 9301.505,8732.96 9301.653,8732.954 C 9301.787,8732.95 9302.038,8733.195 9302.159,8733.313 C 9302.21,8733.362 9302.246,8733.397 9302.276,8733.42 C 9302.276,8733.422 9302.277,8733.424 9302.277,8733.425 C 9302.283,8733.686 9302.125,8734.596 9301.982,8734.636 C 9301.77,8734.699 9301.642,8734.856 9301.594,8734.985 C 9301.588,8735 9301.587,8735.022 9301.581,8735.04 C 9301.574,8735.036 9301.551,8735.023 9301.551,8735.023 C 9301.531,8735.024 9301.511,8735.024 9301.49,8735.025 C 9301.416,8735.047 9301.398,8735.119 9301.322,8735.454 C 9301.271,8735.673 9301.197,8736.001 9301.13,8736.087 C 9300.93,8736.344 9301.34,8737.028 9301.429,8737.153 C 9301.509,8737.265 9301.659,8737.458 9301.762,8737.478 C 9301.741,8737.461 9301.931,8737.666 9301.931,8737.666 C 9302.2,8737.965 9302.646,8738.465 9302.985,8738.682 C 9303.423,8738.961 9303.607,8739.812 9303.401,8740.539 C 9303.317,8741.332 9303.239,8742.123 9303.169,8742.913 C 9303.169,8742.908 9303.015,8743.965 9303.009,8744.023 C 9303.004,8744.054 9302.999,8744.086 9302.995,8744.118 C 9303.024,8744.131 9303.054,8744.144 9303.084,8744.157 C 9303.12,8744.17 9303.144,8744.158 9303.169,8744.074 C 9303.173,8744.074 9303.189,8744.078 9303.189,8744.078 C 9303.189,8744.078 9303.197,8744.061 9303.204,8744.048 C 9303.264,8744.126 9303.339,8744.223 9303.392,8744.29 L 9303.392,8744.29 C 9303.259,8744.371 9303.367,8746.002 9303.372,8746.056 C 9303.372,8746.057 9303.372,8746.057 9303.372,8746.057 C 9303.386,8746.254 9303.439,8746.701 9303.585,8746.782 C 9303.596,8746.831 9303.605,8746.894 9303.608,8746.948 C 9303.61,8746.974 9303.611,8746.995 9303.609,8747.007 C 9303.606,8747.025 9303.604,8747.04 9303.606,8747.055 C 9303.612,8747.137 9303.687,8747.165 9303.805,8747.21 C 9303.959,8747.267 9304.159,8746.84 9304.162,8746.835 C 9304.17,8746.854 9304.178,8746.872 9304.185,8746.892 C 9304.205,8746.884 9304.224,8746.876 9304.244,8746.869 C 9304.355,8746.888 9304.574,8746.5 9304.64,8746.383 C 9304.68,8746.313 9304.691,8746.254 9304.689,8746.209 C 9304.687,8746.17 9304.672,8746.149 9304.66,8746.129 C 9304.701,8746.078 9304.743,8746.024 9304.744,8746.025 C 9304.816,8745.931 9304.89,8745.838 9304.964,8745.745 C 9304.938,8745.718 9304.911,8745.69 9304.885,8745.664 C 9304.854,8745.638 9304.829,8745.651 9304.804,8745.661 C 9304.789,8745.569 9304.772,8745.455 9304.772,8745.455 C 9304.77,8745.405 9304.754,8745.377 9304.742,8745.351 C 9304.822,8745.102 9305.068,8744.515 9305.646,8744.233 C 9306.469,8743.837 9307.449,8743.526 9307.558,8743.523 C 9307.782,8743.531 9308.86,8742.252 9308.875,8742.236 C 9309.2,8741.84 9310.154,8741.136 9311.009,8740.662 C 9311.584,8740.256 9312.165,8739.847 9312.751,8739.435 C 9313.255,8738.742 9313.691,8738.375 9313.783,8738.336 C 9313.824,8738.361 9313.867,8738.39 9313.867,8738.39 C 9313.936,8738.374 9314.006,8738.359 9314.075,8738.343 C 9314.06,8738.32 9314.047,8738.298 9314.033,8738.276 C 9314.033,8738.162 9313.338,8737.062 9312.782,8736.742 C 9312.3,8736.465 9310.984,8736.023 9310.787,8736.213 C 9310.716,8736.258 9310.331,8736.183 9310.165,8736.149 C 9310.087,8736.135 9310.009,8736.122 9309.931,8736.108 C 9309.929,8736.104 9309.908,8736.063 9309.916,8735.963 C 9309.927,8735.82 9309.981,8735.698 9310.009,8735.68 C 9310.058,8735.662 9310.151,8735.629 9310.12,8735.534 C 9310.102,8735.477 9310.057,8735.469 9309.998,8735.476 C 9310.052,8735.377 9310.123,8735.259 9310.191,8735.171 C 9310.227,8735.127 9310.241,8735.074 9310.242,8735.019 C 9310.244,8734.885 9310.163,8734.724 9310.086,8734.568 C 9310.051,8734.491 9310.017,8734.413 9309.982,8734.335 C 9309.911,8734.034 9309.117,8733.942 9308.931,8733.955 C 9308.832,8733.96 9308.725,8733.877 9308.631,8733.803 C 9308.534,8733.728 9308.449,8733.661 9308.356,8733.685 C 9308.338,8733.664 9308.281,8733.517 9308.281,8733.441 C 9308.281,8733.293 9308.083,8733.256 9307.875,8733.218 C 9307.875,8733.218 9307.706,8733.181 9307.706,8733.179 C 9307.706,8733.179 9307.675,8733.142 9307.646,8733.109 C 9307.651,8733.087 9307.655,8733.066 9307.655,8733.066 C 9307.655,8733.064 9307.655,8733.062 9307.655,8733.06 C 9307.656,8732.849 9306.472,8732.468 9306.093,8732.425 C 9305.514,8732.36 9305.452,8732.355 9305.436,8732.457 C 9304.879,8732.542 9303.152,8732.692 9302.383,8732.526 C 9301.613,8732.36 9301.161,8732.184 9301.046,8732.115 C 9301.041,8732.052 9300.987,8731.971 9300.851,8731.774 C 9300.68,8731.527 9300.402,8731.128 9300.398,8730.905 C 9300.398,8730.89 9300.398,8730.875 9300.399,8730.862 C 9300.409,8730.817 9300.412,8730.776 9300.412,8730.734 C 9300.409,8730.569 9300.342,8730.417 9300.218,8730.307 C 9300.098,8730.201 9299.94,8730.149 9299.826,8730.18 C 9299.708,8730.211 9299.522,8730.149 9299.488,8730.121 C 9299.446,8730.051 9299.325,8729.625 9299.445,8729.548 C 9299.657,8729.409 9299.87,8729.111 9299.869,8729.001 C 9299.868,8728.813 9299.246,8728.752 9299.12,8728.742 C 9298.997,8728.73 9298.854,8728.832 9298.655,8728.971 C 9298.48,8729.094 9298.282,8729.232 9298.114,8729.274 C 9297.943,8729.316 9297.74,8729.229 9297.524,8729.139 C 9297.343,8729.061 9297.157,8728.984 9296.971,8728.976 C 9296.886,8728.973 9296.763,8728.882 9296.638,8728.733 C 9296.391,8728.437 9296.2,8727.999 9296.2,8727.747 C 9296.2,8727.719 9296.204,8727.694 9296.208,8727.67 C 9296.264,8727.415 9296.34,8727.316 9296.378,8727.278 C 9296.402,8727.278 9296.454,8727.28 9296.453,8727.28 C 9296.569,8727.26 9296.631,8727.067 9296.652,8726.987 C 9296.785,8726.924 9297.625,8726.84 9298.326,8726.824 C 9298.469,8726.821 9299.068,8726.798 9299.292,8726.694 C 9299.299,8726.694 9299.405,8726.719 9299.404,8726.719 C 9299.633,8726.776 9300.109,8726.893 9300.424,8726.884 C 9300.793,8726.873 9301.128,8727.063 9301.166,8727.125 C 9301.176,8727.174 9301.217,8727.217 9301.274,8727.227 C 9301.327,8727.237 9301.379,8727.211 9301.424,8727.182 C 9301.473,8727.282 9301.55,8727.467 9301.599,8727.592 C 9301.633,8727.676 9301.667,8727.76 9301.701,8727.843 C 9301.749,8727.885 9301.796,8727.928 9301.843,8727.969 C 9302.063,8728.045 9302.421,8727.866 9302.461,8727.844 C 9302.645,8727.75 9302.645,8727.246 9302.632,8727.151 C 9302.615,8727.035 9302.549,8727.016 9302.512,8727.016 C 9302.482,8727.015 9302.464,8727.047 9302.443,8727.067 C 9302.387,8726.852 9302.315,8726.506 9302.272,8726.272 C 9302.256,8726.172 9302.25,8726.078 9302.25,8726.001 C 9302.25,8725.95 9302.256,8725.912 9302.26,8725.874 C 9302.264,8725.877 9302.269,8725.883 9302.269,8725.883 C 9302.346,8725.933 9302.372,8725.919 9302.917,8725.509 C 9303.051,8725.411 9303.185,8725.313 9303.319,8725.214 C 9303.327,8725.21 9304.283,8724.567 9304.288,8724.119 C 9304.288,8724.114 9304.287,8724.1 9304.287,8724.098 C 9304.288,8723.967 9304.61,8723.705 9304.846,8723.514 C 9305.122,8723.289 9305.36,8723.095 9305.409,8722.92 C 9305.482,8722.666 9305.652,8722.484 9305.689,8722.461 C 9305.689,8722.461 9305.688,8722.461 9305.687,8722.461 C 9305.774,8722.445 9305.955,8722.375 9306.389,8722.147 C 9306.611,8722.031 9306.7,8721.535 9306.702,8721.321 C 9306.702,8721.299 9306.702,8721.28 9306.7,8721.264 C 9306.664,8721.207 9306.628,8721.149 9306.592,8721.092 C 9306.461,8720.998 9306.234,8720.971 9306.097,8720.987 C 9306.098,8720.983 9306.095,8720.981 9306.095,8720.977 C 9306.096,8720.887 9306.14,8720.696 9306.197,8720.575 C 9306.251,8720.465 9306.409,8720.374 9306.493,8720.344 C 9306.5,8720.381 9306.506,8720.422 9306.506,8720.422 C 9306.53,8720.514 9306.555,8720.606 9306.579,8720.698 C 9306.691,8720.842 9307.017,8720.816 9307.107,8720.781 C 9307.122,8720.775 9307.137,8720.769 9307.152,8720.763 C 9307.166,8720.737 9307.178,8720.711 9307.192,8720.684 C 9307.2,8720.664 9307.203,8720.641 9307.203,8720.616 C 9307.204,8720.583 9307.189,8720.546 9307.18,8720.508 C 9307.213,8720.519 9307.244,8720.527 9307.278,8720.514 C 9307.387,8720.464 9307.424,8720.285 9307.424,8720.21 C 9307.453,8720.205 9307.701,8720.142 9307.826,8720.14 C 9307.897,8720.14 9308.089,8720.357 9308.127,8720.463 C 9308.113,8720.506 9308.083,8720.523 9308.073,8720.525 C 9307.911,8720.525 9307.802,8720.875 9307.802,8720.878 C 9307.797,8720.896 9307.792,8720.912 9307.787,8720.93 C 9307.8,8720.948 9307.812,8720.963 9307.824,8720.98 C 9307.878,8721.043 9307.958,8721.037 9308.383,8720.984 C 9308.573,8720.967 9308.764,8720.952 9308.953,8720.936 C 9309.098,8720.947 9309.139,8720.867 9309.149,8720.832 C 9309.152,8720.817 9309.155,8720.802 9309.155,8720.786 C 9309.154,8720.564 9308.719,8720.243 9308.627,8720.184 C 9308.379,8720.028 9308.18,8719.647 9308.175,8719.566 L 9308.175,8719.566 C 9308.175,8719.387 9307.957,8719.241 9307.75,8719.196 C 9307.344,8719.102 9307.083,8719.069 9306.947,8719.083 C 9306.87,8718.968 9306.593,8718.459 9306.437,8718.149 C 9306.35,8717.973 9306.162,8717.879 9305.932,8717.893 C 9305.867,8717.899 9305.798,8717.92 9305.745,8717.956 C 9305.564,8717.931 9304.395,8717.626 9304.096,8717.494 C 9304.047,8717.472 9303.994,8717.454 9303.943,8717.431 C 9303.96,8717.421 9303.988,8717.401 9303.988,8717.402 C 9303.829,8717.365 9303.671,8717.329 9303.512,8717.294 C 9303.511,8717.294 9303.511,8717.294 9303.511,8717.294 C 9303.495,8717.294 9303.466,8717.283 9303.452,8717.284 C 9303.432,8717.276 9303.398,8717.27 9303.389,8717.264 C 9303.372,8717.25 9303.355,8717.237 9303.337,8717.223 C 9303.314,8717.224 9303.29,8717.225 9303.267,8717.226 C 9303.178,8717.285 9302.869,8718.084 9302.852,8718.526 C 9302.85,8718.573 9302.852,8718.616 9302.857,8718.654 C 9302.904,8718.962 9303.091,8719.487 9303.229,8719.605 C 9303.233,8719.626 9303.234,8719.667 9303.232,8719.727 C 9303.228,8719.832 9303.216,8719.975 9303.203,8720.091 C 9303.126,8720.107 9302.883,8720.083 9302.599,8719.975 C 9302.317,8719.867 9302.118,8719.72 9302.073,8719.579 C 9301.931,8719.152 9301.319,8718.805 9301.11,8718.748 C 9301.083,8718.74 9301.053,8718.733 9301.022,8718.735 C 9300.95,8718.653 9300.783,8718.228 9300.723,8717.99 C 9300.721,8717.982 9300.721,8717.973 9300.721,8717.965 C 9300.733,8717.753 9301.332,8716.974 9301.489,8716.865 C 9301.624,8716.772 9301.991,8716.636 9302.079,8716.615 C 9302.096,8716.645 9302.18,8716.904 9302.192,8717.043 C 9302.198,8717.107 9302.234,8717.153 9302.291,8717.174 C 9302.444,8717.223 9302.718,8717.043 9302.807,8716.961 C 9302.824,8716.945 9302.84,8716.932 9302.857,8716.917 C 9303.009,8716.793 9303.057,8716.675 9302.888,8716.416 C 9302.798,8716.279 9302.91,8716.111 9303.045,8715.951 C 9303.095,8715.894 9303.128,8715.852 9303.11,8715.794 C 9303.224,8715.717 9303.154,8715.523 9303.139,8715.483 C 9303.089,8715.349 9302.691,8715.48 9302.364,8715.615 C 9302.279,8715.65 9301.949,8715.35 9301.853,8715.152 C 9301.776,8714.99 9301.593,8714.982 9301.486,8714.979 C 9301.457,8714.977 9301.429,8714.975 9301.401,8714.973 C 9301.377,8714.974 9301.353,8714.974 9301.33,8714.974 C 9301.239,8715.022 9301.204,8715.216 9301.19,8715.32 C 9300.972,8715.386 9299.789,8715.449 9299.457,8715.424 C 9299.163,8715.4 9299.007,8715.104 9299.016,8715.039 C 9299.027,8714.997 9299.056,8714.996 9299.055,8714.998 C 9299.086,8714.998 9299.118,8714.998 9299.149,8714.998 C 9299.166,8714.969 9299.182,8714.938 9299.2,8714.908 C 9299.2,8714.907 9299.2,8714.906 9299.2,8714.905 C 9299.201,8714.892 9299.182,8714.856 9299.169,8714.827 C 9299.17,8714.827 9299.17,8714.826 9299.17,8714.826 C 9299.17,8714.826 9299.169,8714.826 9299.168,8714.826 C 9299.008,8714.48 9298.058,8713.25 9297.809,8713.09 C 9297.447,8712.856 9297.048,8712.803 9296.907,8712.852 C 9296.89,8712.848 9296.806,8712.624 9296.779,8712.485 C 9296.813,8712.421 9296.879,8712.399 9296.908,8712.403 C 9296.957,8712.411 9297.007,8712.419 9297.055,8712.427 C 9297.053,8712.373 9297.05,8712.321 9297.047,8712.268 C 9297.033,8712.153 9296.378,8711.876 9296.187,8711.862 C 9295.961,8711.844 9295.635,8711.831 9295.595,8711.84 C 9295.49,8711.843 9295.346,8711.867 9295.25,8711.972 z M 9295.264,8712.272 C 9295.324,8712.215 9295.357,8712.148 9295.359,8712.08 C 9295.359,8712.07 9295.392,8712.033 9295.538,8712.02 C 9295.553,8712.017 9296.109,8712.043 9296.109,8712.044 C 9296.273,8712.057 9296.577,8712.197 9296.751,8712.293 C 9296.725,8712.31 9296.695,8712.312 9296.673,8712.335 C 9296.63,8712.382 9296.603,8712.436 9296.594,8712.489 C 9296.59,8712.516 9296.59,8712.543 9296.596,8712.569 C 9296.597,8712.575 9296.7,8713.059 9296.845,8713.054 C 9296.849,8713.053 9296.854,8713.053 9296.859,8713.053 C 9296.877,8713.043 9296.894,8713.032 9296.912,8713.023 C 9296.974,8713.002 9297.331,8713.027 9297.682,8713.252 C 9297.984,8713.447 9298.734,8714.522 9298.96,8714.861 C 9298.905,8714.902 9298.853,8714.949 9298.834,8715.019 C 9298.831,8715.029 9298.83,8715.037 9298.83,8715.046 C 9298.81,8715.234 9299.04,8715.575 9299.409,8715.609 C 9299.619,8715.623 9301.157,8715.599 9301.325,8715.451 C 9301.336,8715.443 9301.346,8715.434 9301.355,8715.426 C 9301.36,8715.405 9301.366,8715.384 9301.371,8715.363 C 9301.371,8715.362 9301.401,8715.22 9301.415,8715.158 C 9301.43,8715.162 9301.45,8715.168 9301.451,8715.168 C 9301.559,8715.171 9301.649,8715.18 9301.682,8715.25 C 9301.746,8715.389 9302.146,8715.898 9302.413,8715.791 C 9302.567,8715.727 9302.861,8715.637 9302.974,8715.619 C 9302.981,8715.656 9302.988,8715.695 9302.988,8715.695 C 9303.001,8715.675 9303.013,8715.655 9303.026,8715.634 C 9302.995,8715.657 9302.952,8715.729 9302.937,8715.797 C 9302.937,8715.793 9302.939,8715.785 9302.939,8715.785 C 9302.929,8715.798 9302.919,8715.809 9302.91,8715.822 C 9302.809,8715.939 9302.545,8716.252 9302.726,8716.528 C 9302.83,8716.688 9302.818,8716.7 9302.746,8716.758 C 9302.726,8716.776 9302.706,8716.793 9302.685,8716.811 C 9302.593,8716.899 9302.41,8716.987 9302.364,8716.975 C 9302.372,8716.87 9302.288,8716.528 9302.17,8716.44 C 9302.159,8716.432 9302.149,8716.424 9302.139,8716.417 C 9302.114,8716.417 9302.087,8716.416 9302.061,8716.415 C 9301.957,8716.436 9301.564,8716.585 9301.397,8716.698 C 9301.257,8716.796 9300.454,8717.723 9300.537,8718.05 C 9300.538,8718.058 9300.768,8718.87 9300.946,8718.925 C 9300.95,8718.927 9300.955,8718.927 9300.959,8718.929 C 9300.977,8718.927 9300.994,8718.925 9301.012,8718.922 C 9301.13,8718.923 9301.764,8719.271 9301.888,8719.647 C 9302.033,8720.084 9302.931,8720.324 9303.224,8720.279 C 9303.365,8720.258 9303.392,8720.171 9303.397,8720.135 C 9303.418,8719.97 9303.428,8719.845 9303.431,8719.751 C 9303.439,8719.483 9303.385,8719.457 9303.365,8719.446 C 9303.306,8719.408 9303.109,8718.984 9303.052,8718.598 C 9303.048,8718.568 9303.045,8718.532 9303.047,8718.494 C 9303.059,8718.172 9303.26,8717.653 9303.352,8717.445 C 9303.414,8717.47 9303.48,8717.488 9303.57,8717.506 C 9303.593,8717.51 9303.619,8717.516 9303.646,8717.521 C 9303.744,8717.554 9303.871,8717.602 9304.013,8717.667 C 9304.026,8717.671 9305.727,8718.273 9305.855,8718.106 C 9305.864,8718.088 9305.984,8718.065 9306.098,8718.1 C 9306.177,8718.123 9306.235,8718.166 9306.268,8718.235 C 9306.806,8719.309 9306.86,8719.298 9306.931,8719.278 C 9307.019,8719.247 9307.453,8719.323 9307.709,8719.382 C 9307.709,8719.382 9307.709,8719.382 9307.71,8719.382 C 9307.887,8719.42 9307.982,8719.525 9307.982,8719.558 C 9307.981,8719.708 9308.227,8720.158 9308.526,8720.345 C 9308.706,8720.457 9308.879,8720.638 9308.936,8720.731 C 9308.8,8720.742 9308.361,8720.777 9308.361,8720.777 C 9308.36,8720.777 9308.162,8720.794 9308.044,8720.805 C 9308.068,8720.759 9308.092,8720.719 9308.108,8720.708 C 9308.149,8720.714 9308.237,8720.663 9308.285,8720.592 C 9308.329,8720.528 9308.338,8720.453 9308.312,8720.384 C 9308.271,8720.272 9308.033,8719.931 9307.829,8719.933 C 9307.824,8719.933 9307.233,8719.971 9307.231,8720.204 C 9307.231,8720.204 9307.217,8720.251 9307.205,8720.288 C 9307.025,8720.128 9306.971,8720.154 9306.933,8720.184 C 9306.912,8720.204 9306.889,8720.223 9306.868,8720.243 C 9306.888,8720.277 9306.907,8720.312 9306.927,8720.347 C 9306.965,8720.408 9307.004,8720.532 9307.008,8720.593 C 9306.924,8720.609 9306.764,8720.599 9306.738,8720.565 C 9306.726,8720.506 9306.715,8720.448 9306.703,8720.389 C 9306.69,8720.259 9306.675,8720.113 9306.546,8720.115 C 9306.432,8720.116 9306.124,8720.279 9306.025,8720.486 C 9305.992,8720.558 9305.831,8720.984 9305.947,8721.132 C 9305.98,8721.175 9306.035,8721.194 9306.092,8721.18 C 9306.177,8721.16 9306.389,8721.183 9306.482,8721.25 C 9306.492,8721.261 9306.502,8721.271 9306.511,8721.283 C 9306.512,8721.297 9306.512,8721.312 9306.512,8721.33 C 9306.51,8721.525 9306.411,8721.91 9306.307,8721.965 C 9306.109,8722.069 9305.712,8722.256 9305.654,8722.269 C 9305.533,8722.305 9305.313,8722.555 9305.223,8722.864 C 9305.192,8722.979 9304.947,8723.178 9304.728,8723.356 C 9304.405,8723.62 9304.097,8723.87 9304.094,8724.097 C 9304.094,8724.101 9304.094,8724.114 9304.094,8724.117 C 9304.091,8724.358 9303.49,8724.876 9303.22,8725.042 C 9303.081,8725.144 9302.943,8725.245 9302.804,8725.347 C 9302.805,8725.347 9302.617,8725.48 9302.471,8725.585 C 9302.471,8725.583 9302.474,8725.575 9302.474,8725.573 C 9302.474,8725.514 9302.454,8725.493 9302.413,8725.474 C 9302.394,8725.465 9302.376,8725.457 9302.356,8725.45 C 9302.332,8725.471 9302.308,8725.493 9302.284,8725.515 C 9302.256,8725.539 9302.226,8725.565 9302.198,8725.59 C 9302.177,8725.602 9302.155,8725.613 9302.134,8725.625 C 9302.086,8725.682 9302.059,8725.826 9302.058,8725.996 C 9302.057,8726.094 9302.064,8726.2 9302.083,8726.303 C 9302.275,8727.405 9302.356,8727.405 9302.424,8727.406 C 9302.424,8727.406 9302.431,8727.406 9302.433,8727.406 C 9302.42,8727.524 9302.4,8727.64 9302.37,8727.671 C 9302.248,8727.732 9302.014,8727.813 9301.915,8727.779 C 9301.891,8727.758 9301.792,8727.516 9301.792,8727.516 C 9301.59,8727.002 9301.554,8726.937 9301.466,8726.928 C 9301.452,8726.927 9301.44,8726.926 9301.426,8726.924 C 9301.405,8726.942 9301.386,8726.959 9301.365,8726.977 C 9301.365,8726.977 9301.341,8726.997 9301.323,8727.012 C 9301.215,8726.852 9300.806,8726.672 9300.427,8726.684 C 9300.143,8726.693 9299.684,8726.58 9299.464,8726.526 C 9299.301,8726.486 9299.251,8726.473 9299.213,8726.549 C 9299.195,8726.549 9298.861,8726.613 9298.333,8726.626 C 9297.909,8726.635 9296.52,8726.689 9296.473,8726.909 C 9296.472,8726.91 9296.431,8727.012 9296.41,8727.062 C 9296.397,8727.06 9296.388,8727.052 9296.374,8727.055 C 9296.231,8727.076 9296.092,8727.302 9296.02,8727.627 C 9295.952,8727.939 9296.208,8728.505 9296.491,8728.843 C 9296.607,8728.982 9296.786,8729.152 9296.972,8729.158 C 9297.119,8729.164 9297.282,8729.233 9297.452,8729.304 C 9297.689,8729.405 9297.934,8729.51 9298.172,8729.451 C 9298.377,8729.4 9298.591,8729.252 9298.779,8729.12 C 9298.89,8729.041 9299.058,8728.922 9299.11,8728.926 C 9299.263,8728.94 9299.531,8728.991 9299.648,8729.031 C 9299.605,8729.113 9299.491,8729.279 9299.338,8729.378 C 9299.293,8729.457 9299.248,8729.537 9299.204,8729.617 C 9299.2,8729.643 9299.199,8729.672 9299.2,8729.701 C 9299.202,8729.92 9299.3,8730.188 9299.348,8730.242 C 9299.422,8730.322 9299.703,8730.408 9299.888,8730.359 C 9299.922,8730.349 9300.009,8730.369 9300.09,8730.44 C 9300.15,8730.494 9300.245,8730.614 9300.209,8730.813 C 9300.156,8731.102 9300.467,8731.545 9300.692,8731.87 C 9300.748,8731.955 9300.802,8732.039 9300.857,8732.125 C 9300.853,8732.383 9302.292,8732.697 9302.352,8732.709 C 9303.138,8732.882 9305.478,8732.721 9305.714,8732.581 C 9305.867,8732.596 9306.076,8732.613 9306.076,8732.613 C 9306.564,8732.67 9307.222,8732.962 9307.416,8733.072 C 9307.421,8733.159 9307.506,8733.256 9307.586,8733.326 C 9307.585,8733.326 9307.843,8733.406 9307.843,8733.406 C 9307.93,8733.427 9308.016,8733.451 9308.102,8733.472 C 9308.087,8733.527 9308.145,8733.742 9308.255,8733.831 C 9308.301,8733.868 9308.356,8733.881 9308.406,8733.869 C 9308.394,8733.87 9308.513,8733.952 9308.513,8733.952 C 9308.63,8734.041 9308.773,8734.155 9308.946,8734.143 C 9309.223,8734.126 9309.771,8734.274 9309.795,8734.373 C 9309.834,8734.466 9309.874,8734.559 9309.913,8734.65 C 9309.96,8734.744 9310.052,8734.926 9310.051,8735.007 C 9310.051,8735.021 9310.047,8735.032 9310.043,8735.038 C 9310.008,8735.081 9309.747,8735.421 9309.746,8735.593 C 9309.746,8735.617 9309.752,8735.638 9309.764,8735.654 C 9309.764,8735.654 9309.773,8735.67 9309.781,8735.684 C 9309.744,8735.781 9309.723,8735.894 9309.722,8735.992 C 9309.722,8736.016 9309.722,8736.039 9309.726,8736.059 C 9309.747,8736.257 9309.863,8736.29 9309.913,8736.296 C 9309.985,8736.308 9310.058,8736.321 9310.13,8736.335 C 9310.522,8736.413 9310.807,8736.458 9310.924,8736.345 C 9311.051,8736.302 9312.108,8736.574 9312.685,8736.906 C 9313.095,8737.142 9313.563,8737.827 9313.755,8738.142 C 9313.555,8738.201 9313.043,8738.712 9312.63,8739.288 C 9312.056,8739.688 9311.485,8740.088 9310.921,8740.482 C 9310.058,8740.961 9309.079,8741.681 9308.739,8742.095 C 9308.356,8742.558 9307.669,8743.279 9307.547,8743.317 C 9307.399,8743.314 9306.367,8743.657 9305.568,8744.041 C 9304.843,8744.391 9304.576,8745.189 9304.547,8745.389 C 9304.544,8745.397 9304.537,8745.394 9304.535,8745.402 C 9304.537,8745.403 9304.54,8745.405 9304.543,8745.406 C 9304.542,8745.415 9304.533,8745.442 9304.533,8745.448 C 9304.533,8745.45 9304.533,8745.452 9304.534,8745.454 C 9304.556,8745.554 9304.579,8745.655 9304.601,8745.755 C 9304.601,8745.755 9304.618,8745.711 9304.626,8745.687 C 9304.636,8745.731 9304.647,8745.773 9304.662,8745.81 C 9304.639,8745.84 9304.61,8745.874 9304.61,8745.874 C 9304.476,8746.038 9304.426,8746.096 9304.429,8746.145 C 9304.43,8746.165 9304.441,8746.182 9304.454,8746.204 C 9304.454,8746.204 9304.478,8746.239 9304.492,8746.259 C 9304.415,8746.395 9304.28,8746.597 9304.227,8746.655 C 9304.206,8746.643 9304.197,8746.618 9304.176,8746.616 C 9304.104,8746.606 9304.04,8746.646 9304.006,8746.723 C 9303.962,8746.819 9303.846,8746.987 9303.805,8747.013 C 9303.803,8747.008 9303.791,8747.004 9303.784,8746.999 C 9303.785,8746.975 9303.786,8746.964 9303.783,8746.92 C 9303.774,8746.795 9303.748,8746.625 9303.668,8746.588 C 9303.662,8746.584 9303.656,8746.582 9303.649,8746.579 C 9303.649,8746.579 9303.646,8746.581 9303.644,8746.58 C 9303.62,8746.523 9303.574,8746.385 9303.55,8746.067 C 9303.549,8746.058 9303.549,8746.048 9303.548,8746.041 C 9303.514,8745.54 9303.497,8744.69 9303.521,8744.488 C 9303.556,8744.489 9303.588,8744.48 9303.612,8744.449 C 9303.624,8744.435 9303.635,8744.408 9303.633,8744.371 C 9303.631,8744.338 9303.616,8744.295 9303.579,8744.242 C 9303.355,8743.927 9303.267,8743.836 9303.224,8743.807 C 9303.253,8743.626 9303.29,8743.38 9303.355,8742.956 C 9303.425,8742.169 9303.503,8741.38 9303.587,8740.589 C 9303.659,8740.339 9303.688,8740.076 9303.678,8739.823 C 9303.656,8739.259 9303.438,8738.74 9303.077,8738.512 C 9302.764,8738.312 9302.332,8737.824 9302.072,8737.535 C 9301.897,8737.342 9301.834,8737.271 9301.783,8737.269 C 9301.752,8737.247 9301.682,8737.179 9301.585,8737.041 C 9301.46,8736.866 9301.278,8736.489 9301.271,8736.3 C 9301.269,8736.259 9301.275,8736.228 9301.291,8736.208 C 9301.377,8736.1 9301.439,8735.837 9301.516,8735.503 C 9301.516,8735.503 9301.561,8735.335 9301.584,8735.248 C 9301.641,8735.274 9301.704,8735.294 9301.751,8735.255 C 9301.768,8735.24 9301.783,8735.226 9301.8,8735.212 C 9301.788,8735.176 9301.777,8735.14 9301.765,8735.103 C 9301.766,8735.107 9301.767,8735.111 9301.768,8735.114 C 9301.764,8735.073 9301.84,8734.881 9302.051,8734.818 C 9302.396,8734.717 9302.5,8733.439 9302.465,8733.334 C 9302.463,8733.326 9302.461,8733.317 9302.458,8733.309 C 9302.439,8733.295 9302.421,8733.282 9302.402,8733.267 C 9302.367,8733.235 9302.332,8733.202 9302.298,8733.169 C 9302.124,8733 9301.861,8732.744 9301.641,8732.752 C 9301.358,8732.762 9300.743,8732.647 9300.676,8732.551 C 9300.628,8732.442 9300.453,8732.355 9300.168,8732.225 C 9300.049,8732.17 9299.869,8732.088 9299.838,8732.05 C 9299.897,8731.763 9299.908,8731.694 9299.802,8731.67 C 9299.771,8731.662 9299.739,8731.656 9299.708,8731.649 C 9299.708,8731.649 9299.703,8731.669 9299.699,8731.686 C 9299.689,8731.666 9299.675,8731.651 9299.65,8731.583 C 9299.556,8731.314 9299.016,8730.592 9298.611,8730.504 C 9298.236,8730.422 9297.561,8730.197 9297.45,8730.107 C 9297.449,8730.068 9297.435,8730.023 9297.405,8729.975 C 9297.298,8729.797 9297.006,8729.578 9296.616,8729.512 C 9296.196,8729.44 9295.526,8729.247 9295.347,8729.174 L 9295.347,8729.173 C 9295.323,8729.031 9295.037,8728.981 9294.804,8728.963 C 9294.491,8728.938 9293.824,8728.063 9293.643,8727.434 C 9293.451,8726.768 9292.579,8726.012 9292.571,8726.008 C 9292.568,8726.006 9292.371,8725.888 9292.258,8725.931 C 9292.17,8725.965 9292.029,8726.158 9292.003,8726.314 C 9292.003,8726.314 9292.003,8726.321 9292.001,8726.321 C 9291.961,8726.175 9291.804,8725.59 9291.661,8725.55 C 9291.644,8725.546 9291.627,8725.54 9291.61,8725.536 C 9291.61,8725.536 9291.602,8725.54 9291.599,8725.542 C 9291.574,8725.515 9291.536,8725.444 9291.541,8725.298 C 9291.541,8725.282 9291.542,8725.264 9291.545,8725.245 C 9291.601,8724.704 9291.635,8724.417 9291.643,8724.265 C 9291.652,8724.093 9291.631,8724.091 9291.581,8724.085 C 9291.533,8724.082 9291.428,8724.05 9291.347,8724.02 C 9291.419,8723.976 9291.467,8723.939 9291.469,8723.905 C 9291.469,8723.89 9291.465,8723.877 9291.456,8723.859 C 9291.442,8723.834 9291.429,8723.809 9291.416,8723.784 C 9291.415,8723.784 9291.391,8723.797 9291.367,8723.808 C 9291.297,8723.726 9291.162,8723.43 9291.174,8723.269 C 9291.176,8723.251 9291.177,8723.236 9291.183,8723.222 C 9291.255,8723.019 9291.448,8722.634 9291.523,8722.55 C 9291.601,8722.554 9291.776,8722.558 9291.844,8722.503 C 9291.853,8722.497 9291.861,8722.491 9291.869,8722.484 C 9291.983,8722.186 9292.098,8721.886 9292.216,8721.586 C 9292.282,8721.431 9292.504,8721.097 9292.74,8720.737 C 9293.246,8719.965 9293.582,8719.432 9293.567,8719.216 C 9293.54,8718.829 9293.735,8717.991 9293.893,8717.921 C 9293.973,8717.886 9294.037,8717.806 9294.085,8717.681 C 9294.237,8717.271 9294.228,8716.333 9293.934,8716.009 C 9293.818,8715.864 9293.703,8715.72 9293.589,8715.577 C 9293.263,8715.147 9293.08,8714.915 9292.9,8714.96 C 9292.566,8715.045 9292.387,8715.093 9292.293,8715.126 C 9292.29,8715.126 9292.29,8715.126 9292.287,8715.126 C 9292.287,8715.127 9292.287,8715.128 9292.287,8715.128 C 9292.266,8715.136 9292.26,8715.142 9292.245,8715.149 C 9292.193,8715.156 9292.162,8715.163 9292.099,8715.166 C 9291.949,8715.172 9291.751,8715.176 9291.593,8715.176 C 9291.611,8715.157 9291.622,8715.142 9291.626,8715.131 C 9291.636,8715.11 9291.645,8715.09 9291.654,8715.068 C 9291.64,8715.06 9291.627,8715.052 9291.613,8715.046 C 9291.572,8715.025 9291.531,8715.005 9291.49,8714.984 C 9291.489,8714.985 9291.28,8714.968 9291.195,8714.962 C 9291.214,8714.957 9291.232,8714.953 9291.252,8714.949 C 9291.433,8714.912 9291.717,8714.755 9291.943,8714.629 C 9291.943,8714.629 9292.117,8714.539 9292.167,8714.514 C 9292.19,8714.545 9292.229,8714.544 9292.248,8714.537 C 9292.358,8714.496 9292.373,8714.368 9292.386,8714.256 C 9292.4,8714.135 9292.547,8713.826 9292.72,8713.645 C 9292.784,8713.577 9292.844,8713.536 9292.896,8713.524 C 9293.064,8713.486 9294.074,8713.186 9294.208,8712.921 C 9294.299,8712.746 9294.597,8712.43 9294.665,8712.441 C 9294.789,8712.461 9295.105,8712.418 9295.264,8712.272 z M 9306.055,8720.987 C 9306.052,8720.988 9306.048,8720.988 9306.046,8720.988 C 9306.049,8720.987 9306.051,8720.988 9306.055,8720.987 z M 9307.748,8719.189 C 9307.748,8719.188 9307.748,8719.189 9307.75,8719.189 C 9307.749,8719.189 9307.748,8719.189 9307.748,8719.189 L 9307.748,8719.189 z"
   id="path458"
   style="fill:#c6c7c8" />
						</g>
						<g
   id="g460">
							<path
   d="M 9303.764,8710.675 C 9303.709,8710.723 9303.693,8710.806 9303.689,8710.867 C 9303.685,8710.93 9303.692,8711.013 9303.742,8711.051 C 9303.724,8711.039 9303.721,8711.015 9303.722,8711.004 C 9303.703,8711.078 9303.715,8711.125 9303.751,8711.154 C 9303.741,8711.132 9303.731,8711.11 9303.722,8711.089 C 9303.716,8711.152 9303.614,8711.428 9303.559,8711.491 C 9303.534,8711.496 9303.507,8711.506 9303.482,8711.524 C 9303.387,8711.602 9303.33,8711.796 9303.325,8711.883 C 9303.325,8711.897 9303.324,8711.911 9303.323,8711.925 C 9303.333,8711.937 9303.343,8711.948 9303.353,8711.959 C 9303.405,8712.014 9303.519,8712.028 9304.659,8711.896 C 9304.722,8711.889 9304.784,8711.883 9304.847,8711.876 C 9304.981,8711.844 9305.115,8711.812 9305.247,8711.78 C 9305.247,8711.78 9305.244,8711.689 9305.244,8711.688 C 9305.248,8711.584 9305.121,8711.537 9305.116,8711.533 C 9305.116,8711.533 9305.054,8711.527 9304.991,8711.521 C 9304.966,8711.441 9304.936,8711.304 9304.939,8711.228 C 9304.94,8711.211 9304.942,8711.198 9304.948,8711.189 C 9305,8711.126 9305.03,8711.057 9305.033,8710.995 C 9305.034,8710.971 9305.033,8710.947 9305.023,8710.925 C 9305.017,8710.908 9305.011,8710.891 9305.005,8710.873 C 9304.975,8710.864 9304.944,8710.855 9304.915,8710.847 C 9304.92,8710.848 9304.926,8710.848 9304.931,8710.848 C 9304.901,8710.834 9304.869,8710.821 9304.839,8710.807 C 9304.71,8710.745 9304.495,8710.645 9304.323,8710.628 C 9304.185,8710.615 9303.854,8710.595 9303.764,8710.675 z M 9304.287,8710.827 C 9304.433,8710.84 9304.636,8710.935 9304.754,8710.993 C 9304.754,8710.993 9304.8,8711.008 9304.842,8711.025 C 9304.833,8711.042 9304.819,8711.066 9304.819,8711.066 C 9304.779,8711.113 9304.762,8711.179 9304.759,8711.249 C 9304.75,8711.434 9304.834,8711.651 9304.836,8711.654 C 9304.836,8711.654 9304.843,8711.67 9304.848,8711.68 C 9304.834,8711.681 9304.66,8711.699 9304.66,8711.699 C 9304.416,8711.725 9303.725,8711.808 9303.524,8711.8 C 9303.54,8711.748 9303.561,8711.693 9303.578,8711.678 C 9303.65,8711.719 9303.726,8711.561 9303.757,8711.5 C 9303.809,8711.398 9303.967,8711.053 9303.863,8710.983 C 9303.873,8711.003 9303.883,8711.023 9303.892,8711.043 C 9303.899,8711.017 9303.919,8710.938 9303.859,8710.887 C 9303.867,8710.899 9303.872,8710.856 9303.874,8710.828 C 9303.928,8710.816 9304.071,8710.806 9304.287,8710.827 z M 9303.763,8710.675 L 9303.763,8710.675 L 9303.763,8710.675 z"
   id="path462"
   style="fill:#c6c7c8" />
						</g>
						<g
   id="g464">
							<path
   d="M 9299.564,8712.768 L 9299.564,8712.768 C 9299.516,8712.844 9299.468,8712.92 9299.42,8712.997 C 9299.255,8713.25 9299.184,8713.368 9299.191,8713.453 C 9299.193,8713.47 9299.195,8713.486 9299.196,8713.503 C 9299.215,8713.511 9299.232,8713.52 9299.25,8713.528 C 9299.415,8713.577 9300.131,8713.034 9300.137,8713.028 C 9300.244,8712.944 9300.3,8712.837 9300.294,8712.725 C 9300.287,8712.577 9300.178,8712.463 9300.074,8712.439 C 9299.907,8712.398 9299.684,8712.544 9299.564,8712.768 z M 9300,8712.629 C 9300.048,8712.64 9300.108,8712.707 9300.111,8712.773 C 9300.111,8712.778 9300.111,8712.782 9300.11,8712.788 C 9300.108,8712.811 9300.095,8712.845 9300.048,8712.882 C 9299.877,8713.017 9299.598,8713.198 9299.435,8713.288 C 9299.477,8713.22 9299.525,8713.142 9299.565,8713.081 C 9299.617,8712.999 9299.668,8712.915 9299.719,8712.833 C 9299.796,8712.691 9299.927,8712.611 9300,8712.629 z"
   id="path466"
   style="fill:#c6c7c8" />
						</g>
						<g
   id="g468">
							<path
   d="M 9306.677,8712.288 C 9306.645,8712.321 9306.598,8712.394 9306.651,8712.529 C 9306.699,8712.672 9306.748,8712.816 9306.796,8712.959 C 9307.056,8713.762 9307.081,8713.793 9307.169,8713.791 C 9307.324,8713.787 9307.496,8713.335 9307.496,8713.33 C 9307.493,8713.339 9307.525,8713.361 9307.535,8713.377 C 9307.578,8713.447 9307.62,8713.52 9307.663,8713.59 C 9307.679,8713.506 9307.694,8713.421 9307.71,8713.336 C 9307.725,8713.253 9307.593,8712.647 9307.248,8712.424 C 9306.963,8712.24 9306.771,8712.196 9306.677,8712.288 z M 9306.81,8712.408 C 9306.809,8712.435 9306.922,8712.451 9307.149,8712.596 C 9307.328,8712.711 9307.433,8712.967 9307.485,8713.145 C 9307.477,8713.145 9307.47,8713.142 9307.463,8713.143 C 9307.4,8713.151 9307.348,8713.195 9307.325,8713.264 C 9307.296,8713.34 9307.236,8713.45 9307.188,8713.525 C 9307.127,8713.376 9307.033,8713.083 9306.969,8712.887 C 9306.918,8712.739 9306.868,8712.59 9306.819,8712.443 C 9306.82,8712.443 9306.82,8712.443 9306.821,8712.444 C 9306.82,8712.442 9306.812,8712.41 9306.81,8712.408 z"
   id="path470"
   style="fill:#c6c7c8" />
						</g>
						<g
   id="g472">
							<path
   d="M 9302.729,8712.574 C 9302.728,8712.576 9302.726,8712.578 9302.724,8712.58 C 9302.72,8712.6 9302.716,8712.619 9302.711,8712.639 C 9302.691,8712.682 9302.671,8712.723 9302.651,8712.766 C 9302.537,8712.996 9302.451,8713.18 9302.474,8713.292 C 9302.477,8713.305 9302.479,8713.318 9302.482,8713.332 C 9302.501,8713.346 9302.52,8713.359 9302.539,8713.374 C 9302.64,8713.42 9302.848,8713.358 9303.309,8713.148 C 9303.327,8713.14 9303.344,8713.131 9303.362,8713.123 C 9303.49,8713.067 9303.504,8712.98 9303.505,8712.943 C 9303.505,8712.873 9303.457,8712.812 9303.384,8712.798 C 9303.396,8712.8 9303.276,8712.698 9303.276,8712.697 C 9303.114,8712.55 9303.03,8712.48 9302.954,8712.481 C 9302.877,8712.482 9302.778,8712.5 9302.729,8712.574 z M 9302.929,8712.68 L 9302.929,8712.68 C 9302.929,8712.686 9303.145,8712.856 9303.145,8712.856 C 9303.145,8712.856 9303.228,8712.917 9303.28,8712.957 C 9303.274,8712.961 9303.257,8712.968 9303.257,8712.968 C 9302.88,8713.142 9302.728,8713.187 9302.664,8713.193 C 9302.681,8713.109 9302.773,8712.92 9302.812,8712.839 C 9302.851,8712.761 9302.862,8712.728 9302.873,8712.691 C 9302.893,8712.687 9302.929,8712.68 9302.929,8712.68 z"
   id="path474"
   style="fill:#c6c7c8" />
						</g>
						<g
   id="g476">
							<path
   d="M 9300.639,8713.563 C 9300.641,8713.56 9300.642,8713.556 9300.643,8713.553 C 9300.603,8713.61 9300.337,8713.767 9300.175,8713.862 C 9299.839,8714.06 9299.763,8714.113 9299.742,8714.191 C 9299.738,8714.209 9299.734,8714.225 9299.73,8714.243 C 9299.742,8714.256 9299.752,8714.269 9299.763,8714.283 C 9299.818,8714.338 9300.409,8714.771 9300.754,8714.767 C 9300.87,8714.766 9301.352,8714.715 9301.416,8714.614 C 9301.398,8714.615 9301.382,8714.617 9301.364,8714.619 C 9301.494,8714.547 9301.624,8714.473 9301.753,8714.4 C 9301.769,8714.375 9301.784,8714.349 9301.801,8714.323 C 9301.836,8714.216 9301.756,8714.099 9301.615,8713.908 C 9301.565,8713.83 9301.515,8713.75 9301.466,8713.672 C 9301.499,8713.466 9301.17,8713.289 9301.05,8713.27 C 9300.897,8713.242 9300.713,8713.374 9300.639,8713.563 z M 9300.241,8714.029 C 9300.606,8713.812 9300.769,8713.71 9300.809,8713.607 C 9300.842,8713.519 9300.927,8713.451 9300.989,8713.461 C 9301.094,8713.481 9301.284,8713.622 9301.283,8713.681 C 9301.282,8713.686 9301.282,8713.691 9301.281,8713.696 C 9301.274,8713.784 9301.344,8713.883 9301.461,8714.045 C 9301.514,8714.114 9301.586,8714.218 9301.608,8714.274 C 9301.383,8714.383 9301.281,8714.455 9301.24,8714.504 C 9301.146,8714.53 9300.967,8714.571 9300.783,8714.573 C 9300.559,8714.578 9300.146,8714.311 9299.984,8714.192 C 9300.078,8714.133 9300.241,8714.028 9300.241,8714.029 z"
   id="path478"
   style="fill:#c6c7c8" />
						</g>
						<g
   id="g480">
							<path
   d="M 9304.434,8713.035 C 9304.417,8713.056 9304.402,8713.076 9304.385,8713.097 C 9304.243,8713.164 9304.102,8713.233 9303.96,8713.301 C 9303.585,8713.466 9303.485,8713.516 9303.444,8713.571 C 9303.414,8713.616 9303.255,8713.682 9303.212,8713.686 C 9303.184,8713.688 9303.154,8713.69 9303.126,8713.693 C 9303.12,8713.724 9303.114,8713.756 9303.107,8713.786 C 9303.105,8713.792 9303.105,8713.796 9303.104,8713.8 C 9303.099,8713.889 9303.17,8713.897 9303.458,8713.916 C 9303.459,8713.925 9303.461,8713.934 9303.46,8713.948 C 9303.456,8714.042 9303.408,8714.213 9303.376,8714.253 C 9303.367,8714.263 9303.359,8714.273 9303.352,8714.282 C 9303.341,8714.302 9303.331,8714.32 9303.321,8714.339 C 9303.309,8714.54 9304.564,8714.622 9304.577,8714.626 C 9304.813,8714.641 9304.917,8714.675 9304.969,8714.7 C 9304.969,8714.701 9304.967,8714.706 9304.967,8714.706 C 9304.966,8714.712 9304.966,8714.717 9304.965,8714.724 C 9304.963,8714.802 9305.035,8714.847 9305.195,8714.945 C 9305.268,8714.997 9305.341,8715.049 9305.413,8715.1 C 9305.394,8715.106 9305.265,8715.197 9305.209,8715.211 C 9305.147,8715.225 9305.106,8715.28 9305.105,8715.346 C 9305.105,8715.353 9305.105,8715.361 9305.107,8715.368 C 9305.114,8715.436 9305.187,8715.565 9305.281,8715.588 C 9305.261,8715.579 9305.243,8715.571 9305.243,8715.571 C 9305.266,8715.618 9305.286,8715.776 9305.282,8715.897 C 9305.281,8715.959 9305.272,8716.01 9305.257,8716.032 C 9305.233,8716.046 9305.178,8716.089 9305.176,8716.183 C 9305.175,8716.212 9305.18,8716.246 9305.193,8716.287 C 9305.203,8716.329 9305.226,8716.377 9305.254,8716.427 C 9305.187,8716.431 9305.13,8716.473 9305.112,8716.542 C 9305.109,8716.556 9305.106,8716.571 9305.105,8716.586 C 9305.099,8716.786 9305.365,8717.104 9305.779,8717.283 C 9306.263,8717.49 9307.154,8717.474 9307.486,8717.308 C 9307.538,8717.253 9307.589,8717.201 9307.639,8717.146 C 9307.714,8716.867 9307.545,8716.198 9307.473,8716.039 C 9307.441,8715.967 9307.456,8715.93 9307.463,8715.924 C 9307.616,8715.976 9307.79,8715.445 9307.793,8715.44 C 9307.874,8715.17 9307.194,8714.879 9307.188,8714.878 C 9307.069,8714.838 9306.947,8714.557 9306.948,8714.477 C 9306.951,8714.235 9306.269,8714.091 9306.263,8714.091 C 9306.171,8714.075 9306.073,8713.972 9306.061,8713.94 C 9306.06,8713.937 9306.059,8713.934 9306.057,8713.932 C 9306.064,8713.917 9306.071,8713.903 9306.078,8713.889 C 9306.024,8713.807 9305.264,8713.534 9305.071,8713.586 C 9304.99,8713.607 9304.85,8713.375 9304.789,8713.276 C 9304.752,8713.224 9304.716,8713.172 9304.679,8713.119 C 9304.583,8713.028 9304.5,8713 9304.434,8713.035 z M 9304.013,8713.482 C 9304.32,8713.347 9304.443,8713.289 9304.497,8713.236 C 9304.518,8713.254 9304.548,8713.272 9304.548,8713.273 L 9304.629,8713.396 C 9304.743,8713.58 9304.899,8713.834 9305.101,8713.778 C 9305.223,8713.744 9305.768,8713.943 9305.904,8714.011 C 9305.942,8714.13 9306.093,8714.267 9306.227,8714.286 C 9306.404,8714.313 9306.725,8714.444 9306.765,8714.505 C 9306.765,8714.507 9306.765,8714.51 9306.765,8714.512 C 9306.763,8714.632 9306.913,8714.995 9307.125,8715.068 C 9307.293,8715.126 9307.589,8715.33 9307.612,8715.402 C 9307.575,8715.495 9307.471,8715.702 9307.429,8715.738 C 9307.388,8715.746 9307.345,8715.761 9307.315,8715.801 C 9307.28,8715.846 9307.264,8715.901 9307.263,8715.962 C 9307.263,8716.015 9307.274,8716.07 9307.298,8716.127 C 9307.359,8716.26 9307.466,8716.717 9307.465,8716.976 C 9307.464,8717.024 9307.461,8717.065 9307.452,8717.096 C 9307.382,8717.219 9306.409,8717.336 9305.856,8717.099 C 9305.512,8716.95 9305.351,8716.737 9305.31,8716.633 C 9305.349,8716.638 9305.4,8716.646 9305.447,8716.653 C 9305.507,8716.695 9305.568,8716.722 9305.627,8716.712 C 9305.655,8716.706 9305.685,8716.701 9305.713,8716.696 C 9305.725,8716.661 9305.737,8716.626 9305.749,8716.591 C 9305.748,8716.548 9305.744,8716.491 9305.538,8716.454 C 9305.511,8716.434 9305.496,8716.434 9305.459,8716.384 C 9305.39,8716.29 9305.363,8716.206 9305.364,8716.18 C 9305.364,8716.178 9305.365,8716.177 9305.364,8716.175 C 9305.444,8716.135 9305.469,8716.02 9305.472,8715.9 C 9305.477,8715.731 9305.436,8715.552 9305.436,8715.549 C 9305.424,8715.503 9305.399,8715.4 9305.311,8715.405 C 9305.316,8715.405 9305.319,8715.401 9305.319,8715.397 C 9305.319,8715.389 9305.314,8715.385 9305.31,8715.374 C 9305.421,8715.322 9305.591,8715.205 9305.594,8715.063 C 9305.594,8715.061 9305.594,8715.061 9305.594,8715.059 C 9305.594,8714.96 9305.49,8714.892 9305.296,8714.772 C 9305.296,8714.772 9305.221,8714.72 9305.176,8714.691 C 9305.176,8714.682 9305.193,8714.677 9305.193,8714.67 C 9305.193,8714.664 9305.193,8714.661 9305.192,8714.658 C 9305.182,8714.496 9304.866,8714.442 9304.602,8714.427 C 9304.261,8714.406 9303.761,8714.317 9303.562,8714.271 C 9303.616,8714.147 9303.642,8713.989 9303.644,8713.944 C 9303.644,8713.942 9303.644,8713.94 9303.644,8713.938 C 9303.653,8713.76 9303.578,8713.726 9303.527,8713.722 C 9303.546,8713.706 9303.572,8713.696 9303.586,8713.68 C 9303.576,8713.69 9304.014,8713.481 9304.013,8713.482 z"
   id="path482"
   style="fill:#c6c7c8" />
						</g>
						<g
   id="g484">
							<path
   d="M 9315.809,8717.184 C 9315.808,8717.186 9315.807,8717.186 9315.806,8717.187 C 9315.803,8717.202 9315.8,8717.217 9315.797,8717.231 C 9315.724,8717.315 9315.651,8717.398 9315.578,8717.482 C 9315.356,8717.718 9315.183,8717.911 9315.134,8718.019 C 9315.106,8718.077 9315.113,8718.143 9315.151,8718.204 C 9315.289,8718.422 9315.863,8718.545 9316.056,8718.556 C 9316.244,8718.564 9317.194,8718.411 9317.222,8718.22 C 9317.225,8718.197 9317.226,8718.177 9317.225,8718.158 C 9317.22,8718.096 9317.19,8718.074 9317.16,8718.054 C 9317.151,8717.982 9317.123,8717.757 9317.122,8717.757 C 9317.119,8717.708 9317.092,8717.661 9317.048,8717.624 C 9316.921,8717.517 9316.619,8717.494 9316.501,8717.515 C 9316.419,8717.529 9316.13,8717.372 9316.05,8717.294 C 9316.013,8717.257 9315.991,8717.253 9315.964,8717.23 C 9315.96,8717.226 9315.961,8717.22 9315.956,8717.215 C 9315.956,8717.215 9315.951,8717.22 9315.951,8717.221 C 9315.9,8717.183 9315.85,8717.146 9315.809,8717.184 z M 9315.31,8718.105 C 9315.353,8718.025 9315.567,8717.792 9315.723,8717.623 C 9315.813,8717.525 9315.869,8717.465 9315.911,8717.414 C 9315.914,8717.418 9315.925,8717.427 9315.925,8717.427 C 9316.006,8717.507 9316.369,8717.739 9316.554,8717.707 C 9316.665,8717.687 9316.897,8717.726 9316.939,8717.768 C 9316.94,8717.798 9316.942,8717.827 9316.944,8717.853 C 9316.955,8718.024 9316.972,8718.112 9316.993,8718.161 C 9316.861,8718.229 9316.285,8718.37 9316.046,8718.358 C 9315.768,8718.343 9315.344,8718.188 9315.31,8718.105 z"
   id="path486"
   style="fill:#c6c7c8" />
						</g>
						<g
   id="g488">
							<radialGradient
   id="XMLID_106_"
   cx="9320.2285"
   cy="8721.0361"
   r="0.91219997"
   gradientUnits="userSpaceOnUse">
								<stop
   offset="0.0056"
   style="stop-color:#82B826"
   id="stop491" />
								<stop
   offset="1"
   style="stop-color:#6EA11C"
   id="stop493" />
							</radialGradient>
							<path
   enable-background="new    "
   d="M 9319.869,8720.103 C 9320.129,8719.967 9320.426,8719.934 9320.531,8720.03 C 9320.635,8720.126 9320.935,8720.752 9320.96,8721.211 C 9320.985,8721.67 9320.578,8722.101 9320.558,8722.099 C 9320.539,8722.099 9320.389,8722.068 9320.268,8722.031 C 9320.147,8721.996 9319.872,8721.771 9319.922,8721.613 C 9319.973,8721.455 9320.055,8721.023 9319.994,8721.006 C 9319.933,8720.986 9319.668,8720.961 9319.536,8720.988 C 9319.406,8721.016 9319.609,8720.236 9319.869,8720.103 z"
   id="path495"
   style="fill:url(#radialGradient4895)" />
							<path
   d="M 9319.813,8720.016 C 9319.582,8720.139 9319.388,8720.688 9319.401,8720.927 C 9319.403,8720.957 9319.408,8720.983 9319.417,8721.001 C 9319.43,8721.027 9319.442,8721.055 9319.455,8721.081 C 9319.493,8721.081 9319.531,8721.081 9319.569,8721.081 C 9319.661,8721.061 9319.827,8721.074 9319.914,8721.088 C 9319.913,8721.192 9319.874,8721.432 9319.828,8721.574 C 9319.828,8721.574 9319.869,8721.807 9319.869,8721.807 C 9319.952,8721.951 9320.137,8722.087 9320.249,8722.12 C 9320.353,8722.143 9320.458,8722.169 9320.563,8722.192 C 9320.689,8722.198 9321.083,8721.663 9321.057,8721.215 C 9321.033,8720.744 9320.726,8720.087 9320.59,8719.963 C 9320.43,8719.817 9320.079,8719.878 9319.813,8720.016 z M 9319.923,8720.189 C 9319.924,8720.189 9319.924,8720.189 9319.923,8720.189 C 9320.181,8720.054 9320.422,8720.052 9320.47,8720.094 C 9320.542,8720.161 9320.831,8720.737 9320.861,8721.187 C 9320.861,8721.193 9320.862,8721.197 9320.862,8721.202 C 9320.883,8721.576 9320.592,8721.922 9320.521,8721.995 C 9320.465,8721.982 9320.287,8721.937 9320.288,8721.937 C 9320.236,8721.923 9320.098,8721.828 9320.037,8721.726 C 9320.031,8721.701 9320.024,8721.673 9320.017,8721.648 C 9320.02,8721.642 9320.125,8721.271 9320.112,8721.068 C 9320.11,8721.029 9320.102,8720.994 9320.088,8720.972 C 9320.08,8720.959 9320.073,8720.947 9320.066,8720.934 C 9320.048,8720.927 9320.031,8720.919 9320.013,8720.912 C 9319.952,8720.893 9319.755,8720.877 9319.599,8720.889 C 9319.607,8720.723 9319.752,8720.277 9319.923,8720.189 z M 9319.813,8720.017 C 9319.813,8720.017 9319.813,8720.017 9319.813,8720.017 C 9319.813,8720.017 9319.813,8720.017 9319.813,8720.017 z"
   id="path497"
   style="fill:#c6c7c8" />
						</g>
						<g
   id="g499">
							<path
   d="M 9322.198,8720.694 C 9322.352,8720.946 9322.813,8721.021 9323.016,8721.005 C 9323.048,8721.002 9323.152,8720.994 9323.161,8720.91 C 9323.153,8720.924 9323.146,8720.937 9323.14,8720.95 C 9323.18,8720.929 9323.393,8720.933 9323.502,8720.955 C 9323.508,8720.973 9323.575,8721.129 9323.626,8721.243 C 9323.709,8721.437 9323.805,8721.657 9323.921,8721.779 C 9323.913,8721.783 9323.762,8721.763 9323.727,8721.732 C 9323.749,8721.702 9323.72,8721.63 9323.66,8721.564 C 9323.583,8721.479 9323.461,8721.41 9323.374,8721.403 C 9323.311,8721.398 9323.278,8721.426 9323.034,8721.652 C 9322.713,8721.949 9322.167,8722.455 9321.751,8722.591 C 9321.422,8722.696 9321.062,8722.841 9320.94,8722.977 C 9320.859,8722.972 9320.747,8722.968 9320.747,8722.968 C 9320.585,8722.96 9320.31,8723.13 9320.255,8723.186 C 9320.24,8723.201 9320.226,8723.215 9320.21,8723.23 C 9320.218,8723.259 9320.225,8723.289 9320.231,8723.318 C 9320.293,8723.451 9320.586,8723.468 9320.589,8723.469 C 9320.59,8723.47 9320.589,8723.47 9320.589,8723.47 C 9320.591,8723.499 9320.612,8723.654 9320.617,8723.781 C 9320.618,8723.824 9320.619,8723.863 9320.616,8723.894 C 9320.608,8723.948 9320.336,8724.066 9319.87,8724.05 C 9319.72,8724.044 9319.591,8724.152 9319.486,8724.366 C 9319.341,8724.663 9319.24,8725.214 9319.248,8725.608 C 9319.251,8725.796 9319.28,8725.946 9319.34,8726.022 C 9319.347,8726.043 9319.353,8726.063 9319.36,8726.085 C 9319.345,8726.196 9319.127,8726.339 9318.984,8726.435 C 9318.943,8726.462 9318.903,8726.49 9318.862,8726.518 C 9318.665,8726.663 9318.549,8726.98 9318.543,8727.143 C 9318.514,8727.156 9318.251,8727.273 9318.251,8727.273 C 9317.886,8727.419 9317.335,8727.644 9316.898,8727.988 C 9316.536,8728.277 9315.622,8729.073 9315.621,8729.22 C 9315.621,8729.283 9315.662,8729.351 9315.699,8729.396 C 9315.714,8729.463 9315.757,8730.007 9315.79,8730.871 C 9315.791,8730.891 9315.792,8730.91 9315.793,8730.93 C 9315.793,8730.931 9316.634,8731.321 9316.694,8731.346 C 9317.031,8732.08 9317.286,8732.715 9317.299,8732.776 C 9317.301,8732.785 9317.303,8732.794 9317.305,8732.803 C 9317.314,8732.812 9317.323,8732.822 9317.331,8732.83 C 9317.414,8732.901 9318.346,8733.019 9318.685,8732.961 C 9318.88,8732.93 9318.978,8732.928 9319.033,8732.932 C 9319.055,8732.973 9319.138,8733.02 9319.516,8733.008 C 9319.655,8733.003 9319.779,8732.856 9319.888,8732.726 C 9319.924,8732.688 9319.96,8732.649 9319.996,8732.61 C 9320.104,8732.579 9320.948,8732.667 9321.31,8732.731 C 9321.536,8732.771 9321.626,8732.773 9321.679,8732.735 C 9321.773,8732.735 9321.934,8732.733 9321.995,8732.733 C 9321.989,8732.747 9321.973,8732.805 9321.973,8732.805 C 9321.973,8732.807 9321.973,8732.809 9321.973,8732.811 C 9321.97,8732.861 9321.984,8732.93 9322.412,8733.004 C 9322.485,8733.053 9322.606,8733.555 9322.61,8733.797 C 9322.613,8733.86 9322.613,8733.986 9322.725,8733.983 C 9322.753,8733.983 9322.822,8733.976 9322.877,8733.829 C 9322.972,8733.974 9323.137,8734.279 9323.329,8734.744 C 9323.365,8734.82 9323.401,8734.896 9323.437,8734.973 C 9323.683,8735.587 9323.793,8735.838 9323.869,8735.951 C 9323.595,8736.294 9323.082,8737.418 9323.076,8737.432 C 9323.067,8737.456 9323.063,8737.482 9323.06,8737.505 C 9323.039,8737.679 9323.141,8737.862 9323.248,8738.054 C 9323.339,8738.216 9323.431,8738.384 9323.419,8738.506 C 9323.405,8738.64 9323.402,8738.818 9323.533,8738.821 C 9323.568,8738.821 9323.594,8738.777 9323.625,8738.755 C 9323.719,8738.903 9323.946,8739.575 9324.031,8739.987 C 9324.112,8740.366 9324.431,8740.695 9324.647,8740.804 C 9324.646,8740.811 9324.646,8740.819 9324.645,8740.825 C 9324.645,8740.825 9324.686,8740.83 9324.729,8740.836 C 9324.743,8740.84 9324.762,8740.855 9324.775,8740.854 C 9324.828,8740.856 9324.915,8740.858 9324.954,8740.766 C 9324.959,8740.754 9324.962,8740.745 9324.964,8740.737 C 9324.975,8740.682 9324.914,8740.669 9324.811,8740.655 C 9324.781,8740.645 9324.744,8740.625 9324.691,8740.587 C 9324.706,8740.573 9324.936,8738.321 9324.971,8737.587 C 9324.927,8738.353 9324.697,8740.506 9324.677,8740.573 C 9324.509,8740.446 9324.281,8740.197 9324.22,8739.901 C 9324.223,8739.89 9323.889,8738.512 9323.673,8738.534 C 9323.653,8738.537 9323.635,8738.54 9323.615,8738.542 C 9323.614,8738.544 9323.613,8738.545 9323.612,8738.546 C 9323.612,8738.513 9323.61,8738.478 9323.61,8738.478 C 9323.628,8738.307 9323.529,8738.129 9323.422,8737.94 C 9323.336,8737.783 9323.236,8737.607 9323.25,8737.488 C 9323.252,8737.476 9323.254,8737.467 9323.258,8737.457 C 9323.353,8737.189 9323.956,8736.09 9324.037,8735.998 C 9324.055,8735.978 9324.072,8735.959 9324.09,8735.939 C 9324.079,8735.919 9324.069,8735.9 9324.058,8735.881 C 9324.032,8735.845 9323.873,8735.509 9323.62,8734.88 C 9323.584,8734.804 9323.548,8734.728 9323.512,8734.652 C 9323.039,8733.524 9322.894,8733.544 9322.831,8733.557 C 9322.831,8733.557 9322.798,8733.564 9322.78,8733.567 C 9322.743,8733.297 9322.652,8732.851 9322.462,8732.819 C 9322.462,8732.819 9322.431,8732.811 9322.389,8732.799 C 9322.463,8732.764 9322.473,8732.735 9322.475,8732.701 C 9322.481,8732.58 9322.222,8732.551 9322.069,8732.545 C 9321.705,8732.527 9321.573,8732.538 9321.517,8732.568 C 9321.441,8732.556 9321.359,8732.545 9321.359,8732.545 C 9321.348,8732.543 9320.063,8732.336 9319.886,8732.456 C 9319.836,8732.508 9319.787,8732.559 9319.738,8732.61 C 9319.687,8732.67 9319.565,8732.81 9319.521,8732.816 C 9319.521,8732.816 9319.305,8732.802 9319.211,8732.798 C 9319.188,8732.75 9319.111,8732.696 9318.662,8732.771 C 9318.348,8732.824 9317.597,8732.714 9317.467,8732.674 C 9317.404,8732.464 9317.064,8731.676 9316.856,8731.228 C 9316.851,8731.218 9316.847,8731.207 9316.842,8731.197 C 9316.842,8731.197 9316.076,8730.845 9315.981,8730.801 C 9315.924,8729.342 9315.886,8729.309 9315.849,8729.281 C 9315.85,8729.28 9315.85,8729.28 9315.851,8729.281 C 9315.851,8729.277 9315.815,8729.217 9315.815,8729.217 C 9315.848,8729.19 9316.346,8728.678 9317.021,8728.141 C 9317.433,8727.813 9317.969,8727.596 9318.326,8727.453 C 9318.626,8727.332 9318.737,8727.287 9318.737,8727.197 C 9318.737,8727.186 9318.735,8727.176 9318.733,8727.166 C 9318.732,8727.162 9318.732,8727.16 9318.732,8727.158 C 9318.731,8727.084 9318.82,8726.791 9318.981,8726.674 C 9319.019,8726.648 9319.057,8726.621 9319.095,8726.596 C 9319.288,8726.468 9319.527,8726.311 9319.555,8726.119 C 9319.534,8726.049 9319.513,8725.978 9319.492,8725.909 C 9319.462,8725.873 9319.448,8725.77 9319.445,8725.63 C 9319.439,8725.306 9319.505,8724.785 9319.664,8724.457 C 9319.73,8724.318 9319.808,8724.24 9319.873,8724.242 C 9320.309,8724.257 9320.787,8724.165 9320.811,8723.927 C 9320.814,8723.899 9320.815,8723.852 9320.812,8723.799 C 9320.805,8723.647 9320.774,8723.428 9320.689,8723.335 C 9320.682,8723.326 9320.675,8723.318 9320.668,8723.311 C 9320.638,8723.3 9320.607,8723.29 9320.577,8723.28 C 9320.577,8723.28 9320.539,8723.27 9320.504,8723.261 C 9320.593,8723.209 9320.697,8723.157 9320.751,8723.158 C 9320.897,8723.165 9321.042,8723.172 9321.187,8723.179 C 9321.187,8723.179 9321.146,8723.128 9321.111,8723.084 C 9321.175,8723.031 9321.387,8722.913 9321.828,8722.771 C 9322.282,8722.622 9322.846,8722.099 9323.179,8721.794 C 9323.259,8721.724 9323.34,8721.653 9323.42,8721.583 C 9323.404,8721.591 9323.474,8721.622 9323.518,8721.673 C 9323.526,8721.691 9323.534,8721.707 9323.541,8721.724 C 9323.537,8721.751 9323.539,8721.843 9323.676,8721.906 C 9323.785,8721.955 9324.03,8721.992 9324.107,8721.886 C 9324.128,8721.859 9324.163,8721.781 9324.054,8721.667 C 9323.966,8721.575 9323.876,8721.366 9323.803,8721.198 C 9323.694,8720.948 9323.627,8720.798 9323.507,8720.772 C 9323.501,8720.77 9322.978,8720.677 9322.962,8720.864 C 9322.973,8720.846 9322.983,8720.83 9322.994,8720.813 C 9322.921,8720.838 9322.469,8720.79 9322.36,8720.618 C 9322.357,8720.612 9322.356,8720.605 9322.355,8720.598 C 9322.339,8720.383 9323.069,8719.469 9323.741,8719.01 C 9323.741,8719.006 9323.699,8718.785 9323.699,8718.785 C 9323.104,8719.16 9321.986,8720.335 9322.198,8720.694 z M 9323.744,8719.012 C 9324.133,8719.431 9325.748,8733.192 9324.973,8737.586 C 9325.803,8732.952 9324.149,8718.988 9323.832,8718.949 C 9323.803,8718.969 9323.773,8718.992 9323.744,8719.012 z"
   id="path501"
   style="fill:#c6c7c8" />
							<path
   d="M 9325.466,8719.012 C 9325.092,8718.983 9325.058,8719.043 9325.052,8719.102 C 9325.051,8719.123 9325.049,8719.143 9325.047,8719.163 C 9325.082,8719.189 9325.117,8719.216 9325.152,8719.241 C 9325.15,8719.239 9325.147,8719.237 9325.144,8719.236 C 9325.205,8719.29 9325.404,8719.719 9325.343,8720.12 C 9325.303,8720.382 9324.954,8720.876 9324.721,8721.21 C 9324.472,8721.562 9324.451,8721.595 9324.475,8721.659 C 9324.515,8721.766 9324.762,8722.011 9324.987,8722.044 C 9325.167,8722.073 9325.79,8722.052 9325.947,8721.895 C 9326.01,8721.833 9326.258,8721.743 9326.406,8721.689 C 9326.563,8721.633 9326.612,8721.607 9326.632,8721.571 C 9326.679,8721.568 9326.875,8721.556 9326.875,8721.556 C 9327.102,8721.565 9327.211,8721.307 9327.181,8721.06 C 9327.181,8721.055 9327.18,8721.05 9327.18,8721.046 C 9327.151,8720.833 9327.026,8720.685 9326.855,8720.659 C 9326.809,8720.653 9326.763,8720.647 9326.717,8720.64 C 9326.542,8720.619 9326.184,8720.573 9326.161,8720.488 C 9326.16,8720.487 9326.136,8720.387 9326.136,8720.387 C 9325.893,8719.406 9325.702,8719.03 9325.466,8719.012 z M 9325.498,8719.193 C 9325.535,8719.21 9325.688,8719.351 9325.943,8720.386 C 9325.953,8720.421 9325.962,8720.455 9325.97,8720.49 C 9326.033,8720.732 9326.405,8720.777 9326.734,8720.817 C 9326.779,8720.823 9326.824,8720.829 9326.868,8720.835 C 9326.957,8720.848 9326.981,8721.01 9326.984,8721.027 C 9326.985,8721.031 9326.985,8721.033 9326.985,8721.036 C 9327.006,8721.21 9326.933,8721.381 9326.841,8721.377 C 9326.474,8721.363 9326.438,8721.425 9326.432,8721.47 C 9326.384,8721.489 9326.305,8721.52 9326.305,8721.52 C 9326.071,8721.604 9325.869,8721.68 9325.791,8721.759 C 9325.696,8721.855 9325.166,8721.892 9324.985,8721.863 C 9324.86,8721.843 9324.688,8721.679 9324.662,8721.627 C 9324.689,8721.628 9324.89,8721.328 9324.89,8721.328 C 9325.148,8720.964 9325.492,8720.476 9325.536,8720.182 C 9325.554,8720.068 9325.554,8719.945 9325.539,8719.823 C 9325.509,8719.576 9325.422,8719.337 9325.322,8719.197 C 9325.403,8719.194 9325.494,8719.193 9325.498,8719.193 z M 9325.465,8719.012 C 9325.467,8719.012 9325.467,8719.012 9325.465,8719.012 C 9325.466,8719.012 9325.466,8719.012 9325.465,8719.012 z"
   id="path503"
   style="fill:#c6c7c8" />
							<path
   d="M 9322.19,8724.434 C 9321.968,8724.491 9321.169,8724.799 9320.967,8724.993 C 9320.698,8725.249 9320.503,8725.446 9320.487,8725.593 C 9320.479,8725.645 9320.504,8725.7 9320.553,8725.759 C 9320.715,8725.941 9321.23,8726.197 9321.871,8726.212 C 9323.32,8726.243 9323.953,8726.252 9324.241,8726.235 C 9324.231,8726.285 9324.223,8726.334 9324.224,8726.397 C 9324.229,8726.619 9324.3,8726.887 9324.516,8726.951 C 9324.674,8727.032 9324.831,8727.113 9324.989,8727.194 C 9325.417,8727.437 9325.664,8727.567 9325.804,8727.484 C 9325.958,8727.391 9326.613,8727.197 9326.901,8727.241 C 9326.901,8727.241 9326.901,8727.095 9326.901,8727.062 C 9326.541,8727.02 9325.866,8727.227 9325.693,8727.331 C 9325.62,8727.341 9325.292,8727.153 9325.093,8727.04 C 9324.919,8726.952 9324.744,8726.864 9324.571,8726.776 C 9324.524,8726.761 9324.494,8726.711 9324.476,8726.67 C 9324.439,8726.591 9324.425,8726.488 9324.423,8726.399 C 9324.421,8726.309 9324.433,8726.236 9324.447,8726.21 C 9324.487,8726.196 9324.491,8726.177 9324.494,8726.154 C 9324.494,8726.154 9324.497,8726.138 9324.499,8726.125 C 9324.527,8726.079 9324.555,8726.036 9324.555,8726.035 C 9324.555,8726.036 9324.451,8726.044 9324.405,8726.048 C 9324.393,8726.046 9324.38,8726.049 9324.362,8726.051 C 9324.231,8726.066 9322.675,8726.04 9321.867,8726.023 C 9321.205,8726.007 9320.717,8725.707 9320.682,8725.613 C 9320.695,8725.53 9320.966,8725.269 9321.095,8725.146 C 9321.271,8724.98 9322.02,8724.679 9322.255,8724.617 C 9322.472,8724.559 9322.845,8724.574 9323.067,8724.648 C 9323.067,8724.648 9323.493,8724.812 9323.6,8724.851 C 9323.655,8724.931 9323.816,8725.087 9324.217,8725.46 C 9324.286,8725.526 9324.356,8725.591 9324.425,8725.655 C 9324.566,8725.789 9324.913,8725.802 9325.473,8725.809 C 9325.767,8725.813 9326.1,8725.818 9326.2,8725.866 C 9326.386,8725.954 9326.566,8725.962 9326.679,8725.885 C 9326.734,8725.848 9326.763,8725.795 9326.761,8725.74 C 9326.761,8725.73 9326.758,8725.719 9326.756,8725.709 C 9326.765,8725.694 9326.832,8725.659 9326.887,8725.639 C 9326.887,8725.603 9326.883,8725.447 9326.883,8725.447 C 9326.803,8725.458 9326.651,8725.526 9326.588,8725.613 C 9326.58,8725.656 9326.572,8725.698 9326.565,8725.74 C 9326.498,8725.761 9326.418,8725.773 9326.284,8725.709 C 9326.138,8725.641 9325.826,8725.635 9325.464,8725.629 C 9325.142,8725.624 9324.652,8725.617 9324.566,8725.534 C 9324.496,8725.469 9324.425,8725.402 9324.355,8725.338 C 9324.179,8725.174 9323.877,8724.891 9323.795,8724.795 C 9323.796,8724.791 9323.797,8724.789 9323.796,8724.785 C 9323.794,8724.726 9323.705,8724.672 9323.122,8724.473 C 9322.857,8724.383 9322.448,8724.365 9322.19,8724.434 z M 9326.889,8725.638 C 9326.897,8725.91 9326.906,8726.808 9326.903,8727.062 C 9326.912,8727.064 9326.921,8727.063 9326.928,8727.065 C 9326.935,8726.584 9326.936,8726.103 9326.931,8725.623 C 9326.92,8725.624 9326.903,8725.633 9326.889,8725.638 z"
   id="path505"
   style="fill:#c6c7c8" />
						</g>
						<g
   id="g507">
							<path
   d="M 9301.573,8728.484 C 9301.569,8728.488 9301.565,8728.492 9301.561,8728.496 C 9301.549,8728.519 9301.538,8728.543 9301.527,8728.566 C 9301.506,8728.607 9301.374,8728.703 9301.329,8728.711 C 9301.281,8728.719 9301.233,8728.726 9301.184,8728.732 C 9301.205,8728.774 9301.224,8728.816 9301.244,8728.857 C 9301.252,8728.869 9301.292,8728.886 9301.334,8728.902 C 9301.333,8728.904 9301.333,8728.904 9301.332,8728.906 C 9301.334,8728.906 9301.335,8728.905 9301.337,8728.905 C 9301.737,8729.062 9303.48,8729.41 9303.683,8729.409 C 9303.916,8729.409 9303.944,8729.285 9303.947,8729.23 C 9303.947,8729.228 9303.947,8729.226 9303.947,8729.224 C 9303.946,8729.013 9303.546,8728.751 9303.328,8728.74 C 9303.328,8728.74 9303.307,8728.737 9303.298,8728.736 C 9303.293,8728.654 9303.231,8728.625 9302.483,8728.582 C 9302.483,8728.58 9302.483,8728.58 9302.483,8728.578 C 9302.482,8728.51 9302.483,8728.451 9301.96,8728.41 C 9301.894,8728.404 9301.672,8728.394 9301.573,8728.484 z M 9301.723,8728.59 C 9301.723,8728.611 9301.712,8728.625 9301.707,8728.629 C 9301.726,8728.614 9301.813,8728.594 9301.943,8728.606 C 9301.943,8728.606 9302.015,8728.616 9302.096,8728.628 C 9302.096,8728.631 9302.089,8728.633 9302.088,8728.637 C 9302.088,8728.638 9302.088,8728.64 9302.088,8728.64 C 9302.092,8728.756 9302.234,8728.764 9302.346,8728.77 C 9302.553,8728.782 9302.868,8728.806 9303.041,8728.825 C 9303.083,8728.91 9303.213,8728.931 9303.314,8728.938 C 9303.479,8728.948 9303.721,8729.146 9303.743,8729.22 C 9303.731,8729.207 9303.679,8729.212 9303.679,8729.212 C 9303.359,8729.213 9302.094,8728.914 9301.587,8728.781 C 9301.662,8728.721 9301.723,8728.649 9301.723,8728.59 z"
   id="path509"
   style="fill:#c6c7c8" />
						</g>
						<g
   id="g511">
							<path
   d="M 9304.814,8729.206 L 9304.814,8729.206 C 9304.813,8729.209 9304.719,8729.383 9304.72,8729.51 C 9304.72,8729.546 9304.732,8729.576 9304.751,8729.599 C 9304.687,8729.626 9304.621,8729.656 9304.621,8729.657 C 9304.616,8729.657 9304.366,8729.738 9304.367,8729.862 C 9304.368,8729.977 9304.368,8729.989 9305.486,8729.993 C 9305.778,8729.995 9306.235,8729.874 9306.339,8729.815 C 9306.449,8729.762 9306.56,8729.709 9306.671,8729.656 C 9306.673,8729.633 9306.676,8729.609 9306.678,8729.586 C 9306.675,8729.519 9306.674,8729.468 9305.587,8729.132 C 9305.287,8729.039 9304.916,8729.024 9304.814,8729.206 z M 9305.529,8729.322 C 9305.753,8729.39 9306.117,8729.513 9306.339,8729.593 C 9306.294,8729.614 9306.237,8729.642 9306.237,8729.642 C 9306.174,8729.677 9305.75,8729.794 9305.486,8729.792 C 9305.325,8729.792 9305.067,8729.788 9304.852,8729.782 C 9304.947,8729.741 9305.049,8729.686 9305.071,8729.628 C 9305.08,8729.603 9305.09,8729.577 9305.098,8729.553 C 9305.085,8729.546 9305.072,8729.538 9305.059,8729.532 C 9305.059,8729.532 9304.985,8729.485 9304.937,8729.455 C 9304.958,8729.392 9304.988,8729.304 9304.988,8729.302 C 9305.015,8729.268 9305.229,8729.229 9305.529,8729.322 z"
   id="path513"
   style="fill:#c6c7c8" />
						</g>
					</g>
				</g>
			</g>
		</g>
		
			<radialGradient
   id="XMLID_107_"
   cx="9309.9775"
   cy="8684.7832"
   r="35.905602"
   gradientTransform="matrix(1,8e-4,-8e-4,1,7.1357,-7.2051)"
   gradientUnits="userSpaceOnUse">
			<stop
   offset="0"
   style="stop-color:#FFFFFF"
   id="stop516" />
			<stop
   offset="1"
   style="stop-color:#000000"
   id="stop518" />
		</radialGradient>
		<circle
   cx="9302.748"
   cy="8679"
   r="17.222"
   id="circle520"
   sodipodi:cx="9302.748"
   sodipodi:cy="8679"
   sodipodi:rx="17.222"
   sodipodi:ry="17.222"
   style="fill:url(#radialGradient4897)" />
	</g><path
     id="text614"
     d="M 15755.947,6320.1987 L 15678.808,6068.1317 L 15722.955,6068.1317 L 15763.068,6213.628 L 15778.021,6267.7441 C 15778.654,6265.0542 15783.005,6247.7276 15791.075,6215.7642 L 15831.187,6068.1317 L 15875.097,6068.1317 L 15912.836,6214.3401 L 15925.416,6262.5224 L 15939.894,6213.8654 L 15983.092,6068.1317 L 16024.629,6068.1317 L 15945.828,6320.1987 L 15901.443,6320.1987 L 15861.331,6169.2433 L 15851.6,6126.2828 L 15800.569,6320.1987 L 15755.947,6320.1987 z M 16135.821,6320.1987 L 16058.682,6068.1317 L 16102.829,6068.1317 L 16142.941,6213.628 L 16157.894,6267.7441 C 16158.527,6265.0542 16162.879,6247.7276 16170.949,6215.7642 L 16211.061,6068.1317 L 16254.971,6068.1317 L 16292.71,6214.3401 L 16305.29,6262.5224 L 16319.768,6213.8654 L 16362.966,6068.1317 L 16404.502,6068.1317 L 16325.702,6320.1987 L 16281.317,6320.1987 L 16241.205,6169.2433 L 16231.473,6126.2828 L 16180.443,6320.1987 L 16135.821,6320.1987 z M 16515.694,6320.1987 L 16438.555,6068.1317 L 16482.703,6068.1317 L 16522.815,6213.628 L 16537.768,6267.7441 C 16538.401,6265.0542 16542.752,6247.7276 16550.822,6215.7642 L 16590.935,6068.1317 L 16634.845,6068.1317 L 16672.584,6214.3401 L 16685.163,6262.5224 L 16699.642,6213.8654 L 16742.84,6068.1317 L 16784.376,6068.1317 L 16705.575,6320.1987 L 16661.191,6320.1987 L 16621.078,6169.2433 L 16611.347,6126.2828 L 16560.316,6320.1987 L 16515.694,6320.1987 z"
     style="font-size:486.09533691px;letter-spacing:28.59384346;fill:#333333;font-family:ArialMT" /></g>
<g
   id="OUTLAND"
   display="none"
   style="display:none"
   transform="translate(44.605786,-3424.7937)">
	<path
   display="inline"
   d="M 18121.891,0 L 18121.891,17875.275 L 0,17875.275 L 0,0 L 18121.891,0 z M 8640,9235.275 L 9481.89,9235.275 L 9481.89,8640 L 8640,8640 L 8640,9235.275 z"
   id="path1431"
   style="fill:#9e9994;display:inline" />
</g>
</svg>